<?xml version="1.0" encoding="utf-8"?>
<!-- Generator: Adobe Illustrator 25.2.1, SVG Export Plug-In . SVG Version: 6.00 Build 0)  -->
<svg version="1.1" id="Lager_1" xmlns="http://www.w3.org/2000/svg" xmlns:xlink="http://www.w3.org/1999/xlink" x="0px" y="0px"
	 viewBox="0 0 750 726" style="enable-background:new 0 0 750 726;" xml:space="preserve">
<style type="text/css">
	.st0{fill:#FFFFFF;stroke:#191919;stroke-width:5.448;stroke-miterlimit:10;}
	.st1{fill:#75BFCB;}
	.st2{fill:none;stroke:#FFFFFF;stroke-width:3.1266;stroke-miterlimit:10;}
	.st3{fill:none;stroke:#75BFCB;stroke-width:6.2531;stroke-linecap:round;stroke-linejoin:round;stroke-miterlimit:10;}
	.st4{fill:#FFFFFF;stroke:#191919;stroke-width:5.2337;stroke-miterlimit:10;}
	.st5{fill:none;stroke:#75BFCB;stroke-width:4.187;stroke-linecap:round;stroke-miterlimit:10;}
	.st6{fill:none;stroke:#191919;stroke-width:5.2337;stroke-linejoin:round;stroke-miterlimit:10;}
	.st7{fill:#FFFFFF;stroke:#191919;stroke-width:5.2337;stroke-linecap:round;stroke-miterlimit:10;}
	.st8{fill:none;stroke:#75BFCB;stroke-width:12.5609;stroke-linecap:round;stroke-miterlimit:10;}
	.st9{fill:#FFFFFF;stroke:#191919;stroke-width:5.2337;stroke-linecap:round;stroke-linejoin:round;stroke-miterlimit:10;}
	.st10{fill:none;stroke:#191919;stroke-width:4.9604;stroke-linecap:round;stroke-linejoin:round;stroke-miterlimit:10;}
	.st11{fill:none;stroke:#191919;stroke-width:3.5509;stroke-linecap:round;stroke-linejoin:round;stroke-miterlimit:10;}
	.st12{fill:none;stroke:#FFFFFF;stroke-width:3.0516;stroke-miterlimit:10;}
	.st13{fill:none;stroke:#75BFCB;stroke-width:6.1033;stroke-linecap:round;stroke-linejoin:round;stroke-miterlimit:10;}
	.st14{fill:none;stroke:#191919;stroke-width:5.2337;stroke-linecap:round;stroke-linejoin:round;stroke-miterlimit:10;}
	.st15{fill:#449298;}
	.st16{fill:none;stroke:#FFFFFF;stroke-width:7.1017;stroke-linecap:round;stroke-linejoin:round;stroke-miterlimit:10;}
	.st17{fill:#71BBCD;}
	.st18{fill:#B6DCE2;}
	.st19{fill:none;stroke:#75BFCB;stroke-width:10.4674;stroke-linecap:round;stroke-linejoin:round;stroke-miterlimit:10;}
</style>
<g>
	<path class="st9" d="M588.58,434.46l-97.98-9.95c-10.96-1.11-18.95-10.9-17.75-22.71l2.34-23.06"/>
	<path class="st9" d="M478.79,343.25l18.57-182.91c1.11-10.96,10.9-18.95,21.87-17.84l101.33,10.29
		c10.96,1.11,18.95,10.9,17.84,21.87l-13.85,120.52"/>
	
		<rect x="547.23" y="149.68" transform="matrix(0.9949 0.101 -0.101 0.9949 18.277 -56.8258)" class="st10" width="45.93" height="4.72"/>
	<circle class="st11" cx="543.8" cy="404.68" r="11.18"/>
	<path class="st1" d="M574.88,354.68l-50-5.08c-12.58-1.28-21.82-12.61-20.54-25.19l10.33-101.74
		c1.28-12.58,12.61-21.82,25.19-20.54l50,5.08c12.58,1.28,21.82,12.61,20.54,25.19l-10.33,101.74
		C598.79,346.71,587.46,355.96,574.88,354.68z"/>
	<polyline class="st16" points="531.77,252.38 573.05,303.5 548.88,334.31 559.82,226.52 577.5,259.76 526.78,301.54 	"/>
	<g>
		<path class="st4" d="M51.71,458.29c0,0,143.67-90.26,159.95-109.76s72.78-124.54,93.9-133.79c21.12-9.25,22.68,13.13,36.76,15.57
			c14.08,2.43,19.76-11.13,34.69-6.73c14.93,4.4,11.18,29.75,13.57,31.47c2.39,1.71,22.2,0.58,26.45,7.25s-0.24,24.25,1.88,27.59
			s24.11,11.95,23.23,26.2c-0.87,14.25-6.45,15.27-10.93,29.68c-4.48,14.42-11.56,38.73-18.75,46.23
			c-7.2,7.49-105.4,37.77-128.76,52.65C260.35,459.51,124.18,596.8,124.18,596.8s-34.27-24.13-52.6-68.1
			C55.5,490.14,51.71,458.29,51.71,458.29z"/>
		<path class="st1" d="M301.09,431.69l-26.42,26.06c-2.45,2.42-6.43,2.39-8.85-0.06l-84.24-85.38c-2.42-2.45-2.39-6.43,0.06-8.85
			l26.42-26.06c2.45-2.42,6.43-2.39,8.85,0.06l84.24,85.38C303.57,425.29,303.54,429.28,301.09,431.69z"/>
		
			<ellipse transform="matrix(0.8254 -0.5645 0.5645 0.8254 -191.1015 223.6863)" class="st12" cx="266.09" cy="420.8" rx="12.73" ry="15.84"/>
		<path class="st1" d="M166.11,379.88c0,0,2.65-28.86,17.7-36.58s28.09,1.19,28.09,1.19l-20.54,21.65l-4.28-0.11L166.11,379.88z"/>
		<path class="st1" d="M251.64,476.18c0,0,28.53,5.06,39.96-7.42c11.42-12.48,4.34-40.52,4.34-40.52l-24.82,22.8l0.7,4.8
			L251.64,476.18z"/>
		<path class="st13" d="M113.94,580.84c1.25-18.1-52.66-112.73-33.52-121.24c19.13-8.51,62.19,71.29,76.54,72.1
			s-36.03-88.32-21.05-99.72c14.98-11.4,47.39,58.04,63.46,53.3c16.07-4.73,1.95-29.93,1.95-29.93"/>
	</g>
	<path class="st14" d="M480.44,310.46c0,0-35.01-40.36-27.53-53.9c11.59-20.97,34.51,6.66,34.51,6.66l2.98-29.39
		c0,0-18.41-26.42-16.11-38.56c3.74-19.78,19.3-7.58,19.3-7.58"/>
	<path class="st14" d="M577.5,478.83c0,0,1.01-14.67,7.59-32.91c7.66-21.26,22.93-31.33,27.37-49.24
		c2.97-11.98,1.43-76.97,6.41-91.94c3.27-9.81,14.09-18.08,21.15-22.61c2.95-1.89,6.86-0.09,7.32,3.38
		c2.61,19.96,10.08,75.85,13.58,89.07c4.28,16.16,2.14,109.04,2.14,109.04l27.79,66.28c0,0-21.38,32.07-48.64,43.83
		c-21.15,9.12-60.25,5.35-60.25,5.35l-21.53-70.55c0,0-48.87-24.23-66.22-46.32c-10.73-13.67-41.73-74.88-44.22-93.04
		c-1.46-10.61-0.78-30.07,2.24-34.88c3.77-6.01,37.82-13.57,42.09-13.57c4.28,0,4.57,10.64,0.29,22.26s-27.19,18.58-27.19,18.58"/>
	<path class="st1" d="M635.72,288.35c0,0-0.6,20.4,2.71,22.5s9.86,0.93,9.86,0.93s0.52-21.78-2.07-27.94
		C645.1,281.16,635.72,288.35,635.72,288.35z"/>
	<path class="st1" d="M474.71,348.22c0,0-1.34,8.94,0.8,10.55s16.78-2.53,18.01-4.13s2.94-8.61,0.96-10.99
		S474.71,348.22,474.71,348.22z"/>
</g>
</svg>
