<svg xmlns="http://www.w3.org/2000/svg" width="496" height="496" viewBox="0 0 100 100">
<symbol id="holdphone-icon">
  <g transform="matrix(1 0 0 1 10 6)" id="1Tw6wTlaw9xuwbnaFDV2k">
<path style="stroke: none; stroke-width: 1; stroke-dasharray: none; stroke-linecap: butt; stroke-dashoffset: 0; stroke-linejoin: miter; stroke-miterlimit: 4; fill: currentColor; fill-rule: nonzero; opacity: 1;" vector-effect="non-scaling-stroke"  transform=" translate(-11.5, -16.75)" d="M 19 16 L 17 16 C 17 14.8 16.25 13.72 15.129999999999999 13.3 L 8.97 11 L 1 11 L 1 22 L 7 22 L 7 20.56 L 14 22.5 L 22 20 L 22 19 C 22 17.34 20.66 16 19 16 z M 3 20 L 3 13 L 5 13 L 5 20 L 3 20 z M 13.97 20.41 L 7 18.48 L 7 13 L 8.61 13 L 14.43 15.17 C 14.77 15.3 15 15.63 15 16 C 15 16 13.01 15.95 12.7 15.85 L 10.32 15.059999999999999 L 9.69 16.959999999999997 L 12.07 17.749999999999996 C 12.58 17.919999999999998 13.11 18.009999999999998 13.65 18.009999999999998 L 19 18.009999999999998 C 19.39 18.009999999999998 19.74 18.24 19.9 18.569999999999997 L 13.97 20.41 z" stroke-linecap="round" />
</g>
<g transform="matrix(2.79 0 0 0.44 22.62 5.5)" id="IMQO1FagZs56Q5tt2Zi87">
<path style="stroke: rgb(107,188,88); stroke-width: 0; stroke-dasharray: none; stroke-linecap: butt; stroke-dashoffset: 0; stroke-linejoin: miter; stroke-miterlimit: 4; fill: currentColor; fill-rule: nonzero; opacity: 1;" vector-effect="non-scaling-stroke"  transform=" translate(0, 0)" d="M -3 -3 L 3 -3 L 3 3 L -3 3 z" stroke-linecap="round" />
</g>
</symbol>
</svg>
