<?xml version="1.0" encoding="utf-8"?>
<svg version="1.1" id="Layer_1" xmlns="http://www.w3.org/2000/svg" xmlns:xlink="http://www.w3.org/1999/xlink" x="0px" y="0px"
	 viewBox="0 0 175.93 175.27" style="enable-background:new 0 0 175.93 175.27;" xml:space="preserve">
<style type="text/css">
	.st0{fill:#71bbcd;}
	.st1{fill:#FFFFFF;}
</style>
<path class="st0" d="M175.93,13.48V161.8c0,7.41-6.09,13.48-13.53,13.48H13.53C6.09,175.27,0,169.21,0,161.8V13.48
	C0,6.07,6.09,0,13.53,0H162.4C169.84,0,175.93,6.07,175.93,13.48z"/>
<path class="st1" d="M175.27,112.63v10.72h-42.47c-2.57,0-4.77-1.82-5.26-4.34l-8.61-44.8c-0.01-0.06-0.09-0.06-0.1,0l-23.5,74.43
	c-0.63,2.35-2.75,3.96-5.17,3.96H90c-2.49-0.09-4.59-1.86-5.09-4.3L61.82,52.67c-0.01-0.06-0.09-0.06-0.1,0l-16.53,66.62
	c-0.6,2.39-2.74,4.07-5.2,4.07H0v-10.72h35.75c0.02,0,0.04-0.02,0.06-0.04l21.3-85.85c0.61-2.44,2.82-4.13,5.32-4.08
	c2.5,0.06,4.64,1.85,5.13,4.31l23.32,96.74c0.01,0.06,0.09,0.06,0.1,0.01l23.63-74.93c0.65-2.41,2.88-4.07,5.38-3.96
	c2.48,0.09,4.59,1.89,5.05,4.35l12.18,63.4c0.01,0.02,0.03,0.04,0.06,0.04H175.27z"/>
</svg>
