<?xml version="1.0" encoding="UTF-8"?><svg id="Lager_1" xmlns="http://www.w3.org/2000/svg" viewBox="0 0 347.74 385.78"><defs><style>.cls-1{fill:#71bbcf;}.cls-2{stroke:#71bbcf;stroke-linecap:round;stroke-linejoin:round;stroke-width:3.38px;}.cls-2,.cls-3{fill:none;}.cls-4{fill:#191919;}.cls-3{stroke:#191919;stroke-miterlimit:10;stroke-width:2.5px;}</style></defs><polygon class="cls-4" points="146.78 235.14 145.3 236 143.82 236.85 127.58 236.85 126.1 236 124.62 235.14 126.1 234.29 127.58 233.44 143.82 233.44 145.3 234.29 146.78 235.14"/><polygon class="cls-4" points="146.78 211.93 145.3 212.78 143.82 213.64 127.58 213.64 126.1 212.78 124.62 211.93 126.1 211.08 127.58 210.22 143.82 210.22 145.3 211.08 146.78 211.93"/><polygon class="cls-4" points="124.62 234.39 123.77 232.91 122.92 231.43 122.92 215.19 123.77 213.71 124.62 212.23 125.48 213.71 126.33 215.19 126.33 231.43 125.48 232.91 124.62 234.39"/><polygon class="cls-4" points="146.72 258.35 145.24 259.2 143.76 260.05 127.52 260.05 126.04 259.2 124.56 258.35 126.04 257.49 127.52 256.64 143.76 256.64 145.24 257.49 146.72 258.35"/><polygon class="cls-4" points="147.21 257.96 146.35 256.48 145.5 255 145.5 238.77 146.35 237.29 147.21 235.8 148.06 237.29 148.91 238.77 148.91 255 148.06 256.48 147.21 257.96"/><polygon class="cls-4" points="189.79 211.56 188.31 212.41 186.83 213.26 170.6 213.26 169.12 212.41 167.64 211.56 169.12 210.7 170.6 209.85 186.83 209.85 188.31 210.7 189.79 211.56"/><polygon class="cls-4" points="167.21 234.38 166.36 232.9 165.5 231.42 165.5 215.19 166.36 213.71 167.21 212.23 168.06 213.71 168.92 215.19 168.92 231.42 168.06 232.9 167.21 234.38"/><polygon class="cls-4" points="190.28 234.38 189.43 232.9 188.57 231.42 188.57 215.19 189.43 213.71 190.28 212.23 191.13 213.71 191.99 215.19 191.99 231.42 191.13 232.9 190.28 234.38"/><polygon class="cls-4" points="189.73 257.97 188.25 258.83 186.77 259.68 170.54 259.68 169.06 258.83 167.58 257.97 169.06 257.12 170.54 256.27 186.77 256.27 188.25 257.12 189.73 257.97"/><polygon class="cls-4" points="167.15 257.59 166.29 256.1 165.44 254.62 165.44 238.39 166.29 236.91 167.15 235.43 168 236.91 168.86 238.39 168.86 254.62 168 256.1 167.15 257.59"/><polygon class="cls-4" points="124.62 257.96 123.77 256.48 122.92 255 122.92 238.77 123.77 237.29 124.62 235.8 125.48 237.29 126.33 238.77 126.33 255 125.48 256.48 124.62 257.96"/><polygon class="cls-4" points="190.22 257.59 189.37 256.1 188.51 254.62 188.51 238.39 189.37 236.91 190.22 235.43 191.07 236.91 191.93 238.39 191.93 254.62 191.07 256.1 190.22 257.59"/><polygon class="cls-4" points="220.98 211.56 219.5 212.41 218.02 213.27 201.79 213.27 200.31 212.41 198.83 211.56 200.31 210.71 201.79 209.85 218.02 209.85 219.5 210.71 220.98 211.56"/><polygon class="cls-4" points="198.4 234.39 197.55 232.91 196.69 231.43 196.69 215.19 197.55 213.71 198.4 212.23 199.25 213.71 200.11 215.19 200.11 231.43 199.25 232.91 198.4 234.39"/><polygon class="cls-4" points="221.47 234.39 220.62 232.91 219.76 231.43 219.76 215.19 220.62 213.71 221.47 212.23 222.32 213.71 223.18 215.19 223.18 231.43 222.32 232.91 221.47 234.39"/><polygon class="cls-4" points="220.92 257.98 219.44 258.83 217.96 259.68 201.73 259.68 200.25 258.83 198.77 257.98 200.25 257.12 201.73 256.27 217.96 256.27 219.44 257.12 220.92 257.98"/><polygon class="cls-4" points="198.34 257.59 197.48 256.11 196.63 254.63 196.63 238.4 197.48 236.92 198.34 235.44 199.19 236.92 200.04 238.4 200.04 254.63 199.19 256.11 198.34 257.59"/><polygon class="cls-4" points="221.41 257.59 220.56 256.11 219.7 254.63 219.7 238.4 220.56 236.92 221.41 235.44 222.26 236.92 223.12 238.4 223.12 254.63 222.26 256.11 221.41 257.59"/><circle class="cls-4" cx="156.99" cy="226.99" r="3.12"/><circle class="cls-4" cx="156.99" cy="242.51" r="3.12"/><path class="cls-1" d="M173.87,132.03c-56.58,0-102.46,45.87-102.46,102.46s45.88,102.47,102.46,102.47,102.47-45.87,102.47-102.47-45.88-102.46-102.47-102.46Zm0,188.18c-47.34,0-85.71-38.37-85.71-85.72s38.37-85.71,85.71-85.71,85.72,38.37,85.72,85.71-38.38,85.72-85.72,85.72Z"/><path class="cls-2" d="M259.59,234.49c0,47.35-38.38,85.72-85.72,85.72s-85.71-38.37-85.71-85.72,38.37-85.71,85.71-85.71,85.72,38.37,85.72,85.71Z"/><path class="cls-1" d="M169.64,112.49h8.46c3.19,0,5.79,2.59,5.79,5.79v19.58h-20.04v-19.58c0-3.19,2.59-5.79,5.79-5.79Z"/><path class="cls-1" d="M244.97,148.36h8.46c3.19,0,5.79,2.59,5.79,5.79v25.29h-20.04v-25.29c0-3.19,2.59-5.79,5.79-5.79Z" transform="translate(188.89 -128.2) rotate(45)"/><rect class="cls-1" x="155.07" y="109.2" width="37.6" height="11.05" rx="4.02" ry="4.02"/><circle class="cls-3" cx="173.87" cy="234.49" r="77.66"/></svg>