<?xml version="1.0" encoding="UTF-8"?><svg id="Lager_1" xmlns="http://www.w3.org/2000/svg" viewBox="0 0 347.74 366.53"><defs><style>.cls-1{font-family:CirceRounded-Regular, 'Circe Rounded';font-size:18px;}.cls-1,.cls-2{fill:#fff;}.cls-3{letter-spacing:-.02em;}.cls-4{letter-spacing:0em;}.cls-5{fill:#71bbcf;}.cls-6{stroke-width:6.75px;}.cls-6,.cls-2,.cls-7,.cls-8{stroke-linecap:round;}.cls-6,.cls-2,.cls-7,.cls-9{stroke:#191919;}.cls-6,.cls-2,.cls-8{stroke-linejoin:round;}.cls-6,.cls-7,.cls-8,.cls-9{fill:none;}.cls-2,.cls-7{stroke-width:2.5px;}.cls-10{fill:#191919;}.cls-7,.cls-9{stroke-miterlimit:10;}.cls-11{letter-spacing:-.03em;}.cls-8{stroke:#71bbcf;stroke-width:1.85px;}.cls-9{stroke-width:1.37px;}</style></defs><path class="cls-2" d="M68.67,348.32V102.77c0-12.29,9.96-22.25,22.25-22.25H239.31c12.29,0,22.25,9.96,22.25,22.25v245.55"/><rect class="cls-6" x="134.87" y="83.23" width="62.5" height="6.42"/><path class="cls-7" d="M79.85,348.32V138.26c0-2.26,1.85-4.1,4.1-4.1H245.61c2.26,0,4.1,1.85,4.1,4.1v210.06"/><polygon class="cls-10" points="151.25 231.54 150.44 232.01 149.62 232.48 140.71 232.48 139.9 232.01 139.09 231.54 139.9 231.08 140.71 230.61 149.62 230.61 150.44 231.08 151.25 231.54"/><polygon class="cls-10" points="151.25 218.8 150.44 219.27 149.62 219.74 140.71 219.74 139.9 219.27 139.09 218.8 139.9 218.33 140.71 217.86 149.62 217.86 150.44 218.33 151.25 218.8"/><polygon class="cls-10" points="139.09 231.13 138.62 230.32 138.15 229.5 138.15 220.59 138.62 219.78 139.09 218.97 139.56 219.78 140.02 220.59 140.02 229.5 139.56 230.32 139.09 231.13"/><polygon class="cls-10" points="151.22 244.28 150.4 244.75 149.59 245.22 140.68 245.22 139.87 244.75 139.05 244.28 139.87 243.81 140.68 243.34 149.59 243.34 150.4 243.81 151.22 244.28"/><polygon class="cls-10" points="151.48 244.07 151.02 243.25 150.55 242.44 150.55 233.53 151.02 232.72 151.48 231.91 151.95 232.72 152.42 233.53 152.42 242.44 151.95 243.25 151.48 244.07"/><polygon class="cls-10" points="174.86 218.59 174.05 219.06 173.24 219.53 164.33 219.53 163.51 219.06 162.7 218.59 163.51 218.13 164.33 217.66 173.24 217.66 174.05 218.13 174.86 218.59"/><polygon class="cls-10" points="174.86 231.33 174.05 231.8 173.24 232.27 164.33 232.27 163.51 231.8 162.7 231.33 163.51 230.87 164.33 230.4 173.24 230.4 174.05 230.87 174.86 231.33"/><polygon class="cls-10" points="162.46 231.13 162 230.31 161.53 229.5 161.53 220.59 162 219.78 162.46 218.96 162.93 219.78 163.4 220.59 163.4 229.5 162.93 230.31 162.46 231.13"/><polygon class="cls-10" points="174.83 244.07 174.01 244.54 173.2 245.01 164.29 245.01 163.48 244.54 162.67 244.07 163.48 243.61 164.29 243.14 173.2 243.14 174.01 243.61 174.83 244.07"/><polygon class="cls-10" points="175.1 243.86 174.63 243.05 174.16 242.24 174.16 233.33 174.63 232.51 175.1 231.7 175.56 232.51 176.03 233.33 176.03 242.24 175.56 243.05 175.1 243.86"/><polygon class="cls-10" points="191.98 218.6 191.17 219.07 190.36 219.53 181.45 219.53 180.63 219.07 179.82 218.6 180.63 218.13 181.45 217.66 190.36 217.66 191.17 218.13 191.98 218.6"/><polygon class="cls-10" points="191.98 231.34 191.17 231.81 190.36 232.27 181.45 232.27 180.63 231.81 179.82 231.34 180.63 230.87 181.45 230.4 190.36 230.4 191.17 230.87 191.98 231.34"/><polygon class="cls-10" points="179.59 231.13 179.12 230.32 178.65 229.5 178.65 220.59 179.12 219.78 179.59 218.97 180.05 219.78 180.52 220.59 180.52 229.5 180.05 230.32 179.59 231.13"/><polygon class="cls-10" points="192.25 231.13 191.78 230.32 191.31 229.5 191.31 220.59 191.78 219.78 192.25 218.97 192.72 219.78 193.19 220.59 193.19 229.5 192.72 230.32 192.25 231.13"/><polygon class="cls-10" points="191.95 244.08 191.14 244.55 190.32 245.01 181.41 245.01 180.6 244.55 179.79 244.08 180.6 243.61 181.41 243.14 190.32 243.14 191.14 243.61 191.95 244.08"/><polygon class="cls-10" points="192.22 243.87 191.75 243.05 191.28 242.24 191.28 233.33 191.75 232.52 192.22 231.7 192.68 232.52 193.15 233.33 193.15 242.24 192.68 243.05 192.22 243.87"/><circle class="cls-10" cx="156.85" cy="227.07" r="1.71"/><circle class="cls-10" cx="156.85" cy="235.59" r="1.71"/><path class="cls-5" d="M166.12,174.94c-31.06,0-56.24,25.18-56.24,56.24s25.18,56.25,56.24,56.25,56.25-25.18,56.25-56.25-25.18-56.24-56.25-56.24Zm0,103.3c-25.99,0-47.05-21.06-47.05-47.05s21.06-47.05,47.05-47.05,47.05,21.06,47.05,47.05-21.07,47.05-47.05,47.05Z"/><path class="cls-8" d="M213.17,231.18c0,25.99-21.07,47.05-47.05,47.05s-47.05-21.06-47.05-47.05,21.06-47.05,47.05-47.05,47.05,21.06,47.05,47.05Z"/><path class="cls-5" d="M166.12,164.21h0c3.04,0,5.5,2.46,5.5,5.5v8.42h-11v-8.42c0-3.04,2.46-5.5,5.5-5.5Z"/><path class="cls-5" d="M207.47,183.91h0c3.04,0,5.5,2.46,5.5,5.5v11.56h-11v-11.56c0-3.04,2.46-5.5,5.5-5.5Z" transform="translate(196.84 -90.34) rotate(45)"/><rect class="cls-5" x="155.8" y="162.41" width="20.64" height="6.07" rx="3.03" ry="3.03"/><circle class="cls-9" cx="166.12" cy="231.18" r="42.63"/><rect class="cls-5" x="111.47" y="312.31" width="109.31" height="23.1" rx="11.55" ry="11.55"/><text class="cls-1" transform="translate(127.18 329.71)"><tspan class="cls-11" x="0" y="0">C</tspan><tspan x="11.14" y="0">omple</tspan><tspan class="cls-3" x="60.55" y="0">t</tspan><tspan class="cls-4" x="66.42" y="0">e</tspan></text></svg>