<?xml version="1.0" encoding="UTF-8"?><svg id="Lager_1" xmlns="http://www.w3.org/2000/svg" viewBox="0 0 347.74 387.82"><defs><style>.cls-1,.cls-2,.cls-3,.cls-4,.cls-5,.cls-6,.cls-7,.cls-8,.cls-9{stroke-linecap:round;}.cls-1,.cls-3,.cls-5,.cls-7,.cls-8{fill:none;}.cls-1,.cls-4,.cls-5,.cls-7{stroke-width:2px;}.cls-1,.cls-5,.cls-6,.cls-9{stroke:#010101;}.cls-1,.cls-6,.cls-7{stroke-miterlimit:10;}.cls-2,.cls-3,.cls-4,.cls-5,.cls-8,.cls-9{stroke-linejoin:round;}.cls-2,.cls-4{stroke:#191919;}.cls-2,.cls-10{fill:#71bbcf;}.cls-2,.cls-6,.cls-9{stroke-width:2.5px;}.cls-3{stroke-width:1.77px;}.cls-3,.cls-7,.cls-8{stroke:#71bbcf;}.cls-4,.cls-6,.cls-9{fill:#fff;}.cls-8{stroke-width:1.74px;}</style></defs><path class="cls-9" d="M134.54,108.61c-6.48,19.75-7.28,66.02-5.4,81.53,1.78,14.72,13.27,17.68,33.07,18.09,19.8,.41,31.13,2.5,35.3-3.8,5.74-8.69,6.88-26.48,6.88-26.48,0,0,24.16-3.62,21.1-20.25-3.56-19.39-17.17-6.08-17.17-6.08,0,0,2.14-36.47-4.73-40.82-7.93-5.02-23.04,.09-37.62-1.24-16.6-1.51-29.06-8.16-31.42-.94Z"/><path class="cls-6" d="M126.54,165.91s-16.9-9.32-10.97-22.85c4.93-11.24,13.66-.9,13.66-.9"/><path class="cls-1" d="M206.17,164.59s1.16-4.77,4.87-7.49,7.1-1.28,7.1-1.28"/><path class="cls-1" d="M121.83,148.04s2.87-.36,4.31,1.12c1.44,1.48,2.09,5.64,2.09,5.64"/><path class="cls-5" d="M159.2,156.46s-5.54-3.7-3.4-6.74c2.14-3.04,7.25,.58,7.25,.58"/><line class="cls-3" x1="176.85" y1="152.1" x2="184.54" y2="155.63"/><line class="cls-3" x1="149.05" y1="149.89" x2="142.44" y2="152.35"/><path class="cls-10" d="M175.22,129.14s-1.91,9.18-.79,9.92c1.12,.73,15.19-.08,15.19-.08,0,0,1.28-6.01-1.01-7.48-2.3-1.47-13.39-2.35-13.39-2.35Z"/><line class="cls-8" x1="171.84" y1="135.11" x2="172.33" y2="128.91"/><path class="cls-10" d="M153.56,128.03s.28,8.29-.69,8.68-14.42-1.15-14.42-1.15c0,0,.04-6.4,2.32-7.62,2.28-1.22,12.79,.08,12.79,.08Z"/><line class="cls-3" x1="155.13" y1="133.26" x2="155.62" y2="127.13"/><path class="cls-10" d="M145.9,80.93s3.31-7.61,9.27-7.43c5.96,.18,7.98,6.03,7.98,6.03,0,0,4.82-1.95,5.86-4.05s2.51,3.26,4.46,4.44c1.95,1.18,2.12,2.65,6.52,2.41,4.39-.23,5.4-6.43,9.95-5.48s5.24,5.23,5.24,5.23c0,0,3.6-3.08,7.64-.71,4.04,2.37,3.89,7.9,3.89,7.9,0,0,1.09,.96,3.4-.6s2.98-.78,2.98-.78c0,0,2.13,4.4,1.73,7.57-.4,3.18,4.06-1.57,5.97,1.93,1.91,3.51-3.29,6.59,.17,8.91,3.46,2.32,7.74,3.53,8.18,7.21s-4.35,8.84-4.35,8.84c0,0,5.1,.02,5.3,4.89s-5.43,7.78-5.2,10.43c.23,2.64,3.33,.26,3.33,.26,0,0,4.35,3.99,1.63,7.06-2.72,3.06-4.62,6.8-4.62,6.8,0,0-1.43-6.1-8.31-6.1-4.33,0-10.49,5.97-10.49,5.97,0,0,2.1-31.92-3.51-38.34-5.61-6.43-19.1-.06-38.05-2-19.53-2-23.75-6.55-27.17-3.04-3.43,3.52-7.11,34.43-7.11,34.43l-5.54-5.54s-5.53-3.79-3.37-7.12,1.9-1.69,2.51-5.73c.53-3.51-5.04-8.33-3.36-11.11,1.68-2.78-.38-.76,2.62,.06,3,.82,4.54-2.12,4.13-2.44s-6.77-6.52-3.35-11.06c3.42-4.54,5.03-4.56,5.03-4.56,0,0-5.36-7.28-1.36-11.05,4-3.77,6.47,.08,7.25-2.49,.79-2.56-.57-3.84,1.87-3.35,2.44,.49,8.9,2.6,8.9,2.6Z"/><line class="cls-3" x1="199.49" y1="152.59" x2="205.09" y2="148.19"/><line class="cls-3" x1="199.13" y1="157.25" x2="204.71" y2="153.01"/><line class="cls-3" x1="199.85" y1="160.93" x2="204.34" y2="157.66"/><path class="cls-9" d="M204.28,224.34s-15.6-4.51-17.63-9.45c-2.04-4.94-3.02-13.96-3.02-13.96h-37.86s1.87,9.89,0,12.5-14.37,7.85-14.37,7.85c0,0,4.36,30.53,5.81,30.53s64.54-2.62,64.54-2.62l2.51-24.86Z"/><path class="cls-10" d="M127.7,154.61s13.23,31.43,18.27,33.97c5.05,2.54,26.37,4.79,30.64,2.41,4.27-2.38,30.51-31.88,30.51-31.88,0,0-.96,33.36-7.51,45.9-4.85,9.29-17.16,7.56-36.53,6.23-19.16-1.32-29.3-.81-36.52-7.8-7.22-6.99,1.13-48.83,1.13-48.83Z"/><path class="cls-2" d="M56.73,300.99s40.92,20.9,107.61,20.9c69.94,0,118.3-20.9,118.3-20.9-8.27-23.13-19.2-53.26-20.79-55.39-2.62-3.49-61.78-25.01-61.78-25.01,0,0-9.75,10.18-32.28,12.5-22.53,2.33-38.13-13.46-38.13-13.46,0,0-50.41,23.94-53.01,26.84-1.51,1.67-11.53,30.16-19.91,54.52Z"/><path class="cls-5" d="M185.71,143.8c-2.79-.35-8.7,2.32-8.7,2.32,0,0,3.8-.36,8.36,1.83"/><path class="cls-5" d="M142.56,139.29c2.81,.1,8.22,3.67,8.22,3.67,0,0-3.7-.96-8.55,.49"/><path class="cls-1" d="M162.83,174.46c6.67,.25,12.64,2.77,14.16,.17,3.55-6.08-7.51-7.89-10.99-8.56-2.35-.45-10.98-.99-14.85,3.26-.83,.91-2.59,2.99-.14,4.93"/><line class="cls-1" x1="172.22" y1="175.31" x2="173.51" y2="168.11"/><line class="cls-1" x1="166.3" y1="174.42" x2="166.85" y2="166.71"/><path class="cls-4" d="M179.74,327.33c2.63-1.67,9.66-7.88,9.66-7.88l14.22-10.67s2.73-1.51,7.4-4.51c5.11-3.28,12.66-7.11,14.1-10.15,.78-1.64-.88-6.04-.88-6.04l-26.63,12.08,.03-1.6s21.42-17.84,24.99-24.61c1.32-2.5,1.37-4.71-.15-6.76-.35-.47-1.93-.18-1.67-.66,2.56-4.62-1.25-9.05-2.31-8.43-2.85,1.66-33.45,25.6-33.45,25.6l-1.75-2.29,8.37-14.05s10.06-11.43,9.62-15.59c-.19-1.75-2.29-3.29-4.19-3.01-1.15,.17-12.88,14.2-12.88,14.2l-12.79,13.46-5.88,6.22-7.61,6.39-1.5-1.48-.04-9.31s2.56-8.78,2.7-11.63c.25-5.12-2.47-6.73-2.47-6.73,0,0-3.1-2.22-3.44-1.36-2.48,6.28-8.1,23.49-8.1,23.49l-1.62,18.22,1.27,15.17-34.29,29.41s-1.82,9.65,7.57,20.07c8.59,9.52,18.93,10.33,18.93,10.33l29.39-41.49s10.25-4.38,13.38-6.35Z"/><line class="cls-4" x1="205.35" y1="279.1" x2="193.19" y2="288.82"/><path class="cls-10" d="M156.52,261.56c.38,1.56-.43,4.31-1.64,5.32s-4.32-1.11-4.32-1.11c0,0,1.73-5.49,2.52-6.53,1.07-1.41,3.17,1.17,3.45,2.32Z"/><path class="cls-10" d="M200.71,250.84c-.16,1.26-1.93,3.8-3.12,4.2s-2.74-2.22-2.74-2.22c0,0,2.28-3.44,3.16-3.98,1.19-.74,2.82,1.07,2.7,2Z"/><path class="cls-10" d="M220.62,261.69c-.26,1.24-1.47,2.64-2.69,2.95s-2.57-2.42-2.57-2.42c0,0,1.8-2.25,2.72-2.73,1.24-.65,2.74,1.27,2.55,2.19Z"/><path class="cls-10" d="M223.08,270.07c-.34,1.22-1.8,2.86-3.03,3.09-1.23,.23-2.4-2.59-2.4-2.59,0,0,2.1-2.45,3.05-2.86,1.29-.56,2.64,1.46,2.39,2.36Z"/><path class="cls-10" d="M225.24,291.75c-.55,.93-2.77,2.34-3.84,2.26s-1.41-2.65-1.41-2.65c0,0,2.93-1.94,3.8-2.07,1.18-.18,1.86,1.77,1.45,2.46Z"/><path class="cls-7" d="M158.59,333.59s-11.92-9.09-16.32-4.73c-3.35,3.31,8.32,14.36,4.44,18.46-4.68,4.94-11.99-10.09-16.66-5.42-5.58,5.59,7.21,15.09,3.1,20.07-4.91,5.95-15.09-8.06-18.93-4.46"/></svg>