<?xml version="1.0" encoding="UTF-8"?><svg id="Lager_1" xmlns="http://www.w3.org/2000/svg" viewBox="0 0 347.74 357.43"><defs><style>.cls-1,.cls-2,.cls-3,.cls-4{stroke:#191919;}.cls-1,.cls-2,.cls-3,.cls-4,.cls-5{stroke-linecap:round;stroke-linejoin:round;stroke-width:2.5px;}.cls-1,.cls-5{fill:none;}.cls-6,.cls-2{fill:#72bbd0;}.cls-7{fill:#459399;}.cls-3{fill:#76c0cc;}.cls-4{fill:#fff;}.cls-5{stroke:#000;}</style></defs><path class="cls-6" d="M112.2,197.06c4.06,2.47,.1,63.04,5.05,63.15,4.95,.11,157.39-26.06,157.39-26.06l-19.52-86.08-142.92,48.98Z"/><path class="cls-6" d="M232.51,130.06s-15.88-14.14-15.91-20.42c-.03-6.28,2.5-27.55,2.5-27.55h7.34l-2.18,19.36,21.31,11.53-13.06,17.09Z"/><path class="cls-1" d="M226.45,82.09s-4.2,16.83-2.18,19.36c2.03,2.53,14.79,6.05,14.79,6.05"/><path class="cls-2" d="M114.94,215.28c-.35,23.81-2.73,88.83-2.73,88.83,0,0,6.29,5.64,63.9,10.52,57.21,4.85,87.88-10.55,87.88-10.55l2.31-81.36"/><path class="cls-1" d="M114.02,242.65l-11.97,65.65c-.55,.04-12.12,.42-27.9-.03-11.27-.32-25.7-8.36-25.7-8.36l7.61-48.07"/><path class="cls-2" d="M256.82,167.62s6.17,38.24,6.22,45.21,2.86,49.15,2.86,49.15c0,0,3.12,.15,9.09-1.75,23.48-7.5,24.32-17.16,24.32-17.16l-10.23-18.51-3.39,3.11s-10.15-97.79-9.54-100.55c.6-2.76-4.82-8.55-12.22-11.77-8.51-3.7-24.44-10.28-24.44-10.28,0,0-7.08,36.19-39.78,28.76-32.7-7.43-43.69-41.57-43.69-41.57,0,0-58.03,14.51-63.76,18.04-5.73,3.53-29.47,48.89-29.47,48.89l-8.27,.29s-2.82,16-.96,24.43c.47,2.12,16.49-1.93,31.11,2.28,19.5,5.62,32.63,31,32.63,31,0,0,9.28-10.1,9.28-14.74,0-2.74-3.16-8.3-3.16-8.3l4.6-3.07"/><path class="cls-1" d="M265.46,302.62s3.98-1.16,5.27-1.62c6.8-2.45,8.13-3.7,8.13-3.7l-3.88-37.09"/><path class="cls-5" d="M74.4,162.32s9.48-2.01,22.85,5.62c20.3,11.59,24.12,21.27,24.12,21.27"/><path class="cls-5" d="M103.31,162.58s16.02,5.64,23.25,21.31"/><path class="cls-3" d="M90.1,212.21s11.37,1.17,18.32,4.96c6.95,3.79,8.87,9.64,8.87,9.64l-3.79,15.16s-5.04-11-26.68-13.24l3.29-16.52Z"/><rect class="cls-4" x="53.22" y="180.12" width="35.95" height="71.89" rx="5.21" ry="5.21" transform="translate(35.67 -8.64) rotate(9.25)"/><rect class="cls-1" x="69.7" y="182.46" width="13.9" height="1.43" transform="translate(30.46 -9.94) rotate(9.25)"/><circle class="cls-1" cx="64.83" cy="245.26" r="2.84"/><path class="cls-7" d="M85.22,221.54h0c-.1,.58-.65,.98-1.23,.89l-5.42-.88-.28-10.04-7.05,13.97c-.2,.44-.67,.69-1.15,.62h-.03c-.49-.1-.85-.52-.86-1.02l-1.48-19.65-5.75,13.42-5.5-.9c-.54-.09-.97-.56-.94-1.1,.03-.65,.62-1.12,1.24-1.02l3.89,.63,6.96-16.26c.2-.46,.69-.72,1.18-.63,.49,.09,.86,.51,.87,1.01l1.49,19.87,7.09-14.06c.21-.46,.7-.71,1.19-.61,.49,.1,.85,.52,.86,1.02l.36,12.91,3.68,.6c.58,.1,.98,.65,.89,1.23Z"/></svg>