<svg xmlns="http://www.w3.org/2000/svg" xmlns:xlink="http://www.w3.org/1999/xlink" width="279.49" height="250">
  <g class="layer">
    <path fill="#71BACC" d="M224.38 180.98s-.44 10.34-5.78 25.18l-63.51 27.68c-28.53-7.31-60.36-23.47-90.36-87.76C33.83 79.85 45.99 38.07 45.99 38.07s-.77-3.39 6.66-14.58L112.3 1.36c13.73 3.13 19.77 4.34 19.77 4.34l-39.1 21.73s-3.24-1.68-4.41-2.02c-3.26-.92-4.44-2.97-6.2-2.02l.03 2.5S75.18 69.44 103.13 133c27.35 62.21 75.19 72.77 75.19 72.77l.72-5.5"/>
    <path fill="none" stroke="#191919" stroke-linecap="round" stroke-linejoin="round" stroke-miterlimit="10" stroke-width="2.722" d="M84.285 23.391S70.84 57.637 100.707 127.344c29.871 69.703 77.617 78.422 77.617 78.422s-.746 13.941-11.269 20.695c-10.52 6.75-11.223 7.059-11.223 7.059s-49.016.726-90.281-85.633C24.285 61.523 52.648 23.488 52.648 23.488"/>
    <use xlink:href="#a" x="274.64" y="374.75" fill="#191919"/>
    <path fill="#71BACC" d="M92.04 26.99s40.59 21.49 62.39 68.56c21.8 47.07 24.49 106.12 24.49 106.12l45.44-20.8s-9.2-75.01-25.48-104.96c-27.89-51.27-67.56-71.44-67.56-71.44"/>
    <path fill="#71BACC" d="m223.73 141.21-55.24 28.09c-11.88 6.05-26.39.78-31.63-11.47l-35.55-83.12c-5.26-12.32 1.05-26.51 13.71-30.85L171 24.64c11.12-3.82 23.34 1.36 28.34 12.01l34.8 74.24c5.29 11.26.68 24.68-10.41 30.32"/>
    <path fill="#FFF" d="m217.73 136.74-44.25 21.28c-9.6 4.61-21.22.01-25.6-10.14L113.47 68.2c-3.12-7.22.23-15.5 7.34-18.12l50.64-18.69c9.43-3.48 20.07 1.16 24.41 10.65l31.03 67.82c4.68 10.22.6 22.18-9.16 26.88"/>
    <path fill="#71BACC" d="m213.45 52.9-6.68 2.99-5.19-11.59 6.69-2.99 5.18 11.59zm0 0"/>
    <path fill="none" stroke="#71BACD" stroke-dasharray=".489,9.778" stroke-linecap="square" stroke-linejoin="round" stroke-width="5.1240000000000006" d="M148.582 67.848c2.75 6.675-.434 14.32-7.109 17.074-6.676 2.75-14.321-.434-17.071-7.11-2.754-6.675.43-14.32 7.11-17.074 6.676-2.75 14.316.434 17.07 7.11zM190.047 50.766c2.75 6.675-.434 14.32-7.109 17.07-6.676 2.75-14.321-.434-17.071-7.109-2.754-6.676.43-14.321 7.11-17.071 6.675-2.754 14.32.43 17.07 7.11zM176.98 127.133c3.188 6.476.52 14.316-5.96 17.504-6.477 3.191-14.317.523-17.504-5.957-3.192-6.481-.524-14.317 5.957-17.504 6.48-3.192 14.316-.524 17.507 5.957zM217.215 107.328c3.191 6.481.523 14.317-5.957 17.508-6.481 3.187-14.317.519-17.504-5.961-3.191-6.477-.524-14.316 5.957-17.504 6.477-3.191 14.316-.523 17.504 5.957zm0 0"/>
    <path fill="#71BACC" d="M147.62 101.93c-.51 1.09-1.51 2.41-2.39 3.12l-1-3.98c1.44-1.36 2.37-3.48 1.98-5.05l3.44-1.54 4.19 16.67-3.51 1.57c-.89-3.59-1.82-7.2-2.71-10.79M162.86 103.59c2.04-.91 1.96-5.01.54-8.18-.95-2.12-1.97-2.66-2.96-2.21-2 .89-2.02 4.94-.57 8.17.95 2.14 2 2.67 2.99 2.22m-6.58-.3c-2.23-4.97-1.4-11.52 3.23-13.6 3.09-1.38 5.86.13 7.52 3.84 2.22 4.95 1.43 11.48-3.22 13.56-3.11 1.39-5.87-.1-7.53-3.8M174.13 97.39c.96-.44 1.98-.03 2.39.9.53 1.19-.06 2.88-1.31 3.44-.97.43-1.98.03-2.41-.94-.55-1.23.08-2.84 1.33-3.4m-3.32-4.48c-.55-1.23.08-2.85 1.33-3.41.97-.43 1.98-.03 2.4.9.53 1.19-.06 2.89-1.31 3.44-.97.44-1.98.04-2.42-.93M180.3 87.3c-.51 1.08-1.51 2.41-2.38 3.11l-1-3.97c1.44-1.36 2.37-3.49 1.97-5.05l3.45-1.54 4.18 16.67-3.5 1.57c-.9-3.59-1.82-7.2-2.72-10.79M195.44 89.25c1.5-.68 2.29-2.43 1.69-3.77-.48-1.05-1.59-1.37-2.8-.82-1.6.72-2.27 2.41-1.67 3.74.51 1.15 1.69 1.34 2.78.85m-1.8-7.37c1.15-.52 1.63-1.83 1.19-2.8-.35-.79-1.21-1.07-2.06-.69-1.09.49-1.66 1.82-1.22 2.82.35.78 1.22 1.06 2.09.67m-4.34 9c-.89-1.98-.25-4.64 1.4-5.95v-.05c-1.11-.03-2.05-.65-2.6-1.88-1.21-2.69.4-6.29 3.82-7.82 2.6-1.16 5.2-.66 6.26 1.71.79 1.77.42 3.81-.89 5.04v.05c1.25-.18 2.76.47 3.5 2.12 1.26 2.83-.57 6.69-4.49 8.45-3.27 1.46-6 .57-7-1.67"/>
    <path fill="none" stroke="#191919" stroke-linecap="round" stroke-linejoin="round" stroke-miterlimit="10" stroke-width="2.722" d="M161.953 27.746S139.602 1.363 112.301 1.363L52.648 23.488s21.215-8.09 43.961 4.922c16.094 9.207 18.411 15.445 18.411 15.445l46.933-16.109zM218.781 144.395s5.723 18.156 5.578 36.472c-.14 18.317-5.761 25.297-5.761 25.297l-62.063 27.047s21.449-7.383 22.594-34.43c.726-17.207-5.746-31.965-5.746-31.965l45.398-22.421zm0 0"/>
  </g>
</svg>
