<?xml version="1.0" encoding="utf-8"?>
<svg version="1.1" id="Layer_1" xmlns="http://www.w3.org/2000/svg" xmlns:xlink="http://www.w3.org/1999/xlink"  viewBox="55 0 585 170" >
<style type="text/css">
	.st0{fill:#FFFFFF;}
</style>
<g>
	<path class="st0" d="M536.13,68.99c0,0.55-0.1,1.01-0.28,1.57l-13.13,36.52c-4.95,14.86-7.68,21.18-16.69,21.03H190.07
		c-2.75,0-5.12-1.95-5.64-4.66l-9.28-48.28l-25.27,80.06c-0.68,2.52-2.96,4.25-5.55,4.25h-0.18c-2.67-0.09-4.93-2-5.45-4.61
		L113.87,52.05l-17.79,71.7c-0.64,2.56-2.94,4.36-5.58,4.36H64.86c-3.18,0-5.75-2.57-5.75-5.75c0-3.17,2.57-5.75,5.75-5.75H86
		l22.86-92.14c0.65-2.61,3.02-4.43,5.71-4.37c2.69,0.06,4.98,1.98,5.51,4.62l25.06,103.98l25.41-80.57c0.7-2.59,3.09-4.36,5.77-4.25
		c2.67,0.1,4.93,2.03,5.43,4.66l13.07,68.07c0,0,303.88,0,311.21,0c2.88,0,5.81-10.27,5.81-10.27l-16.65-35.97
		c-0.19-0.46-0.37-1.01-0.37-1.56c0-2.03,1.66-3.87,3.86-3.87h3.96c1.66,0,3.22,1.02,3.86,2.58l8.56,20.05
		c0.83,2.03,1.38,3.96,2.02,5.98c0.37-1.93,0.74-3.95,1.48-6.07l6.34-19.32c0.65-1.93,2.49-3.22,4.51-3.22h2.67
		C534.38,64.94,536.13,66.88,536.13,68.99z"/>
	<path class="st0" d="M200.88,85.64c0-12.42,8.83-21.71,22.54-21.71s22.54,9.29,22.54,21.71s-8.83,21.71-22.54,21.71S200.88,98.06,200.88,85.64z
		 M212.2,85.64c0,6.9,4.78,11.87,11.22,11.87c6.53,0,11.32-4.69,11.32-11.87c0-6.99-4.88-11.78-11.32-11.78
		C217.17,73.87,212.2,78.47,212.2,85.64z"/>
	<path class="st0" d="M264.09,67.52c2.58-2.02,6.53-3.59,10.95-3.59c12.33,0,19.69,8.83,19.69,21.07c0,13.62-9.11,22.35-23.64,22.35
		c-5.52,0-11.13-1.47-15.09-3.31c-1.29-0.55-2.48-2.39-2.48-3.86V45.35c0-1.84,1.56-3.4,3.4-3.4h3.77c1.84,0,3.4,1.56,3.4,3.4V67.52
		z M264.09,95.39c2.3,1.47,4.6,2.12,7.54,2.12c6.62,0,11.78-4.32,11.78-11.78c0-7.91-4.88-11.87-10.86-11.87
		c-3.68,0-6.72,1.93-8.46,3.96V95.39z"/>
	<path class="st0" d="M310.36,64.94c1.84,0,3.4,1.56,3.4,3.4v34.59c0,1.84-1.56,3.4-3.4,3.4h-3.77c-1.84,0-3.4-1.56-3.4-3.4V68.35
		c0-1.84,1.56-3.4,3.4-3.4H310.36z"/>
	<path class="st0" d="M325.63,95.67c0.64-0.83,1.38-1.2,2.21-1.2c0.92,0,1.84,0.37,2.76,1.01c2.94,1.93,6.26,3.04,10.21,3.04
		c3.04,0,5.43-1.29,5.43-3.86c0-6.72-22.36-3.04-22.36-18.12c0-8.1,6.62-12.6,15.18-12.6c6.07,0,10.49,1.75,13.8,3.86
		c0.83,0.55,1.38,1.66,1.38,2.76c0,0.64-0.18,1.29-0.55,1.84l-1.01,1.47c-0.74,1.01-1.56,1.47-2.58,1.47c-0.74,0-1.47-0.28-2.3-0.64
		c-2.48-1.29-5.06-1.93-8.19-1.93c-3.22,0-5.15,1.75-5.15,3.59c0,6.9,22.35,3.13,22.35,17.75c0,8.19-6.62,13.25-16.74,13.25
		c-6.44,0-11.13-1.93-15.46-5.7c-0.74-0.64-1.01-1.47-1.01-2.3c0-0.64,0.18-1.38,0.64-1.93L325.63,95.67z"/>
	<path class="st0" d="M389.66,99.99c0.28,0.46,0.46,1.01,0.46,1.56c0,1.2-0.55,2.39-1.56,2.94c-3.13,1.84-6.25,2.76-10.4,2.76
		c-9.38,0-12.88-6.07-12.88-16.65V56.85c0-1.84,1.56-3.4,3.4-3.4h3.77c1.84,0,3.4,1.56,3.4,3.4v8.1h9.94c1.84,0,3.4,1.56,3.4,3.4
		v3.13c0,1.84-1.56,3.4-3.4,3.4h-9.94v15.09c0,4.51,1.47,7.45,4.97,7.45c1.1,0,2.12-0.18,2.94-0.46s1.47-0.46,2.12-0.46
		c1.2,0,2.12,0.55,2.85,1.84L389.66,99.99z"/>
	<path class="st0" d="M416.34,97.51c3.5,0,6.9-1.93,9.29-5.06v-24.1c0-1.84,1.56-3.4,3.4-3.4h3.77c1.84,0,3.4,1.56,3.4,3.4v34.59
		c0,1.84-1.56,3.4-3.4,3.4h-3.77c-1.84,0-3.4-1.56-3.4-3.4v-1.66c-2.48,3.04-6.81,6.07-13.25,6.07c-8.1,0-14.54-5.24-14.54-17.11
		V68.35c0-1.84,1.56-3.4,3.4-3.4h3.77c1.84,0,3.4,1.56,3.4,3.4v19.69C408.43,93.55,410.55,97.51,416.34,97.51z"/>
	<path class="st0" d="M483.41,41.95c1.84,0,3.4,1.56,3.4,3.4v57.59c0,1.84-1.56,3.4-3.4,3.4h-3.77c-1.84,0-3.4-1.56-3.4-3.4v-0.92
		c-2.76,2.94-6.53,5.06-11.87,5.06c-11.87,0-19.5-8.37-19.5-20.97c0-13.06,9.38-22.17,22.72-22.17c3.68,0,6.35,0.64,8.65,2.02V45.35
		c0-1.84,1.56-3.4,3.4-3.4H483.41z M476.23,76.35c-2.67-1.66-5.34-2.48-8.19-2.48c-6.25,0-11.87,4.23-11.87,11.87
		c0,7.36,4.78,11.5,10.4,11.5c3.86,0,7.27-1.84,9.66-4.23V76.35z"/>
	<path class="st0" d="M310.54,56.96h-4.13c-1.71,0-3.1-1.39-3.1-3.1v-4.13c0-1.71,1.39-3.1,3.1-3.1h4.13c1.71,0,3.1,1.39,3.1,3.1v4.13
		C313.64,55.57,312.25,56.96,310.54,56.96z"/>
</g>
</svg>
