<svg id="Lager_1" data-name="Lager 1" xmlns="http://www.w3.org/2000/svg" viewBox="0 30 478 670">
<defs><style>.cls-1,.cls-11,.cls-2,.cls-21,.cls-26,.cls-7{fill:#fff;}.cls-10,.cls-11,.cls-12,.cls-15,.cls-17,.cls-2,.cls-20,.cls-21,.cls-22,.cls-25,.cls-26,.cls-30,.cls-7,.cls-8{stroke:#191919;}.cls-2,.cls-31,.cls-4{stroke-miterlimit:10;}.cls-10,.cls-2,.cls-28,.cls-7{stroke-width:2px;}.cls-27,.cls-3,.cls-9{fill:#75bfcb;}.cls-10,.cls-12,.cls-14,.cls-15,.cls-16,.cls-17,.cls-18,.cls-19,.cls-20,.cls-22,.cls-23,.cls-24,.cls-25,.cls-28,.cls-30,.cls-31,.cls-4,.cls-5,.cls-6,.cls-8{fill:none;}.cls-4{stroke:#fff;stroke-width:1.15px;}.cls-14,.cls-16,.cls-23,.cls-24,.cls-28,.cls-31,.cls-5,.cls-6,.cls-9{stroke:#75bfcb;}.cls-10,.cls-11,.cls-12,.cls-14,.cls-15,.cls-16,.cls-17,.cls-18,.cls-19,.cls-20,.cls-21,.cls-22,.cls-23,.cls-24,.cls-25,.cls-26,.cls-27,.cls-28,.cls-30,.cls-31,.cls-5,.cls-6,.cls-7,.cls-8,.cls-9{stroke-linecap:round;}.cls-10,.cls-11,.cls-12,.cls-14,.cls-15,.cls-16,.cls-17,.cls-18,.cls-19,.cls-20,.cls-21,.cls-22,.cls-23,.cls-24,.cls-25,.cls-26,.cls-27,.cls-28,.cls-30,.cls-5,.cls-6,.cls-7,.cls-8,.cls-9{stroke-linejoin:round;}.cls-5{stroke-width:2.3px;}.cls-6{stroke-width:7px;}.cls-8{stroke-width:2.79px;}.cls-9{stroke-width:3px;}.cls-11,.cls-20{stroke-width:1.5px;}.cls-13{fill:#71bbcc;}.cls-14{stroke-width:0.48px;}.cls-15{stroke-width:0.5px;}.cls-16,.cls-17,.cls-18,.cls-21{stroke-width:1.48px;}.cls-18,.cls-19{stroke:#000;}.cls-19,.cls-22,.cls-23{stroke-width:0.99px;}.cls-24{stroke-width:0.84px;}.cls-25{stroke-width:0.87px;}.cls-26,.cls-30{stroke-width:1.62px;}.cls-27{stroke:#71bbcc;stroke-width:1.13px;}.cls-29{fill:#191919;}.cls-31{stroke-width:6.27px;stroke-dasharray:8.33;}</style></defs><rect class="cls-1" width="478.06" height="917.36"/><path class="cls-2" d="M269.41,283.34s58.81-24.77,66-31,34.58-41.8,43-43.95,7.62,6.25,12.7,8,8-2.93,13.28-.39,2.35,11.72,3.13,12.5,8.2,1.56,9.37,4.3-1.56,9-1,10.35,8.22,5.9,7,11.14-3.32,5.27-5.86,10.35-6.64,13.68-9.77,16-41.42,7.62-51,11.72-68.46,46.79-68.46,46.79a64.18,64.18,0,0,1-15.39-28.47A110.46,110.46,0,0,1,269.41,283.34Z"/><path class="cls-2" d="M426.7,279.65s-5.78-3.89-9.1-3C406,280,404.21,289.85,404.21,289.85l20.69,15.57,2.66-13.35Z"/><path class="cls-2" d="M424.9,307.06s-51.36-42.46-54.11-45.95c-2.91-3.72-10.25,2.45-6.22,15.43s24,27,26.56,29.11,8.76,8.06,8.76,8.06L413.22,333c-.44,1.15,6.37-10.48,8.44-15.78C422.53,315,424.9,307.06,424.9,307.06Z"/><path class="cls-3" d="M366,266.82c.34,2.49,3.09,6.05,5.45,6.83s5.69-4.1,5.69-4.1-5.69-7-7.43-8.1C367.31,260,365.72,265,366,266.82Z"/><rect class="cls-3" x="334.16" y="247.42" width="18.66" height="49.82" rx="6.26" transform="translate(-94.22 248.75) rotate(-35.32)"/><ellipse class="cls-4" cx="351.26" cy="282.44" rx="4.79" ry="5.96" transform="translate(-86.6 175.51) rotate(-25.08)"/><path class="cls-3" d="M316.63,261.19s2.74-10.55,8.8-12.51a10.83,10.83,0,0,1,10.35,2.15l-8.94,6.79-1.58-.3Z"/><path class="cls-3" d="M342.53,302.12s10.29,3.61,15.28-.32S361.89,287,361.89,287l-10.6,7,0,1.82Z"/><path class="cls-5" d="M285.06,332.61c1.57-6.64-12.7-45-5.08-47s18.76,30.24,24,31.41-8-35-1.75-38.29,14.06,24.42,20.31,23.64,2.54-11,2.54-11"/><path class="cls-2" d="M407.55,340.29s-32.15-8.66-44.16-4.26c-10.7,3.91-11.15,11-10.25,12,2.79,3,31.06,10.46,31.06,10.46s2.12-.46,11.12-6.92S407.55,340.29,407.55,340.29Z"/><path class="cls-3" d="M359.91,340.61c3.34-1,9.44.33,11.81,2.85s-1.81,9.57-1.81,9.57-12.21-3-14.58-4.58C352.11,346.32,357.43,341.39,359.91,340.61Z"/><path class="cls-3" d="M348.21,370.66a82.45,82.45,0,1,1,22-161.93A24.58,24.58,0,0,1,373.6,210c-2,1.45-6,5.31-6,5.31a70.12,70.12,0,0,0-19.39-2.51,75.45,75.45,0,1,0,75.45,75.45c0-9.28-1.1-16.83-4.38-25.42a65.1,65.1,0,0,0,4.43-7.33,27.5,27.5,0,0,1,1.55,3.33,82.51,82.51,0,0,1-77.05,111.87Z"/><circle class="cls-6" cx="127.78" cy="431.62" r="79.7"/><rect class="cls-7" x="85.82" y="351.46" width="79.84" height="159.66" rx="9.53" transform="translate(-90.05 37.27) rotate(-12.45)"/><rect class="cls-8" x="96.52" y="354.31" width="25.87" height="2.66" transform="translate(-74.12 31.97) rotate(-12.45)"/><rect class="cls-9" x="92.35" y="395.12" width="10.89" height="10.89" transform="translate(-84.09 30.52) rotate(-12.45)"/><rect class="cls-9" x="98.29" y="422.01" width="10.89" height="10.89" transform="translate(-89.74 32.43) rotate(-12.45)"/><rect class="cls-9" x="104.23" y="448.89" width="10.89" height="10.89" transform="translate(-95.4 34.34) rotate(-12.45)"/><path class="cls-10" d="M91.36,402c1.62.25,6.39,3.51,6.39,3.51s4-10,6.26-12.82"/><path class="cls-10" d="M97.21,428.48c1.62.25,6.39,3.51,6.39,3.51s4-10,6.26-12.82"/><path class="cls-10" d="M105,461.88s5.61-11.35,8.5-14.5"/><path class="cls-10" d="M102,450.38s11.36,5.61,14.5,8.5"/><line class="cls-9" x1="109.57" y1="393.87" x2="143.72" y2="386.33"/><line class="cls-9" x1="111" y1="400.36" x2="129.2" y2="396.34"/><line class="cls-9" x1="115.58" y1="421.09" x2="149.73" y2="413.55"/><line class="cls-9" x1="117.01" y1="427.57" x2="135.21" y2="423.55"/><line class="cls-9" x1="121.59" y1="448.31" x2="155.74" y2="440.76"/><line class="cls-9" x1="123.02" y1="454.79" x2="141.22" y2="450.77"/><circle class="cls-10" cx="139.91" cy="495.43" r="6.3"/><circle class="cls-6" cx="143.61" cy="185.8" r="111.85"/><path class="cls-11" d="M146.26,134.75s-7.36,7.85-7.78,9.47-4,36.66-5.2,40.92-7,12.05-7,12.05-4,.66-5.6,0,.43-3.9,1.12-4.22,4.65-7.18,4.65-7.18-1.62-39.12.07-43.49,4.62-25.21,4.62-25.21Z"/><path class="cls-11" d="M96.17,286.45s6.38-17.87,8.42-33.7,3.58-27.83,4.6-28.85,7.4-1,8.93-3.32,13.28-43.41,13-45.45-2.29-3.06-2-10a22.67,22.67,0,0,1,3.58-11.49l28.93,3.83s-11,34.22-20.1,51.83-34.37,65.88-34.11,68.94,9.45,8.43,9.45,8.43Z"/><path class="cls-11" d="M145.24,201.48s14.24,25.23,15,28.8-1.79,13.53,0,16.09S187.31,277,189.1,281.09s3.32,3.83,3.32,3.83l16.85-10.47s-10.21,2.55-13.27,1-19.15-50-24.52-64.59-12-47-12-47Z"/><path class="cls-11" d="M158.89,130.37s-.85,10.72-.17,12.25,19.74,31.15,21.45,35.23,2,13.79,2,13.79-4.94,3.58-6.64,4.09.17-3.92.51-4.6-.85-8.51-.85-8.51-25.65-29.57-27.06-34,0-17.09,0-17.09Z"/><polygon class="cls-1" points="157.1 73.68 158.25 75.56 159.32 84.82 161.32 85.19 160.84 86.69 159.37 87.92 158.8 96.75 149.44 101.85 148.42 107.13 138.21 106.28 138.21 98.71 137.65 85.61 139.23 83.89 146.63 76.19 157.1 73.68"/><path class="cls-12" d="M140,100.82s-.63,1.65-1.36,3.16c-2.63,5.45-.89,3.71.68,2.56l8.23,1.36s.37-2.78.71-4.5a14.93,14.93,0,0,0,0-4.1L140,97.85Z"/><path class="cls-3" d="M134.76,105.12c2.56-1.82,6.8.9,12.59.56s8.51,4.09,10.21,6.47,4.77,18.67,4.77,18.67a24.5,24.5,0,0,1-7.24,1.93,29,29,0,0,1-7.4,0s-1.1,12.6-.34,15.32c1,3.74,7.41,10.85,7.41,10.85s-5.79-.38-15-1.92-11.74-.25-10.46-7.15,2-12.25,2-12.25-3.49-3-4.26-5.19S133,106.4,134.76,105.12Z"/><path class="cls-12" d="M158.25,76.19a23.76,23.76,0,0,1,.6,4.6c0,2.09,0,4.17,0,4.17s2.29-.8,2.5.56-1.94,2-1.94,2,0,.66,0,1.6c0,.49.25,1,.22,1.56,0,.77-.31.58-.47,1.22-.08.34.24.7.21,1.21a4.53,4.53,0,0,1-.41,1.38"/><ellipse cx="155.53" cy="83.66" rx="0.77" ry="1.53"/><path class="cls-12" d="M143.61,90.3s-1.36-3.38-3.21-3.89"/><path class="cls-13" d="M156.49,77.94s.74,2.76.48,3a22.12,22.12,0,0,1-3.86.21s-.49-1.8,0-2.28S156.49,77.94,156.49,77.94Z"/><line class="cls-14" x1="157.55" y1="80.65" x2="157.26" y2="78.78"/><path class="cls-15" d="M155.53,91.06s.76.65,3.38.65"/><path class="cls-15" d="M156.61,90.68s1.92-2,2.62-1.27"/><path class="cls-15" d="M156.29,92.64a3,3,0,0,0,.93.94"/><circle class="cls-1" cx="144.68" cy="98.49" r="2.68"/><path class="cls-3" d="M148.06,87.17c.06.32,2.68,7.28,3.64,7.73S159,95,159,95s.34,5-.3,6.73-10.53,2.55-11.8.32a25.36,25.36,0,0,1-2.3-8.43C144.68,92.79,148.06,87.17,148.06,87.17Z"/><path class="cls-3" d="M156.42,68.64c.42.36,3.58,5.87,2.94,7.61s-10,0-11.15,2.17-.43,8.81-.43,8.81l-3.12.72s-3.75-5.92-4.94-4.43c-.48.6-3.18,3.14-1.3,6.78.78,1.51,5,2.19,5,2.29,0,.34,0,6.17-.64,7.2s-7,2.21-8.09.76.34-3.77-1-5.2-2.38-1.1-2.29-1.61,1.19.34,1.44-1.15a7.77,7.77,0,0,0-.51-3.44l1-1.53s-4-.13-3.29-2.37-.59,0,.94-.32,1.28-2.25,1.28-2.25-1.86-2.53-1.54-3.75,1.79-2.21,1.88-3.31a3,3,0,0,0-1.19-2.39c-.26,0,1,1.28,1.92.17s-1.05-1.61,0-3a5.6,5.6,0,0,1,3.86-1.78c.26.17.51.93,1.62.68s.47-2,1.77-2.73.19-.68,1.21.34a2.5,2.5,0,0,0,2.94.51c.55-.34.8-2,2.85-2s2.55.68,2.8.94,1.37,2,2.13,1.28,1.7.51,1.7.51l1.49-2S155.92,68.2,156.42,68.64Z"/><path class="cls-12" d="M144.54,87.89s-2.74-6.08-5.29-4.23-1.52,5.61-1,6.58c1.34,2.3,5,2.3,5,2.3"/><path class="cls-1" d="M416.53,637q-3,3.71-6.39,7.15l-.32.33a113.3,113.3,0,0,1-14.18,12.34,114.5,114.5,0,0,1-28.25,15.27l-.06,0a113.64,113.64,0,0,1-17.57,4.95l-.4.08a116,116,0,0,1-57.86-3.54,112.64,112.64,0,0,1-16.3-6.74c.07-.42.15-.85.24-1.27,1.83-9.55,4.05-18.92,5.81-25.89.62-2.46,1.18-4.62,1.65-6.38.06-.24.13-.49.2-.73v0c.73-2.73,1.18-4.31,1.18-4.31l-7.76-52,7.57-16.49h0l.07-.5.45-.57,11.9-14.85,1.48-.58.07,0L316.56,536l0,0,.84-.33h0l1.45-.56,4.3-1.67,1.29-2.35,1.36-2.48,2-3.62h0l.18-.31.93-1.71,1.62-2.93,3.18-.34,32-3.39,4.4,7.78.4.69L376.94,536l8.6,3.49.64.25.1,0,.71.29,6.39,2.59.53.22.27.11,7.46,3h0l.55.22.37.15,1.65.68.5.2.47,1,.59,1.32a.05.05,0,0,1,0,0v0l1,2.19.32.71.41.9,0,0,1.29,2.84.42,4v0l0,.26h0l1.23,11.52.19,1.82,0,2-.42,26h0l-.06,3.68,1.84,9.16.8,4,0,.12L414,624.2a.52.52,0,0,1,0,.11L416.14,635Z"/><path class="cls-3" d="M362.43,535.88a5.19,5.19,0,0,0-.87-3.39c-1.1-1.43-6.86,2.52-15.31-.44s-10.54-6.33-10.54-6.33l12.62,2.49L364,525.57l2.08,6.92Z"/><polygon class="cls-3" points="364.6 524.46 364.93 530.15 368.24 534.02 368.8 527.05 364.6 524.46"/><path class="cls-16" d="M335.21,536.43a35.05,35.05,0,0,0,15.26,4.07c8.67.21,15.58-8,15.58-8"/><path class="cls-17" d="M364.31,524.6a10.85,10.85,0,0,0,.53,6.19,7,7,0,0,0,4,3.45"/><path class="cls-3" d="M367.33,672.1a113.64,113.64,0,0,1-17.57,4.95l-.4.08-.09-1.78-1.69-33.41h0l0-.32v0l-.47-9.34c0-.11,0-.22,0-.33h0a2,2,0,0,1,0-.25c0-.07,0-.14,0-.21l-.32-6.27,20.23-1L367,631v.23l.12,15.27v0l.17,22.31a1.48,1.48,0,0,0,0,.21v1.13Z"/><line class="cls-18" x1="333.1" y1="525.57" x2="332.6" y2="528.21"/><path class="cls-3" d="M393.8,542.09s-11.67,16.41-11.06,18.38,5.82,10.27,5.52,12-21.13,74-21.13,74l1-12.91s4.4-24,6.42-31.94,9.31-29.14,9.31-29.14L375.66,561l11-21.95Z"/><path class="cls-19" d="M399.86,570.18s2.63-12.51,2.8-17.61-1.4-7.46-1.4-7.46"/><path class="cls-17" d="M318.46,534.24s-20.84,7.46-22.32,8.61-11.86,12.35-13,17.62"/><path class="cls-18" d="M402.82,576.94s2.83,9.59,6.86,27.14c.06.23.1.46.16.69q1.07,4.66,2.23,10.07,1.37,6.31,2.84,13.59a1.77,1.77,0,0,0,0,.2c.23,1.19.47,2.4.71,3.62.18.91.35,1.82.52,2.73h0c.13.66.25,1.3.37,2,.09.46.17.93.25,1.39"/><path class="cls-20" d="M365.36,524.61a4.11,4.11,0,0,1,2.05.72,3.85,3.85,0,0,1,1.38,1.72c.82,1.94-1.38,58.79-1.78,104v.23q0,4.05-.05,8v.37h0c0,7.11,0,13.79.12,19.74.06,3.27.14,6.45.22,9.52a1.48,1.48,0,0,0,0,.21l0,1.12c0,.63,0,1.26.05,1.89"/><path class="cls-17" d="M274.88,666.69l.24-1.27c1.68-8.67,3.9-17.83,6.33-26.85.47-1.76,1-3.52,1.45-5.26.06-.24.13-.49.2-.73v0l1.08-3.79c2.5-8.64,5.08-16.9,7.45-24.15a2,2,0,0,1,.07-.23l.08-.23c.69-2.13,1.37-4.18,2-6.12.3-.87.58-1.71.86-2.53l.58-1.72c.7-2,1.36-3.94,2-5.65.14-.43.29-.83.43-1.23h0c.07-.23.15-.45.23-.66.4-1.14.76-2.18,1.1-3.11l.09-.27c.72-2,1.27-3.5,1.59-4.37.22-.57.33-.88.33-.88"/><path class="cls-17" d="M349.76,677.05l-.09-1.78c-.61-10.49-1.26-21.59-1.92-32.47a.06.06,0,0,0,0,0v-.19c-.21-3.48-.43-6.92-.64-10.32,0-.11,0-.22,0-.33h0a2,2,0,0,1,0-.25c0-.07,0-.14,0-.21-1.19-19-2.35-36.31-3.26-47.21-.48-5.76-1.13-11.2-1.9-16.28h0c0-.1,0-.19,0-.28v0q-.62-4-1.3-7.74-.65-3.49-1.34-6.69h0c-.9-4.22-1.85-8.06-2.76-11.46l-.12-.44h0a.36.36,0,0,1,0-.11c-.33-1.21-.65-2.36-1-3.44-.14-.49-.28-1-.42-1.43h0a135.21,135.21,0,0,0-4.46-12.86"/><path class="cls-21" d="M369.78,522.44s14.71,10.16,16.25,14-11.31,21.9-10.37,24.53,7.73,9.94,7.62,11.88-5.2,15.42-9.17,28.73c-4.39,14.71-7.15,38-7.15,38"/><path class="cls-11" d="M301.73,571.84s-3.77-15.65-4.07-19.77c-.61-8.39,0-10,0-10"/><polygon class="cls-3" points="332.36 639.66 328.65 652.26 325.21 652.06 328.78 639.06 332.36 639.66"/><path class="cls-3" d="M304.48,636.64c-.33-.11-5.6,0-5.6,0v8.14l4.4,2.05Z"/><path class="cls-20" d="M332.36,652.34s-.5,2.63-1.16,5.6.91,5.43-1,5.92-12.81-1.64-21.86-4.52a97.23,97.23,0,0,1-15.15-6.18V641.64a81.44,81.44,0,0,0,17.95,8.06C320.67,652.5,332.36,652.34,332.36,652.34Z"/><path class="cls-3" d="M389.86,645.71l-2.19-12.63a3.27,3.27,0,0,0-1.51,2.3c-.13,1.48-2.31-.16-1.71,1.81s1.71,9.35,1.71,9.35Z"/><path class="cls-19" d="M410.14,644.13c-.13-.83-.25-1.53-.32-2s-.09-.52-.09-.52"/><path class="cls-20" d="M395.64,656.8l-2.71.54-1.4.27-3,.58-.33.06c-3.29.63-5.76,1.08-5.76,1.08s-3.12-9.79-2.8-11.1c.14-.58,3-1.17,6.55-1.68.35-.06.7-.11,1.07-.15l.3,0c1.65-.23,3.36-.44,5-.64,2.49-.31,4.7-.58,5.9-.78,3.95-.66,8.22-1.5,8.22-1.5"/><path class="cls-22" d="M309,649c.14-.85,1-5.13,1-5.13l-2.84-1-1.29,5"/><line class="cls-22" x1="332.13" y1="666.02" x2="328.34" y2="667.79"/><line class="cls-22" x1="332.13" y1="668.65" x2="328.34" y2="670.55"/><line class="cls-22" x1="332.13" y1="671.29" x2="328.34" y2="673.31"/><path class="cls-3" d="M315.17,546.66S327,562,327,563.66c0,2.14-5,8.19-4.77,10.2.08.68,7.35,13.2,12.84,28.76,6.17,17.49,11.69,37,11.69,37a331.55,331.55,0,0,0-8.91-37.23,216.51,216.51,0,0,0-11.83-29c0-.24,6.17-9.88,6.17-9.88Z"/><path class="cls-3" d="M326.19,577.76H307.94a.38.38,0,0,0-.36.4v8.59a.38.38,0,0,0,.36.4h18.25a.39.39,0,0,0,.36-.4v-8.59A.39.39,0,0,0,326.19,577.76Z"/><path class="cls-21" d="M327.42,522.44s-14.9,19.1-14.94,20.91,19.71,18.47,19.38,20.67-5.6,8.47-5.43,10.12,5.6,11,11.19,27.66,10.25,41.63,10.25,41.63"/><path class="cls-21" d="M319.14,486.45s-.42-5.26-2.87-5.22-8.1,7.35-5,14.42c2.6,6,4.65,6.93,4.65,6.93"/><path class="cls-21" d="M385.42,500.07s8.63-25-18.43-39.13c-23.08-12-43.64,9.82-44.31,13.93-.45,2.8.73,5.77-.67,8.21s-5.7,4.3-6.08,12.74c-.27,6,2,24.52,23.5,31.86s38.05-9.31,38.05-9.31"/><path class="cls-21" d="M380.51,503.27s9-6,12.52-4.13,1,18-9.16,19.86a14.76,14.76,0,0,1-9.83-1.61"/><path class="cls-22" d="M390.63,503.58a18.58,18.58,0,0,0-8.33,3.07c-3.58,2.5-5.86,4.71-5.63,5.33s1.55.76,1.55.76"/><path class="cls-22" d="M379.24,514.65c.12-.23,2.72-.9,3.48-3.43a6,6,0,0,0-.42-4.57"/><path class="cls-22" d="M315.25,484.85a3.29,3.29,0,0,1,1.51,2.24,20.47,20.47,0,0,1-.17,4.76"/><path class="cls-22" d="M314.8,494.89a5,5,0,0,1-.58-3.76c.45-1.48,2.62-2.57,2.62-2.57"/><path class="cls-22" d="M368.12,493.28a30.81,30.81,0,0,0-4.15.38"/><line class="cls-22" x1="366.59" y1="497.05" x2="363.56" y2="496.55"/><line class="cls-22" x1="327.24" y1="485.31" x2="324.94" y2="483.61"/><line class="cls-22" x1="325.49" y1="487.66" x2="323.93" y2="486.93"/><path class="cls-21" d="M346.31,491.36c-.29-.27-4.35-5.38-7.87-5.29s-.75,9.22-.75,9.22"/><path class="cls-22" d="M347.58,495.44a11.74,11.74,0,0,1,3.31,2.93,12.2,12.2,0,0,1,1.5,3.71"/><path class="cls-22" d="M334.9,494.5a8.5,8.5,0,0,0-2.58,1.47,9,9,0,0,0-1.43,2.3"/><line class="cls-22" x1="347.59" y1="502.92" x2="347.5" y2="508.34"/><path class="cls-22" d="M343.34,503.46l-.27,5.72a20.22,20.22,0,0,1-6.25-1.44,9.72,9.72,0,0,1-3.66-2.57s-3.19-2.23-2-4.6c1.06-2.08,2.47,0,5.69,1.15,4.32,1.48,14,.15,14.8,2.76,1.37,4.55-8.28,4.75-8.28,4.75"/><line class="cls-22" x1="334.08" y1="500.87" x2="332.91" y2="504.95"/><line class="cls-22" x1="338.57" y1="502.33" x2="337.72" y2="507.57"/><path class="cls-3" d="M369,483.26c1.34-1.13.47-5.59-3.06-7.84s-10.54-2.24-9.92,2.72c.33,2.59,3.54,2.42,5.53,3.18S367.51,484.51,369,483.26Z"/><path class="cls-23" d="M354.58,479.25a6.88,6.88,0,0,1-.16-2.1,11.58,11.58,0,0,1,.64-2.38"/><path class="cls-3" d="M327.56,475c-.72-1.31,1.35-4.59,4.85-5.28s9.06,1.47,7,5.22c-1.05,1.95-3.55.83-5.36.82S328.34,476.47,327.56,475Z"/><path class="cls-24" d="M340.24,476.29a6,6,0,0,0,.77-1.62,9.85,9.85,0,0,0,.23-2.09"/><path class="cls-22" d="M341.36,519.66s-3.73,1.35-6.75-.19c-3.49-1.78-3.22-3.41-3.22-3.41"/><path class="cls-3" d="M389.1,486.72s-1.76-4.27-4.85-3.47c-5.84,1.51-3.25,7.49-3.25,7.49s-6.17.35-4.48,5.62c3,9.41,11,2.74,11,2.74s10.55.78,9.83-7.8C396.8,484.55,389.1,486.72,389.1,486.72Z"/><path class="cls-3" d="M318.06,473.13a4.24,4.24,0,0,0-5.3,2.92c-1.19,4.14,1.11,5.59,1.11,5.59a3.64,3.64,0,0,1,2.43-.93c3.08.46,3.11,4.82,3.11,4.82s2.3-1.85,2.49-4.16c.24-2.79-.36-3.43.05-6.36.17-1.2,2-3.84,2-3.93s-.72-2.73-2.56-2.81C317,468.1,318.06,473.13,318.06,473.13Z"/><path class="cls-3" d="M381.6,490l4.07-5.66c-.54-.76-13.1-21.48-34.15-24.31-12-1.61-16.45,1.16-16.77,1.53a25.86,25.86,0,0,0-4.78,3,39.87,39.87,0,0,0-4.24,4.45c.22-.24,10-5.82,24.8-3.26C367.71,468.71,381.48,489.8,381.6,490Z"/><circle class="cls-6" cx="326.68" cy="562.17" r="115.38"/><path class="cls-11" d="M259.51,583.29c-.29,1.57,4.39,42.22,7.59,46.69,7,9.77,19.58,7,23.51,2.59,6.6-7.39,11.17-36.57,10.27-38.24S291,578,278.71,577,259.51,583.29,259.51,583.29Z"/><path class="cls-3" d="M278.47,565.73s16.1-.7,17.57-1.65c.73-.48.42-11.12.1-22.44-.32-11.51-.65-23.72-1.23-24.18-1.14-.92-33.24.48-34.77,2.31-.72.86.93,10.53,1.69,20.63.9,11.94,3,23.28,3,23.28Z"/><path class="cls-11" d="M266.28,550.28c-.27.13-4,4.27-3.93,5.23s.21,6.47.34,7.53,4,7.47,4,7.47l-2.18,21.19s7.72,8.08,13.09,8.62,7.47,0,7.47,0L271,560.47Z"/><path class="cls-20" d="M259.51,583.29s5.37,14.91,18.11,17a32.57,32.57,0,0,0,23.18-5.09"/><path class="cls-11" d="M284.71,600.72l-3.45-27.87s1.59-4.92,1.87-5.91a16.79,16.79,0,0,0,0-6.47,8.66,8.66,0,0,1-.63-5c.59-2.42,2.59-6.06,2.14-8.08a1.46,1.46,0,0,0-2.24-1.08s-2,3.08-2.61,4.51a27.47,27.47,0,0,0-1.21,3.83L277.5,554a53.69,53.69,0,0,0,.44-6.61c0-3.15,1.64-7.32,1-8.38s-4.14-2-5.17-1.09c-1.27,1.09-1.63,4.5-1.87,7s-1.32,7.21-1.32,7.21-1-3.24-1.4-4.77.17-5.65-1-7.17-2.37-1.8-3-1.21c-1.15,1.13-.9,8.21-1.07,10.15a27.45,27.45,0,0,0,.2,6.64,45.32,45.32,0,0,1,0,4.7"/><path class="cls-25" d="M267.45,516.67l18-1.1s.65-2.58,0-3.05-17.48.81-18.15,1.65S267.45,516.67,267.45,516.67Z"/><path class="cls-25" d="M269.71,521.26c.11,0,14-1,14-1v-4.58l-14.27.89Z"/><line class="cls-25" x1="269.55" y1="517.86" x2="283.65" y2="516.98"/><path class="cls-25" d="M272.81,513.09c0-.11-.12-.83-.12-.83l7.31-.56.11.72Z"/><path class="cls-26" d="M367.11,612.18A92.35,92.35,0,0,0,376,597c7.53-15.75,1.41-12.2,1.41-12.2"/><polygon class="cls-27" points="352.5 583.32 345.4 584.82 366.55 560.14 369.9 563.02 352.5 583.32"/><path class="cls-26" d="M379.08,586.63s-17.66-16.17-20.52-17.24-13.55,1.06-17.29,2.68-8.52,15.61-8.93,17.24,10-1.39,13.27-6.64,9,1.88,9,1.88a12.83,12.83,0,0,0-9.27,1.43c-4.48,2.59-3.89,2.6-4,3.7s4.87.1,10,1.47c5.71,1.55,7.22,3,7.22,3l12.13,6.11"/><path class="cls-26" d="M402.82,594S383.23,574,374.74,582.38c-5.77,5.66-10.95,28.16-9,28.78s37.33,30.7,42.55,31.17,16.29-13.71,17.91-21.87-20.18-73.3-20.18-73.3l-19.17-9.81"/><polygon class="cls-3" points="395.82 587.68 394.96 570.18 402.8 593.69 395.82 587.68"/><ellipse class="cls-1" cx="350.85" cy="457.37" rx="12.23" ry="10.27" transform="translate(-205.07 609.82) rotate(-67.84)"/><ellipse class="cls-28" cx="350.58" cy="457.26" rx="9.16" ry="7.69" transform="translate(-205.14 609.49) rotate(-67.84)"/><ellipse class="cls-23" cx="350.18" cy="456.4" rx="2.58" ry="2.17" transform="translate(-204.59 608.59) rotate(-67.84)"/><ellipse class="cls-29" cx="330.14" cy="488.56" rx="2.46" ry="3.08"/><ellipse class="cls-29" cx="358.19" cy="494.5" rx="2.49" ry="3.08"/><path class="cls-3" d="M412,641.64s15-14.38,14.18-23.32-19.67-71.66-19.67-71.66l-19.76-8.13-.66,7.53,13.79,6.77s32.42,70.6,18.51,80.94"/><path class="cls-3" d="M384.16,581.26s19.58,11.12,23.27,15.93,7.83,15.94,7.83,15.94Z"/><path class="cls-30" d="M402.82,594S383.23,574,374.74,582.38c-5.77,5.66-10.95,28.16-9,28.78s37.33,30.7,42.55,31.17,16.29-13.71,17.91-21.87-20.18-73.3-20.18-73.3l-19.17-9.81"/><polygon class="cls-27" points="347.55 582.46 351.84 583.78 338.59 599.69 333.7 601.76 335.24 596.82 347.55 582.46"/><line class="cls-26" x1="354.61" y1="584.55" x2="360.62" y2="591.15"/><path class="cls-31" d="M224.09,83.47s64.79-39.64,115-1.48c59.35,45.11,23.32,116.35,23.32,116.35"/><path class="cls-31" d="M264,324s-66,50.21-67.52,50.21"/><path class="cls-31" d="M81,522.68s-24.31,63,22.43,111.41c51.12,53,125.47,22.12,125.47,22.12"/></svg>