<svg id="Lager_1" data-name="Lager 1" xmlns="http://www.w3.org/2000/svg" viewBox="0 50 478 603">
<defs>
<style>.cls-1,.cls-14,.cls-15,.cls-35,.cls-36{fill:#fff;}.cls-2{fill:#449298;}.cls-20,.cls-29,.cls-3,.cls-8{fill:#75bfcb;}.cls-11,.cls-12,.cls-13,.cls-16,.cls-17,.cls-18,.cls-19,.cls-24,.cls-25,.cls-26,.cls-27,.cls-28,.cls-30,.cls-31,.cls-32,.cls-33,.cls-34,.cls-37,.cls-38,.cls-39,.cls-4,.cls-40,.cls-41,.cls-5,.cls-6{fill:none;}.cls-12,.cls-14,.cls-15,.cls-16,.cls-17,.cls-19,.cls-20,.cls-24,.cls-26,.cls-28,.cls-29,.cls-32,.cls-34,.cls-35,.cls-36,.cls-4,.cls-5,.cls-6{stroke:#191919;}.cls-11,.cls-12,.cls-13,.cls-14,.cls-15,.cls-16,.cls-17,.cls-18,.cls-19,.cls-20,.cls-21,.cls-22,.cls-24,.cls-25,.cls-26,.cls-27,.cls-28,.cls-29,.cls-30,.cls-31,.cls-32,.cls-33,.cls-34,.cls-35,.cls-36,.cls-37,.cls-38,.cls-39,.cls-4,.cls-40,.cls-41,.cls-5,.cls-6{stroke-linecap:round;}.cls-11,.cls-15,.cls-16,.cls-18,.cls-26,.cls-4,.cls-6,.cls-8{stroke-miterlimit:10;}.cls-4,.cls-5{stroke-width:1px;}.cls-12,.cls-13,.cls-14,.cls-17,.cls-19,.cls-20,.cls-21,.cls-22,.cls-24,.cls-25,.cls-27,.cls-28,.cls-29,.cls-30,.cls-31,.cls-32,.cls-33,.cls-34,.cls-35,.cls-36,.cls-37,.cls-38,.cls-39,.cls-40,.cls-41,.cls-5{stroke-linejoin:round;}.cls-11,.cls-12,.cls-13,.cls-6{stroke-width:1.5px;}.cls-7{fill:#191919;}.cls-41,.cls-8{stroke:#fff;}.cls-8{stroke-width:0.5px;}.cls-22,.cls-9{fill:#71bbcc;}.cls-10{fill:#94ceda;}.cls-11,.cls-13,.cls-21,.cls-22,.cls-25,.cls-30,.cls-33{stroke:#000;}.cls-14,.cls-15,.cls-19,.cls-20,.cls-21,.cls-22{stroke-width:1.44px;}.cls-16,.cls-17{stroke-width:0.96px;}.cls-18,.cls-27,.cls-31,.cls-37,.cls-38,.cls-39{stroke:#75bfcb;}.cls-21,.cls-23{fill:#95cfdb;}.cls-24,.cls-25,.cls-29{stroke-width:1.51px;}.cls-26{stroke-width:1.01px;}.cls-27{stroke-width:1.25px;}.cls-28,.cls-30{stroke-width:1.02px;}.cls-31,.cls-32,.cls-33,.cls-35{stroke-width:1.46px;}.cls-34,.cls-36,.cls-37,.cls-40,.cls-41{stroke-width:0.98px;}.cls-38{stroke-width:0.83px;}.cls-39{stroke-width:2px;}.cls-40{stroke:#71bbcc;}</style>
</defs>
<rect class="cls-1" width="478.06" height="917.36"/>
<path class="cls-2" d="M387.32,83.6a3.18,3.18,0,0,1-.19,1l-8.65,24c-3.26,9.79-5.06,14-11,13.86H159.35a3.8,3.8,0,0,1-3.72-3.07l-6.11-31.81-16.65,52.75a3.78,3.78,0,0,1-3.65,2.8h-.12a3.79,3.79,0,0,1-3.59-3L109.15,72.44,97.43,119.68a3.79,3.79,0,0,1-3.67,2.87H76.87a3.79,3.79,0,0,1,0-7.58H90.79l15.06-60.69a3.79,3.79,0,0,1,7.39.16l16.51,68.5,16.74-53.08a3.79,3.79,0,0,1,7.38.27L162.48,115h205c1.9,0,3.82-6.76,3.82-6.76l-11-23.7a2.65,2.65,0,0,1-.25-1,2.56,2.56,0,0,1,2.55-2.54h2.6a2.77,2.77,0,0,1,2.55,1.7l5.64,13.2c.54,1.34.91,2.61,1.33,3.94a26.61,26.61,0,0,1,1-4l4.18-12.72a3.14,3.14,0,0,1,3-2.12h1.76A2.69,2.69,0,0,1,387.32,83.6Z"/><path class="cls-2" d="M166.47,94.57c0-8.18,5.82-14.3,14.85-14.3s14.85,6.12,14.85,14.3-5.82,14.31-14.85,14.31S166.47,102.75,166.47,94.57Zm7.46,0c0,4.55,3.15,7.82,7.39,7.82s7.45-3.09,7.45-7.82-3.21-7.75-7.45-7.75S173.93,89.85,173.93,94.57Z"/><path class="cls-2" d="M208.11,82.64a11.86,11.86,0,0,1,7.21-2.37c8.12,0,13,5.82,13,13.88,0,9-6,14.73-15.58,14.73a24.67,24.67,0,0,1-9.94-2.19,3.12,3.12,0,0,1-1.63-2.54V68a2.28,2.28,0,0,1,2.24-2.24h2.48A2.28,2.28,0,0,1,208.11,68Zm0,18.36a8.65,8.65,0,0,0,5,1.39c4.36,0,7.75-2.85,7.75-7.76,0-5.21-3.21-7.81-7.15-7.81a7.52,7.52,0,0,0-5.57,2.6Z"/><path class="cls-2" d="M238.59,80.94a2.28,2.28,0,0,1,2.24,2.24V106a2.28,2.28,0,0,1-2.24,2.24h-2.48a2.28,2.28,0,0,1-2.25-2.24V83.18a2.28,2.28,0,0,1,2.25-2.24Z"/><path class="cls-2" d="M248.65,101.18a1.79,1.79,0,0,1,1.46-.79,3.14,3.14,0,0,1,1.81.67,11.92,11.92,0,0,0,6.73,2c2,0,3.58-.85,3.58-2.55,0-4.42-14.73-2-14.73-11.94,0-5.33,4.36-8.3,10-8.3a16.31,16.31,0,0,1,9.09,2.55,2.25,2.25,0,0,1,.55,3l-.67,1a2,2,0,0,1-1.7,1,3.86,3.86,0,0,1-1.51-.43,11.27,11.27,0,0,0-5.4-1.27c-2.12,0-3.39,1.15-3.39,2.36,0,4.55,14.73,2.06,14.73,11.7,0,5.39-4.37,8.73-11,8.73A14.5,14.5,0,0,1,248,105.12a2,2,0,0,1-.66-1.52,2,2,0,0,1,.42-1.27Z"/><path class="cls-2" d="M290.83,104a2,2,0,0,1,.31,1,2.19,2.19,0,0,1-1,1.94,12.71,12.71,0,0,1-6.84,1.82c-6.18,0-8.49-4-8.49-11V75.6A2.28,2.28,0,0,1,277,73.36h2.49a2.28,2.28,0,0,1,2.24,2.24v5.34h6.55a2.28,2.28,0,0,1,2.24,2.24v2.06a2.28,2.28,0,0,1-2.24,2.24h-6.55v9.94c0,3,1,4.91,3.27,4.91A6.22,6.22,0,0,0,287,102a4.57,4.57,0,0,1,1.4-.31,2.07,2.07,0,0,1,1.88,1.22Z"/><path class="cls-2" d="M308.41,102.39a7.91,7.91,0,0,0,6.12-3.33V83.18a2.28,2.28,0,0,1,2.24-2.24h2.49a2.28,2.28,0,0,1,2.24,2.24V106a2.28,2.28,0,0,1-2.24,2.24h-2.49a2.28,2.28,0,0,1-2.24-2.24v-1.09a11,11,0,0,1-8.73,4c-5.33,0-9.57-3.46-9.57-11.28V83.18a2.28,2.28,0,0,1,2.24-2.24H301a2.28,2.28,0,0,1,2.25,2.24v13C303.2,99.79,304.59,102.39,308.41,102.39Z"/><path class="cls-2" d="M352.59,65.79A2.28,2.28,0,0,1,354.83,68V106a2.28,2.28,0,0,1-2.24,2.24H350.1a2.28,2.28,0,0,1-2.24-2.24v-.61a10.24,10.24,0,0,1-7.82,3.33c-7.82,0-12.85-5.51-12.85-13.81,0-8.61,6.19-14.61,15-14.61a10.58,10.58,0,0,1,5.7,1.34V68a2.28,2.28,0,0,1,2.24-2.24Zm-4.73,22.66a10,10,0,0,0-5.39-1.63,7.5,7.5,0,0,0-7.82,7.81c0,4.85,3.15,7.58,6.85,7.58a9.11,9.11,0,0,0,6.36-2.79Z"/>
<rect class="cls-2" x="233.94" y="68.87" width="6.81" height="6.81" rx="1.69"/>
<path class="cls-1" d="M60.4,395.73l3,1.75S52.64,416.58,52,418.92s-5.76,23-5.76,23l-9.8,44.12s10.13,5.75,14.39,7.75,16.09,7.34,22.6,9.43,19.93,2.08,19.93,2.08l2-17.59.5-37.11.17-33,.5-40.86a134.06,134.06,0,0,0,16.72.12,165.64,165.64,0,0,0,17.51-2.31s.13,1.19,1.13,15.82,2.5,21,3.12,26.65,6.26,26.52,10.64,42.9,9.25,34.15,9.88,36.28a10.83,10.83,0,0,1,0,4.71s15.85-2.58,20.6-4,19.76-11.13,19.76-11.13L193,474.41s-9.38-31.64-13.47-44.24-20.43-45.61-21-46.86.25-23.44.25-23.44,4.42,4.67,10.68,12.84,13.59,14.6,15.59,14.93,2.42-.67,6.42-2.42,3.92-6.5,5.76-15.26,4.34-10.84,4.34-10.84l2.91-.75.75-2.33c.76-2.59-.66-4.84-.83-8s-3.84-9.26-3.84-9.26L187.07,326l-7.67-.75-3.5,14.6-1.83.58s-7.51-14.59-9.68-20.1S153,297.91,153,297.91s-3.26-.92-4.84-1.25-7.51-3.67-7.51-3.67l3.09-7.67s-8.67-5.67-11.51-7S121,274.14,121,274.14l.41-1.83-8.42-.5-9-1.5-.08,3.92S93.51,277.31,91.42,278s-9.59,5.34-9.59,5.34l1.42,6s-2,.58-4.17,1-4.84,3-4.84,3-51.7,59-52.79,61.46-1.16,13-1.16,13,8.67,12.93,12.5,17.35,16.77,19.18,18.43,20.27,2.84-1,4.59-2.51S60.4,395.73,60.4,395.73Zm-11-31.46-2.88-.9,2.94-1.29-1.93-.87,14.63-17.39s-2,11.07-2,13.51,2.38,7.82,2.38,7.82L65,377.22l.25.06-.63.38Z"/><path class="cls-3" d="M112.79,199s-7.57-20.18-21.68-14.67c-9.09,3.54-4,13.84-4,13.84s-9.62-2.3-14.35,2.67a14.33,14.33,0,0,0-3.5,13.67s-10.77-5.16-19.18,1.84C36.73,227.45,47.74,244,47.74,244s-17,11.32-8.67,23.68c7.07,10.56,20.35.67,20.35.67a10.15,10.15,0,0,0,5.84,7.5c5.75,2.73,10.84-1.33,10.84-1.33a6.1,6.1,0,0,0,3.33,6.17c3.53,1.81,4.49,1.18,4.49,1.18l8.75-5,11.18-3a9.87,9.87,0,0,0,5.75,2.75c4.63.57,11.43-1.83,11.43-1.83l9.92,2.33,9.69,5.58s15.17,7.14,21.85-4.17c5.4-9.13-6.33-17.85-6.33-17.85s22.68-6.67,17.59-30.43c-3.59-16.8-27.27-11.43-27.27-11.43s8.16-13.28-.16-19c-7.76-5.34-14.35,1.66-14.35,1.66s.81-10.43-7.17-11.17S112.79,199,112.79,199Z"/><path class="cls-1" d="M83.83,236.74a18.24,18.24,0,0,0,7.76-3.55,49.69,49.69,0,0,0,5.25-4.92,12.93,12.93,0,0,0,7.59-.75c4.5-1.66,6.59-2.66,5.92-4.75s-4.92-1.25-6.25-1a25.57,25.57,0,0,0-3.84,1.33,11.34,11.34,0,0,0,.5-2.33,5.79,5.79,0,0,0-.33-2.17s3.92.75,6.84-.75,6.08-7.59,6.08-7.59a15.81,15.81,0,0,0,3.42,4.92,23.15,23.15,0,0,0,6,3,6.76,6.76,0,0,0,.14,1.55,5.5,5.5,0,0,0,.75,1.75s-1.94-.63-2.37,1.12,2.87,3,5.56,3.57a19.21,19.21,0,0,0,5.88.06,56.84,56.84,0,0,1,1.75,9.32c.13,3.32-1.06,11.26-.56,13.2s1.75,3.19,1.57,4.88-3.88,6.56-4.63,8.44-2.63,9.51-4.26,10.32-30-.88-35.08-6.5a28.68,28.68,0,0,1-6.45-12.45,8.66,8.66,0,0,1-3.5-.44c-1.63-.62-6.38-5-7.88-9.69s-.75-11.2,1.5-11,8.51,8.75,8.51,8.75Z"/>
<polygon class="cls-3" points="92.86 240.88 93.19 238.86 80.84 236.85 81.63 239.04 92.86 240.88"/>
<path class="cls-4" d="M84.58,249a31.21,31.21,0,0,0-4-6.34,9.13,9.13,0,0,0-5.42-2.92"/>
<path class="cls-4" d="M81.5,247.79a2.9,2.9,0,0,1-1.09-2.09A1.92,1.92,0,0,1,81.5,244"/>
<path class="cls-5" d="M119.48,241a24.68,24.68,0,0,0,4.69,5.38,33.57,33.57,0,0,0,5.88,3.69s-3.31,2.32-9.38,1.75"/>
<path class="cls-3" d="M92.15,241.71a11.73,11.73,0,1,1,11.73,11.73A11.75,11.75,0,0,1,92.15,241.71Zm2,0a9.73,9.73,0,1,0,9.73-9.72A9.75,9.75,0,0,0,94.15,241.71Z"/><path class="cls-6" d="M125.74,256.32a16.86,16.86,0,0,1-6.32,1.31,23.26,23.26,0,0,1-6.25-1.19"/><ellipse class="cls-7" cx="105.09" cy="242.81" rx="1.97" ry="3.19" transform="translate(-25.92 12.95) rotate(-6.28)"/><ellipse class="cls-7" cx="127.17" cy="240.43" rx="1.97" ry="3.19"/><path class="cls-4" d="M99.88,241.81a6,6,0,0,0-1.32-.54,9,9,0,0,0-1.69-.25"/><path class="cls-3" d="M119.86,426s-11.51,8.51-12.51,11.51-6.51,67.55-4.5,95.57,6.63,89.82,7.63,93.32a44.35,44.35,0,0,0,2.68,6.64.89.89,0,0,1-.69,1.28L77.78,635a.71.71,0,0,1-.58-1.21s15.47-9,17-12.63c1.59-3.87-15.34-48.29-20.85-71s-10.5-51-10.5-51a52.34,52.34,0,0,0,14.07,5,106.83,106.83,0,0,0,16.89,1.31s1.94-14.44,2.12-18.63.61-110,.61-110a93.43,93.43,0,0,0,16.72.12,114,114,0,0,0,17.51-2.31s2.29,32.88,3.88,41.8,12.88,53.58,16.64,66.72,4.63,15,4.25,16.51,0,1.33,0,1.33,10.47-.71,15.6-2.08a32.38,32.38,0,0,0,7.25-2.63s7.34,40.91,12.34,67.43,12.85,52,15.35,55.7c1.95,2.87,13.86,9.8,19,12.7a.72.72,0,0,1-.35,1.34l-31.92.3a.68.68,0,0,1-.66-.85c.59-2.13,1.92-7.79.59-11.65-1.67-4.84-31.35-52.56-43.7-85.73C126.2,474,119.86,426,119.86,426Z"/><path class="cls-4" d="M99.77,243.31a5.87,5.87,0,0,0-1.4.25,9,9,0,0,0-1.55.7"/><rect class="cls-8" x="137.27" y="232.02" width="2.5" height="8.49" transform="translate(-108.2 355.18) rotate(-85.35)"/><path class="cls-6" d="M132.74,226.61a55.4,55.4,0,0,1,1.55,8.82c.12,3.31-1.07,11.25-.57,13.19s1.65,2.38,1.57,4.88c-.06,1.7-2.78,5.38-4.17,8.88-1.76,4.42-3.09,9.07-4.71,9.89s-30-.88-35.09-6.51a28.68,28.68,0,0,1-6.45-12.45,8.76,8.76,0,0,1-3.5-.43c-1.62-.63-6.38-5-7.88-9.7s-.75-11.19,1.5-11,8.51,8.76,8.51,8.76"/><path class="cls-8" d="M121,237.21a11.61,11.61,0,1,1,11.61,11.6A11.62,11.62,0,0,1,121,237.21Zm2.51,0a9.1,9.1,0,1,0,9.1-9.1A9.11,9.11,0,0,0,123.49,237.21Z"/><path class="cls-3" d="M134.12,291.9s-12.76-5.58-13.26-6.88-.38-5.5-.38-5.5a45,45,0,0,1,11,4.13,41,41,0,0,1,7.13,5Z"/><path class="cls-3" d="M115.3,241a6.82,6.82,0,0,1,3.31-1.66,7.64,7.64,0,0,1,3.51.66l.85-1.81a9.51,9.51,0,0,0-4.62-.84,8.89,8.89,0,0,0-4.44,2.21Z"/><polygon class="cls-9" points="141.03 235.47 142.24 235.56 142.25 237.57 140.92 237.47 141.03 235.47"/><path class="cls-3" d="M128.87,289.47s-7.2,7.5-16.08,7.44a23.53,23.53,0,0,1-14.57-5.19s8.19-4,9.5-5.82-1.75-12-1.75-12l-1.75-.37s1.63,9.07.88,10.5-10.64,6.7-10.64,6.7,7,8.88,18.08,8.06a28,28,0,0,0,17.83-8.56Z"/><path class="cls-3" d="M104.6,278.14s1.25,4.76.5,5.88-13.51,9-13.51,9-5.38-4.75-3.63-7.38S104.6,278.14,104.6,278.14Z"/><path class="cls-3" d="M39.63,363.6c1.17,1.17,5.17-1.83,5.17-1.83l-.16,4.34,2.5-.5,14.34,12-4.33,5.17,2.16,1.34,14.85-2.84,5.42.17-.08-2.17,1.83-4.17a9.82,9.82,0,0,1-3.28,1.34,3.56,3.56,0,0,1-3-.59l-.44-11.3-.85-2-1.9,3,1.1,9.8S64.9,362,64.15,356.77C63.67,353.43,76,302.56,79,297.05s5.67-6.33,5.67-6.33,5.83,5.17,6.5,9.5,3.92,40.7,3.92,40.7l-2.25-44.87-2-3.83-8.68-7.51.67,5.17-7.17,2-10,12a6.17,6.17,0,0,1,2.19,3.57c.5,2-3.36,27.12-3.69,29.46S47,357.77,47,357.77s-5.67-1.84-6.34-.84,4.17,3.17,4.17,3.17S38.47,362.44,39.63,363.6Zm8.09.11.42-2.67,13.22-15.93.58.58-2.38,11.14,4.42,17,.25,3.34Z"/><path class="cls-3" d="M69,400.15a10,10,0,0,0-5,4.34c-1.66,3.17-1.75,9.42-1.75,9.42L61,419.33l-2.54,8.93-.63,13.92s-2.83-.5-6.17,6.84S45,473.35,47.81,478.88c6.17,12.17,44.7,25.85,44.7,25.85s-18.52,1-36-8.34c-13.17-7-20.06-10.34-20.06-10.34s12.22-57.71,16-68.05c3.43-9.34,11.72-19.85,11.72-19.85Z"/><path class="cls-3" d="M89.33,323.4c0,1.54-.12,6.07-.15,7.55a.48.48,0,0,1-.49.47L73.14,331a.47.47,0,0,1-.46-.5L73,322.9a.48.48,0,0,1,.49-.46l15.41.47A.49.49,0,0,1,89.33,323.4Z"/><polygon class="cls-3" points="83.96 414.25 85.96 405.24 82.79 404.57 80.58 414.08 83.96 414.25"/><polygon class="cls-3" points="67.65 411.12 66.32 404.07 63.98 404.49 65.15 410.58 67.65 411.12"/><path class="cls-10" d="M59.94,396.36l-6-3.13s-4.67,10.34-2.71,12.18S59.94,396.36,59.94,396.36Z"/><path class="cls-3" d="M138.21,294.91l14.17,9.88s2.05,8,3.38,17.39.79,39.11-.21,51.12a76.57,76.57,0,0,1-4,19.68,45,45,0,0,1,13.34,12.34c6,8.34,14,23,14,23l-20.35-45.45.25-23s20.27,26.6,25.36,27.36,7.33-2,7.33-2-.91,1.09-5.58-1.91-25-37.7-25-37.7a139.62,139.62,0,0,0,0-19l-7.51-26.69-1-1.63-2.37-.37-9.14-4.38Z"/><path class="cls-10" d="M187.07,326l-3.29,12.68s-3.5,2.88-4.25,6.38-.38,7.88-1.63,7.88-2.38-1.38-3-1-.38,5-1.25,5.38-1.75-14.51-1.75-14.51l2.37-.38.38-2.75,1.88-.63,1.87-13.63Z"/><path class="cls-10" d="M201.17,340.07s8.12,14.41,3.33,18.3c-1.33,1.08-6.83-4.54-6.83-4.54Z"/><path class="cls-11" d="M103.6,270.51s2.12,12.39,1.5,13.51-5.63,3.88-7.63,4.88A49.26,49.26,0,0,0,91.59,293"/><path class="cls-11" d="M121.11,273s-1.38,10.88-.25,12,13.84,6.63,13.84,6.63"/><path class="cls-12" d="M134.7,305.75s.54-7.11,2.42-9.68a8.55,8.55,0,0,1,3.5-3.08l3.42-7.17a54.63,54.63,0,0,0-12.59-7.93c-7.17-3-10.34-3.41-10.34-3.41"/><path class="cls-12" d="M144,285.82s-9.84,5.83-10.75,7.67-3,64.17-2.42,79.6a414,414,0,0,0,4.33,45.74c2.51,15.18,19.35,74.89,19.85,77.06a26.71,26.71,0,0,1,.5,5s13-1,19.85-3.33,21.18-11.68,21.18-11.68-11.67-40.36-17-55.71-20.43-45.36-21-47.28.25-22.77.25-23c0,0,5.9,6.66,11.76,13.76,5.1,6.18,10,12.87,13.6,13.6a7.37,7.37,0,0,0,6.25-1.67,7.75,7.75,0,0,0,4-2.75c1.57-2.14,4.13-20.48,6.09-22.44a12.08,12.08,0,0,1,3.42-2.25"/><path class="cls-5" d="M124,280.4a40.51,40.51,0,0,1,9,3.67,41.88,41.88,0,0,1,5.46,4.14"/><path class="cls-12" d="M103.85,273.89l.25.63a55.83,55.83,0,0,0-11.57,2.87,50,50,0,0,0-11,6.38s9,6.88,10.55,10.85,3.71,60.46,4,73.72-.25,113.08-.87,119.71-1.88,17.26-1.88,17.26a77,77,0,0,1-19.39-2c-11.26-2.5-37.53-17.26-37.53-17.26s13-60.3,16-68.05,11.26-20.39,11.26-20.39"/><path class="cls-5" d="M103,278.56s-14.76,4.21-15.32,7.82a7.71,7.71,0,0,0,.31,2.69"/><path class="cls-12" d="M81.58,283.77l1.75,6a23.12,23.12,0,0,1,3.55,2.67A24.54,24.54,0,0,1,90,296.57"/><path class="cls-12" d="M83.33,289.74s-5.92.08-9.09,3.58c-4.13,4.57-50.45,58.13-52.12,60.8s-1.83,13.67-1.83,13.67,6.67,10.35,12.5,17.35,18.35,20.18,18.35,20.18"/><path class="cls-12" d="M64.82,382.56s1.08-4.42-.59-5.26c-2.41-1.2-6.42,3.45-9.34,11.43s-5.21,15.57-3.67,16.68c3,2.15,9.18-9.18,9.18-9.18"/><path class="cls-12" d="M62.4,342.86s-4.17,6.25-7.59,10.26-7.59,8.09-7.59,8.09,2.17.5,2,1-2.83.58-2.67,1.16,2.84.67,2.84,1.26,15.68,13.51,15.68,13.51a59.17,59.17,0,0,0-1.67-9.6c-1.5-6.25-3.34-9.42-3.09-12.42S62.4,342.86,62.4,342.86Z"/><path class="cls-4" d="M71.16,304.25s-2.67,8.67-3.51,12.84S65,333.94,65,333.94"/><path class="cls-4" d="M79.58,381.47a9.71,9.71,0,0,1,.58-3.92c.75-1.83,1.5-3.25,1.5-3.25"/><path class="cls-4" d="M76.33,380.64a15.44,15.44,0,0,1-1.59-7c.25-3.42.34-11.51-1.08-11s-1.84,4.76-1.59,7.59a25.5,25.5,0,0,0,1.5,6"/><path class="cls-4" d="M73.18,381.44a3.88,3.88,0,0,1-1.59-1.5,6.52,6.52,0,0,1-.41-1.92"/><path class="cls-12" d="M57.84,382.25s1.1,1.6,2,1.54,15.82-3,16.95-2.76,11.38,3.19,11.38,3.19A2.78,2.78,0,0,1,86,385.85c-1.75.25-7.38-1-8.57-.88s-6.94,1.63-6.94,1.63l-.07.69a29.46,29.46,0,0,1,6.13-.5C78.45,387,89,389.48,89,389.48s-1.37,4.19-2.81,4.56-10-.12-11.38,0a20.79,20.79,0,0,0-4,1.13,7.63,7.63,0,0,0,2.6,1.66c1.38.43,9.91,1,10.29,2.72a8.06,8.06,0,0,1,.12.93s-11,.57-13,0A29.46,29.46,0,0,1,66,398.36c-1.5-.69-12.51-5.44-12.51-5.44s1.42-4.46,2.06-5.88C56.09,385.89,57.84,382.25,57.84,382.25Z"/><path class="cls-4" d="M87.08,413.24s-.33,9.93-1.33,10.6-6.5-.17-13.43-1.51a104.16,104.16,0,0,1-10.84-2.58"/><path class="cls-4" d="M84.92,414.16a6.94,6.94,0,0,1-3.09.17c-2-.25-18.18-4.25-19-3.75s-.59,3.33-.59,3.33"/><path class="cls-4" d="M60.06,423.42s-1.08,4.5-1.58,8.5a61.53,61.53,0,0,0-.42,7.84"/><path class="cls-4" d="M59.56,443.18a7.43,7.43,0,0,0,1.59,2.09c.92.75,15,5,15,5"/><line class="cls-4" x1="86.33" y1="426.5" x2="83.67" y2="428.17"/><line class="cls-4" x1="86.08" y1="428.34" x2="83.42" y2="430.01"/><line class="cls-4" x1="85.71" y1="430.19" x2="83.74" y2="431.35"/><polyline class="cls-4" points="80.14 413.93 79.27 405.61 74.76 406.05 75.51 412.81"/><path class="cls-12" d="M141.21,292.91a17.08,17.08,0,0,0,4.88,2.79,34.9,34.9,0,0,0,5,1.83l1.58,0s7.22,13.1,11.3,21.77c2.84,6,10,20.3,10,20.3l-.06,2.26a2.93,2.93,0,0,0-1.25,1c-.75.83.16,8.75.16,9"/><path class="cls-13" d="M175.4,345.61s-1.58-4.75-1.25-5.5.75.5,1.5.16,3.25-14.67,3.25-14.67.5-.67,4.34-.25c2.89.31,3.42.83,3.42.83"/><path class="cls-13" d="M200.58,338.77s3.76,6.34,4.51,12.09c.62,4.8-.17,7-1.17,7.26s-12.51-9-17.6-15.84c-6.87-9.24-7.42-16.68-7.42-16.68"/><path class="cls-4" d="M152.55,305.25a76,76,0,0,1,2.92,14.51c.75,7.84,1.5,26,1.5,26"/><path class="cls-1" d="M362.83,383.87s9.55,51,15.14,74.38c6.54,27.38,14.91,58.58,18.11,71.73s24.06,79.22,24.06,79.22a64.24,64.24,0,0,0,12.5,0c7.7-.64,10.59-1.93,10.59-1.93S424,503.36,415.65,453.66s-18.28-117.38-18.28-117.38-22.3,4.65-42,5.18c-20.57.56-38.15,0-38.15,0s-7.38,13.1-3.21,83.33,16.36,182.8,16.36,182.8,4.49,2.18,12.83,1.89a37.66,37.66,0,0,0,14.43-3.38s-1-4.71-1.92-17.53-.86-88.84-.86-88.84,1.74-30.49,1.1-58.4-.57-54.7-.57-54.7Z"/><path class="cls-14" d="M335.52,172.4c-2.7,11.14-1.12,36.61.59,45.06,1.63,8,8.07,9.14,19,8.49s17.23,0,19.24-3.63c2.78-5,2.63-14.86,2.63-14.86s13.12-3.05,10.72-12.05c-2.81-10.51-9.71-2.59-9.71-2.59s-.42-20.15-4.38-22.24c-4.58-2.42-12.67,1.06-20.74,1C343.64,171.43,336.51,168.33,335.52,172.4Z"/><path class="cls-15" d="M333.63,204.25s-9.7-4.38-7-12.08c2.22-6.39,7.47-1.09,7.47-1.09"/><path class="cls-16" d="M377.35,200.05a8.07,8.07,0,0,1,2.35-4.33,4.17,4.17,0,0,1,3.85-1"/><path class="cls-16" d="M330.25,194.63a3.25,3.25,0,0,1,2.42.43,7.58,7.58,0,0,1,1.4,3"/><path class="cls-17" d="M346,204.74s-1.6-3.24,2.2-3.7S359.07,206,359.07,206"/><path class="cls-17" d="M347.09,209.21a3.46,3.46,0,0,0,3,2.31c2.49.37,6.4-2.31,6.4-2.31"/><path class="cls-17" d="M350.19,206.78a28.24,28.24,0,0,0,4.23,0c1.81-.23,2.94-.39,2.94-.39"/><path class="cls-17" d="M360.67,206s1-.37,1-.88"/><path class="cls-17" d="M349.58,196.72s-3.2-1.79-2.16-3.56,4,0,4,0"/><line class="cls-18" x1="359.1" y1="193.55" x2="363.48" y2="195.15"/><line class="cls-18" x1="343.72" y1="193.55" x2="340.19" y2="195.19"/><path class="cls-3" d="M357.84,177s-.65,5.13,0,5.48,8.35-.71,8.35-.71.44-3.36-.89-4.07S357.84,177,357.84,177Z"/><line class="cls-18" x1="356.48" y1="182.14" x2="356.48" y2="178.71"/><path class="cls-3" d="M346.12,177.21s.51,4.54,0,4.8-8,0-8,0-.26-3.52.94-4.29S346.12,177.21,346.12,177.21Z"/><line class="cls-18" x1="347.21" y1="181.86" x2="347.21" y2="178.46"/><ellipse class="cls-7" cx="361.91" cy="189.01" rx="1.82" ry="2.8"/><ellipse class="cls-7" cx="342.38" cy="188.75" rx="1.82" ry="2.8"/><path class="cls-3" d="M387.54,343.17s-22.84,6.74-38.44,9-24.9,2.09-26.18,3.85-3.37,81.3,0,129.49,12,123.43,12,123.43l-4.28-1.75-13.36-139.4s-4-53-4.6-70.72c-.61-18.92,3.1-50.24,3.1-50.24l26,.88Z"/><path class="cls-3" d="M340.56,156.68s1.49-4.33,4.77-4.49a5.07,5.07,0,0,1,4.65,3s2.57-1.28,3-2.49,1.52,1.69,2.65,2.25,1.28,1.36,3.68,1,2.69-3.77,5.24-3.45a3.68,3.68,0,0,1,3.1,2.65,3.79,3.79,0,0,1,4.17-.73c2.33,1.13,2.49,4.18,2.49,4.18s.64.48,1.84-.48,1.6-.57,1.6-.57a9.41,9.41,0,0,1,1.29,4.09c-.08,1.77,2.16-1,3.36.81s-1.52,3.76.49,4.89,4.41,1.6,4.81,3.6-2,5.05-2,5.05,2.81-.21,3.13,2.46-2.65,4.52-2.41,6,1.85,0,1.85,0,2.56,2,1.2,3.81a20.94,20.94,0,0,0-2.25,3.94,4.58,4.58,0,0,0-4.83-3c-2.38.19-5.51,3.74-5.51,3.74s-.24-17.64-3.61-20.92-10.5.8-21,.56c-10.83-.25-13.34-2.57-15.08-.48s-2.4,19.24-2.4,19.24l-3.29-2.81s-3.2-1.84-2.16-3.77,1-1,1.13-3.25c.14-2-3.14-4.36-2.33-6s-.25-.4,1.44-.08,2.4-1.36,2.16-1.52-4-3.29-2.32-5.93,2.56-2.73,2.56-2.73-3.26-3.77-1.23-6,3.56-.24,3.88-1.69-.48-2.08.88-1.92S340.56,156.68,340.56,156.68Z"/><line class="cls-18" x1="373.15" y1="193.74" x2="376.04" y2="191.08"/><line class="cls-18" x1="373.15" y1="196.32" x2="376.04" y2="193.74"/><line class="cls-18" x1="373.72" y1="198.31" x2="376.04" y2="196.32"/><path class="cls-14" d="M376,236.14s-8.6-2.49-9.72-5.21a36.88,36.88,0,0,1-1.66-7.7H343.72s1,5.45,0,6.89-7.93,4.33-7.93,4.33,2.41,16.84,3.21,16.84,35.6-1.44,35.6-1.44Z"/><path class="cls-3" d="M370.87,380.94s.64,34.71,9,70.63,17.76,84.08,17.76,84.08l-21-83.16-13.8-68.62Z"/><path class="cls-3" d="M333.75,198.31s6.64,16.21,9.52,17.38,14.33,1.5,16.57,0,17.77-18.38,17.77-18.38,1.16,18.49-2.12,25.57c-2.34,5-9.24,4.38-19.81,5s-16.15.83-20.42-2.69S333.75,198.31,333.75,198.31Z"/><path class="cls-19" d="M362.83,383.87s9.55,51,15.14,74.38c6.54,27.38,14.91,58.58,18.11,71.73s24.06,79.22,24.06,79.22a64.24,64.24,0,0,0,12.5,0c7.7-.64,10.59-1.93,10.59-1.93S424,503.36,415.65,453.66s-18.28-117.38-18.28-117.38-22.3,4.65-42,5.18c-20.57.56-38.15,0-38.15,0s-7.38,13.1-3.21,83.33,16.36,182.8,16.36,182.8,4.49,2.18,12.83,1.89a37.66,37.66,0,0,0,14.43-3.38s-1-4.71-1.92-17.53-.86-88.84-.86-88.84,1.74-30.49,1.1-58.4-.57-54.7-.57-54.7Z"/><path class="cls-20" d="M334.83,233.54s8.6,8.71,21,7.43,17.79-6.9,17.79-6.9,32.64,11.87,34.08,13.79,16.68,45.22,16.68,45.22L392.5,304.79s10.42,31.75,7.85,33.67-21.8,6.09-44.49,8.18-41.62.8-41.94-1.45S321,305.11,321,305.11s-12.67-.48-19.89-2.09-13.3-4.33-13-5.45,16-47.63,17.47-49.23S334.83,233.54,334.83,233.54Z"/><line class="cls-14" x1="349.1" y1="388.71" x2="371.71" y2="380.06"/><path class="cls-1" d="M341.63,609.51h6.52l.75,11.5s-7.54-1.5-7.59-1.71S341.63,609.51,341.63,609.51Z"/><polygon class="cls-3" points="341.7 610 342.54 620.16 336.13 618.86 335.02 609.51 341.7 610"/><path class="cls-1" d="M429.87,609.44l7.76-.36,2.24,10.06s-8.58,1.07-8.63.86S429.87,609.44,429.87,609.44Z"/><polygon class="cls-3" points="430.36 609.55 433.92 621.87 427.5 620.57 423.43 609.33 430.36 609.55"/><path class="cls-19" d="M336.43,622c0-.86-1.48-13.11-1.48-13.11a23.61,23.61,0,0,0,7,.59c4.07-.24,6.46-.59,6.46-.59v14.17Z"/><path class="cls-19" d="M429.22,625.87c-.21-.64-6.2-16.45-6.2-16.45a44.11,44.11,0,0,0,7.06,0c3.67-.32,7.28-.77,7.28-.77l3.41,14.44Z"/><path class="cls-3" d="M313.61,636.56a.36.36,0,0,0,.2.66c6.17.1,36.22.56,37.38.18.62-.21-.88-4.28-1.5-8.36a48,48,0,0,1-.44-8.2.36.36,0,0,0-.3-.37l-13.73-2.65a.36.36,0,0,0-.39.18c-.68,1.3-4.18,7.61-9.73,11C320.32,631.86,315.54,635.19,313.61,636.56Z"/><path class="cls-3" d="M461.71,636.18a.57.57,0,0,1-.32,1c-7.36.12-35.62.53-36.74.16-.63-.21.88-4.27,1.5-8.35a46.9,46.9,0,0,0,.44-8,.59.59,0,0,1,.47-.58l13.41-2.58a.56.56,0,0,1,.61.28c.83,1.55,4.28,7.58,9.66,10.83C455.13,631.61,459.52,634.64,461.71,636.18Z"/><path class="cls-14" d="M412.45,295.89c.16,1,3.21,9,2.89,17.7a50.23,50.23,0,0,1-2.24,14l-9,2.24-75.37-27.9Z"/><path class="cls-14" d="M296.52,300.6s-3.59,19.88-2.73,22c.31.73,3.87,4.18,7.86,3.52,20.54-3.39,77.82-22.25,82.23-22.07,5.27.21,17.67,5.56,17.67,5.56s.64-5.13-1.07-6.85-5.56-6.84-8.77-6.84-74.19,3.85-74.19,3.85Z"/><path class="cls-3" d="M297.13,301.1s-3.5,19.26-2.67,21.24A8.68,8.68,0,0,0,302,325.4c9.66-1.6,25.69-6.16,41.85-10.86,16.58-4.82,33.17-9.75,33.17-9.75s-68.3,14.53-71.53,12.13c-2.46-1.83,3.46-16.09,3.46-16.09Z"/><path class="cls-14" d="M316.08,288.41c.48-.16,13.79,3.69,18.92,5.93a33.37,33.37,0,0,1,7.42,4.17s-24.9,1.23-25.06,2.09c-.58,3.13-4.16,9.12-5.93,9.93s-4.65,0-4.65,0,2.09-10.9,2.89-13.14S316.08,288.41,316.08,288.41Z"/><path class="cls-21" d="M309.32,298.58l-2.06,6s-9-1-12.08-2a43.94,43.94,0,0,1-7.59-4.06L291.33,288"/><line class="cls-14" x1="405.72" y1="312.84" x2="401.55" y2="309.58"/><path class="cls-22" d="M393.7,296.44a10.39,10.39,0,0,1,3.3,2.9c.53.69,3.2,3.11,3.2,3.11s9.09-1.35,15.16-2.8a43.06,43.06,0,0,0,10.14-3.76L423.3,290"/><path class="cls-17" d="M336,297.59s-6.85,10.26-6.31,11.86,12.61-12.72,13.68-11.86-3.31,9.94-1.49,10.15,10.47-12.19,12-11.12-1.71,8.23,0,7.91,6.2-6.75,7.8-8"/><path class="cls-9" d="M308.54,310.09s5.24-7.47,6.79-10.44,19.46-1.48,19.46-1.48-16.12,1.2-17.64,1.71c-.44.14-.57,1.07-.95,2.15a25,25,0,0,1-1.89,3.9,23.21,23.21,0,0,1-3.15,4.16A8.47,8.47,0,0,1,308.54,310.09Z"/><path class="cls-3" d="M383.85,304.77s-11.56,6.25-11.79,7.46,27.35,15,27.35,15L357.8,311.91s15.28-4.57,17.72-5.22c2.08-.55,4.31-1.2,5.87-1.54A15.09,15.09,0,0,1,383.85,304.77Z"/><path class="cls-3" d="M406.26,302.24a18.42,18.42,0,0,1,.24,4.05,19.94,19.94,0,0,1-1.37,5.22l-2.8-2.17a19.23,19.23,0,0,0,0-3.41,8,8,0,0,0-.78-2.92Z"/><path class="cls-3" d="M348.74,226.76s.24,3.53-.8,5.13-7.56,4.86-7.56,4.86-1.32-.77-2.09-1.33-1.07-.8-1.07-.8,4.74-2.39,5.58-3,1.93-.82,2.11-3.41S348.74,226.76,348.74,226.76Z"/><path class="cls-1" d="M88.24,635.57c-.2.64,6.77,1.35,16.49,1.35a109.89,109.89,0,0,0,16.81-1.22l-1.68-8.62,9.67-15.93s4.67-.29,5.05-.48.46-2.47.88-3.64,3.74-4.67,3.87-5.13-1.22-.75-1.22-.75,27.83-58.57,27.83-58.66-4.88-3-4.88-3,13.37-26.57,16.73-34.21,14.28-51.71,14.28-51.71l6.15.81s3.88,44.84,4.56,47.95,9.32,39.69,8.14,40.83-6.89,1-8.07,2.56c-.88,1.2,4.19,33.66,8,51.26.24,1.09-1.72.24-1.84,1.6-.23,2.4,1.18,7,1.43,8.12.37,1.68,5,2.84,5,2.84l3.37,17.23-2.28,8.08h31.87l-18.94-12.55s-.53-11.36,1-14.31c.46-.9,3.35-.09,4.43-1.43,1.59-2,1.47-7,.79-9.44-.51-1.85-2.42.51-2.36-.31.81-11.84,0-22.57.05-29.5,0-14.12,5.78-62.72,8.58-95.29s-9.37-63.74-9.37-63.74l5.77-6,25.52-15.07,7.12-8.75,3.86-1,.66-3.48-15.06-19.87s-31.09-27.24-45-37.67c-3.21-2.39-9.52-3.4-9.77-3.55-1.4-.83-.4-5.27-.4-5.27l5.77-6.91a100.77,100.77,0,0,0,6.72-9.84s3.06,1.42,6.82-4.74,2.1-13.61-.26-15-6,2.26-6,2.26,0-3.31,0-5.27a33,33,0,0,0-.88-5.72l-33.14-18.66L169.85,257l-1.06,17s-8.66-1.14-9.79-.05-1.3,10.43.3,13.44,10.5,5.19,10.5,5.19,4.25,8.91,5,9.67,8.91,3.86,8.91,3.86a63.27,63.27,0,0,1,1.13,6.94c-.08,1.05-6.78,2.59-6.78,2.59l-47.15,44.95s-4.09,5-5.92,7.22-6.19,10.52-6.22,10.6-2.13,4.76-2.1,6.61,5.74,3.46,5.74,3.46l7.6,5.85,33.1,16.06L140.45,506l-24.55,87.3a12.29,12.29,0,0,0-2.47-.12c-.63.12-3.24,9.79-3.28,10.34s3.23,2.69,3.23,2.69-3.76,14.8-4.87,16.35S88.45,634.94,88.24,635.57ZM222.36,392.41,234,357.26l10.33,10,6.74,6L232.73,394ZM165.6,399.2l-5,1.16-18.93-19.64-2.52-1.2,9.24-7.46,13.12-15,6.81,36.24Z"/><path class="cls-3" d="M211.2,324.33s-7.51-4.71-8-7.29a57.59,57.59,0,0,1-.45-7.34l2.42-2.13.61,5.57,9.56,3.25Z"/><path class="cls-3" d="M170.77,399.64s-9.12,2.94-10.72,2.86-18.44-20.1-18.44-20.1l18.95,17.47Z"/><path class="cls-3" d="M142.81,364s-.56,5.22-2.57,8.24-7.18,6.94-7.18,6.94h5.1l12-9.51Z"/><polygon class="cls-23" points="247.92 361.72 255.4 371.81 251.03 372.59 242.71 366 247.92 361.72"/><path class="cls-23" d="M252.85,356.4s13.17,8.65,13.9,15.91c.29,2.84-1.58,5.11-5.1,8.83-4,4.2-26,19.84-27.35,21.65l-5.26,7,10.14-7.57L265.63,385l5.33-6.61,3.86-1,.66-3.48-17.19-23.15Z"/><path class="cls-3" d="M204.53,454.35a18.09,18.09,0,0,0-2.07,4.17c-1,2.75-2,11.1-2,11.1L198,453.93Z"/><path class="cls-3" d="M184,450.45s-2.47,22.76-8.52,39.91-20.18,48.66-20,49.78,2.36,3.81,1.91,5.83-23.1,54.15-23.1,54.15.73.45,0,1.34-2.63,2.19-3.08,3.31-.73,4.64-1.34,5.27-5.11-.67-5.11-.67-9,15.13-9.19,17.21,1.46,4.82.9,5.94-6.5,3.31-6.5,3.31l10.48-.4-1.52-7.73,10.32-16.43,4.6-.22s.78-4.74,1.93-5.83,3.19-3.08,2.66-3.48a4.36,4.36,0,0,1-1.2-1.37c0-.08,28.2-56.12,28-57.23s-4.71-4-4.1-4.68,16.78-33.54,20.33-44.74S192.07,453,192.07,453a27.37,27.37,0,0,1-4.69-1.27C184.86,450.76,184,450.45,184,450.45Z"/><path class="cls-3" d="M222.07,413.3a110,110,0,0,1,9.62,47.06c-.63,26.57-2.07,86.1-2.52,105.27a205.36,205.36,0,0,0,1.45,32s1.9-.48,2,1.33,1.4,7.64,0,8.65-7.4,2-7.4,2-.67,14,0,15.79,13.23,8,13.23,8.75-3.7,1.29-3.7,1.29l15.25.73-.95-2.53s-18.67-8.5-19.17-10.48,1.64-14.29,1.64-14.29,4.41-.89,4.75-1.35.8-10.59,0-10.84a4.28,4.28,0,0,0-1.77-.09s-.23-28.42.1-34.14,4.54-45.91,4.54-45.91l4.32-54.06s-1.71-25.9-4.26-35.41a124.64,124.64,0,0,0-6.34-17.73Z"/><path class="cls-3" d="M169.14,292.94l-2.64,5.87a.15.15,0,0,0,.19.2l3.5-1.19a.14.14,0,0,1,.18.07l2,3.47a.15.15,0,0,0,.26,0l1-1.71a.17.17,0,0,0,0-.14l-3-6.57a.14.14,0,0,0-.14-.09h-1.22A.15.15,0,0,0,169.14,292.94Z"/><path class="cls-24" d="M217.82,264.48s.92,7.15.08,11.83c-.73,4,3.62,5.2,2.94,9.13S205.71,308.65,202,309.6s-25.56-5.77-27.24-8.12-4.49-9.42-4.49-9.42-9.47.28-11.27-6.95.4-10.71.4-10.71a7.63,7.63,0,0,1,7.2,1.1,7.14,7.14,0,0,1,3,4.79"/><path class="cls-25" d="M218.42,290.82s6.23-1.27,8-9.67-2.66-10.08-2.66-10.08a10.06,10.06,0,0,0-5.66,3.17"/><path class="cls-26" d="M170.31,286.51a11.94,11.94,0,0,0-3.53-5.21c-2.78-2.44-5.13-2.1-5.13-2.1"/><path class="cls-26" d="M166.36,287.09a3.85,3.85,0,0,1-1.18-2.76,4,4,0,0,1,.8-2.86"/><ellipse class="cls-7" cx="184.65" cy="276.25" rx="2.23" ry="3.45" transform="translate(-9.7 6.73) rotate(-2.04)"/><ellipse class="cls-7" cx="208.48" cy="275.32" rx="2.02" ry="3.45"/><path class="cls-26" d="M199.15,281a34.44,34.44,0,0,0,5.21,2.27c1.52.34-5.21,3.28-5.21,3.28"/><path class="cls-26" d="M196,286.09s.08-.67-.93-1.18-1.43,0-1.43,0"/><path class="cls-27" d="M179.89,275.62a10.05,10.05,0,0,0-2.18-.3,5.7,5.7,0,0,0-2.44.3"/><path class="cls-27" d="M179.89,278.19a5.27,5.27,0,0,0-1.76,0,9.19,9.19,0,0,0-1.77.57"/><path class="cls-27" d="M216.64,274.77a5.48,5.48,0,0,0-4.46-.11"/><path class="cls-27" d="M216.13,277.52s-.31-.42-1.72-.68a5,5,0,0,0-2.23,0"/><path class="cls-3" d="M187.8,261.46c.43.47.59,3.61,0,3.86s-2.89-.43-5.05,0c-3.36.68-4.79,2.19-5.17,1.18s1.39-4.31,3.91-5.15S187.27,260.87,187.8,261.46Z"/><path class="cls-3" d="M205,260.56c-.43.47-.59,3.61,0,3.87s2.89-.44,5,0c3.37.67,4.8,2.18,5.17,1.17s-1.38-4.31-3.91-5.15S205.49,260,205,260.56Z"/><path class="cls-26" d="M223.62,276.44s-3.4.07-5,1.89l-.48.54"/><path class="cls-26" d="M220.78,282.29a3.92,3.92,0,0,0-1.42-4.2"/><circle class="cls-7" cx="169.18" cy="289.27" r="1.13"/><path class="cls-26" d="M198.53,294.86s2.57-.4,1.59-2.21c-.73-1.35-3.13-.53-6.44-1.71-4.75-1.69-8.26-5.75-10.06-4.43-3.73,2.76,4.56,8.13,4.56,8.13"/><line class="cls-26" x1="187.17" y1="287.36" x2="184.52" y2="291.39"/><line class="cls-26" x1="190.52" y1="289.44" x2="188.18" y2="293.97"/><path class="cls-3" d="M181.67,248.61a.14.14,0,0,1,.27,0,32.08,32.08,0,0,0,4.57,10,114.7,114.7,0,0,0,9.65,11.08.14.14,0,0,0,.23-.13,56.66,56.66,0,0,1-2.09-9.11,9.15,9.15,0,0,1,.18-3.31.13.13,0,0,1,.21-.05c.79.72,5,4.34,13,6.12a66.6,66.6,0,0,0,16.82,1.31.13.13,0,0,0,0-.26c-1.3-.32-3.64-1-4.74-2.18a6.46,6.46,0,0,1-1.63-2.39.13.13,0,0,1,.09-.16,22.33,22.33,0,0,0,7.74-4c2.25-2,3.63-3.19,4.2-3.67a.13.13,0,0,0-.09-.23,25.89,25.89,0,0,1-7.33-.88,24.47,24.47,0,0,1-5.91-3.09.13.13,0,0,1,0-.22,27.28,27.28,0,0,0,7.57-9.56.13.13,0,0,0-.16-.17c-.66.17-2.8.56-7.19-.07-5.44-.78-8-2.52-13.12-2.61a18,18,0,0,0-7.54,1.42.13.13,0,0,1-.15-.21A11.1,11.1,0,0,0,199,231.5a13,13,0,0,0-.42-5.14.13.13,0,0,0-.25,0c-.47.94-2,3.78-4.17,4.64-2.58,1-5.91,1.1-8.87,2.65-3.87,2-5.22,4.35-5.34,5a.12.12,0,0,1-.15.1,10.52,10.52,0,0,0-3-.32c-.82.17-1.94,4.53-2.06,5a.12.12,0,0,1-.05.07c-.26.19-2,1.37-5.26.49a15.51,15.51,0,0,1-4.06-1.73.13.13,0,0,0-.17.13,5.07,5.07,0,0,0,.8,3.7c1.29,1.83,3.71,1.49,1.78,3.47s-6.27,11.23-6.95,11.75a.13.13,0,0,0,0,.22c.66.32,2.81,1.49,3.18,3,.4,1.69-.2,8.08-.27,8.81,0,0,4.93,8.09,6.57,8.85s-.48-1.16-.35-5.66c.06-2.23,1.21.75,2.24,1.3s-3.1-3.73-1.64-11.14,2-6.18,2-6.18,3.19,1.94,3.37,3.09.69-1.37.86-5.1a36.94,36.94,0,0,0,0-4.31A.13.13,0,0,1,177,254a15.53,15.53,0,0,0,3.38,2C181.35,256.27,181.61,250.93,181.67,248.61Z"/><path class="cls-3" d="M173.31,242.47c-.23-.64-1.71-7.24-3.76-6.29s-2.09,2.51-.92,4.12S173.31,242.47,173.31,242.47Z"/><path class="cls-24" d="M177.79,315.16s5.5-1.35,6.39-2.13-1.32-7.8-1.32-7.8"/><path class="cls-24" d="M205.36,307.07s-.55,5.17.46,6.07,6.5,1.46,6.5,1.46"/><path class="cls-25" d="M261.65,372.44s-6.95-1.12-9.86.79l-7.74-6.5"/><line class="cls-25" x1="232.73" y1="394.87" x2="251.79" y2="373.23"/><path class="cls-25" d="M260.42,354.06s15.92,18.27,15,21.52-3.47,1.8-4.93,3.7-4.82,6.39-8.86,9.08-23.33,14.43-23.33,14.43"/><line class="cls-24" x1="138.62" y1="379.19" x2="149.52" y2="370.36"/><path class="cls-24" d="M159.12,399.2s-16.19-17-18.77-18.68-7.51-.73-7.51-.73"/><path class="cls-24" d="M131.27,361a102.48,102.48,0,0,0-9,11.77c-3.48,5.61-3.48,7.51-4.26,8.86s-2.58,3.92,2.35,5.6,6.73,4.82,12.45,8.08,22.85,11.54,22.85,11.54"/><path class="cls-24" d="M232.3,407.77s13.43,24.88,8.89,75-7.9,70.63-7.9,88.12v25.9a40.12,40.12,0,0,1-11.1,1.51,40.74,40.74,0,0,1-11.27-1s-8.91-49.1-7.73-51.12,6.39-1.68,7.73-3-6.56-26.9-8.91-51.29S198,455,198,455"/><path class="cls-24" d="M192.07,453.93a321.92,321.92,0,0,1-12.26,44.5c-8.07,22.2-18.83,39-18.33,40.5s4.71,2.86,4,4.54-28.09,57.68-28.09,57.68a48.84,48.84,0,0,1-10.42-2,87.17,87.17,0,0,1-11.1-4.71s18.83-64,27.24-99.35c7.78-32.66,20.33-84.18,20.33-84.18"/><path class="cls-28" d="M198.87,418.86a3.65,3.65,0,0,0,2.35-2.13c.79-1.8.45-16.86.45-16.86"/><path class="cls-27" d="M195.39,399.87s1.13,18,.68,30.54-1.83,23.94-1.83,23.94"/><path class="cls-28" d="M213.33,406a150.87,150.87,0,0,1-15.13.9c-7.29,0-16.54-.45-16.54-.45"/><circle class="cls-7" cx="198.74" cy="403.33" r="1.57"/><path class="cls-24" d="M233.29,596.78s1.68-.9,2.24,0,.78,9.19-.67,9.75-4.87,2-12.39,2.36-10.37-.23-11.38-1-2.47-8.49-2-9.57a2,2,0,0,1,1.85-1"/><path class="cls-24" d="M137.43,601.15s1.46,0,1.46.78-2.47,2.92-3.47,4.6-.57,3.48-1.57,3.93-7.07.31-13-1.47-10.2-5.15-10.2-5.71,2-9.08,2.91-9.53,2.36.67,2.36.67"/><path class="cls-24" d="M214.79,609s3.25,15.93,3.36,17.16-2.13,6.73-1.68,8.18,33.3,1.46,33.63.79-20.4-10.68-20.62-12.85.7-14.31.7-14.31"/><path class="cls-24" d="M129.25,610.67s-9.53,15-9.75,16.71,1.79,6.93,1.68,8.17-32.29,1-32.4,0,18.61-10,20.23-13.1S114,606,114,606"/><path class="cls-24" d="M159.12,399.2s.76,1.19,1.45,1.17,11.6-1.79,12.41-1.58,8.22,2.61,8.22,2.61a2,2,0,0,1-1.68,1.13c-1.29.14-5.36-.92-6.23-.85s-5.09,1-5.09,1l0,.29a24.73,24.73,0,0,1,4.76-.21c1.4.23,8.74,2.49,8.74,2.49s-1.21,3.41-2.27,3.64-7.19-.73-8.19-.67a14.37,14.37,0,0,0-2.9.72,5.53,5.53,0,0,0,1.85,1.27c1,.36,7,.39,7.22,1.63,0,.26.27,1.3.27,1.3s-8,.13-9.48-.33a22,22,0,0,1-3.5-1.67c-1.07-.54-9-4.28-9-4.28"/><line class="cls-25" x1="232.73" y1="394.87" x2="229.04" y2="393.04"/><path class="cls-29" d="M255,346.88S232.67,320.15,232.73,319s-6.38-2.07-9.64-2.88c-3.76-.93-10.77-2.53-10.77-2.53s-.39,15.37-14.35,14.59-20.85-14-20.85-14-19.32,8.73-21.43,10.58-21.28,27.57-21.28,27.57l-1.57-1s-5.33,7.06-5,7.9S140.57,366.67,146,370s9.71,5.86,9.71,5.86,3.14-7,2.62-8.08a1.68,1.68,0,0,0-1.37-1l3.53-6.56a190.81,190.81,0,0,0,1.85,19.62c1.52,9.81,2.85,17.49,2.85,17.49s10,2.27,34,1.92,29.51-2.54,29.51-2.54L234.3,360l1.34,2.69-.67,2,3.35,5.27s7-2,14.53-9,8.8-8.75,8.8-8.75l-5.49-6.89Z"/><path class="cls-24" d="M222.81,398.12s-8.47,1.7-23.72,1.75a324.77,324.77,0,0,1-32.62-2l-.43,1.62"/><path class="cls-25" d="M227.79,397.28c-.64.22-5.23.68-6,1s-8.53,3.34-8.53,3.34a2,2,0,0,0,1.84.86c1.28-.06,5.13-.47,6-.54s5.2-1,5.2-1l.08.28a42.32,42.32,0,0,1-4.36,2.08c-1.35.44-8.62,2.25-8.62,2.25s1.72,3.18,2.8,3.25,7.05-.74,8.05-.84a16.33,16.33,0,0,0,2.92-.83,5.66,5.66,0,0,1-1.64,1.55c-.92.5-6.85,1.45-6.89,2.71,0,.27-.06,1.33-.06,1.33s8-1.1,9.31-1.78a21.79,21.79,0,0,0,3.21-2.19c1-.7,7.22-5.93,7.22-5.93"/><path class="cls-24" d="M208.23,452.52a27.93,27.93,0,0,1-10,1.83c-5.46-.06-6.15-.81-6.15-.81"/><line class="cls-28" x1="133.06" y1="351.73" x2="157.97" y2="367.72"/><path class="cls-30" d="M256.51,345.81s-7.17,8.14-10.87,11.28A130.76,130.76,0,0,1,235,364.71"/><path class="cls-1" d="M333.45,363.5l-27.56-11.17L294.8,332.74l-34.89,3.7-7.3,13.3L226.17,360,213.93,375.3l-3.2,22.58,3.32,45.86s-17,59.84-11,75c2.62,6.66,16.71,13.6,23,17.05,21.85,12,54.14,9,54.14,9l.86-23.4,17-1.35,2.47,25.49,29.1-6.39,19-6.95,4-7.39-.91-26.18-4.55-36.72-8.16-40.54L339.4,390l-1.85-17.42Z"/><path class="cls-3" d="M291.89,353.1a5.17,5.17,0,0,0-.87-3.36c-1.08-1.42-6.8,2.5-15.17-.44S265.4,343,265.4,343l12.51,2.46,15.5-2.61,2.06,6.86Z"/><polygon class="cls-3" points="294.04 341.78 294.37 347.42 297.65 351.26 298.2 344.35 294.04 341.78"/><path class="cls-31" d="M264.9,353.65a34.8,34.8,0,0,0,15.13,4c8.59.21,15.44-7.94,15.44-7.94"/><path class="cls-32" d="M293.76,341.92a10.7,10.7,0,0,0,.52,6.13,7,7,0,0,0,3.92,3.42"/><path class="cls-3" d="M296.38,440.64l-20.05,1,3,59.87a85.72,85.72,0,0,1,8.67-2.93,29.19,29.19,0,0,1,8.78-1.36Z"/><line class="cls-33" x1="262.81" y1="342.88" x2="262.32" y2="345.49"/><path class="cls-3" d="M323,359.26s-11.58,16.26-11,18.22,5.77,10.18,5.47,11.94-20.94,73.38-20.94,73.38l1-12.8s4.36-23.74,6.37-31.66,9.22-28.89,9.22-28.89L305,378l10.9-21.76Z"/><path class="cls-3" d="M328.23,390.1s8.65,47.83,11.56,79.66c.12,1.28,1.31,1.41,1.77,4.23,1.38,8.45,2.92,23.56,3.16,26.22a4.36,4.36,0,0,1-1.86,4.14c1.27,13.32,2.35,17.14,0,20.67-3,4.57-37,19.35-37,19.35s42.64-7.6,45.62-15.11c2.49-6.27-.49-38.15-4.32-66.17-3.31-24.27-10.41-42.15-8-45.79,0,0,1.23-27-1-39.76-.71-4-3.57-15.51-6.83-14.9-.21,0,.77,4.67.22,9.78A157.43,157.43,0,0,1,328.23,390.1Z"/><path class="cls-32" d="M338.89,421.39s3.68-44.73-5-56.48c-2.78-3.75-18.48-8.81-18.48-8.81"/><path class="cls-34" d="M329,387.11s2.61-12.41,2.77-17.47-1.38-7.39-1.38-7.39"/><path class="cls-3" d="M228.43,376s-.13,11.4-.57,13.69-15.56,33.18-15.56,33.18l1.93,20.41,16.9-49.79.32-4.56Z"/><path class="cls-33" d="M298.31,520.15a46.16,46.16,0,0,0-8.27,0c-4.57.41-9,1.27-9,1.27"/><path class="cls-32" d="M248.3,351.47s-20.66,7.4-22.13,8.55-11.75,12.24-12.89,17.46-2.78,18.93-1.8,39.49,2.87,28.24,2.87,28.24"/><path class="cls-3" d="M331.65,538.29s-9.62,33.17-13.56,54.29c-4.28,22.94-8.09,35.26-6.29,37.67,1.48,2,8.18,6.15,10.5,8a.37.37,0,0,1-.23.66c-3.91,0-22.24.64-25,.4a.39.39,0,0,1-.35-.5l1-5s-.89-51.89-.49-72c.38-18.76-4.85-67.66-4.83-70.17,0-.05,4,1.46,4,1.46l4,52.48,13.86-3.09Z"/><path class="cls-3" d="M262.88,544.23s-1.89,28.11-2.38,48.33c-.45,19-.86,38.28-.56,40.26.21,1.34.67,4.81.92,5.78a.56.56,0,0,1-.59.71l-20.44.19c-.21,0-1.08-1.06-.89-1.13,2.51-.89,10.16-6.75,10.23-8.12.26-4.66-2.92-24.59-9.58-54.52-6.74-30.3-7.64-36.43-7.64-36.43l13.44,3.89Z"/><path class="cls-32" d="M294.8,341.92a4,4,0,0,1,3.4,2.43c1,2.36-2.53,86.82-1.7,131.13s4,70.08,4,70.08,48.44-8.47,51.05-16.3,0-45.7-6.85-80.62-12.73-54.84-12.73-54.84"/><path class="cls-3" d="M279.5,506.62s-2,31.46-4.42,33.09-29.26,2.34-29.26,2.34l16.4,3.51,20.12,1.27Z"/><path class="cls-32" d="M260.19,340.78s10.18,23.7,13.23,60.25,8.92,145.8,8.92,145.8-25.48.81-47.87-7.4c-12.62-4.62-30.43-15-31.72-22.74C197.36,484.21,231,394.45,231,394.45"/><path class="cls-35" d="M299.18,339.78s14.58,10.07,16.1,13.93S304.07,375.41,305,378s7.67,9.85,7.56,11.78-5.16,15.28-9.1,28.48c-4.35,14.58-7.08,37.7-7.08,37.7"/><path class="cls-36" d="M231.72,388.75s-3.74-15.51-4-19.6c-.61-8.32,0-9.89,0-9.89"/><polygon class="cls-3" points="262.08 455.98 258.4 468.47 254.99 468.27 258.53 455.38 262.08 455.98"/><path class="cls-3" d="M234.44,453c-.33-.11-5.55,0-5.55,0v8.06l4.36,2Z"/><path class="cls-34" d="M262.08,468.55s-.49,2.61-1.15,5.55.9,5.38-1,5.87-12.69-1.63-21.66-4.49a95.17,95.17,0,0,1-15-6.12V457.94a81.37,81.37,0,0,0,17.79,8C250.49,468.71,262.08,468.55,262.08,468.55Z"/><path class="cls-34" d="M222.58,475.48s-2,23.1-1,24.89,5.39,5.39,15.18,8.65,19.91,5.39,20.73,4.74.89-5.88.89-5.88"/><path class="cls-3" d="M319.08,462l-2.17-12.53a3.27,3.27,0,0,0-1.5,2.29c-.13,1.47-2.29-.17-1.7,1.79s1.7,9.27,1.7,9.27Z"/><path class="cls-34" d="M338.78,457.94s1.76,9.86.88,11.05-4.3,1.84-10.67,3.15-17.3,3.34-17.3,3.34-3.1-9.71-2.77-11,14.71-2.61,18.61-3.27,8.15-1.49,8.15-1.49"/><path class="cls-34" d="M312,482.26c0,.49.49,23.33,1.63,25a21.67,21.67,0,0,0,1.76,2.28"/><path class="cls-34" d="M342.86,505.11s-10.09,4.73-15.33,5.38a26.53,26.53,0,0,1-8.17,0"/><path class="cls-34" d="M238.87,465.26c.14-.85,1-5.09,1-5.09l-2.82-1-1.28,4.94"/><line class="cls-34" x1="261.85" y1="482.11" x2="258.1" y2="483.86"/><line class="cls-34" x1="261.85" y1="484.72" x2="258.1" y2="486.6"/><line class="cls-34" x1="261.85" y1="487.33" x2="258.1" y2="489.33"/><path class="cls-3" d="M245,363.79s11.74,15.17,11.71,16.85c0,2.12-5,8.12-4.73,10.11.07.68,7.29,13.09,12.73,28.51C270.86,436.6,276.33,456,276.33,456a327.71,327.71,0,0,0-8.82-36.91,215,215,0,0,0-11.74-28.72c0-.25,6.12-9.8,6.12-9.8Z"/><path class="cls-3" d="M256,394.61H237.87a.38.38,0,0,0-.36.4v8.52a.38.38,0,0,0,.36.4H256a.38.38,0,0,0,.36-.4V395A.38.38,0,0,0,256,394.61Z"/><path class="cls-35" d="M257.18,339.78s-14.77,18.93-14.81,20.72,19.54,18.31,19.22,20.5-5.55,8.39-5.39,10,5.55,10.94,11.1,27.42,10.16,41.27,10.16,41.27"/><path class="cls-35" d="M249,304.11s-.41-5.23-2.84-5.18-8,7.28-5,14.29c2.58,5.91,4.61,6.87,4.61,6.87"/><path class="cls-35" d="M314.68,317.61s8.56-24.83-18.27-38.8c-22.89-11.91-43.26,9.73-43.92,13.82-.46,2.77.72,5.71-.67,8.13s-5.65,4.26-6,12.63c-.26,6,2,24.3,23.3,31.58s37.72-9.23,37.72-9.23"/><path class="cls-35" d="M309.81,320.77s8.91-6,12.41-4.09,1,17.85-9.08,19.68a14.61,14.61,0,0,1-9.75-1.59"/><path class="cls-34" d="M319.85,321.09a18.31,18.31,0,0,0-8.27,3c-3.55,2.48-5.81,4.68-5.57,5.29s1.53.75,1.53.75"/><path class="cls-34" d="M308.55,332.06c.12-.23,2.7-.9,3.45-3.41a6,6,0,0,0-.42-4.53"/><path class="cls-34" d="M245.11,302.51a3.26,3.26,0,0,1,1.5,2.23,20.34,20.34,0,0,1-.16,4.72"/><path class="cls-34" d="M244.67,312.47a4.94,4.94,0,0,1-.57-3.73c.45-1.47,2.59-2.55,2.59-2.55"/><ellipse class="cls-7" cx="289.33" cy="311.33" rx="3.32" ry="2.35" transform="translate(-92.58 497.84) rotate(-73.13)"/><ellipse class="cls-7" cx="261.89" cy="305.29" rx="3.31" ry="2.13" transform="translate(-106.27 467.29) rotate(-73.13)"/><path class="cls-34" d="M299,311.33a30.33,30.33,0,0,0-4.11.38"/><line class="cls-34" x1="297.52" y1="314.36" x2="294.51" y2="313.87"/><line class="cls-34" x1="258.14" y1="302.97" x2="255.87" y2="301.29"/><line class="cls-34" x1="257.41" y1="304.94" x2="255.87" y2="304.21"/><path class="cls-35" d="M275.72,307.42c.13.07-5.41-3.58-9-2.58-3.36.93,2.12,8.93,2.12,8.93"/><path class="cls-34" d="M277.17,313a11.52,11.52,0,0,1,3.27,2.9,12,12,0,0,1,1.5,3.68"/><path class="cls-34" d="M264.6,312.08a8.38,8.38,0,0,0-2.56,1.46,8.81,8.81,0,0,0-1.41,2.28"/><line class="cls-34" x1="277.18" y1="320.42" x2="277.08" y2="325.8"/><path class="cls-34" d="M273,321l-.26,5.66a20.21,20.21,0,0,1-6.2-1.42,9.61,9.61,0,0,1-3.63-2.55s-3.15-2.21-1.95-4.57c1.05-2.06,2.45.05,5.64,1.15,4.28,1.47,13.89.15,14.67,2.73,1.36,4.52-8.21,4.71-8.21,4.71"/><line class="cls-34" x1="263.78" y1="318.39" x2="262.62" y2="322.44"/><line class="cls-34" x1="268.24" y1="319.85" x2="267.39" y2="325.04"/><path class="cls-3" d="M298.38,300.94c1.33-1.12.46-5.55-3-7.77s-10.45-2.22-9.83,2.7c.32,2.56,3.5,2.39,5.47,3.15S296.93,302.18,298.38,300.94Z"/><path class="cls-37" d="M284.1,297a6.92,6.92,0,0,1-.15-2.08,11.71,11.71,0,0,1,.63-2.36"/><path class="cls-3" d="M257.32,292.78c-.71-1.3,1.34-4.55,4.8-5.23s9,1.45,7,5.17c-1,1.94-3.52.82-5.32.82S258.1,294.21,257.32,292.78Z"/><path class="cls-38" d="M269.89,294a5.64,5.64,0,0,0,.76-1.61,9.65,9.65,0,0,0,.23-2.07"/><path class="cls-34" d="M271,337s-3.71,1.34-6.7-.18c-3.46-1.77-3.2-3.39-3.2-3.39"/><path class="cls-3" d="M318.33,304.37s-1.75-4.24-4.82-3.44c-5.78,1.5-3.22,7.42-3.22,7.42s-6.11.35-4.43,5.58c3,9.32,10.91,2.71,10.91,2.71s10.46.77,9.75-7.73C326,302.22,318.33,304.37,318.33,304.37Z"/><path class="cls-3" d="M247.9,290.89a4.21,4.21,0,0,0-5.25,2.9c-1.18,4.11,1.1,5.54,1.1,5.54a3.65,3.65,0,0,1,2.4-.92c3.06.46,3.1,4.77,3.1,4.77s2.27-1.83,2.46-4.11c.24-2.77-.35-3.41,0-6.31.17-1.19,2-3.81,2-3.9s-.73-2.7-2.55-2.78C246.88,285.91,247.9,290.89,247.9,290.89Z"/><path class="cls-3" d="M310.89,307.59l4-5.61c-.54-.76-13-21.3-33.85-24.1-11.86-1.6-16.31,1.15-16.63,1.52a24.6,24.6,0,0,0-4.73,3,37.78,37.78,0,0,0-4.21,4.41c.21-.24,9.9-5.78,24.58-3.24C297.12,286.51,310.77,307.42,310.89,307.59Z"/><ellipse class="cls-1" cx="280.41" cy="275.28" rx="12.12" ry="10.18" transform="translate(-80.3 431.16) rotate(-67.84)"/><ellipse class="cls-39" cx="280.14" cy="275.17" rx="9.08" ry="7.62" transform="translate(-80.36 430.84) rotate(-67.84)"/><ellipse class="cls-40" cx="279.74" cy="274.31" rx="2.56" ry="2.15" transform="translate(-79.82 429.94) rotate(-67.84)"/><path class="cls-41" d="M285.48,315a13.77,13.77,0,0,1,3.72-.45,9.87,9.87,0,0,1,3.56.8"/><path class="cls-41" d="M257.14,307.52a13.46,13.46,0,0,1,3.73.41,9.79,9.79,0,0,1,3.28,1.58"/></svg>