<svg id="Lager_1" data-name="Lager 1" xmlns="http://www.w3.org/2000/svg" viewBox="0 60 477 500">
<defs><style>.cls-1,.cls-10,.cls-11,.cls-16,.cls-20,.cls-24,.cls-25,.cls-4{fill:#fff;}.cls-12,.cls-13,.cls-14,.cls-15,.cls-19,.cls-2,.cls-22,.cls-3,.cls-6,.cls-8{fill:none;}.cls-10,.cls-11,.cls-12,.cls-14,.cls-15,.cls-16,.cls-17,.cls-19,.cls-2,.cls-20,.cls-21,.cls-22,.cls-23,.cls-24,.cls-25,.cls-26,.cls-8,.cls-9{stroke:#75bfcb;}.cls-10,.cls-11,.cls-12,.cls-13,.cls-14,.cls-15,.cls-16,.cls-17,.cls-19,.cls-2,.cls-20,.cls-22,.cls-23,.cls-24,.cls-25,.cls-26,.cls-6,.cls-8,.cls-9{stroke-linecap:round;}.cls-2,.cls-21,.cls-4{stroke-miterlimit:10;}.cls-2{stroke-width:6.27px;stroke-dasharray:8.33;}.cls-4{stroke:#000;}.cls-17,.cls-21,.cls-23,.cls-26,.cls-5,.cls-9{fill:#75bfcb;}.cls-6{stroke:#191919;stroke-width:2px;}.cls-10,.cls-11,.cls-12,.cls-13,.cls-14,.cls-15,.cls-16,.cls-17,.cls-19,.cls-20,.cls-22,.cls-23,.cls-24,.cls-25,.cls-26,.cls-6,.cls-8,.cls-9{stroke-linejoin:round;}.cls-7{font-size:16px;fill:#1d1d1b;font-family:CirceRounded-Bold, Circe Rounded;font-weight:700;}.cls-8{stroke-width:1.83px;}.cls-9{stroke-width:2.4px;}.cls-10{stroke-width:1.68px;}.cls-11{stroke-width:2.37px;}.cls-12{stroke-width:1.05px;}.cls-13{stroke:#71bbcc;}.cls-13,.cls-23{stroke-width:0.56px;}.cls-14{stroke-width:2.47px;}.cls-15{stroke-width:2.34px;}.cls-16{stroke-width:1.12px;}.cls-17{stroke-width:2.1px;}.cls-18{fill:#71bbcc;}.cls-19{stroke-width:0.81px;}.cls-20{stroke-width:2.26px;}.cls-22{stroke-width:2.23px;}.cls-24{stroke-width:2.62px;}.cls-25{stroke-width:2.24px;}.cls-26{stroke-width:2.35px;}</style></defs><rect class="cls-1" x="0.38" y="0.07" width="478.06" height="917.36"/><circle class="cls-2" cx="246.88" cy="328.4" r="189.01"/><path class="cls-3" d="M418.64,333.3s-13.62-.43-16-3.09-5.42-9.9-4.77-15.09a9.36,9.36,0,0,0-5-9.52c-2.17-1.08-1.73,2.6-4.33-.21s-1.3-8.23-8.22-11.47l-.13,0a137.7,137.7,0,0,0-76.41-91.81c3.93-1.31,8.15-5.55,8.15-5.55L396.8,206Z"/><path class="cls-4" d="M384.29,327.17a137.3,137.3,0,1,1-4.07-33.29A137.21,137.21,0,0,1,384.29,327.17Z"/><path class="cls-5" d="M380.22,293.88c-6.88-3.07-13.29,8.08-13.72,13.89s-6.28,14.71-8.66,14.5-.43-6.07-1.52-9.09-4.76-4.11-5.63-8.22,2.17-11.7,0-12.35-1.29,3.9-4.32,4.34-6.71-9.09-9.74-9.53-11,2-13.85-1.73-3.67-2.16-6.71-.86-8.22-8-11.68-6.49,7.79,12.12,11.26,12.33,3.24-5.4,5-.87,4.54,1.73,6.27,3.46-4.75,10.18-6.92,11.26-3.68-.65-5,1.73-13.63,6.93-15.36,5.63-1.73-3-2.81-6.92-2.82-6.5-6.49-9.53,0-4.32-2.82-5.84-3.68-9.09-7.57-8.66,1.3,4.55,3.89,8.66-1.08,7.36,2.39,11,9.95,8.45,11.24,12.34,3.25,4.33,9.09,2.38,4.12-1.29,5.85-.64-1.52,7.13-2.82,15.51-15.37,14.56-19.48,19.32,2.82,14.93,3.9,20.56-8.87,5.41-10.6,9.43,2.16,6.59,2.16,8.32-2.59,1.73-6.06,2.59-3.89,6.06-5.41,12.12-14.06,6.92-18,7.36-2.59-1.52-1.51-4.34-1.73-5.61-5.84-10.81-3.25-13-5.85-19.7,2.6-6.49,3.68-13.62-5-14.29-8.46-19.48,1.1-8,0-11.41-4.3-.5-6.47-1.58-1.3-5.19-3.9-5.19-6.92,2.16-11,5.19-6.49,1.73-16-4.11-6.71-16-6.49-20.34-2.16-1.29-1.52-10.39S204,284,204.63,282.66s0-4.54,0-7.13,4.11-3.9,5.84-5.42-1.29-4.55,1.08-4.11,1.95,3.9,7.14,1.3,16-4.11,20.47-4.33.3,4.55,0,7.58,4,1.73,7.89,2.16,6.92,5,9.73,3.48-1.3-2.18,2.16-4.13,7.8,4.33,10.83,4.11,1.94-1.29,5-1.73,2.15,1.51,5.61,1.73,4.13-9.95,2.39-12.11-13,.21-16.19-3-3.93-4.77-5.66-3.47,1.94,7.36-1.09,8.13-1.51-7.05-2.81-8.56-2.6-2.81-2.81-3.9-2.38-.87-2.82,1.09,4.76,2.38,4.55,4.11-1.73-.87-3.68-1.09.21,5.2-1.3,6.49-1.51-1.29-1.09-3.46-4.11-3.46-6.92-5.4-1.07-4.34-3.77-6.28-4.24,2.17-5.75,2.76-3.9-1.89-5.63-1.68.87,2.59,1.3,4.76-6.06,1.52-5.62,5-9.31,7.36-9.53,5.84-4.11-2.38-6.17-3.46-.1-1.94.54-4.55-1.5-3.25,0-5.89,9.31.05,11.91,0,.21-4.49.65-6.87-3.46-1.3-5-3.46,4.54-2.61,7.36-3.25,5.19-4.55,6.92-6.3,5.63-.63,7.36-1-1.94-5.2,0-6.93,1.73,3.46,2.82,6.7,6-.64,9.51-1.5,4.12.64,5.42,0,0-3.9,1.51-6.28,3.46,3.46,4.77,2.59-2.61-2.81-2-4.55,7.57-1.08,6.93-2.59-5.85,1.09-8.44,1.3-3.68-4.76-3.68-6.07,5.84-2.37,5.84-4.32-10.16,1.52-10.16,4.76,3,2,3.46,5.19-7.57,8.88-9.95,8.45-2-6.49-3.25-7.58-2.38,2.17-5.42,3.24-3.68-4.54-3.68-7.35,4.34-2.81,7.92-4.12,3.67-4.64,8.21-8.75,12.14-6.23,15.74-4.87c2.52.95,3.9,2.43,8.27,4.7s8.12,2.28,7.31,4.87-7.14-1.79-6.17,2.43,7.8.65,9.74-2.91,4.87.32,7.63-2.76,8.44-1.14,12.66-1.79a6.81,6.81,0,0,0,1.26-.31A137.7,137.7,0,0,1,380.22,293.88Z"/><path class="cls-3" d="M330,439.52v27.06l-149.14.29,8.24-15a137.61,137.61,0,0,0,139.24-14A18.62,18.62,0,0,1,330,439.52Z"/><path class="cls-5" d="M328.33,437.85a137.61,137.61,0,0,1-139.24,14l1.18-2.12s13.11,1.42,16-3.43,6-9.7,8.26-9.13,7.7,3.14,9.42,2.57,34.5-6.84,37.07-6.27,0,2.29,4.27,2.29,16.53-5.71,21.1-5.71,2.85.29,7.7,1.71,6,1.71,11.57.57,5.26-5.13,7-2.28,3.41,1.14,3.41,4.28,5.14,1.43,7.71,1.14C325.18,435.34,327,436.68,328.33,437.85Z"/><path class="cls-5" d="M175.16,310c0,3.7-9.71-.85-11.13,11.12S166.6,332,161.46,340s-9.41,14.95-8.83,17.31,1.42,2.37.57,4.36-12.26,8.84-12.83,15.69.57,9.69.57,9.69,1.7,7.7-.57,11.7c-1.72,3-3.9,5.65-5.25,8.41a137.65,137.65,0,0,1-18.26-124.56c2.31-.23,9.43-.87,11.81.08a13.57,13.57,0,0,1,5.42,3.42c2.28,2,4,2.57,5.14,2.29s2.84-1.58,3.41.07,1.71,3.07,4,5.92,8,.84,10.85,2.84a25.41,25.41,0,0,1,5.41,6.06s0,2.5,5.13,1.93S175.16,306.32,175.16,310Z"/><path class="cls-5" d="M215.17,217.83s4-1.14,4.75,0-.19.19,0,1.71,1.33.57,2.09,2.66-1.52,1.9,0,4.56,3.42,0,2.28,3.61-15.78,7-14.06,5.14,4.75-4.95,4.94-5.14a6.28,6.28,0,0,0,.57-3.68c-.38-1.26,3.06.07,1.62-1.83s-1.81-2.66-3-3.42S215.17,217.83,215.17,217.83Z"/><path class="cls-5" d="M205.66,225.62c.57,0,5.14-2.66,6.09-2.47s1.33,1.9,1.9,2.47,2.66,2.66,0,3.42-4.76,1.52-5.33,2.66-4.56-2.28-4-2.66S205.66,225.62,205.66,225.62Z"/><path class="cls-5" d="M193.88,204.81c1.9-.29,2.47,1,4.56,1.23a11.26,11.26,0,0,0,5.84-.63c2.33-.89,4-1.15,5.34-.64a3.8,3.8,0,0,1,2.51,3.17c.19,1.52-3.62,3-3.81,4.37s-4.18,2.86-5.32,2.48-2.47-1.34-4.18-.57-3.8,1.33-4.94-.19-2.34-5.52-1.27-6.47A4.83,4.83,0,0,0,193.88,204.81Z"/><path class="cls-6" d="M384.29,328.4a137.28,137.28,0,1,1-4.07-33.3A137.21,137.21,0,0,1,384.29,328.4Z"/><text class="cls-7" transform="translate(279.31 98.42)">New Study!</text><path class="cls-8" d="M364.89,71.26s3.36.76,4.88,3.29a13.33,13.33,0,0,1,1.77,4.94"/><path class="cls-8" d="M369.18,68.67A6.69,6.69,0,0,1,372.33,71a10.45,10.45,0,0,1,1.57,2.88"/><path class="cls-8" d="M274,72.78s-3.36.76-4.88,3.29A13.31,13.31,0,0,0,267.32,81"/><path class="cls-8" d="M269.68,70.19a6.69,6.69,0,0,0-3.15,2.31A10.45,10.45,0,0,0,265,75.38"/><path class="cls-1" d="M229.2,133.35s-1.85,6.2-1.32,9.94a57.23,57.23,0,0,0,1.52,7.12h27.31l-2.33-18.92Z"/><polygon class="cls-9" points="233.85 116.77 247.16 116.77 250.11 136.96 232.39 135.1 233.85 116.77"/><rect class="cls-10" x="236.18" y="98.06" width="10.6" height="14.2" rx="3.83"/><path class="cls-1" d="M230.27,133.48a1.26,1.26,0,0,1-1.21-1.62l4.17-14.32a1.26,1.26,0,1,1,2.42.71l-3.51,12.05c4.37-1.37,12.78-3.91,14.8-3.91H247c3.1.06,4.47,4.59,4.71,5.5a1.26,1.26,0,0,1-2.43.65c-.4-1.47-1.46-3.61-2.33-3.63h0c-1.61,0-10.81,2.76-16.27,4.51A1.21,1.21,0,0,1,230.27,133.48Z"/><path class="cls-1" d="M252.9,133.48a1.14,1.14,0,0,1-.41-.07c-7.25-2.46-16-4.94-17.35-4.65-1.75.35-3.54,2.21-4.08,2.89a1.26,1.26,0,0,1-2-1.55c.1-.13,2.54-3.21,5.57-3.82,2.25-.45,11,2.23,16.06,3.88L246,118.36a1.26,1.26,0,1,1,2.34-.94l5.74,14.33a1.26,1.26,0,0,1-.26,1.33A1.24,1.24,0,0,1,252.9,133.48Z"/><polygon class="cls-10" points="248.67 165.99 248.93 161.43 242.43 146.07 240.57 146.07 239.7 161.31 242.43 165.99 236.79 185.91 231.94 146.07 232.39 135.1 249.98 136.09 251.61 146.07 260.26 185.91 248.67 165.99"/><path class="cls-9" d="M232.75,116.91l-2.25,5.53h5.61s1.35-5.23.9-5.53S232.75,116.91,232.75,116.91Z"/><path class="cls-9" d="M249.15,116.91l2.26,5.53H245.8s-1.35-5.23-.9-5.53S249.15,116.91,249.15,116.91Z"/><line class="cls-11" x1="236.49" y1="185.91" x2="233.08" y2="185.91"/><line class="cls-11" x1="260.83" y1="185.91" x2="264.16" y2="185.91"/><path class="cls-12" d="M231.46,123.43s-2.72,7.79-2.65,8.65a1.56,1.56,0,0,0,1.69,1.38c.71-.14,10.75-2.85,10.75-2.85"/><path class="cls-12" d="M250.84,123.47S254,131.09,254,132a1.52,1.52,0,0,1-1.61,1.48l-.86-.1"/><path class="cls-13" d="M251.52,133.33a2.75,2.75,0,0,1-.85.42"/><path class="cls-14" d="M368.21,84.83v17a9.64,9.64,0,0,1-9.6,9.61H296.42l-20.28,9.24,6.6,6.89L257.66,134l14.56-8.15-6.32-6.43L277,110.91a9.62,9.62,0,0,1-6.42-9v-17a9.65,9.65,0,0,1,9.61-9.61h78.47A9.64,9.64,0,0,1,368.21,84.83Z"/><polygon class="cls-1" points="64.91 333.15 51.2 339.9 59.16 373.45 68.29 367.67 64.91 333.15"/><polygon class="cls-10" points="49.44 359.19 47.97 349.11 76.68 333.91 82.04 357.98 49.44 359.19"/><path class="cls-15" d="M49.45,359.3s9.57,8.92,11.19,8.34,1.74-8.61,3.69-9.4,2.33,2,2.33,2"/><path class="cls-15" d="M48.32,348.93s9-5.1,8.7-6.25-8.58-.39-9.92-.88"/><rect class="cls-16" x="43.01" y="338.65" width="4.75" height="6.79" transform="translate(-293.32 407.89) rotate(-93.44)"/><path class="cls-17" d="M81.63,356.66l25.93,3.16S93,353,91,353.31s-11.87-2.82-11.87-2.82L78.44,346s8.4-3.95,11-3.47,14.83-5.75,14.83-5.75l-25,2-1,2.11-10.1,3.77L70,352.19l10.45-1.5Z"/><path class="cls-5" d="M45.2,355.54s3.68-3.88,1.89-6.83a5.71,5.71,0,0,0-6.21-2.54s-.28-5-4.18-4.69-3.5,6.77-3.5,6.77-2.67.94-3.41,2.69,1.71,4,1.71,4-3.06,6.35-1.1,9.33,7.5,2.86,7.5,2.86,1,4.59,5.14,2.82c3.45-1.46,2-5.8,2-5.8s3-.18,3.46-4.8C48.74,356.9,45.2,355.54,45.2,355.54Z"/><ellipse class="cls-1" cx="40.36" cy="355.72" rx="6.12" ry="5.68" transform="translate(-50.66 9.48) rotate(-8.26)"/><path class="cls-18" d="M40.34,362.65s.29-4.36-1.5-5.25-5.6-.65-5.6-.65,3.82-2.16,4.58-3.52.27-4.16.27-4.16l-5.37.78L32,358.39l7.58,4.36"/><circle class="cls-19" cx="41.62" cy="357.45" r="2.11"/><circle class="cls-19" cx="40.75" cy="351.44" r="2.11"/><line class="cls-16" x1="49.79" y1="355.96" x2="80.33" y2="351.53"/><line class="cls-16" x1="76.33" y1="341.21" x2="48.36" y2="351.77"/><line class="cls-20" x1="103.63" y1="332.74" x2="104.17" y2="336.44"/><line class="cls-20" x1="107.56" y1="359.82" x2="108.1" y2="363.53"/><path class="cls-1" d="M228.4,508s-6.31.36-6.4,4.41,8.32,15.87,8.32,15.87l34.44-2s2.19-13.43,0-14.63-23.46-5.12-23.46-5.12Z"/><path class="cls-21" d="M251.89,526.38l-14.27.63a1.1,1.1,0,0,1-.93-.49l-6.22-7.32a.59.59,0,0,1,.35-.9l5.07-1.23,1.9-8.39h12.93l1.52,8.39,5.44,1.24a.59.59,0,0,1,.36.9l-5.22,6.67A1.13,1.13,0,0,1,251.89,526.38Z"/><path class="cls-10" d="M237.48,508.37l-1.14-7.77,2.09-30.67,5.32,19.68L242.8,492l.95,9.67,7-12-1.52-2.34s11.62-18,11.43-17.38c-.13.47-4.53,19.62-8.2,30.88a77.78,77.78,0,0,0-2.24,8.63Z"/><path class="cls-22" d="M254.52,518.5s4.58-6.64,3.44-6.92c-.67-.16-6.95-.08-6.85-2.43a3.14,3.14,0,0,1,1.21-2.2"/><path class="cls-22" d="M233.27,519.08s-4.57-6.64-3.43-6.91c.66-.16,6.95-.09,6.85-2.44a3.17,3.17,0,0,0-1.22-2.2"/><path class="cls-10" d="M251.11,534.43s.58-2.38,0-3.33-6.66-3.22-7.52-2.61-3.51,4.61-2.85,5.94-.1,4.27-.1,4.27,6.37,4.37,8.66,2.85S251.11,534.43,251.11,534.43Z"/><path class="cls-23" d="M248.69,538.79a11.77,11.77,0,0,0-3.61-2.7,3.38,3.38,0,0,0-2.57,0l1.24,1.75-5.14-.86s-.28,4.76,3.62,5.52,2.88,1,2.88,1-2.14,1.52-1.44,1.27c2-.73,3.68,0,5.06-.76,2.59-1.33,3.7-3.57,5.56-3.57.86,0-1.7-1-1.52-2,.47-2.85-.09-3.64.58-4.11s-2.28.29-2.85,1.76A9.16,9.16,0,0,1,248.69,538.79Z"/><line class="cls-11" x1="260.86" y1="469.87" x2="264.09" y2="469.87"/><line class="cls-11" x1="234.72" y1="469.87" x2="237.95" y2="469.87"/><path class="cls-1" d="M383.17,436.37s20.7,12.05,30.12,10.46S425,419.9,410.68,410,383.17,436.37,383.17,436.37Z"/><line class="cls-24" x1="373.64" y1="395.78" x2="372.15" y2="397.9"/><line class="cls-24" x1="362.86" y1="411.18" x2="361.32" y2="413.38"/><path class="cls-10" d="M406.8,424.77l-5.49,7.8c-2,2.83-4.89,3.42-8.33,2.18,0,0-3.22-.95-4.76-1.64-5.58-2.53-7.87-5.49-7.87-5.49-1.94-1-2.32-3.8-.82-5.93l9.38-13.35c1.48-2.09,4.14-2.69,5.8-1.29a34.16,34.16,0,0,1,8.72,5.87c.77.75,3.57,4.23,3.57,4.23C408.61,420,408.79,421.94,406.8,424.77Z"/><circle class="cls-10" cx="408.82" cy="431.95" r="6.2"/><polyline class="cls-16" points="404.69 419.21 402.06 416.34 392.69 407.08"/><polyline class="cls-16" points="379.34 426.06 390.51 430.86 394.88 432.48"/><path class="cls-25" d="M404.9,424.75s-7.42-5.75-10.4-7.85c-4.63-3.25-8.17-5.21-8.17-5.21"/><line class="cls-25" x1="401.05" y1="430.43" x2="380.74" y2="418.84"/><polygon class="cls-26" points="379.15 421.41 362.93 411.02 382.06 416.52 385.84 411.31 371.99 398.13 388.86 407.24 385.8 411.95 392.49 416.42 388.27 422.57 380.89 418.25 379.15 421.41"/><circle class="cls-10" cx="413" cy="435.55" r="2.14"/><path class="cls-5" d="M415.14,430.64s2.18,1.21,2.57-.66a1.9,1.9,0,0,0-1.38-2.31s1.4-2.59,0-3c-2.8-.82-3.34,3.32-3.34,3.32Z"/><path class="cls-5" d="M409,437.67s1.87,1.64.24,2.64a1.89,1.89,0,0,1-2.63-.52s-2,2.19-2.85,1c-1.72-2.36,2-4.26,2-4.26Z"/></svg>