<svg id="Lager_1" data-name="Lager 1" xmlns="http://www.w3.org/2000/svg" viewBox="0 140 478 460">
<defs><style>.cls-1,.cls-13{fill:#fff;}.cls-2,.cls-7{fill:#75bfcb;}.cls-10,.cls-11,.cls-12,.cls-14,.cls-15,.cls-3,.cls-4,.cls-5,.cls-9{fill:none;}.cls-10,.cls-13,.cls-3,.cls-4,.cls-5{stroke:#191919;}.cls-10,.cls-11,.cls-12,.cls-13,.cls-14,.cls-15,.cls-3,.cls-4,.cls-5,.cls-9{stroke-linecap:round;}.cls-12,.cls-3,.cls-5,.cls-7,.cls-9{stroke-miterlimit:10;}.cls-11,.cls-12,.cls-3,.cls-4{stroke-width:0.93px;}.cls-10,.cls-11,.cls-13,.cls-14,.cls-15,.cls-4{stroke-linejoin:round;}.cls-10,.cls-13,.cls-5,.cls-9{stroke-width:1.39px;}.cls-6{fill:#191919;}.cls-14,.cls-15,.cls-7{stroke:#fff;}.cls-7{stroke-width:0.46px;}.cls-8{fill:#71bbcc;}.cls-11,.cls-12,.cls-9{stroke:#000;}.cls-14{stroke-width:6.06px;}.cls-15{stroke-width:5.05px;}</style></defs><rect class="cls-1" width="478.06" height="917.36"/><path class="cls-1" d="M406.3,356.1c1.63,1.4,2.71,3.33,4.26,2.32s13.53-14.69,17.08-18.78,11.6-16.09,11.6-16.09-.08-9.74-1.08-12.06-48.94-57-48.94-57-2.48-2.39-4.49-2.78-3.86-.93-3.86-.93l1.31-5.56s-7-4.33-8.89-5-11.6-3.48-11.6-3.48l-.07-3.63-8.35,1.39-7.81.46.38,1.7s-7.73,2.63-10.36,3.87-10.66,6.49-10.66,6.49l2.86,7.12s-5.49,3.09-7,3.4-4.49,1.16-4.49,1.16-8.58,15.69-10.59,20.79-10.43,15.69-10.43,15.69L280.26,311.5s-11.1-.83-10.58,2.62c.37,2.5-.8,6.91-1,13.29,0,1.44,2,3.26,1.66,6-.43,3.27-3.39,7.5-4.72,9-1,1.11,20.34-.39,20.85-.47,1.85-.31,8.66-6.27,14.46-13.84s9.89-11.91,9.89-11.91.78,20.57.23,21.73-15.69,31.77-19.48,43.44-12.49,41-12.49,41L276.42,433s13.91,9.05,18.32,10.32,19.1,3.68,19.1,3.68a10.16,10.16,0,0,1,0-4.37c.58-2,5.1-18.44,9.16-33.63s9.27-34.56,9.85-39.78,2-11.13,2.9-24.7,1-14.67,1-14.67a153.68,153.68,0,0,0,16.23,2.14,122.31,122.31,0,0,0,15.5-.11l.47,37.88.15,30.62.47,34.4L371.51,451S384,451,390,449.11s17-6.88,20.95-8.74,13.34-7.19,13.34-7.19l-9.09-40.89s-4.71-19.18-5.33-21.34-10.59-19.87-10.59-19.87l2.78-1.63S404.68,354.71,406.3,356.1Zm-8.17-23.4-.58-.35.23-.06L400,321.1s2.2-5,2.2-7.25-1.85-12.52-1.85-12.52L414,317.45l-1.8.81,2.73,1.2-2.67.83Z"/><path class="cls-2" d="M353.48,167.06s7-18.71,20.1-13.6c8.43,3.28,3.71,12.83,3.71,12.83s8.91-2.13,13.3,2.47a13.29,13.29,0,0,1,3.25,12.68s10-4.79,17.78,1.7c12.37,10.31,2.16,25.67,2.16,25.67s15.72,10.5,8,22c-6.55,9.79-18.86.62-18.86.62a9.45,9.45,0,0,1-5.41,7c-5.34,2.53-10.05-1.24-10.05-1.24a5.65,5.65,0,0,1-3.1,5.72c-3.27,1.68-4.15,1.09-4.15,1.09l-8.12-4.64-10.36-2.78a9.18,9.18,0,0,1-5.33,2.55c-4.29.52-10.6-1.7-10.6-1.7l-9.2,2.17-9,5.17s-14.06,6.61-20.26-3.87c-5-8.47,5.88-16.54,5.88-16.54s-21-6.19-16.32-28.22c3.34-15.57,25.28-10.6,25.28-10.6s-7.56-12.31.16-17.62c7.19-5,13.3,1.54,13.3,1.54s-.75-9.67,6.65-10.36S353.48,167.06,353.48,167.06Z"/><path class="cls-1" d="M380.33,202.06a16.93,16.93,0,0,1-7.19-3.29,47.33,47.33,0,0,1-4.87-4.56,12,12,0,0,1-7-.7c-4.17-1.54-6.11-2.47-5.49-4.4s4.56-1.16,5.8-.93a23.36,23.36,0,0,1,3.56,1.24,10.76,10.76,0,0,1-.47-2.17,5.24,5.24,0,0,1,.31-2s-3.63.7-6.34-.69-5.64-7-5.64-7a14.63,14.63,0,0,1-3.17,4.56,21.64,21.64,0,0,1-5.57,2.79,6,6,0,0,1-.13,1.43,5,5,0,0,1-.7,1.62s1.8-.58,2.2,1-2.66,2.79-5.16,3.31a17.85,17.85,0,0,1-5.45.06,52.37,52.37,0,0,0-1.62,8.64c-.12,3.07,1,10.43.52,12.23s-1.62,3-1.45,4.52,3.6,6.09,4.29,7.83,2.44,8.81,3.94,9.57,27.78-.81,32.53-6a26.54,26.54,0,0,0,6-11.54,8.1,8.1,0,0,0,3.24-.41c1.51-.58,5.92-4.64,7.31-9s.7-10.38-1.39-10.21-7.89,8.12-7.89,8.12Z"/><polygon class="cls-2" points="371.95 205.89 371.65 204.02 383.1 202.16 382.37 204.19 371.95 205.89"/><path class="cls-3" d="M379.63,213.38a29.24,29.24,0,0,1,3.71-5.87,8.5,8.5,0,0,1,5-2.71"/><path class="cls-3" d="M382.49,212.3a2.7,2.7,0,0,0,1-1.93,1.82,1.82,0,0,0-1-1.55"/><path class="cls-4" d="M347.28,206a23.16,23.16,0,0,1-4.35,5,32.09,32.09,0,0,1-5.45,3.42s3.07,2.14,8.69,1.62"/><path class="cls-2" d="M361.74,217.54a10.88,10.88,0,1,1,10.87-10.87A10.89,10.89,0,0,1,361.74,217.54Zm0-19.89a9,9,0,1,0,9,9A9,9,0,0,0,361.74,197.65Z"/><path class="cls-5" d="M341.48,220.21a15.35,15.35,0,0,0,5.85,1.21,21.55,21.55,0,0,0,5.8-1.1"/><ellipse class="cls-6" cx="360.62" cy="207.69" rx="2.96" ry="1.83" transform="translate(114.74 543.43) rotate(-83.72)"/><ellipse class="cls-6" cx="340.15" cy="205.48" rx="1.83" ry="2.96"/><path class="cls-3" d="M365.45,206.76a5.13,5.13,0,0,1,1.22-.5,8.32,8.32,0,0,1,1.57-.24"/><path class="cls-2" d="M346.93,377.52s10.67,7.89,11.59,10.67,6,62.62,4.18,88.6-6.15,83.27-7.08,86.51a40.94,40.94,0,0,1-2.49,6.16.82.82,0,0,0,.64,1.18l32.16.63a.66.66,0,0,0,.54-1.13s-14.34-8.31-15.73-11.71c-1.47-3.59,14.23-44.76,19.33-65.87s9.74-47.31,9.74-47.31a48.74,48.74,0,0,1-13.05,4.63,99.26,99.26,0,0,1-15.65,1.22s-1.8-13.39-2-17.28-.57-102-.57-102a86.64,86.64,0,0,1-15.5.11,104.37,104.37,0,0,1-16.23-2.14s-2.13,30.48-3.6,38.75-11.94,49.67-15.42,61.85-4.29,13.92-3.94,15.31,0,1.24,0,1.24-9.71-.66-14.46-1.94a29.87,29.87,0,0,1-6.73-2.43s-6.8,37.92-11.44,62.51S269.3,553.33,267,556.73c-1.82,2.66-12.86,9.08-17.62,11.77a.66.66,0,0,0,.33,1.24l29.59.28a.61.61,0,0,0,.6-.78c-.54-2-1.77-7.23-.53-10.81,1.54-4.48,29.06-48.72,40.51-79.48C341.05,422.05,346.93,377.52,346.93,377.52Z"/><path class="cls-3" d="M365.55,208.15a5.5,5.5,0,0,1,1.29.23,8.27,8.27,0,0,1,1.45.65"/><rect class="cls-7" x="325.69" y="200.46" width="7.87" height="2.32" transform="translate(-15.26 27.38) rotate(-4.65)"/><path class="cls-5" d="M335,192.66a51.85,51.85,0,0,0-1.43,8.18c-.11,3.07,1,10.44.52,12.23s-1.52,2.21-1.45,4.53c.06,1.57,2.57,5,3.87,8.23,1.63,4.1,2.86,8.41,4.37,9.16s27.77-.81,32.53-6a26.59,26.59,0,0,0,6-11.54,8.05,8.05,0,0,0,3.25-.4c1.5-.58,5.91-4.64,7.3-9s.7-10.38-1.39-10.21-7.88,8.12-7.88,8.12"/><path class="cls-7" d="M335.13,213.25a10.76,10.76,0,1,1,10.75-10.76A10.78,10.78,0,0,1,335.13,213.25Zm0-19.19a8.44,8.44,0,1,0,8.43,8.43A8.45,8.45,0,0,0,335.13,194.06Z"/><path class="cls-2" d="M333.71,253.2S345.54,248,346,246.82s.35-5.1.35-5.1a41.35,41.35,0,0,0-10.21,3.83,38.9,38.9,0,0,0-6.61,4.63Z"/><path class="cls-2" d="M351.16,206a6.5,6.5,0,0,0-3.08-1.54,7.14,7.14,0,0,0-3.25.61l-.79-1.68a8.84,8.84,0,0,1,4.28-.77,8.3,8.3,0,0,1,4.12,2Z"/><polygon class="cls-8" points="327.3 200.88 326.17 200.96 326.17 202.83 327.4 202.73 327.3 200.88"/><path class="cls-2" d="M338.58,250.94s6.67,7,14.9,6.9A21.87,21.87,0,0,0,367,253s-7.6-3.72-8.81-5.4,1.62-11.13,1.62-11.13l1.62-.35s-1.5,8.41-.81,9.74,9.86,6.21,9.86,6.21-6.44,8.23-16.76,7.48a25.94,25.94,0,0,1-16.52-7.95Z"/><path class="cls-2" d="M361.08,240.44s-1.16,4.41-.47,5.45,12.53,8.35,12.53,8.35,5-4.4,3.36-6.84S361.08,240.44,361.08,240.44Z"/><path class="cls-2" d="M416.51,316.42s4.48-2,3.86-2.94-5.87.78-5.87.78-15.62-17.17-15.93-19.33-3.88-25.45-3.42-27.31a5.74,5.74,0,0,1,2-3.31l-9.28-11.13-6.65-1.85.62-4.8-8,7L372,257.05l-2.09,41.59s3-33.71,3.63-37.73,6-8.81,6-8.81,2.48.77,5.26,5.87,14.2,52.26,13.76,55.36c-.69,4.87-8.19,17.24-8.19,17.24l1-9.08-1.77-2.79-.78,1.86L388.44,331a3.29,3.29,0,0,1-2.75.55,9.21,9.21,0,0,1-3-1.24l1.7,3.86-.08,2,5-.15,13.77,2.63,2-1.24-4-4.79,13.29-11.13,2.32.46-.15-4s3.71,2.78,4.79,1.7S416.51,316.42,416.51,316.42Zm-18,15.83.23-3.09,4.09-15.77-2.2-10.32.54-.54,12.26,14.76.38,2.48Z"/><path class="cls-8" d="M394.09,353.55a9.22,9.22,0,0,1,4.64,4c1.54,2.94,1.62,8.74,1.62,8.74l1.16,5,2.36,8.28.58,12.91s2.63-.47,5.72,6.34,6.15,22.55,3.56,27.68c-5.73,11.28-41.44,24-41.44,24s17.16.93,33.4-7.73c12.2-6.51,18.59-9.59,18.59-9.59S413,379.68,409.43,370.1c-3.17-8.66-10.86-18.4-10.86-18.4Z"/><path class="cls-2" d="M375.23,282.4c0,1.42.11,5.62.14,7a.43.43,0,0,0,.46.43l14.41-.43a.45.45,0,0,0,.43-.46l-.28-7a.44.44,0,0,0-.45-.43l-14.28.44A.44.44,0,0,0,375.23,282.4Z"/><polygon class="cls-2" points="380.21 366.62 378.36 358.27 381.29 357.65 383.34 366.46 380.21 366.62"/><polygon class="cls-2" points="395.32 363.72 396.56 357.19 398.73 357.57 397.64 363.22 395.32 363.72"/><path class="cls-8" d="M402.48,350l5.56-2.89s4.33,9.58,2.52,11.28S402.48,350,402.48,350Z"/><path class="cls-2" d="M329.92,256l-13.14,9.16s-1.9,7.47-3.14,16.12-.73,36.26.2,47.4a70.56,70.56,0,0,0,3.71,18.24,41.67,41.67,0,0,0-12.37,11.45c-5.57,7.73-13,21.33-13,21.33l18.86-42.13-.23-21.34s-18.79,24.66-23.5,25.36-18.68,1.41-15.9.54c1.61-.5,13.43-4.22,15.6-6.65,10.73-12,21.87-32.47,21.87-32.47a129.76,129.76,0,0,1,0-17.63l7-24.74.93-1.51,2.2-.34,8.46-4.06Z"/><path class="cls-9" d="M362,233.37s-2,11.48-1.39,12.52,5.22,3.6,7.08,4.53a45.39,45.39,0,0,1,5.45,3.82"/><path class="cls-9" d="M345.77,235.69s1.27,10.09.23,11.13S333.17,253,333.17,253"/><path class="cls-10" d="M333.17,266s-.5-6.58-2.25-9a7.91,7.91,0,0,0-3.24-2.86l-3.17-6.65a50.52,50.52,0,0,1,11.67-7.35c6.65-2.78,9.59-3.17,9.59-3.17"/><path class="cls-4" d="M343.06,242.53a38,38,0,0,0-8.35,3.4,39.63,39.63,0,0,0-5.06,3.84"/><path class="cls-10" d="M361.77,236.5l-.23.58a51.37,51.37,0,0,1,10.73,2.67,46.09,46.09,0,0,1,10.14,5.91s-8.35,6.38-9.78,10.05-3.44,56-3.67,68.35.23,104.83.81,111,1.74,16,1.74,16a71.15,71.15,0,0,0,18-1.85c10.44-2.32,34.79-16,34.79-16s-12.06-55.89-14.85-63.08S399,351.19,399,351.19"/><path class="cls-11" d="M362.54,240.83s13.7,3.9,14.21,7.25a7,7,0,0,1-.29,2.49"/><path class="cls-10" d="M382.41,245.66l-1.62,5.53a21.89,21.89,0,0,0-3.29,2.47,23.29,23.29,0,0,0-2.86,3.87"/><path class="cls-10" d="M380.79,251.19s5.49.08,8.43,3.32c3.83,4.24,46.77,53.89,48.32,56.37s1.7,12.67,1.7,12.67-6.19,9.59-11.6,16.09-17,18.71-17,18.71"/><path class="cls-10" d="M398,337.24s-1-4.1.54-4.87c2.24-1.12,6,3.19,8.66,10.59s4.84,14.44,3.41,15.46c-2.8,2-8.51-8.5-8.51-8.5"/><path class="cls-10" d="M400.2,300.44s3.86,5.8,7,9.51,7,7.5,7,7.5-2,.46-1.86.92,2.63.55,2.48,1.09-2.63.62-2.63,1.16-14.54,12.52-14.54,12.52a55.06,55.06,0,0,1,1.55-8.89c1.39-5.8,3.09-8.74,2.86-11.52S400.2,300.44,400.2,300.44Z"/><path class="cls-3" d="M392.08,264.64s2.47,8,3.25,11.91,2.47,15.62,2.47,15.62"/><path class="cls-3" d="M384.27,336.23a9.11,9.11,0,0,0-.54-3.63c-.7-1.7-1.39-3-1.39-3"/><path class="cls-3" d="M387.28,335.46a14.17,14.17,0,0,0,1.47-6.49c-.23-3.17-.31-10.67,1-10.21s1.7,4.41,1.47,7a23.42,23.42,0,0,1-1.39,5.56"/><path class="cls-3" d="M390.2,336.21a3.6,3.6,0,0,0,1.47-1.4,5.91,5.91,0,0,0,.39-1.77"/><path class="cls-10" d="M404.42,337s-1,1.48-1.89,1.42-14.67-2.78-15.71-2.55-10.55,3-10.55,3a2.56,2.56,0,0,0,2.08,1.5c1.63.24,6.85-.92,7.95-.81s6.44,1.51,6.44,1.51l.05.64a27.19,27.19,0,0,0-5.68-.47c-1.8.23-11.6,2.5-11.6,2.5s1.28,3.88,2.61,4.23,9.28-.12,10.56,0a19.42,19.42,0,0,1,3.65,1,7.09,7.09,0,0,1-2.41,1.54c-1.27.41-9.19,1-9.54,2.52a8.73,8.73,0,0,0-.11.87s10.2.52,12.06,0a27.55,27.55,0,0,0,4.52-2c1.39-.64,11.6-5,11.6-5s-1.32-4.14-1.91-5.46C406.05,340.33,404.42,337,404.42,337Z"/><path class="cls-3" d="M377.31,365.69s.31,9.2,1.24,9.82,6-.16,12.45-1.39a97.72,97.72,0,0,0,10.05-2.4"/><path class="cls-3" d="M379.32,366.54a6.42,6.42,0,0,0,2.86.16c1.86-.24,16.86-3.95,17.63-3.48s.54,3.09.54,3.09"/><path class="cls-3" d="M402.36,375.12s1,4.18,1.47,7.89a57.86,57.86,0,0,1,.39,7.27"/><path class="cls-12" d="M402.82,393.45a6.86,6.86,0,0,1-1.46,1.93c-.85.69-13.92,4.64-13.92,4.64"/><line class="cls-3" x1="378.01" y1="377.98" x2="380.48" y2="379.53"/><line class="cls-3" x1="378.24" y1="379.68" x2="380.71" y2="381.23"/><line class="cls-3" x1="378.59" y1="381.4" x2="380.41" y2="382.48"/><polyline class="cls-3" points="383.75 366.33 384.56 358.62 388.73 359.02 388.04 365.29"/><path class="cls-3" d="M316.62,265.57A70.91,70.91,0,0,0,313.91,279c-.69,7.27-1.39,24.12-1.39,24.12"/><path class="cls-10" d="M264.43,342.94l22.89-1.37c3.36-.67,7.87-6.87,12.6-12.6,5.44-6.59,10.9-12.76,10.9-12.76,0,.23.78,19.56.23,21.34s-14.53,29.61-19.48,43.84S275.8,433,275.8,433s13.3,8.66,19.64,10.82,18.4,3.1,18.4,3.1a25,25,0,0,1,.46-4.64c.46-2,16.08-57.37,18.4-71.44a383.49,383.49,0,0,0,4-42.41c.54-14.3-1.39-72.09-2.24-73.79s-10-7.11-10-7.11"/><path class="cls-2" d="M269.37,312.62s-6.78,6.4-7.19,15.52-.1,15.73,3.3,14.19,6.28-10.77,5.94-16.71A87.21,87.21,0,0,0,269.37,312.62Z"/><path class="cls-10" d="M265.58,316.87s1.52-2.93,3.06-3.58c4-1.7,11.62-1.79,11.62-1.79L294,296.86s9.36-12.73,12-18.3c3.79-8,10.47-20.18,10.47-20.18l1.47,0a32.68,32.68,0,0,0,4.64-1.7,15.71,15.71,0,0,0,4.52-2.59"/><path class="cls-1" d="M269.53,319.45s-.41,8.3.8,8.49,1.63-7.78.89-8.81S269.53,319.45,269.53,319.45Z"/><path class="cls-10" d="M269.38,313.29a33.15,33.15,0,0,1,1.94,13.81c-.61,7.16-2.83,14.84-6.89,15.84-2.88.71-2.17-10-2.17-10"/><rect class="cls-2" x="58.86" y="332.4" width="190.83" height="238.88" rx="12"/><path class="cls-13" d="M270.24,316l-22.05,5.52s-2.42.12-3.95.25a43.2,43.2,0,0,0-4.35.77s-17.1.51-19.4,1.15-13.17,6.89-13.17,6.89,3.6,1.79,6.28,1.15,9.7-2.43,9.7-2.43,4.87.77,7.81,1.28,5.34-.63,5.34,1.79c0,1.45-4.21,5.36-5.11,8a6.63,6.63,0,0,0,.26,4.85S242.7,335,245.38,334s25.29-2.15,25.29-2.15"/><rect class="cls-14" x="77.98" y="352.61" width="152.6" height="198.44" rx="12"/><rect class="cls-1" x="72.81" y="391.63" width="10.33" height="19" rx="1.03"/><rect class="cls-1" x="72.81" y="496.31" width="10.33" height="19" rx="1.03"/><circle class="cls-15" cx="154.28" cy="451.83" r="25.2"/><path class="cls-1" d="M156.63,434.46v1.34a.44.44,0,0,1-.49.43c-.61-.06-1.23-.1-1.86-.1a16.44,16.44,0,0,0-1.86.11.44.44,0,0,1-.5-.43c0-2.42,0-5.3,0-7.49a2.37,2.37,0,0,1,2.35-2.37h0a2.36,2.36,0,0,1,2.36,2.35Z"/><path class="cls-1" d="M155.59,476.68l-1.22-1.2a.39.39,0,0,0-.28-.13l-1.76-.1a.43.43,0,0,1-.42-.44v-6.95a.44.44,0,0,1,.5-.43,16.47,16.47,0,0,0,1.87.11,16.26,16.26,0,0,0,1.85-.11.44.44,0,0,1,.49.44v1.31c0,5.61,0,6.81-.33,7.41A.45.45,0,0,1,155.59,476.68Z"/><path class="cls-1" d="M180.16,451.67a2.37,2.37,0,0,1-2.35,2.37h-7.48a.44.44,0,0,1-.44-.5,16,16,0,0,0,.09-1.71,16.4,16.4,0,0,0-.12-2,.43.43,0,0,1,.42-.5l7.51,0h0A2.36,2.36,0,0,1,180.16,451.67Z"/><path class="cls-1" d="M138.58,451.84a13.62,13.62,0,0,0,.1,1.7.44.44,0,0,1-.44.5h-3.39c-3.84,0-4.8,0-5.32-.34a.44.44,0,0,1-.1-.7l1.2-1.21a.41.41,0,0,0,.13-.29l.1-1.76a.44.44,0,0,1,.44-.42h7a.43.43,0,0,1,.43.5A16.72,16.72,0,0,0,138.58,451.84Z"/><path class="cls-1" d="M171.86,437.25l-4.34,4.36-.73.74a15.58,15.58,0,0,0-3-3,.44.44,0,0,1,0-.66l5.44-5.47a.44.44,0,0,1,.31-.13C172.48,433,173.29,435.81,171.86,437.25Z"/><path class="cls-1" d="M144.39,464a.45.45,0,0,1,0,.66L143,466.15c-4,4-4.8,4.82-5.47,5a.45.45,0,0,1-.57-.43V469a.46.46,0,0,0-.11-.3l-1.17-1.32a.44.44,0,0,1,0-.6l5.49-5.48a.43.43,0,0,1,.66.05A15.48,15.48,0,0,0,144.39,464Z"/><path class="cls-1" d="M172.82,468.11c0,2-1.24,3-2.51,3a2.37,2.37,0,0,1-1.66-.68l-4.36-4.34-.86-.86a.44.44,0,0,1,.06-.67,16.46,16.46,0,0,0,2.74-2.53.43.43,0,0,1,.64,0c1.95,1.94,4.28,4.27,5.82,5.79A.51.51,0,0,1,172.82,468.11Z"/><path class="cls-1" d="M144.1,439.88a16.1,16.1,0,0,0-2.54,2.74.43.43,0,0,1-.66.05l-1.17-1.15-3-3c-1.61-1.62-3-3-1.37-4.69a2.37,2.37,0,0,1,3.34,0,.86.86,0,0,1,.13.14c.4.41,2.83,2.83,5.3,5.3A.42.42,0,0,1,144.1,439.88Z"/></svg>