<?xml version="1.0" standalone="no"?>
<!DOCTYPE svg PUBLIC "-//W3C//DTD SVG 20010904//EN"
 "http://www.w3.org/TR/2001/REC-SVG-20010904/DTD/svg10.dtd">
<svg version="1.0" xmlns="http://www.w3.org/2000/svg"
 width="1280.000000pt" height="646.000000pt" viewBox="0 0 1280.000000 646.000000"
 preserveAspectRatio="xMidYMid meet">
<metadata>
Created by potrace 1.15, written by Peter Selinger 2001-2017
</metadata>
<g transform="translate(0.000000,646.000000) scale(0.100000,-0.100000)"
fill="#000000" stroke="none">
<path d="M9175 6445 c-124 -20 -247 -57 -402 -121 -143 -58 -153 -61 -153 -41
0 23 -32 44 -89 61 -91 27 -84 33 -168 -141 -180 -377 -1212 -2595 -1763
-3790 -113 -244 -207 -443 -210 -443 -3 0 -133 278 -289 618 -654 1419 -1731
3732 -1747 3750 -5 7 -119 -20 -146 -34 -16 -8 -28 -21 -28 -30 0 -30 -30 -24
-163 30 -527 216 -985 167 -1371 -148 -107 -88 -340 -322 -598 -601 -443 -479
-684 -666 -973 -752 -80 -24 -107 -27 -250 -27 -133 -1 -178 3 -265 22 -121
28 -272 80 -418 146 -87 39 -142 56 -142 42 0 -17 367 -827 888 -1961 93 -203
249 -543 347 -755 97 -212 182 -395 190 -406 17 -26 293 -164 385 -193 112
-35 179 -43 405 -48 256 -6 309 2 463 68 269 115 429 249 877 739 321 351 499
518 683 644 208 141 376 196 604 196 226 0 441 -56 688 -178 l135 -67 303
-659 304 -660 -25 -55 c-13 -31 -129 -283 -257 -561 -350 -760 -462 -1012
-453 -1021 16 -16 166 -48 183 -39 20 11 41 54 385 802 154 334 282 607 285
608 3 0 151 -316 329 -703 178 -386 332 -711 342 -721 18 -19 19 -19 95 0 42
10 83 23 91 29 16 12 -12 77 -392 905 -125 272 -254 554 -286 625 l-60 130
308 670 308 670 131 66 c247 124 470 182 699 182 169 0 286 -27 429 -97 246
-120 448 -298 886 -776 410 -447 582 -591 843 -704 160 -69 166 -70 422 -70
340 0 431 20 689 152 l149 77 294 640 c462 1007 543 1184 740 1615 195 427
393 868 393 876 0 15 -57 -3 -164 -50 -521 -230 -881 -219 -1269 42 -156 105
-322 262 -682 647 -266 286 -443 461 -550 547 -141 113 -319 199 -492 239
-119 27 -346 34 -468 14z m278 -11 c11 -11 -40 -137 -203 -500 l-55 -121 -125
-6 c-206 -11 -466 -75 -622 -153 -61 -31 -98 -42 -98 -29 0 10 124 283 171
378 105 209 155 251 404 335 158 52 507 116 528 96z m-5813 -60 c158 -32 292
-75 396 -125 102 -48 154 -104 222 -237 54 -104 182 -389 182 -403 0 -17 -31
-9 -98 25 -79 39 -187 76 -332 112 -79 19 -141 27 -253 31 -91 4 -150 10 -155
17 -21 34 -239 530 -257 585 -4 14 -3 26 4 30 16 11 150 -6 291 -35z m6729
-461 c223 -223 281 -292 281 -332 0 -15 -17 -70 -39 -122 -45 -110 -187 -415
-207 -444 -13 -18 -28 -5 -251 222 -239 242 -286 284 -303 267 -8 -8 -241
-500 -261 -552 -5 -12 -15 -25 -23 -28 -9 -3 -56 19 -106 51 -171 105 -282
153 -460 198 -54 13 -55 14 -53 48 2 43 59 179 168 404 l85 175 49 0 c97 0
289 -76 484 -192 65 -38 120 -68 122 -66 2 2 36 72 75 156 147 318 199 412
227 412 8 0 104 -89 212 -197z m-7652 72 c29 -55 92 -184 139 -287 l87 -187
26 18 c169 119 475 251 582 251 33 0 40 -5 62 -43 40 -68 192 -395 221 -476
27 -76 28 -101 2 -101 -8 0 -68 -16 -133 -36 -128 -38 -220 -81 -362 -169 -50
-31 -98 -55 -106 -53 -9 2 -72 125 -149 292 -74 158 -137 291 -140 293 -13 13
-76 -44 -297 -268 -129 -131 -238 -239 -243 -239 -9 0 -147 285 -210 433 -58
136 -58 159 -5 229 73 94 437 450 456 446 11 -2 39 -43 70 -103z m6133 -791
c30 -6 32 -9 27 -40 -3 -18 -54 -138 -112 -266 -59 -128 -115 -250 -124 -270
-15 -35 -19 -37 -76 -43 -310 -31 -416 -56 -658 -154 -71 -29 -130 -51 -132
-49 -4 4 82 198 191 433 l79 170 55 27 c173 85 445 167 615 186 44 5 85 10 91
11 6 0 26 -2 44 -5z m-4720 -35 c162 -25 348 -82 512 -155 l105 -47 88 -191
c122 -263 185 -409 180 -414 -2 -3 -60 18 -128 46 -221 91 -342 122 -576 146
-73 8 -137 18 -141 23 -9 10 -155 326 -217 471 -24 57 -42 110 -39 118 7 17
119 19 216 3z m7250 -228 c149 -91 196 -111 368 -154 75 -18 121 -35 118 -41
-3 -6 -56 -123 -119 -261 -134 -292 -145 -323 -126 -337 17 -11 151 -2 269 18
117 20 235 55 386 114 136 53 154 58 154 37 0 -50 -228 -508 -289 -581 -24
-29 -186 -102 -314 -140 -217 -66 -458 -99 -489 -68 -17 17 7 86 114 326 111
251 124 286 107 297 -8 5 -26 9 -41 9 -71 0 -303 95 -448 182 -41 25 -89 53
-107 62 -31 16 -33 15 -47 -6 -8 -13 -55 -111 -104 -218 -49 -107 -108 -232
-131 -278 l-42 -83 -29 21 c-16 11 -131 126 -256 255 -125 129 -233 236 -241
239 -11 4 -40 -48 -110 -192 -159 -330 -175 -362 -185 -369 -6 -3 -126 112
-268 256 -141 143 -260 261 -266 261 -5 0 -33 -55 -63 -123 -75 -167 -219
-478 -225 -485 -3 -2 -51 24 -107 58 -168 103 -374 190 -451 190 -19 0 -43 6
-53 14 -17 12 -18 18 -7 64 6 28 52 140 103 249 50 109 103 224 118 256 l26
59 48 -6 c140 -19 324 -91 475 -187 61 -38 115 -69 122 -69 10 0 100 180 238
477 26 56 52 102 58 103 23 1 159 -122 340 -308 l191 -195 26 39 c14 21 78
150 143 287 65 136 123 247 130 247 7 0 97 -88 201 -196 165 -172 315 -314
332 -314 5 0 58 110 241 503 37 78 43 86 60 77 11 -6 78 -46 150 -89z m-9654
-220 c74 -156 136 -286 139 -289 11 -11 94 65 307 282 151 154 230 228 237
221 5 -5 59 -113 120 -240 127 -264 159 -325 170 -325 5 0 84 80 177 177 152
158 331 323 353 323 4 0 68 -127 142 -282 74 -154 141 -286 150 -291 13 -8 37
3 112 50 112 72 158 97 245 130 68 25 245 73 273 73 12 0 45 -60 109 -197 125
-265 160 -351 160 -395 0 -40 -2 -42 -85 -53 -96 -13 -262 -86 -426 -186 -53
-32 -99 -59 -102 -59 -10 0 -62 107 -177 365 -57 127 -107 234 -112 240 -5 6
-111 -95 -272 -259 l-263 -268 -24 43 c-13 24 -76 151 -139 283 -63 131 -121
241 -128 244 -8 3 -111 -94 -265 -252 -139 -141 -257 -256 -263 -256 -6 0 -25
30 -42 68 -40 88 -219 470 -234 500 -6 12 -19 22 -28 22 -9 0 -55 -23 -101
-52 -154 -94 -399 -198 -467 -198 -16 0 -36 -6 -46 -13 -16 -12 -16 -16 7 -77
14 -36 48 -117 77 -180 62 -138 126 -295 135 -332 10 -40 -21 -52 -113 -44
-257 24 -630 146 -699 230 -55 67 -265 485 -279 556 -4 19 -2 30 5 30 6 0 68
-22 138 -50 71 -27 157 -58 193 -69 193 -59 463 -91 476 -57 6 16 -40 128
-168 405 -49 106 -87 195 -86 196 2 1 62 16 133 34 147 37 243 79 395 174 58
36 111 65 119 64 7 -1 74 -130 147 -286z m6590 -783 c4 -4 -54 -139 -128 -300
l-136 -293 -143 -6 c-236 -10 -372 -44 -651 -163 -34 -14 -38 -14 -38 -1 0 21
129 307 203 450 l62 120 75 37 c134 66 331 128 485 153 91 14 257 16 271 3z
m-3506 -38 c118 -22 308 -84 414 -135 61 -29 82 -45 103 -78 48 -76 259 -535
250 -544 -3 -2 -60 19 -128 46 -227 91 -410 131 -606 131 l-100 0 -132 286
c-72 157 -132 290 -134 296 -6 32 163 31 333 -2z m5941 -161 c164 -99 318
-168 438 -195 92 -21 101 -24 101 -35 0 -6 -56 -135 -125 -286 -69 -152 -128
-287 -132 -301 l-6 -25 124 6 c206 11 338 44 598 151 62 26 115 45 118 43 2
-3 -44 -110 -103 -238 -58 -129 -120 -264 -136 -301 l-30 -66 -121 -52 c-170
-72 -337 -128 -434 -145 -107 -19 -298 -31 -305 -19 -3 5 46 122 109 259 148
324 157 346 142 356 -7 4 -69 24 -138 44 -158 47 -227 78 -369 167 -97 61
-115 69 -127 57 -8 -8 -66 -122 -129 -255 -120 -251 -153 -314 -165 -314 -29
0 -179 142 -389 368 l-143 153 -41 -88 c-119 -259 -229 -473 -241 -473 -8 0
-84 73 -170 163 -85 89 -202 204 -259 256 l-105 93 131 289 c97 213 135 289
148 289 29 0 135 -95 340 -304 108 -110 199 -199 201 -196 9 9 84 166 182 378
54 117 102 211 107 210 4 -2 97 -97 205 -212 180 -191 312 -316 331 -316 4 0
36 67 71 148 128 290 203 442 221 442 9 0 55 -23 101 -51z m-8543 -66 c27 -54
88 -187 137 -295 49 -109 92 -198 97 -198 20 0 161 136 338 324 106 114 197
203 201 199 4 -5 61 -123 127 -263 65 -140 127 -272 138 -293 l18 -38 211 215
c211 215 306 299 332 294 7 -2 72 -132 144 -290 l130 -286 -53 -48 c-29 -26
-146 -141 -260 -257 -142 -143 -212 -208 -222 -204 -17 7 -81 130 -193 372
-41 88 -78 164 -83 169 -6 6 -44 -28 -97 -85 -161 -174 -368 -380 -401 -401
-29 -18 -36 -19 -47 -7 -15 15 -52 88 -191 377 -51 105 -96 192 -100 192 -3 0
-54 -30 -113 -67 -138 -87 -217 -122 -380 -172 -73 -22 -136 -42 -138 -45 -7
-7 3 -33 123 -296 116 -257 134 -298 134 -313 0 -14 -213 -2 -318 18 -100 19
-268 76 -421 143 -89 39 -118 57 -129 79 -38 71 -262 568 -260 575 2 4 53 -13
113 -38 168 -69 296 -111 387 -129 106 -21 338 -32 338 -17 0 6 -56 134 -124
285 -69 150 -128 285 -131 299 -6 25 -4 26 67 43 151 37 300 102 467 204 46
28 90 51 98 51 7 0 35 -44 61 -97z m7959 -1174 c159 -103 360 -190 473 -205
80 -11 80 -8 20 -151 -82 -198 -178 -395 -207 -425 -14 -15 -38 -30 -52 -33
-35 -7 -177 34 -283 83 -66 31 -309 170 -327 188 -5 4 271 604 278 604 2 0 46
-27 98 -61z m-7293 -268 c75 -162 135 -296 133 -297 -11 -11 -237 -143 -290
-171 -78 -39 -263 -103 -298 -103 -48 0 -84 35 -132 126 -54 106 -197 438
-197 458 0 16 14 21 84 31 106 15 299 100 460 205 50 32 94 56 98 52 3 -4 67
-139 142 -301z"/>
</g>
</svg>
