<svg height="480pt" viewBox="-88 0 480 480" width="480pt" xmlns="http://www.w3.org/2000/svg"><path d="m264 8h-224c-17.671875 0-32 14.328125-32 32v32h288v-32c0-17.671875-14.328125-32-32-32zm0 0" fill="#acabb1"/><path d="m8 440c0 17.671875 14.328125 32 32 32h224c17.671875 0 32-14.328125 32-32v-32h-288zm0 0" fill="#acabb1"/><path d="m8 72v336h288v-336zm144 224s-64-48-64-80c0-17.671875 14.328125-32 32-32s32 14.328125 32 32c0-17.671875 14.328125-32 32-32s32 14.328125 32 32c0 32-64 80-64 80zm0 0" fill="#ffe477"/><path d="m64 8h-24c-17.671875 0-32 14.328125-32 32v32h24v-32c0-17.671875 14.328125-32 32-32zm0 0" fill="#787680"/><path d="m32 440v-32h-24v32c0 17.671875 14.328125 32 32 32h24c-17.671875 0-32-14.328125-32-32zm0 0" fill="#787680"/><g fill="#ffcd00"><path d="m208 184c-4.117188.015625-8.191406.832031-12 2.398438 12.066406 4.882812 19.972656 16.585937 20 29.601562 0 23.199219-33.488281 54.65625-52 70.304688 7.046875 5.960937 12 9.695312 12 9.695312s64-48 64-80c0-17.671875-14.328125-32-32-32zm0 0"/><path d="m144 184c-4.117188.015625-8.191406.832031-12 2.398438 12.066406 4.882812 19.972656 16.585937 20 29.601562.023438-9.660156 4.4375-18.785156 12-24.800781-5.640625-4.628907-12.703125-7.171875-20-7.199219zm0 0"/><path d="m8 72h24v336h-24zm0 0"/></g><path d="m184 184c-17.671875 0-32 14.328125-32 32 0-17.671875-14.328125-32-32-32s-32 14.328125-32 32c0 32 64 80 64 80s64-48 64-80c0-17.671875-14.328125-32-32-32zm0 0" fill="#ff6243"/><path d="m264 0h-224c-22.082031.0273438-39.9726562 17.917969-40 40v400c.0273438 22.082031 17.917969 39.972656 40 40h224c22.082031-.027344 39.972656-17.917969 40-40v-400c-.027344-22.082031-17.917969-39.9726562-40-40zm-248 80h272v320h-272zm24-64h224c13.253906 0 24 10.746094 24 24v24h-272v-24c0-13.253906 10.746094-24 24-24zm224 448h-224c-13.253906 0-24-10.746094-24-24v-24h272v24c0 13.253906-10.746094 24-24 24zm0 0"/><path d="m56 48h16c4.417969 0 8-3.582031 8-8s-3.582031-8-8-8h-16c-4.417969 0-8 3.582031-8 8s3.582031 8 8 8zm0 0"/><path d="m104 48h32c4.417969 0 8-3.582031 8-8s-3.582031-8-8-8h-32c-4.417969 0-8 3.582031-8 8s3.582031 8 8 8zm0 0"/><path d="m168 432h-32c-4.417969 0-8 3.582031-8 8s3.582031 8 8 8h32c4.417969 0 8-3.582031 8-8s-3.582031-8-8-8zm0 0"/><path d="m184 176c-12.589844 0-24.445312 5.929688-32 16-10.332031-13.773438-28.316406-19.390625-44.648438-13.949219-16.335937 5.445313-27.351562 20.730469-27.351562 37.949219 0 34.992188 60.320312 81.238281 67.199219 86.398438 2.84375 2.136718 6.757812 2.136718 9.601562 0 6.878907-5.160157 67.199219-51.40625 67.199219-86.398438-.027344-22.082031-17.917969-39.972656-40-40zm-32 109.894531c-23.457031-18.558593-56-50.863281-56-69.894531 0-13.253906 10.746094-24 24-24s24 10.746094 24 24c0 4.417969 3.582031 8 8 8s8-3.582031 8-8c0-13.253906 10.746094-24 24-24s24 10.746094 24 24c0 19.03125-32.542969 51.335938-56 69.894531zm0 0"/><path d="m48 216c.027344-25.738281 9.625-50.546875 26.929688-69.601562 2.960937-3.277344 2.703124-8.335938-.574219-11.296876-3.277344-2.964843-8.335938-2.707031-11.300781.570313-21.386719 23.554687-32.507813 54.65625-30.902344 86.433594 1.609375 31.773437 15.8125 61.597656 39.472656 82.871093 3.285156 2.976563 8.363281 2.722657 11.339844-.566406 2.976562-3.285156 2.722656-8.363281-.566406-11.339844-21.828126-19.683593-34.320313-47.675781-34.398438-77.070312zm0 0"/><path d="m240.945312 135.632812c-2.976562-3.277343-8.042968-3.527343-11.320312-.554687-3.28125 2.976563-3.527344 8.042969-.554688 11.320313 18.546876 20.40625 28.191407 47.363281 26.796876 74.902343-1.394532 27.539063-13.714844 53.386719-34.226563 71.8125-3.277344 2.964844-3.527344 8.023438-.566406 11.296875 2.964843 3.277344 8.027343 3.53125 11.300781.566406 23.660156-21.273437 37.863281-51.097656 39.472656-82.871093 1.605469-31.777344-9.515625-62.878907-30.902344-86.433594zm0 0"/><path d="m248 216c-.019531-23.320312-8.535156-45.832031-23.960938-63.320312-2.957031-3.132813-7.867187-3.355469-11.101562-.507813-3.230469 2.847656-3.628906 7.746094-.898438 11.074219 14.054688 15.898437 21.1875 36.742187 19.824219 57.914062-1.367187 21.171875-11.117187 40.929688-27.09375 54.886719-2.292969 1.847656-3.386719 4.800781-2.847656 7.691406.535156 2.890625 2.617187 5.257813 5.417969 6.15625 2.796875.898438 5.867187.191407 7.988281-1.847656 20.738281-18.203125 32.644531-44.453125 32.671875-72.046875zm0 0"/><path d="m72 216c.03125-19.429688 7.140625-38.183594 20-52.753906 2.730469-3.328125 2.335938-8.226563-.898438-11.074219-3.234374-2.847656-8.140624-2.625-11.101562.507813-16.847656 19.082031-25.402344 44.089843-23.761719 69.492187 1.636719 25.40625 13.328125 49.109375 32.488281 65.867187 2.121094 2.039063 5.191407 2.746094 7.992188 1.847657 2.800781-.898438 4.878906-3.265625 5.417969-6.15625.535156-2.890625-.558594-5.84375-2.847657-7.691407-17.308593-15.15625-27.25-37.03125-27.289062-60.039062zm0 0"/></svg>