<?xml version="1.0" encoding="UTF-8"?><svg id="Lager_1" xmlns="http://www.w3.org/2000/svg" viewBox="0 0 347.74 430.62"><defs><style>.cls-1{fill:#71bbcd;}.cls-2,.cls-3,.cls-4,.cls-5,.cls-6,.cls-7,.cls-8{stroke-linecap:round;stroke-linejoin:round;}.cls-2,.cls-3,.cls-5,.cls-7,.cls-8{fill:none;}.cls-2,.cls-4,.cls-6,.cls-7{stroke:#191919;}.cls-2,.cls-6,.cls-8{stroke-width:1.5px;}.cls-9,.cls-4,.cls-6{fill:#fff;}.cls-3{stroke:#71bbcd;stroke-width:.79px;}.cls-4{stroke-width:2px;}.cls-5,.cls-8{stroke:#010101;}.cls-10{fill:#010101;}</style></defs><path class="cls-4" d="M92.55,404.39s8.55-27.21,11.88-53.01c3.33-25.79,11.87-45.57,13.53-47.23,1.66-1.66,5.93-6.21,8.43-9.96,2.5-3.74,23.57-67.86,23.16-71.18-.42-3.33-3.74-4.99-3.33-16.22,.42-11.23,5.82-18.72,5.82-18.72l43.17,5.71s-13.97,56.27-28.78,84.98c-14.81,28.7-55.99,107.33-55.58,112.32s15.39,13.73,15.39,13.73l-33.7-.42Z"/><path class="cls-4" d="M172.5,265.95s23.21,41.1,24.46,46.92c1.25,5.82-.73,17.51,2.18,21.67,2.91,4.16,41.91,54.46,44.83,61.12,2.91,6.66,5.41,6.24,5.41,6.24l27.46-17.06s-16.64,4.16-21.63,1.66c-4.99-2.5-31.2-81.54-39.94-105.25-8.74-23.71-22.08-79.73-22.08-79.73l-20.69,64.42Z"/><polygon class="cls-9" points="196.57 62.93 198.12 66.15 198.31 81.35 201.48 82.29 200.45 84.64 197.87 86.39 195.48 100.59 179.45 107.31 176.92 115.69 160.51 112.6 161.77 100.32 163.06 79.01 165.9 76.49 179.19 65.25 196.57 62.93"/><path class="cls-8" d="M164.26,104.02s-.54,2.83-1.28,5.47c-2.68,9.49-.38,6.21,1.82,3.9l13.58-.14s-.19-4.57-.13-7.42c.06-2.85-1.16-6.58-1.16-6.58l-13.66,.02,.84,4.75Z"/><path class="cls-2" d="M198.02,67.19s.55,4.17,.2,7.55-.77,6.75-.77,6.75c0,0,3.84-.92,3.96,1.32,.12,2.24-3.48,2.93-3.48,2.93,0,0-.08,1.07-.26,2.59-.09,.79,.23,1.63,.09,2.57-.19,1.24-.6,.88-.96,1.89-.2,.55,.26,1.17,.13,2-.16,1-.89,2.17-.89,2.17"/><ellipse class="cls-10" cx="192.36" cy="78.84" rx="2.5" ry="1.25" transform="translate(94.21 262.1) rotate(-84.11)"/><path class="cls-8" d="M171.93,87.61s-1.63-5.71-4.55-6.85"/><path class="cls-1" d="M194.87,69.73s.74,4.59,.27,4.94-6.28-.3-6.28-.3c0,0-.5-3.01,.46-3.7,.96-.69,5.55-.94,5.55-.94Z"/><line class="cls-3" x1="196.14" y1="74.3" x2="195.98" y2="71.21"/><path class="cls-5" d="M191.12,90.82s1.13,1.18,5.37,1.62"/><path class="cls-5" d="M192.94,90.4s3.44-2.89,4.46-1.63"/><path class="cls-7" d="M192.1,93.52s.51,1.1,1.34,1.67"/><circle class="cls-9" cx="172.3" cy="101.05" r="4.36"/><path class="cls-1" d="M179.66,83.28c.05,.53,3.13,12.24,4.61,13.13,1.48,.88,11.74,1.38,11.74,1.38,0,0-.28,8.16-1.61,10.85s-17.5,2.38-19.19-1.46c-1.7-3.83-2.66-12.72-2.32-14.04,.35-1.32,6.77-9.86,6.77-9.86Z"/><path class="cls-1" d="M196.31,54.63c.62,.67,4.83,10.12,3.49,12.84-1.34,2.72-16.15-1.59-18.44,1.65s-2.16,14.21-2.16,14.21l-5.17,.65s-5.1-10.23-7.27-8.01c-.87,.89-5.69,4.55-3.24,10.76,1.02,2.59,7.7,4.39,7.69,4.56-.06,.55-.96,10.01-2.24,11.55s-11.68,2.42-13.23-.11c-1.55-2.53,1.18-6.06-.79-8.61-1.97-2.55-3.68-2.17-3.46-2.98s1.87,.75,2.54-1.62c.66-2.37-.25-5.67-.25-5.67l1.86-2.32s-6.41-.87-4.94-4.38c1.48-3.51-.96-.15,1.57-.37,2.53-.22,2.45-3.43,2.45-3.43,0,0-2.59-4.41-1.86-6.33,.73-1.91,3.27-3.29,3.59-5.07,.32-1.78-1.12-4.02-1.53-4.06s1.34,2.23,3.09,.6c1.75-1.63-1.43-2.8,.5-4.83,1.93-2.03,6.17-2.57,6.56-2.25s.67,1.6,2.51,1.37c1.84-.23,1.09-3.09,3.32-4.12,2.23-1.02,.42-1.07,1.91,.75,1.48,1.83,3.74,1.78,4.68,1.32s1.64-3.18,4.95-2.84,4.02,1.53,4.4,1.99,1.87,3.54,3.24,2.42,2.67,1.11,2.67,1.11l2.76-3.06s.07,3.47,.81,4.27Z"/><path class="cls-8" d="M173.84,83.86s-3.42-10.32-7.86-7.74c-4.22,2.44-3.4,8.84-2.65,10.5,1.79,3.95,7.69,4.56,7.69,4.56"/><path class="cls-1" d="M154.26,108.94c4.19-2.97,11.09,1.47,20.52,.92,9.43-.55,13.87,6.66,16.64,10.54,2.35,3.29,6.28,22.78,7.44,28.7,.2,1.02-.36,2.03-1.34,2.41,0,0,.2,1.16,.21,2.5,.07,5.82,.35,19.75,1.51,23.17,1.56,4.61,1.23,13.1,.98,16.98-.07,1.14-1.03,2.02-2.18,2-5.88-.12-23.32-.63-35.6-2.68-14.98-2.5-19.14-.42-17.06-11.65,1.63-8.83,2.76-16.11,3.16-18.83,.1-.7-.14-1.41-.67-1.89-1.63-1.5-5.15-4.98-6.1-7.71-1.25-3.59,9.55-42.37,12.48-44.46Z"/><polygon class="cls-6" points="238.7 153.59 232 155.76 234.96 147.41 258.65 141.23 259.07 148.99 238.7 153.59"/><path class="cls-4" d="M177.27,179.75c-2.3-7.28,0-27.84,0-27.84l17.47-1.84s-1.39,17.47-.28,19.97l38.46-11.74,3.13-5.25,2.18-3.34,5.19-3.99,.26,3.72-.07,2.79,15.44-3.25-9.36,7.41-.56,4.22-3.47,4.29-9.2,1.84-43.74,24.94-7.88,1.56-7.58-13.5Z"/><path class="cls-1" d="M196.47,152.02s-17.35,0-23.96,3.41c-6.62,3.41,2.65-14.44,2.65-14.44l15.67,2.86,5.49,2.69,.16,5.49Z"/></svg>