<?xml version="1.0" encoding="UTF-8"?><svg id="Lager_1" xmlns="http://www.w3.org/2000/svg" viewBox="0 0 347.74 388.85"><defs><style>.cls-1{stroke-linejoin:round;}.cls-1,.cls-2,.cls-3,.cls-4{fill:none;stroke-linecap:round;}.cls-1,.cls-4{stroke:#191919;stroke-width:2.5px;}.cls-5{fill:#fff;}.cls-6{fill:#71bbcf;}.cls-2{stroke:#71bbcf;}.cls-2,.cls-3{stroke-width:1.5px;}.cls-2,.cls-3,.cls-4{stroke-miterlimit:10;}.cls-3{stroke:#fff;}</style></defs><path class="cls-6" d="M316.56,220.17v133.57c0,11.8-9.57,21.37-21.37,21.37H56.72c-11.8,0-21.37-9.57-21.37-21.37V211.71s12.6-15.67,93.28-15.32c39.1,.16,102.08,15.32,102.08,15.32h.14c10.87,3.12,35.89,10.05,48.84,11.68,24.49,3.07,33.68-.85,36.87-3.22Z"/><path class="cls-5" d="M77.17,375.54c10.95-8.53,28.89-23.67,47.6-44.38,30.72-34.01,49.71-69.05,65.43-85.82,15.12-16.13,29.9-26.09,40.98-32.04,11.34-6.09,18.8-7.98,18.8-7.98h21.84s-11.31,.2-27.58,11.59c-8.68,6.08-18.77,15.35-29.3,29.47-18.59,24.93-21.31,50.08-29.54,76.2-7.52,23.86-15.14,44.01-19.09,54.07"/><rect class="cls-6" x="35.21" y="174.04" width="17.02" height="40.17" rx="2.68" ry="2.68"/><rect class="cls-6" x="54.11" y="188.49" width="10.21" height="18.38" rx="2.68" ry="2.68"/><rect class="cls-6" x="87.45" y="165.82" width="10.21" height="42.39" rx="2.68" ry="2.68"/><rect class="cls-6" x="68.06" y="177.38" width="16.34" height="26.89" rx="2.68" ry="2.68"/><path class="cls-6" d="M129.27,107.87c-2.64,3.26-7.2,5.41-12.39,5.41h-42.02v-.02c-9.63-.19-17.37-6.24-17.37-13.7s7.98-13.7,17.83-13.7c2.12,0,4.16,.28,6.05,.81,0,.06,.02,.12,.03,.18-7.52,1.43-11.42,3.85-11.41,8.89,0,12.43,19.24,13.1,42.98,13.1,5.77,0,11.26-.35,16.29-.98Z"/><path class="cls-1" d="M116.89,89.23c-1.48,0-2.91,.18-4.26,.51,.36-1.32,.56-2.7,.56-4.13,0-8.77-7.11-15.89-15.89-15.89s-15.89,7.11-15.89,15.89c0,.28,.03,.55,.04,.83-1.91-.54-3.97-.83-6.12-.83-9.85,0-17.84,6.14-17.84,13.7s7.74,13.51,17.37,13.7h0s42.02,0,42.02,0c8.16,0,14.78-5.32,14.78-11.89s-6.62-11.89-14.78-11.89Z"/><path class="cls-6" d="M314.5,159.05s-11.26,5.64-25.16,5.64v.19h-87.69c-17.77,0-32.17-7.34-32.17-16.41s14.4-16.41,32.17-16.41c3.69,0,7.24,.32,10.55,.9l4.51,2.47s-20.43,2.81-19.4,11.75c1.02,8.94,23.06,11.06,57.78,11.23,34.73,.17,59.39-1.4,59.39-1.4l-.14-5.83c.11,.62,.16,7.14,.16,7.87Z"/><path class="cls-1" d="M298.47,142.52c.13-.73,.21-1.48,.21-2.25,0-7.15-5.8-12.95-12.95-12.95-1.14,0-2.24,.16-3.29,.44,.26-1.34,.41-2.71,.41-4.12,0-12.55-10.97-22.72-24.51-22.72-12.75,0-23.23,9.03-24.4,20.57-1.9-1.29-4.19-2.05-6.66-2.05-6.54,0-11.84,5.3-11.84,11.84,0,.83,.09,1.64,.25,2.43-4.24-1.05-9.01-1.64-14.04-1.64-17.77,0-32.17,7.35-32.17,16.41s14.4,16.41,32.17,16.41h87.7c15.11,0,25.15-1.53,25.15-11.67,0-8.25-6.65-9.03-16.04-10.69Z"/><rect class="cls-5" x="37.4" y="178.08" width="2.94" height="4.6" rx=".57" ry=".57"/><rect class="cls-5" x="42.25" y="178.08" width="2.94" height="4.6" rx=".57" ry=".57"/><rect class="cls-5" x="47.11" y="178.08" width="2.94" height="4.6" rx=".57" ry=".57"/><rect class="cls-5" x="89.19" y="169.02" width="2.94" height="2" rx=".91" ry=".91" transform="translate(260.68 79.36) rotate(90)"/><rect class="cls-5" x="92.98" y="169.02" width="2.94" height="2" rx=".91" ry=".91" transform="translate(264.46 75.57) rotate(90)"/><rect class="cls-5" x="89.19" y="173.36" width="2.94" height="2" rx=".91" ry=".91" transform="translate(265.02 83.7) rotate(90)"/><rect class="cls-5" x="92.98" y="173.36" width="2.94" height="2" rx=".91" ry=".91" transform="translate(268.81 79.91) rotate(90)"/><rect class="cls-5" x="89.19" y="177.7" width="2.94" height="2" rx=".91" ry=".91" transform="translate(269.36 88.04) rotate(90)"/><rect class="cls-5" x="92.98" y="177.7" width="2.94" height="2" rx=".91" ry=".91" transform="translate(273.15 84.26) rotate(90)"/><rect class="cls-5" x="89.19" y="182.17" width="2.94" height="2" rx=".91" ry=".91" transform="translate(273.83 92.51) rotate(90)"/><rect class="cls-5" x="92.98" y="182.17" width="2.94" height="2" rx=".91" ry=".91" transform="translate(277.61 88.72) rotate(90)"/><rect class="cls-5" x="89.19" y="187.04" width="2.94" height="2" rx=".91" ry=".91" transform="translate(278.7 97.38) rotate(90)"/><rect class="cls-5" x="92.98" y="187.04" width="2.94" height="2" rx=".91" ry=".91" transform="translate(282.49 93.59) rotate(90)"/><rect class="cls-5" x="89.19" y="191.38" width="2.94" height="2" rx=".91" ry=".91" transform="translate(283.04 101.72) rotate(90)"/><rect class="cls-5" x="92.98" y="191.38" width="2.94" height="2" rx=".91" ry=".91" transform="translate(286.83 97.94) rotate(90)"/><rect class="cls-5" x="71.14" y="180.58" width="4.57" height="5.55" rx=".57" ry=".57"/><rect class="cls-5" x="37.4" y="184.72" width="2.94" height="4.6" rx=".57" ry=".57"/><rect class="cls-5" x="42.25" y="184.72" width="2.94" height="4.6" rx=".57" ry=".57"/><rect class="cls-5" x="47.11" y="184.72" width="2.94" height="4.6" rx=".57" ry=".57"/><rect class="cls-5" x="37.4" y="191.04" width="2.94" height="4.6" rx=".57" ry=".57"/><rect class="cls-5" x="42.25" y="191.04" width="2.94" height="4.6" rx=".57" ry=".57"/><rect class="cls-5" x="47.11" y="191.04" width="2.94" height="4.6" rx=".57" ry=".57"/><rect class="cls-5" x="37.54" y="197.22" width="2.94" height="4.6" rx=".57" ry=".57"/><rect class="cls-5" x="42.39" y="197.22" width="2.94" height="4.6" rx=".57" ry=".57"/><rect class="cls-5" x="47.24" y="197.22" width="2.94" height="4.6" rx=".57" ry=".57"/><rect class="cls-5" x="58.3" y="189.51" width="1.83" height="5.87" rx=".91" ry=".91" transform="translate(251.66 133.23) rotate(90)"/><rect class="cls-5" x="58.3" y="193.15" width="1.83" height="5.87" rx=".91" ry=".91" transform="translate(255.29 136.87) rotate(90)"/><line class="cls-3" x1="47.24" y1="222.81" x2="47.24" y2="226.39"/><line class="cls-3" x1="40.48" y1="221.02" x2="40.48" y2="224.6"/><line class="cls-3" x1="58.84" y1="275.54" x2="58.84" y2="279.11"/><line class="cls-3" x1="40.48" y1="266.73" x2="40.48" y2="270.3"/><line class="cls-3" x1="78.41" y1="212.3" x2="78.41" y2="215.88"/><line class="cls-3" x1="81.41" y1="210.64" x2="81.41" y2="214.22"/><line class="cls-3" x1="43.86" y1="264.43" x2="43.86" y2="268"/><line class="cls-3" x1="47.24" y1="265.66" x2="47.24" y2="269.24"/><line class="cls-3" x1="56.41" y1="273.75" x2="56.41" y2="277.32"/><line class="cls-3" x1="210.63" y1="218.59" x2="210.63" y2="222.17"/><line class="cls-3" x1="208.58" y1="219.81" x2="208.58" y2="223.39"/><line class="cls-3" x1="111.7" y1="299.41" x2="111.7" y2="302.98"/><line class="cls-3" x1="116.54" y1="329.33" x2="116.54" y2="332.91"/><line class="cls-3" x1="87.95" y1="351.46" x2="87.95" y2="355.03"/><line class="cls-3" x1="84.54" y1="348.9" x2="84.54" y2="352.47"/><line class="cls-3" x1="90.63" y1="350.82" x2="90.63" y2="354.4"/><line class="cls-3" x1="113.65" y1="326.85" x2="113.65" y2="330.43"/><line class="cls-3" x1="110.85" y1="293.41" x2="110.85" y2="296.98"/><line class="cls-3" x1="107.83" y1="295.83" x2="107.83" y2="299.41"/><line class="cls-3" x1="104.17" y1="294.64" x2="104.17" y2="298.22"/><line class="cls-3" x1="114.9" y1="295.2" x2="114.9" y2="298.77"/><line class="cls-3" x1="137.99" y1="298.22" x2="137.99" y2="301.79"/><line class="cls-3" x1="134.29" y1="300" x2="134.29" y2="303.58"/><line class="cls-3" x1="118.84" y1="327.54" x2="118.84" y2="331.12"/><line class="cls-3" x1="40.48" y1="346.26" x2="40.48" y2="349.83"/><line class="cls-3" x1="47.24" y1="344.95" x2="47.24" y2="348.52"/><line class="cls-3" x1="43.86" y1="343.8" x2="43.86" y2="347.37"/><line class="cls-3" x1="231.56" y1="255.51" x2="231.56" y2="259.09"/><line class="cls-3" x1="230.71" y1="249.51" x2="230.71" y2="253.09"/><line class="cls-3" x1="227.69" y1="251.94" x2="227.69" y2="255.51"/><line class="cls-3" x1="224.03" y1="250.75" x2="224.03" y2="254.32"/><line class="cls-3" x1="234.75" y1="251.3" x2="234.75" y2="254.88"/><line class="cls-3" x1="274.62" y1="291.62" x2="274.62" y2="295.2"/><line class="cls-3" x1="273.77" y1="285.62" x2="273.77" y2="289.2"/><line class="cls-3" x1="270.75" y1="288.05" x2="270.75" y2="291.62"/><line class="cls-3" x1="267.09" y1="286.85" x2="267.09" y2="290.43"/><line class="cls-3" x1="277.82" y1="287.41" x2="277.82" y2="290.98"/><line class="cls-3" x1="207.99" y1="355.45" x2="207.99" y2="359.02"/><line class="cls-3" x1="207.13" y1="349.45" x2="207.13" y2="353.02"/><line class="cls-3" x1="204.12" y1="351.88" x2="204.12" y2="355.45"/><line class="cls-3" x1="200.45" y1="350.68" x2="200.45" y2="354.26"/><line class="cls-3" x1="211.18" y1="351.24" x2="211.18" y2="354.81"/><line class="cls-3" x1="315.22" y1="345.46" x2="315.22" y2="349.03"/><line class="cls-3" x1="314.37" y1="339.46" x2="314.37" y2="343.03"/><line class="cls-3" x1="311.35" y1="341.88" x2="311.35" y2="345.46"/><line class="cls-3" x1="307.69" y1="340.69" x2="307.69" y2="344.27"/><line class="cls-3" x1="174.5" y1="251.92" x2="174.5" y2="255.49"/><line class="cls-3" x1="177.44" y1="249.51" x2="177.44" y2="253.09"/><line class="cls-3" x1="254.41" y1="351.46" x2="254.41" y2="355.03"/><line class="cls-3" x1="128.63" y1="262.64" x2="128.63" y2="266.22"/><line class="cls-3" x1="132.37" y1="263.88" x2="132.37" y2="267.45"/><line class="cls-3" x1="131.22" y1="298.22" x2="131.22" y2="301.79"/><line class="cls-3" x1="153.56" y1="211.71" x2="153.56" y2="215.28"/><line class="cls-3" x1="150.92" y1="210.51" x2="150.92" y2="214.09"/><line class="cls-3" x1="190.16" y1="200.66" x2="190.16" y2="204.23"/><line class="cls-3" x1="115.64" y1="195.05" x2="115.64" y2="198.62"/><line class="cls-3" x1="258.24" y1="350.82" x2="258.24" y2="354.4"/><line class="cls-3" x1="255.12" y1="259.07" x2="255.12" y2="262.64"/><line class="cls-3" x1="261.65" y1="257.28" x2="261.65" y2="260.85"/><line class="cls-2" x1="283.18" y1="222.24" x2="283.18" y2="225.81"/><line class="cls-2" x1="193.57" y1="202.45" x2="193.57" y2="206.02"/><line class="cls-2" x1="112.92" y1="195.05" x2="112.92" y2="198.62"/><line class="cls-2" x1="109.85" y1="195.05" x2="109.85" y2="198.62"/><line class="cls-2" x1="279.99" y1="221.73" x2="279.99" y2="225.3"/><line class="cls-3" x1="258.24" y1="260.85" x2="258.24" y2="264.43"/><line class="cls-3" x1="219.37" y1="335.88" x2="219.37" y2="339.46"/><line class="cls-3" x1="225.9" y1="334.1" x2="225.9" y2="337.67"/><line class="cls-3" x1="222.5" y1="337.67" x2="222.5" y2="341.25"/><line class="cls-3" x1="302.61" y1="319.22" x2="302.61" y2="322.8"/><line class="cls-3" x1="309.14" y1="317.44" x2="309.14" y2="321.01"/><line class="cls-3" x1="305.73" y1="321.01" x2="305.73" y2="324.59"/><line class="cls-3" x1="232.9" y1="235.28" x2="232.9" y2="238.86"/><line class="cls-3" x1="239.44" y1="233.5" x2="239.44" y2="237.07"/><line class="cls-3" x1="236.03" y1="237.07" x2="236.03" y2="240.64"/><line class="cls-3" x1="43.86" y1="219.88" x2="43.86" y2="223.45"/><line class="cls-3" x1="304.18" y1="229.92" x2="304.18" y2="233.5"/><line class="cls-3" x1="287.27" y1="224.02" x2="287.27" y2="227.6"/><line class="cls-3" x1="307.31" y1="231.71" x2="307.31" y2="235.28"/><path class="cls-4" d="M245.97,215.9c-8.68,6.08-18.77,15.35-29.3,29.47-18.59,24.93-21.31,50.08-29.54,76.2-7.52,23.86-15.14,44.01-19.09,54.07"/><path class="cls-4" d="M78.9,374.53c10.95-8.53,28.89-23.67,47.6-44.38,30.72-34.01,49.71-69.05,65.43-85.82s29.9-26.09,40.98-32.04"/><rect class="cls-6" x="300.22" y="200.64" width="16.34" height="26.89" rx="2.68" ry="2.68"/><rect class="cls-5" x="302.74" y="203.83" width="4.57" height="5.55" rx=".57" ry=".57"/><rect class="cls-5" x="309.29" y="203.83" width="4.57" height="5.55" rx=".57" ry=".57"/><rect class="cls-5" x="304.07" y="210.84" width="2.28" height="4.71" rx="1.14" ry="1.14" transform="translate(518.41 -92.02) rotate(90)"/><rect class="cls-5" x="304" y="214.53" width="2.28" height="4.71" rx="1.14" ry="1.14" transform="translate(522.03 -88.26) rotate(90)"/><rect class="cls-5" x="304.07" y="218.45" width="2.28" height="4.71" rx="1.14" ry="1.14" transform="translate(526.02 -84.41) rotate(90)"/><rect class="cls-5" x="310.49" y="210.73" width="2.28" height="4.71" rx="1.14" ry="1.14" transform="translate(524.71 -98.55) rotate(90)"/><rect class="cls-5" x="310.42" y="214.42" width="2.28" height="4.71" rx="1.14" ry="1.14" transform="translate(528.33 -94.78) rotate(90)"/><rect class="cls-5" x="310.49" y="218.34" width="2.28" height="4.71" rx="1.14" ry="1.14" transform="translate(532.32 -90.94) rotate(90)"/><line class="cls-3" x1="310.72" y1="228.13" x2="310.72" y2="231.71"/></svg>