<?xml version="1.0" encoding="UTF-8"?><svg id="Lager_1" xmlns="http://www.w3.org/2000/svg" viewBox="0 0 347.74 366.53"><defs><style>.cls-1{fill:#71bbcd;}.cls-2,.cls-3{fill:#fff;}.cls-4{stroke-width:6.75px;}.cls-4,.cls-3{stroke-linejoin:round;}.cls-4,.cls-3,.cls-5{stroke:#191919;stroke-linecap:round;}.cls-4,.cls-5{fill:none;}.cls-3,.cls-5{stroke-width:2.5px;}.cls-6{fill:#71bbce;}.cls-5{stroke-miterlimit:10;}.cls-7{fill:#1d1d1b;font-family:CirceRounded-Bold, 'Circe Rounded';font-size:14.63px;}</style></defs><path class="cls-3" d="M77.43,347.67V169.9c0-12.29,9.96-22.25,22.25-22.25H248.07c12.29,0,22.25,9.96,22.25,22.25v177.77"/><rect class="cls-4" x="143.63" y="150.35" width="62.5" height="6.42"/><text class="cls-7" transform="translate(108.59 269.7)"><tspan x="0" y="0">GPS location</tspan></text><rect class="cls-1" x="213.83" y="258.73" width="27.63" height="14.19" rx="7.09" ry="7.09"/><circle class="cls-2" cx="234.5" cy="265.83" r="4.79"/><path class="cls-5" d="M88.61,347.67V205.39c0-2.26,1.85-4.1,4.1-4.1H254.37c2.26,0,4.1,1.85,4.1,4.1v142.28"/><path class="cls-6" d="M206.69,77.18c0,12.23-17.05,34.41-24.35,43.34-1.69,2.07-4.85,2.1-6.58,.07-7.57-8.89-25.42-31.15-25.42-43.41,0-15.56,12.61-28.17,28.17-28.17s28.17,12.61,28.17,28.17Z"/><circle class="cls-2" cx="178.52" cy="77" r="13.48"/></svg>