<svg id="Lager_1" data-name="Lager 1" xmlns="http://www.w3.org/2000/svg" viewBox="0 0 347.74 461.41"><defs><style>.cls-1{fill:#fff;stroke-width:2.5px;}.cls-1,.cls-2,.cls-3{stroke:#191919;}.cls-1,.cls-10,.cls-11,.cls-12,.cls-2,.cls-3,.cls-5,.cls-6,.cls-7,.cls-8,.cls-9{stroke-linecap:round;stroke-linejoin:round;}.cls-10,.cls-11,.cls-12,.cls-2,.cls-3,.cls-5,.cls-9{fill:none;}.cls-2{stroke-width:2.79px;}.cls-3{stroke-width:2px;}.cls-4{fill:#459399;}.cls-12,.cls-5,.cls-6,.cls-8,.cls-9{stroke:#76c0cc;}.cls-5{stroke-width:3px;}.cls-6,.cls-7,.cls-8{fill:#76c0cc;}.cls-12,.cls-6{stroke-width:2.99px;}.cls-10,.cls-11,.cls-7{stroke:#fff;}.cls-10,.cls-7,.cls-8,.cls-9{stroke-width:2.39px;}.cls-11{stroke-width:1.8px;}</style></defs><rect class="cls-1" x="138.15" y="158.78" width="79.84" height="159.66" rx="9.53"/><rect class="cls-2" x="165.56" y="159.9" width="25.87" height="2.66"/><circle class="cls-3" cx="178.07" cy="304.3" r="6.3"/><path class="cls-4" d="M210.78,245.61h0A2.39,2.39,0,0,1,208.4,248H198.16a2.39,2.39,0,0,1-2.34-1.93L192,226.18s0,0-.05,0l-10.42,33a2.38,2.38,0,0,1-2.3,1.76h-.07a2.37,2.37,0,0,1-2.26-1.9l-10.25-42.46a0,0,0,0,0-.05,0l-7.33,29.58A2.4,2.4,0,0,1,157,248H146.45a2.44,2.44,0,0,1-2.46-2.08,2.37,2.37,0,0,1,2.36-2.68h8.73l0,0,9.45-38.1a2.38,2.38,0,0,1,4.65.1l10.34,42.94s0,0,.05,0l10.49-33.26a2.38,2.38,0,0,1,4.63.17l5.41,28.14,0,0h8.26A2.39,2.39,0,0,1,210.78,245.61Z"/><rect class="cls-5" x="45.19" y="142.4" width="49.52" height="49.52" rx="9.57"/><rect class="cls-6" x="153.32" y="70.44" width="49.52" height="49.52" rx="9.57"/><rect class="cls-5" x="265.15" y="142.4" width="49.52" height="49.52" rx="9.57"/><rect class="cls-6" x="45.19" y="273.24" width="49.52" height="49.52" rx="9.57"/><rect class="cls-6" x="267.19" y="273.24" width="49.52" height="49.52" rx="9.57"/><path class="cls-7" d="M70,315.46c30.15-16.68,15.26-41.57,0-25.41C54.68,273.89,39.8,298.78,70,315.46Z"/><circle class="cls-8" cx="73.24" cy="152.22" r="3.3"/><polyline class="cls-9" points="70.36 158.26 66.69 171.13 75.05 176.84 77.09 185.2"/><polyline class="cls-9" points="65.57 174.34 64.66 180.1 58.34 185.2"/><polyline class="cls-9" points="72.7 161.2 74.44 167.16 79.89 166.11"/><polyline class="cls-9" points="70.36 158.26 61.5 162.05 60.78 168.89"/><line class="cls-9" x1="276.81" y1="160.91" x2="276.81" y2="173.41"/><line class="cls-9" x1="280.74" y1="158.99" x2="280.74" y2="175.33"/><line class="cls-9" x1="271.33" y1="167.16" x2="273.51" y2="167.16"/><line class="cls-9" x1="284.54" y1="167.16" x2="295.28" y2="167.16"/><line class="cls-9" x1="302.9" y1="160.91" x2="302.9" y2="173.41"/><line class="cls-9" x1="298.97" y1="158.99" x2="298.97" y2="175.33"/><line class="cls-9" x1="308.38" y1="167.16" x2="306.2" y2="167.16"/><rect class="cls-5" x="154.39" y="356.69" width="49.52" height="49.52" rx="9.57"/><circle class="cls-10" cx="165.01" cy="99.75" r="6.8"/><circle class="cls-10" cx="191.14" cy="99.75" r="6.8"/><line class="cls-10" x1="191.14" y1="99.75" x2="185.68" y2="82.88"/><polyline class="cls-10" points="178.74 99.75 171.81 87.53 165.01 99.75 178.74 99.75"/><line class="cls-10" x1="178.74" y1="99.75" x2="186.79" y2="88.48"/><line class="cls-10" x1="183.2" y1="82.28" x2="192.54" y2="82.28"/><line class="cls-10" x1="168.8" y1="85.96" x2="174.2" y2="85.96"/><path class="cls-10" d="M298.37,307.41a13.14,13.14,0,1,1-12.16-17l-.1,0a11.06,11.06,0,1,0,12.26,17Z"/><ellipse class="cls-10" cx="299.8" cy="286.46" rx="7.23" ry="9.88"/><ellipse class="cls-11" cx="308.25" cy="298.58" rx="3.62" ry="4.94"/><polyline class="cls-12" points="159.49 383.42 167.6 383.42 172.78 365.08 179.15 399.35 183.23 382.21 197.66 382.21"/></svg>