<svg id="Lager_1" data-name="Lager 1" xmlns="http://www.w3.org/2000/svg" viewBox="0 0 347.74 356.69"><defs><style>.cls-1,.cls-6{fill:none;}.cls-1,.cls-2,.cls-3,.cls-4,.cls-5,.cls-6,.cls-7{stroke:#76c0cc;stroke-linecap:round;stroke-linejoin:round;}.cls-1{stroke-width:3px;}.cls-2,.cls-3,.cls-4,.cls-5,.cls-7{fill:#76c0cc;}.cls-2{stroke-width:0.87px;}.cls-3{stroke-width:0.68px;}.cls-4{stroke-width:0.99px;}.cls-5{stroke-width:0.77px;}.cls-6{stroke-width:2px;}.cls-7{stroke-width:3.19px;}.cls-8{font-size:18px;fill:#fff;font-family:CirceRounded-Regular, Circe Rounded;}</style></defs><polyline class="cls-1" points="156.38 230.21 53.23 230.21 53.23 128.69"/><polyline class="cls-1" points="296.19 230.21 188.5 230.21 188.5 128.69"/><rect class="cls-2" x="60.31" y="156.6" width="12.36" height="67.32"/><rect class="cls-3" x="83.37" y="182.73" width="12.36" height="41.19"/><rect class="cls-4" x="106.41" y="137.78" width="12.36" height="86.14"/><rect class="cls-5" x="129.46" y="171.23" width="12.36" height="52.68"/><circle class="cls-6" cx="198.97" cy="187.31" r="3.83"/><circle class="cls-6" cx="219.65" cy="161.01" r="3.83"/><circle class="cls-6" cx="249.52" cy="151.06" r="3.83"/><circle class="cls-6" cx="271.48" cy="205.7" r="3.83"/><circle class="cls-6" cx="292.36" cy="175.31" r="3.83"/><line class="cls-6" x1="202.8" y1="182.46" x2="215.35" y2="165.51"/><line class="cls-6" x1="225.87" y1="158.9" x2="243.65" y2="153.1"/><line class="cls-6" x1="252.46" y1="156.67" x2="268.6" y2="199.58"/><line class="cls-6" x1="275.31" y1="200.21" x2="288.2" y2="180.89"/><rect class="cls-7" x="67.81" y="276.01" width="91.47" height="23.1" rx="11.55"/><rect class="cls-7" x="189.03" y="276.01" width="91.47" height="23.1" rx="11.55"/><text class="cls-8" transform="translate(215.3 293.41)">Send</text><text class="cls-8" transform="translate(82.19 293.41)">Discard</text></svg>