<svg id="Lager_1" data-name="Lager 1" xmlns="http://www.w3.org/2000/svg" viewBox="0 0 347.74 413.6"><defs><style>.cls-1,.cls-3,.cls-4,.cls-5,.cls-8{fill:none;}.cls-1,.cls-2,.cls-3,.cls-4,.cls-6,.cls-8{stroke:#191919;}.cls-1,.cls-2,.cls-3,.cls-4,.cls-5,.cls-6,.cls-8{stroke-linecap:round;}.cls-1,.cls-2{stroke-miterlimit:10;}.cls-1,.cls-2,.cls-6,.cls-8{stroke-width:2.5px;}.cls-2,.cls-6{fill:#fff;}.cls-3,.cls-4,.cls-5,.cls-6,.cls-8{stroke-linejoin:round;}.cls-3{stroke-width:4.06px;}.cls-4{stroke-width:2.9px;stroke-dasharray:5.81;opacity:0.24;}.cls-5{stroke:#76c0cc;stroke-width:8.71px;}.cls-7{fill:#76c0cc;}</style></defs><path class="cls-1" d="M22,186.34v11.58a7.21,7.21,0,0,0,3.27,6l158,103.14a31.51,31.51,0,0,0,34.35,0l29.24-19"/><path class="cls-2" d="M258.56,218.24l-134-76.58a23.75,23.75,0,0,0-23.15-.24L26,180.93a7.86,7.86,0,0,0-.45,13.54L188.77,297.73a23.77,23.77,0,0,0,25.57-.11l28.82-18.29"/><polygon class="cls-3" points="90.27 151.43 56.4 169.86 51.49 167.86 85.55 149.7 90.27 151.43"/><path class="cls-4" d="M144.62,206.19c5.24.82,9,4.39,8.46,8s-5.27,5.83-10.51,5c-10.48-1.65-18.06-8.79-16.93-16s10.53-11.65,21-10c15.73,2.48,27.09,13.19,25.39,24s-15.79,17.47-31.52,15c-21-3.3-36.12-17.59-33.86-31.95s21.06-23.3,42-20c26.22,4.13,45.15,22,42.32,39.94s-26.32,29.12-52.54,25"/><path class="cls-5" d="M141.06,206.69c5.75-2.41,11.47,4.31,12,6.07.4,1.3.88,4.39,0,5.42-2,2.3-9,2.12-12,1.79a30.37,30.37,0,0,1-10.75-4.13c-2.38-1.73-7.19-6.22-7.41-9.15-.13-1.71,0-9.27,4.63-12.17,6.56-4.11,12.47-1.64,14.66-1.65,2.72,0,15.6,3.19,18.51,5.31,6.86,5,7.89,6.87,8.91,8.37,1.91,2.8,3.26,10.32,1.9,13.42-2.15,4.88-12.47,10.57-17.58,12.07-4,1.19-12.64.13-16.79-.52-5-.78-16.65,1.06-29.06-13.71-3.52-4.19-4.77-16.07-4.08-21.5.54-4.33-1.11-7.41,7.41-15.81,4.7-4.63,19.83-2.91,27.24-2.52,14.61.78,20.42,5,25.06,6.36,4.3,1.3,15.43,4.72,15.43,9.21"/><path class="cls-6" d="M293.71,287.09s-44,6-49.68,3.33c-1.83-.85-5.34-11.11,7.42-22.82C265.76,254.46,321,249.06,321,249.06"/><path class="cls-7" d="M248.85,277.72c3.69-3.09,12.18-4.54,16.51-2.59s2.72,13.12,2.72,13.12-17.1,2.58-20.93,1.84C241.93,289.07,246.11,280,248.85,277.72Z"/><path class="cls-8" d="M325.53,136.48c-5.22-1.34-26.39-2-26.39-2s-9.37,2.13-12.93,6.38-3.49,8-3.49,8"/><path class="cls-8" d="M293.71,287.09s13.74,0,27.29,1"/><path class="cls-6" d="M315.84,151.92s-34.59-10.11-40.53-5.07-13.82,15.83-13.82,15.83"/><path class="cls-6" d="M307.45,168.78s-48.75-6.39-56.75-3.72c-9.52,3.19-15.38,20.92-15.38,20.92"/><path class="cls-6" d="M245.59,190.59l13.59-1.48,30.6,8.1s-107.69-15.89-114.07-18.09c-6.78-2.34-11.07,11.58,4.78,24.83s60,18.64,65,19.3,17.83,3.07,17.83,3.07l35.09,18.53,28.71,6.59"/><path class="cls-7" d="M173.86,190.39c2.56,2.83,9,4.9,12.67,3.85s3.56-10,3.56-10-13.12-3.9-16.21-3.74C169.68,180.73,172,188.3,173.86,190.39Z"/><path class="cls-2" d="M271.38,258.21l15.2-9.44a6.08,6.08,0,0,0,.7-9.82h0"/><line class="cls-1" x1="289.45" y1="242.3" x2="289.45" y2="253.82"/></svg>