<svg id="Lager_1" data-name="Lager 1" xmlns="http://www.w3.org/2000/svg" viewBox="0 0 347.74 413.6"><defs><style>.cls-1,.cls-11,.cls-3,.cls-4,.cls-6,.cls-8,.cls-9{fill:none;}.cls-1,.cls-9{stroke:#76c0cc;}.cls-1,.cls-11,.cls-12,.cls-6,.cls-8,.cls-9{stroke-linejoin:round;}.cls-1{stroke-width:3px;}.cls-2{fill:#76c0cc;}.cls-3{stroke:#fff;stroke-width:3.26px;}.cls-12,.cls-3,.cls-4,.cls-5,.cls-6,.cls-8,.cls-9{stroke-linecap:round;}.cls-10,.cls-3,.cls-4,.cls-5{stroke-miterlimit:10;}.cls-10,.cls-11,.cls-12,.cls-4,.cls-5,.cls-6,.cls-8{stroke:#191919;}.cls-10,.cls-11,.cls-12,.cls-4,.cls-5{stroke-width:2.5px;}.cls-10,.cls-12,.cls-5,.cls-7{fill:#fff;}.cls-6{stroke-width:2.79px;}.cls-8{stroke-width:2px;stroke-dasharray:4;opacity:0.24;}.cls-9{stroke-width:6px;}</style></defs><polyline class="cls-1" points="-3.53 97.99 119.22 34.69 351.28 165.55 351.28 178.46 90.55 370.34"/><polygon class="cls-2" points="-0.41 302.25 -0.52 328.98 90.56 398.26 90.55 370.34 -0.41 302.25"/><line class="cls-3" x1="89.46" y1="399.79" x2="89.46" y2="366.86"/><path class="cls-4" d="M25.57,161.21v8a5,5,0,0,0,2.26,4.16l108.81,71a21.71,21.71,0,0,0,23.66,0l20.14-13.07"/><path class="cls-5" d="M188.57,184.56,96.3,131.81a16.37,16.37,0,0,0-16-.17L28.4,158.86a5.41,5.41,0,0,0-.31,9.33L140.5,239.31a16.35,16.35,0,0,0,17.61-.07l16.34-10.53"/><polygon class="cls-6" points="73.29 138.54 49.96 151.23 46.58 149.86 70.03 137.35 73.29 138.54"/><polygon class="cls-2" points="91.14 396.05 353.36 202.51 351.28 178.46 91.14 369.91 91.14 396.05"/><path class="cls-7" d="M330.64,186.72l2.77,3.3v15.69l-5.32,20.42s-16.84,11-17.38,9.63S287,226.84,287,226.84l-12.53,1.84Z"/><line class="cls-8" x1="104.43" y1="155.75" x2="122.33" y2="165.68"/><path class="cls-9" d="M103,155.75s-6.34,3.38-7.52,4.13c-4.56,2.9-11.59,6.06-16.34,8.63-1.23.67-3.47,2.18-5.52,3.61a3.45,3.45,0,0,0,.23,5.81,24.91,24.91,0,0,1,3,2c.94.77,7,5.08,7.92,5.83,2.88,2.3,8.11,4.32,11.23,6.3,1.77,1.11,4.2,2.31,5.87,3.56l0,0a8,8,0,0,0,7.8.9A21.38,21.38,0,0,0,113,194.9c1.36-1,5.64-3.91,7-4.88a61.29,61.29,0,0,1,6.68-4.25c.86-.46,3.38-2,3.38-2"/><path class="cls-10" d="M206.81,238.1s-30.32,4.11-34.22,2.29c-1.26-.58-3.68-7.65,5.11-15.71,9.86-9.05,47.91-12.77,47.91-12.77"/><path class="cls-2" d="M175.91,231.65c2.54-2.13,8.38-3.13,11.37-1.79s1.87,9,1.87,9-11.77,1.78-14.42,1.27C171.14,239.47,174,233.22,175.91,231.65Z"/><path class="cls-11" d="M206.81,238.1s38.37.52,43.83-1.27c3.41-1.13,36.36-11,36.36-11,20.83,7.13,32.22,12.66,32.22,12.66s12-18.47,13.64-35.3-.9-19.86-.9-19.86l-36.74-5.14s-45.88-38-51.55-39.42c-3.59-.92-33.12-5.83-33.12-5.83s-6.45,1.47-8.91,4.39a9.18,9.18,0,0,0-2.4,5.53"/><path class="cls-5" d="M222.05,145s-23.82-7-27.92-3.49-9.51,10.9-9.51,10.9"/><path class="cls-5" d="M216.27,156.61s-33.58-4.41-39.08-2.57c-6.57,2.2-10.6,14.41-10.6,14.41"/><path class="cls-12" d="M173.66,171.62l9.36-1,21.08,5.58s-74.18-10.95-78.58-12.47c-4.67-1.6-7.62,8,3.29,17.11s41.34,12.84,44.8,13.29,12.28,2.12,12.28,2.12L210.06,209,234,214.5"/><path class="cls-2" d="M124.25,171.49c1.76,1.95,6.24,3.38,8.73,2.65s2.45-6.88,2.45-6.88-9-2.69-11.16-2.58C121.37,164.84,122.94,170.05,124.25,171.49Z"/><path class="cls-5" d="M190.9,217.92l10.46-6.49a4.18,4.18,0,0,0,.48-6.76h0"/><line class="cls-5" x1="203.33" y1="206.98" x2="203.33" y2="214.9"/></svg>