<svg id="Lager_1" data-name="Lager 1" xmlns="http://www.w3.org/2000/svg" viewBox="0 0 347.74 413.6"><defs><style>.cls-1,.cls-11,.cls-3,.cls-4,.cls-6,.cls-8,.cls-9{fill:none;}.cls-1,.cls-9{stroke:#76c0cc;}.cls-1,.cls-11,.cls-12,.cls-6,.cls-8,.cls-9{stroke-linejoin:round;}.cls-1{stroke-width:3px;}.cls-2{fill:#76c0cc;}.cls-3{stroke:#fff;stroke-width:3.26px;}.cls-12,.cls-3,.cls-4,.cls-5,.cls-6,.cls-8,.cls-9{stroke-linecap:round;}.cls-10,.cls-3,.cls-4,.cls-5{stroke-miterlimit:10;}.cls-10,.cls-11,.cls-12,.cls-4,.cls-5,.cls-6,.cls-8{stroke:#191919;}.cls-10,.cls-11,.cls-12,.cls-4,.cls-5{stroke-width:2.5px;}.cls-10,.cls-12,.cls-5,.cls-7{fill:#fff;}.cls-6{stroke-width:2.79px;}.cls-8{stroke-width:2px;stroke-dasharray:4;opacity:0.24;}.cls-9{stroke-width:6px;}</style></defs><polyline class="cls-1" points="-4.57 101.05 118.18 37.75 350.23 168.62 350.23 181.53 89.51 373.41"/><polygon class="cls-2" points="-1.46 305.32 -1.56 332.04 89.51 401.33 89.51 373.41 -1.46 305.32"/><line class="cls-3" x1="88.42" y1="402.86" x2="88.41" y2="369.92"/><path class="cls-4" d="M24.53,164.27v8a5,5,0,0,0,2.25,4.16l108.82,71a21.69,21.69,0,0,0,23.66,0l20.14-13.06"/><path class="cls-5" d="M188.17,187.63,95.9,134.87a16.37,16.37,0,0,0-16-.17L28,161.92a5.42,5.42,0,0,0-.3,9.33L140.1,242.38a16.36,16.36,0,0,0,17.61-.08L178,228.53"/><polygon class="cls-6" points="72.25 141.6 48.91 154.29 45.53 152.92 68.99 140.41 72.25 141.6"/><polygon class="cls-2" points="90.1 399.11 352.32 205.58 350.23 181.53 90.1 372.97 90.1 399.11"/><path class="cls-7" d="M336.21,183.05l2.77,3.3V202l-5.32,20.43s-16.83,11-17.38,9.62-23.7-8.91-23.7-8.91L280,225Z"/><path class="cls-8" d="M109.68,179.32c3.61.57,6.22,3,5.83,5.5s-3.63,4-7.24,3.44c-7.22-1.13-12.44-6-11.66-11s7.26-8,14.48-6.89c10.83,1.71,18.66,9.09,17.49,16.51s-10.88,12-21.72,10.33c-14.44-2.27-24.87-12.12-23.32-22s14.51-16,29-13.77c18.06,2.84,31.09,15.14,29.15,27.51S123.52,209,105.46,206.15"/><path class="cls-9" d="M107.23,179.66c4-1.66,7.9,3,8.28,4.19.28.89.61,3,0,3.73-1.36,1.58-6.2,1.46-8.28,1.23a20.55,20.55,0,0,1-7.4-2.84c-1.64-1.19-5-4.28-5.11-6.31-.08-1.18,0-6.38,3.19-8.38,4.52-2.83,8.59-1.12,10.1-1.13,1.88,0,10.75,2.2,12.75,3.65,4.73,3.44,5.44,4.74,6.14,5.77,1.31,1.93,2.25,7.11,1.31,9.24-1.48,3.36-8.59,7.29-12.11,8.32-2.78.81-8.71.09-11.57-.36-3.44-.54-11.47.73-20-9.45-2.42-2.88-3.28-11.07-2.81-14.81.38-3-.76-5.1,5.11-10.88,3.24-3.19,13.66-2,18.76-1.74,10.06.53,14.07,3.42,17.26,4.38,3,.89,10.63,3.25,10.63,6.34"/><path class="cls-10" d="M212.39,235.05s-30.32,4.1-34.23,2.29c-1.26-.58-3.67-7.65,5.11-15.71,9.86-9.06,47.91-12.78,47.91-12.78"/><path class="cls-2" d="M181.48,228.59c2.55-2.12,8.39-3.12,11.38-1.78s1.87,9,1.87,9-11.78,1.78-14.42,1.26C176.71,236.42,179.59,230.17,181.48,228.59Z"/><path class="cls-11" d="M212.39,235.05s38.36.52,43.83-1.28c3.41-1.12,36.36-11,36.36-11,20.83,7.13,32.22,12.66,32.22,12.66s12-18.47,13.64-35.3-.9-19.86-.9-19.86l-36.74-5.14s-45.88-38-51.55-39.42c-3.6-.92-33.13-5.83-33.13-5.83s-6.45,1.46-8.9,4.39a9.24,9.24,0,0,0-2.41,5.53"/><path class="cls-5" d="M227.63,141.94s-23.83-7-27.92-3.49-9.52,10.9-9.52,10.9"/><path class="cls-5" d="M221.85,153.56s-33.58-4.41-39.09-2.57c-6.56,2.2-10.6,14.41-10.6,14.41"/><path class="cls-12" d="M179.24,168.57l9.36-1,21.08,5.58s-74.18-10.95-78.58-12.47c-4.67-1.61-7.63,8,3.29,17.11s41.34,12.84,44.79,13.29,12.29,2.12,12.29,2.12L215.64,206l23.92,5.49"/><path class="cls-2" d="M129.82,168.44c1.77,1.95,6.24,3.37,8.73,2.65s2.46-6.88,2.46-6.88-9-2.69-11.17-2.58C126.94,161.78,128.52,167,129.82,168.44Z"/><path class="cls-5" d="M196.48,215.2l10.45-6.49a4.18,4.18,0,0,0,.48-6.76h0"/><line class="cls-5" x1="208.91" y1="204.26" x2="208.91" y2="212.18"/></svg>