<svg id="Lager_1" data-name="Lager 1" xmlns="http://www.w3.org/2000/svg" viewBox="0 0 347.74 423.54"><defs><style>.cls-1{fill:#76c0cc;}.cls-10,.cls-11,.cls-12,.cls-13,.cls-2,.cls-3,.cls-4,.cls-6,.cls-8{fill:none;}.cls-12,.cls-13,.cls-2,.cls-3,.cls-4{stroke:#76c0cc;}.cls-10,.cls-12,.cls-13,.cls-2,.cls-3,.cls-5,.cls-6,.cls-8,.cls-9{stroke-linecap:round;}.cls-10,.cls-2,.cls-5,.cls-7,.cls-8{stroke-miterlimit:10;}.cls-2,.cls-3,.cls-4{stroke-width:3px;}.cls-11,.cls-12,.cls-13,.cls-3,.cls-4,.cls-6,.cls-9{stroke-linejoin:round;}.cls-5,.cls-7,.cls-9{fill:#fff;}.cls-11,.cls-5,.cls-6,.cls-7,.cls-8,.cls-9{stroke:#191919;}.cls-11,.cls-5,.cls-7,.cls-8,.cls-9{stroke-width:2.5px;}.cls-6{stroke-width:2.79px;}.cls-10{stroke:#fff;stroke-width:3.26px;}.cls-12{stroke-width:2px;}.cls-13{stroke-width:2.24px;}</style></defs><polygon class="cls-1" points="278.15 243.86 284.27 256.7 293.85 259.96 350.69 219.04 348.69 190.39 278.15 243.86"/><line class="cls-2" x1="293.85" y1="259.96" x2="350.69" y2="217.87"/><polyline class="cls-3" points="2.95 342.36 91.54 409.77 242.16 298.24"/><polyline class="cls-4" points="0 107.72 119.3 46.19 348.69 177.48 348.69 190.39 274.99 244.72"/><polyline class="cls-4" points="209.44 294.32 89.54 381.85 0.95 312.73"/><path class="cls-5" d="M190.75,195.85,98.48,143.09a16.37,16.37,0,0,0-16-.16l-47.6,25.2a5.41,5.41,0,0,0-.31,9.33L147,248.59a16.39,16.39,0,0,0,17.62-.08L181,238"/><polygon class="cls-6" points="77.28 148.88 53.95 161.57 50.57 160.2 74.03 147.69 77.28 148.88"/><path class="cls-7" d="M181,283.81s-30-6.21-33-9.21c-1-1-.93-8.44,10-13.13,12.31-5.26,49.43,3.88,49.43,3.88"/><path class="cls-1" d="M154,267.45c3.11-1.16,9-.16,11.33,2.1s-1.24,9.14-1.24,9.14-11.7-2.23-14-3.59C146.88,273.24,151.67,268.31,154,267.45Z"/><path class="cls-5" d="M226.3,201.06s-20.15-14.49-25.17-12.57-12.6,7.11-12.6,7.11"/><path class="cls-8" d="M31.76,172.61v5.46A5,5,0,0,0,34,182.23l108.82,71a21.67,21.67,0,0,0,23.65,0l20.15-13.06"/><ellipse class="cls-1" cx="123.03" cy="210.1" rx="6.47" ry="9.26" transform="translate(-120.43 211.6) rotate(-60)"/><ellipse class="cls-1" cx="146.52" cy="192.32" rx="6.47" ry="9.26" transform="translate(-93.29 223.05) rotate(-60)"/><path class="cls-9" d="M214.45,270.58l-20.73-13.13-23.54-19.93s-16.64-7.62-19.74-9.19S125.9,218.67,122,210.1c-5.94-12.93-.28-17.1,3.63-14.72,6.68,4.07,73.42,29.14,73.42,29.14L177.48,205.6,149,191.85s-16.18-5.14-12.9-16.79c.32-1.14,1.41-4.13,2.58-3.93,8.13,1.4,38.72,14.8,46,16.09C190.75,188.31,217,210.1,217,210.1"/><path class="cls-1" d="M121.82,201.87c1.15,2.36,5.05,5,7.64,5s4.28-5.92,4.28-5.92-7.93-5.1-10-5.59C120.91,194.67,121,200.12,121.82,201.87Z"/><path class="cls-1" d="M138.47,179.39c1.56,2.11,5.87,4,8.42,3.5s3.12-6.61,3.12-6.61-8.73-3.56-10.86-3.66C136.26,172.48,137.31,177.83,138.47,179.39Z"/><polygon class="cls-1" points="0.95 312.73 0.95 340.36 89.54 407.77 89.54 379.85 0.95 312.73"/><line class="cls-10" x1="91.54" y1="411.3" x2="91.54" y2="378.36"/><path class="cls-1" d="M93.33,380.54v29.23L242.15,298.24H222.27s-9.47-4.94-10.83-3.92S93.33,380.54,93.33,380.54Z"/><path class="cls-11" d="M181,283.81s36,13.25,41.76,13.37c3.59.07,37.94,1.72,37.94,1.72,17.28,13.65,26.18,22.65,26.18,22.65s17.48-13.42,24.6-28.75,5.75-19,5.75-19L284.27,256.7s-30.65-51-35.52-54.31c-3.08-2.06-29.3-16.51-29.3-16.51s-6.57-.76-9.86,1.18-2.86,2.4-2.86,2.4"/><polyline class="cls-12" points="130.72 173.08 124.65 179.15 118.57 173.08"/><line class="cls-12" x1="124.65" y1="162.15" x2="124.65" y2="178.15"/><polyline class="cls-13" points="148.49 148.95 141.7 142.16 134.91 148.95"/><line class="cls-12" x1="141.7" y1="158.17" x2="141.7" y2="142.16"/></svg>