<svg id="Lager_1" data-name="Lager 1" xmlns="http://www.w3.org/2000/svg" viewBox="0 0 347.74 423.54"><defs><style>.cls-1{fill:#76c0cc;}.cls-11,.cls-2,.cls-3,.cls-4,.cls-5,.cls-7,.cls-9{fill:none;}.cls-11,.cls-2,.cls-3{stroke:#76c0cc;}.cls-10,.cls-11,.cls-2,.cls-4,.cls-5,.cls-6,.cls-7{stroke-linecap:round;}.cls-10,.cls-11,.cls-2,.cls-3,.cls-7,.cls-9{stroke-linejoin:round;}.cls-2,.cls-3{stroke-width:3px;}.cls-4{stroke:#fff;stroke-width:3.26px;}.cls-4,.cls-5,.cls-6,.cls-8{stroke-miterlimit:10;}.cls-10,.cls-5,.cls-6,.cls-7,.cls-8,.cls-9{stroke:#191919;}.cls-10,.cls-5,.cls-6,.cls-8,.cls-9{stroke-width:2.5px;}.cls-10,.cls-12,.cls-6,.cls-8{fill:#fff;}.cls-7{stroke-width:2.79px;}.cls-11{stroke-width:2px;}</style></defs><polygon class="cls-1" points="276.48 243.06 282.6 255.91 292.18 259.16 349.02 218.25 349.02 191.53 276.48 243.06"/><polyline class="cls-2" points="1.28 341.57 89.87 408.97 240.49 297.44"/><polyline class="cls-3" points="-3.12 108.7 119.63 45.4 351.69 176.26 351.69 189.17 275.32 243.92"/><polyline class="cls-3" points="209.77 293.52 89.87 381.05 0 312.96"/><polygon class="cls-1" points="0 312.96 -0.1 339.68 90.97 408.97 90.96 381.05 0 312.96"/><line class="cls-4" x1="89.87" y1="410.5" x2="89.87" y2="377.57"/><path class="cls-1" d="M91.66,379.74V409L240.49,297.44H220.6s-9.47-4.94-10.83-3.92S91.66,379.74,91.66,379.74Z"/><path class="cls-5" d="M26,171.92v8a5,5,0,0,0,2.25,4.17l108.81,71a21.69,21.69,0,0,0,23.66,0l20.15-13.06"/><path class="cls-6" d="M189,195.27,96.71,142.52a16.35,16.35,0,0,0-15.94-.17l-52,27.22a5.41,5.41,0,0,0-.31,9.33L140.91,250a16.37,16.37,0,0,0,17.62-.07l16.33-10.53"/><polygon class="cls-7" points="73.7 149.25 50.37 161.94 46.99 160.56 70.45 148.06 73.7 149.25"/><path class="cls-8" d="M180.86,283.48s-30-6.21-33-9.22c-1-1-.93-8.44,10-13.12,12.31-5.26,49.43,3.88,49.43,3.88"/><path class="cls-1" d="M153.85,267.11c3.11-1.15,9-.16,11.33,2.1s-1.24,9.15-1.24,9.15-11.7-2.24-14-3.6C146.76,272.91,151.55,268,153.85,267.11Z"/><path class="cls-9" d="M180.86,283.48s36,13.24,41.76,13.36c3.59.08,37.94,1.73,37.94,1.73,17.28,13.65,26.18,22.65,26.18,22.65s17.48-13.42,24.6-28.76,5.75-19,5.75-19l-32.94-17.06s-30.65-51.05-35.52-54.31c-3.08-2.07-29.3-16.51-29.3-16.51s-6.57-.77-9.86,1.18a9.21,9.21,0,0,0-4.1,4.41"/><path class="cls-6" d="M226.18,200.72S206,186.24,201,188.15s-12.6,7.12-12.6,7.12"/><path class="cls-6" d="M216.87,209.76s-30.21-19.82-36-19.91c-6.92-.11-46,0-46,0"/><ellipse class="cls-1" cx="122.91" cy="209.76" rx="6.47" ry="9.26" transform="translate(-120.2 211.33) rotate(-60)"/><path class="cls-10" d="M171.69,209.76l9.17,2.15,18,12.28s-66.32-35-70-37.88c-3.87-3.07-9.84,5-2.58,17.22s34.72,25.86,37.83,27.43S175,237,175,237l18.56,20.07,20.73,13.14"/><path class="cls-1" d="M125.13,193.21c1,2.42,4.76,5.26,7.35,5.4s4.61-5.67,4.61-5.67-7.64-5.54-9.68-6.15C124.63,186,124.38,191.42,125.13,193.21Z"/><polyline class="cls-11" points="153.88 149.74 147.81 155.82 141.73 149.74"/><line class="cls-11" x1="147.81" y1="139.81" x2="147.81" y2="155.82"/><path class="cls-1" d="M126.37,176a2.25,2.25,0,0,1-2.25-2.25V162.86l-2.25,2.25a2.26,2.26,0,0,1-3.17,0,2.26,2.26,0,0,1,0-3.19l6.07-6.08a2.25,2.25,0,0,1,1.59-.64h0a2.25,2.25,0,0,1,1.59.64l6.08,6.08a2.25,2.25,0,0,1-1.59,3.84,2.22,2.22,0,0,1-1.58-.65l-2.24-2.24v10.87A2.25,2.25,0,0,1,126.37,176Z"/><path class="cls-12" d="M126.36,156.2a1.24,1.24,0,0,1,.89.35l6.08,6.08a1.27,1.27,0,0,1,0,1.77,1.28,1.28,0,0,1-.89.36,1.24,1.24,0,0,1-.88-.36l-3.94-4v13.29a1.25,1.25,0,0,1-2.5,0V160.45l-4,4a1.25,1.25,0,0,1-1.76-1.77l6.07-6.08a1.21,1.21,0,0,1,.88-.35m0-2a3.27,3.27,0,0,0-2.3.94L118,161.22a3.25,3.25,0,0,0,2.3,5.54,3.21,3.21,0,0,0,2.29-.95l.54-.53v8.46a3.25,3.25,0,0,0,6.5,0v-8.45l.52.52a3.27,3.27,0,0,0,4.59,0,3.29,3.29,0,0,0,0-4.6l-6.09-6.1a3.29,3.29,0,0,0-2.3-.93Z"/></svg>