<svg id="Lager_1" data-name="Lager 1" xmlns="http://www.w3.org/2000/svg" viewBox="0 0 347.74 350.28"><defs><style>.cls-1{fill:#fff;}.cls-1,.cls-2,.cls-3,.cls-7{stroke:#191919;}.cls-1,.cls-2,.cls-3,.cls-6,.cls-8{stroke-linecap:round;}.cls-1,.cls-2,.cls-6{stroke-linejoin:round;}.cls-1,.cls-3{stroke-width:2px;}.cls-2,.cls-3,.cls-6,.cls-7,.cls-8{fill:none;}.cls-2{stroke-width:6.02px;}.cls-3,.cls-7,.cls-8{stroke-miterlimit:10;}.cls-4{fill:#191919;}.cls-5{fill:#71bbcf;}.cls-6{stroke:#71bbcf;stroke-width:1.65px;}.cls-8{stroke:#72bbd0;stroke-width:5.35px;}</style></defs><path class="cls-1" d="M73.33,325.76l21-221.68a19.84,19.84,0,0,1,21.64-17.84L247.59,98.91a19.83,19.83,0,0,1,17.83,21.64L245.68,325.76"/><rect class="cls-2" x="154.29" y="95.05" width="55.71" height="5.72" transform="matrix(1, 0.1, -0.1, 1, 10.22, -17)"/><path class="cls-3" d="M83.25,325.76l17.93-189.23a3.66,3.66,0,0,1,4-3.29L248.6,147a3.67,3.67,0,0,1,3.29,4L235.07,325.76"/><polygon class="cls-4" points="156.03 230.93 155.27 231.28 154.51 231.63 146.6 230.86 145.92 230.38 145.24 229.89 146 229.55 146.76 229.2 154.67 229.96 155.35 230.45 156.03 230.93"/><polygon class="cls-4" points="144.19 240.83 143.84 240.07 143.49 239.31 144.25 231.4 144.74 230.72 145.22 230.04 145.57 230.8 145.92 231.56 145.16 239.47 144.67 240.15 144.19 240.83"/><polygon class="cls-4" points="153.82 253.53 153.06 253.88 152.3 254.23 144.4 253.47 143.71 252.98 143.03 252.5 143.79 252.15 144.56 251.8 152.46 252.56 153.14 253.05 153.82 253.53"/><polygon class="cls-4" points="154.08 253.37 153.73 252.61 153.39 251.85 154.15 243.94 154.63 243.26 155.12 242.58 155.46 243.34 155.81 244.1 155.05 252.01 154.56 252.69 154.08 253.37"/><polygon class="cls-4" points="155.18 241.89 154.84 241.13 154.49 240.36 155.25 232.46 155.74 231.78 156.22 231.1 156.57 231.86 156.91 232.62 156.15 240.52 155.67 241.21 155.18 241.89"/><polygon class="cls-4" points="143.05 252.31 142.71 251.55 142.36 250.79 143.12 242.88 143.6 242.2 144.09 241.52 144.44 242.28 144.78 243.04 144.02 250.95 143.54 251.63 143.05 252.31"/><polygon class="cls-4" points="177 232.76 176.23 233.11 175.47 233.46 167.57 232.7 166.89 232.21 166.21 231.73 166.97 231.38 167.73 231.03 175.63 231.79 176.31 232.28 177 232.76"/><polygon class="cls-4" points="175.91 244.07 175.15 244.41 174.38 244.76 166.48 244 165.8 243.51 165.12 243.03 165.88 242.68 166.64 242.34 174.54 243.1 175.23 243.58 175.91 244.07"/><polygon class="cls-4" points="176.15 243.7 175.81 242.94 175.46 242.17 176.22 234.27 176.71 233.59 177.19 232.91 177.54 233.67 177.88 234.43 177.12 242.33 176.64 243.01 176.15 243.7"/><polygon class="cls-4" points="174.79 255.37 174.03 255.71 173.27 256.06 165.36 255.3 164.68 254.81 164 254.33 164.76 253.98 165.52 253.64 173.43 254.4 174.11 254.88 174.79 255.37"/><polygon class="cls-4" points="175.05 255.2 174.7 254.44 174.35 253.68 175.11 245.78 175.6 245.09 176.08 244.41 176.43 245.17 176.78 245.94 176.02 253.84 175.53 254.52 175.05 255.2"/><polygon class="cls-4" points="192.18 234.23 191.42 234.58 190.66 234.92 182.76 234.16 182.07 233.68 181.39 233.19 182.16 232.84 182.92 232.5 190.82 233.26 191.5 233.75 192.18 234.23"/><polygon class="cls-4" points="180.12 244.29 179.77 243.53 179.42 242.77 180.18 234.86 180.67 234.18 181.15 233.5 181.5 234.26 181.85 235.02 181.09 242.93 180.6 243.61 180.12 244.29"/><polygon class="cls-4" points="191.35 245.37 191.01 244.61 190.66 243.85 191.42 235.94 191.91 235.26 192.39 234.58 192.74 235.34 193.08 236.1 192.32 244.01 191.84 244.69 191.35 245.37"/><polygon class="cls-4" points="189.98 256.83 189.22 257.18 188.46 257.52 180.55 256.76 179.87 256.28 179.19 255.79 179.95 255.45 180.71 255.1 188.62 255.86 189.3 256.35 189.98 256.83"/><polygon class="cls-4" points="190.24 256.67 189.89 255.91 189.54 255.15 190.3 247.24 190.79 246.56 191.27 245.88 191.62 246.64 191.97 247.4 191.21 255.31 190.72 255.99 190.24 256.67"/><polygon class="cls-4" points="179.01 255.77 178.66 255.01 178.32 254.25 179.08 246.34 179.56 245.66 180.05 244.98 180.4 245.74 180.74 246.5 179.98 254.41 179.5 255.09 179.01 255.77"/><circle class="cls-4" cx="160.3" cy="238.75" r="1.53"/><circle class="cls-4" cx="159.57" cy="246.3" r="1.53"/><path class="cls-5" d="M173,193.29a50.13,50.13,0,1,0,45.1,54.7A50.13,50.13,0,0,0,173,193.29Zm-8.82,91.64a41.94,41.94,0,1,1,45.76-37.73A41.93,41.93,0,0,1,164.15,284.93Z"/><path class="cls-6" d="M209.91,247.2a41.94,41.94,0,1,1-37.73-45.76A41.94,41.94,0,0,1,209.91,247.2Z"/><path class="cls-5" d="M173.29,183.74h0a4.9,4.9,0,0,1,4.9,4.9v7.51a0,0,0,0,1,0,0h-9.8a0,0,0,0,1,0,0v-7.51A4.9,4.9,0,0,1,173.29,183.74Z" transform="translate(18.99 -15.73) rotate(5.5)"/><path class="cls-5" d="M208.16,204.74h0a4.9,4.9,0,0,1,4.9,4.9v10.3a0,0,0,0,1,0,0h-9.8a0,0,0,0,1,0,0v-10.3A4.9,4.9,0,0,1,208.16,204.74Z" transform="translate(239.58 -83.35) rotate(50.5)"/><rect class="cls-5" x="164.58" y="182.16" width="18.39" height="5.41" rx="2.7" transform="translate(18.51 -15.8) rotate(5.5)"/><circle class="cls-7" cx="168.17" cy="243.19" r="38"/><path class="cls-8" d="M281.5,111.2A28.71,28.71,0,0,0,254,81.34"/><path class="cls-8" d="M292.23,112.14a39.45,39.45,0,0,0-37.78-41.06"/><path class="cls-8" d="M77.61,91.58a28.7,28.7,0,0,1,32.67-24.07"/><path class="cls-8" d="M66.9,90.46a39.46,39.46,0,0,1,44.92-33.11"/></svg>