<svg id="svg" version="1.1" xmlns="http://www.w3.org/2000/svg" xmlns:xlink="http://www.w3.org/1999/xlink" width="400" height="432.5" viewBox="0, 0, 400,432.5"><g id="svgg"><path id="path0" d="M208.545 69.400 C 208.344 69.923,205.488 70.000,186.200 70.000 C 166.912 70.000,164.056 70.077,163.855 70.600 C 163.703 70.997,163.076 71.200,162.000 71.200 C 160.924 71.200,160.297 71.403,160.145 71.800 C 160.018 72.130,159.529 72.401,159.057 72.403 C 158.533 72.404,157.211 73.414,155.653 75.003 C 154.252 76.431,152.797 77.600,152.419 77.600 C 151.333 77.600,151.141 78.072,151.891 78.900 C 152.547 79.626,152.547 79.686,151.892 80.053 C 151.511 80.266,151.200 80.862,151.200 81.377 C 151.200 81.893,150.930 82.418,150.600 82.545 C 150.073 82.747,150.000 86.784,150.000 115.538 C 150.000 144.174,149.924 148.365,149.400 148.800 C 149.070 149.074,148.800 149.598,148.800 149.966 C 148.800 150.333,147.990 151.428,147.000 152.400 C 146.010 153.372,145.200 154.451,145.200 154.798 C 145.200 155.146,144.300 156.317,143.200 157.400 C 142.100 158.483,141.200 159.702,141.200 160.108 C 141.200 160.514,140.390 161.584,139.400 162.485 C 138.329 163.460,137.600 164.473,137.600 164.986 C 137.600 165.482,137.089 166.228,136.400 166.737 C 135.737 167.227,135.200 167.995,135.200 168.455 C 135.200 168.934,134.355 170.078,133.200 171.163 C 132.100 172.196,131.200 173.377,131.200 173.789 C 131.200 174.200,130.390 175.313,129.400 176.262 C 128.410 177.210,127.600 178.313,127.600 178.712 C 127.600 179.111,127.068 179.879,126.417 180.419 C 125.766 180.958,125.226 181.765,125.217 182.212 C 125.207 182.665,124.052 184.161,122.600 185.600 C 121.170 187.017,120.000 188.463,120.000 188.814 C 120.000 189.164,119.460 189.968,118.800 190.600 C 118.140 191.232,117.600 192.054,117.600 192.426 C 117.600 192.798,117.330 193.326,117.000 193.600 C 116.670 193.874,116.400 194.684,116.400 195.400 C 116.400 196.116,116.130 196.926,115.800 197.200 C 115.293 197.621,115.200 199.420,115.200 208.806 C 115.200 218.311,115.287 219.948,115.800 220.145 C 116.253 220.319,116.400 221.051,116.400 223.138 C 116.400 225.107,116.573 226.045,117.000 226.400 C 117.425 226.753,117.600 227.687,117.600 229.606 C 117.600 231.644,117.748 232.371,118.200 232.545 C 118.634 232.711,118.800 233.391,118.800 235.000 C 118.800 236.609,118.966 237.289,119.400 237.455 C 119.828 237.620,120.000 238.289,120.000 239.794 C 120.000 241.180,120.206 242.073,120.600 242.400 C 120.998 242.730,121.200 243.626,121.200 245.062 C 121.200 246.616,121.369 247.290,121.800 247.455 C 123.094 247.952,122.617 254.546,121.200 255.739 C 120.540 256.294,120.000 257.068,120.000 257.459 C 120.000 258.518,106.014 272.400,104.947 272.400 C 104.473 272.400,103.982 272.670,103.855 273.000 C 103.416 274.146,101.813 273.647,100.000 271.800 C 99.028 270.810,97.970 270.000,97.648 270.000 C 97.326 270.000,96.749 269.716,96.366 269.369 C 95.577 268.655,90.000 273.562,90.000 274.970 C 90.000 275.347,88.290 277.354,86.200 279.431 C 84.073 281.544,82.400 283.539,82.400 283.962 C 82.400 284.985,84.399 287.200,85.323 287.200 C 86.039 287.200,90.400 291.424,90.400 292.117 C 90.400 292.302,90.757 292.341,91.193 292.202 C 91.970 291.956,96.400 295.897,96.400 296.835 C 96.400 297.036,96.885 297.200,97.477 297.200 C 98.530 297.200,101.600 299.926,101.600 300.860 C 101.600 301.077,101.972 301.136,102.427 300.991 C 103.088 300.782,103.760 301.262,105.752 303.364 C 107.125 304.814,108.584 306.000,108.995 306.000 C 109.405 306.000,110.814 307.125,112.127 308.500 C 113.577 310.019,114.785 310.954,115.205 310.884 C 115.621 310.814,116.619 311.570,117.709 312.784 C 118.707 313.893,119.872 314.800,120.300 314.800 C 120.730 314.800,122.103 315.874,123.367 317.200 C 124.735 318.634,126.007 319.612,126.528 319.629 C 127.066 319.647,128.013 320.407,129.000 321.613 C 130.028 322.869,130.847 323.516,131.292 323.423 C 131.886 323.299,135.200 325.993,135.200 326.600 C 135.200 327.161,136.913 328.400,137.690 328.400 C 138.521 328.400,141.598 331.334,141.599 332.127 C 141.600 332.307,141.968 332.337,142.417 332.195 C 143.064 331.989,143.742 332.480,145.689 334.568 C 147.209 336.197,148.464 337.200,148.985 337.200 C 149.496 337.200,150.505 337.983,151.557 339.196 C 153.290 341.194,154.000 341.424,154.000 339.988 C 154.000 339.567,155.350 337.868,157.000 336.213 C 158.650 334.558,160.003 332.887,160.007 332.502 C 160.010 332.116,161.450 330.385,163.207 328.655 C 165.861 326.041,166.399 325.298,166.393 324.255 C 166.385 322.866,164.958 321.200,163.775 321.200 C 163.383 321.200,162.287 320.390,161.338 319.400 C 160.390 318.410,159.321 317.600,158.963 317.600 C 157.169 317.600,155.725 314.658,157.000 313.600 C 157.330 313.326,157.600 312.802,157.600 312.434 C 157.600 312.067,158.410 310.972,159.400 310.000 C 160.390 309.028,161.201 307.956,161.202 307.617 C 161.203 307.278,163.175 305.020,165.584 302.600 C 167.993 300.180,170.017 297.889,170.082 297.510 C 170.250 296.528,180.339 286.400,181.150 286.400 C 181.520 286.400,182.983 285.230,184.400 283.800 C 185.817 282.370,187.275 281.200,187.639 281.200 C 188.004 281.200,188.526 280.930,188.800 280.600 C 189.074 280.270,189.598 280.000,189.966 280.000 C 190.333 280.000,191.428 279.190,192.400 278.200 C 193.372 277.210,194.458 276.400,194.815 276.400 C 195.171 276.400,198.621 273.250,202.482 269.400 L 209.500 262.400 221.563 262.400 C 231.916 262.400,233.658 262.315,233.855 261.800 C 233.982 261.470,234.471 261.195,234.943 261.189 C 235.414 261.183,236.325 260.643,236.967 259.989 C 237.608 259.335,238.424 258.800,238.780 258.800 C 239.705 258.800,243.454 254.809,243.759 253.500 C 243.900 252.895,244.192 252.400,244.408 252.400 C 244.623 252.400,244.800 251.956,244.800 251.414 C 244.800 250.838,245.132 250.250,245.600 250.000 C 246.386 249.579,246.400 249.162,246.400 226.186 C 246.400 205.665,246.474 202.800,247.000 202.800 C 247.496 202.800,247.600 203.537,247.600 207.033 C 247.600 210.977,248.309 212.910,248.724 210.098 C 248.792 209.636,249.107 209.043,249.424 208.780 C 249.741 208.517,250.000 207.986,250.000 207.600 C 250.000 207.214,250.270 206.674,250.600 206.400 C 250.930 206.126,251.200 205.577,251.200 205.180 C 251.200 204.782,251.470 204.187,251.800 203.857 C 252.130 203.527,252.400 202.891,252.400 202.443 C 252.400 201.995,252.760 201.435,253.200 201.200 C 253.789 200.885,254.000 200.362,254.000 199.219 C 254.000 198.332,254.214 197.595,254.500 197.501 C 254.866 197.379,255.054 195.360,255.200 189.972 C 255.389 183.004,255.443 182.602,256.200 182.467 C 257.672 182.206,260.000 179.572,260.000 178.168 C 260.000 177.469,260.270 176.674,260.600 176.400 C 261.033 176.041,261.200 175.091,261.200 172.994 C 261.200 170.778,261.057 170.031,260.600 169.855 C 260.270 169.729,260.000 169.284,260.000 168.867 C 260.000 168.451,258.900 166.989,257.556 165.620 L 255.112 163.129 256.356 161.846 C 257.040 161.140,257.600 160.278,257.600 159.930 C 257.600 159.582,257.870 159.074,258.200 158.800 C 258.530 158.526,258.800 157.893,258.800 157.394 C 258.800 156.894,259.070 156.382,259.400 156.255 C 259.797 156.103,260.000 155.476,260.000 154.400 C 260.000 153.324,260.203 152.697,260.600 152.545 C 261.038 152.377,261.200 151.688,261.200 150.000 C 261.200 148.312,261.038 147.623,260.600 147.455 C 260.166 147.289,260.000 146.609,260.000 145.000 C 260.000 143.391,259.834 142.711,259.400 142.545 C 259.070 142.418,258.800 141.920,258.800 141.438 C 258.800 140.437,256.089 137.600,255.132 137.600 C 254.783 137.600,254.274 137.330,254.000 137.000 C 253.726 136.670,253.117 136.400,252.647 136.400 C 252.177 136.400,251.561 136.030,251.278 135.577 C 250.210 133.867,247.838 134.656,247.600 136.800 C 247.490 137.790,247.220 138.555,247.000 138.500 C 246.248 138.312,246.267 88.410,247.019 87.579 C 248.225 86.246,247.656 82.648,246.200 82.400 C 245.296 82.245,244.966 81.949,244.862 81.197 C 244.785 80.649,244.470 80.056,244.162 79.880 C 243.853 79.704,243.600 79.210,243.600 78.783 C 243.600 77.743,238.290 72.400,237.257 72.400 C 236.677 72.400,236.418 72.093,236.327 71.300 C 236.232 70.474,235.951 70.165,235.200 70.062 C 234.650 69.985,234.056 69.670,233.880 69.362 C 233.386 68.493,208.878 68.531,208.545 69.400 M233.600 70.800 C 233.600 71.020,233.150 71.200,232.600 71.200 C 232.050 71.200,231.600 71.020,231.600 70.800 C 231.600 70.580,232.050 70.400,232.600 70.400 C 233.150 70.400,233.600 70.580,233.600 70.800 M183.634 79.400 C 183.638 79.620,183.352 79.860,182.998 79.934 C 182.061 80.128,181.107 79.675,181.412 79.180 C 181.735 78.658,183.621 78.845,183.634 79.400 M202.400 79.400 C 202.400 80.078,190.648 80.325,190.234 79.656 C 189.785 78.928,190.720 78.800,196.467 78.800 C 201.474 78.800,202.400 78.894,202.400 79.400 M240.967 92.243 C 241.892 92.598,241.924 107.101,241.000 107.455 C 240.477 107.656,240.400 110.469,240.400 129.416 C 240.400 150.546,240.379 151.153,239.627 151.392 C 238.497 151.750,238.538 158.263,239.673 158.623 C 240.275 158.814,240.400 159.290,240.400 161.394 C 240.400 163.034,240.577 164.016,240.900 164.167 C 241.300 164.353,241.300 164.447,240.900 164.633 C 240.625 164.762,240.400 165.370,240.400 165.984 C 240.400 166.599,240.130 167.326,239.800 167.600 C 239.342 167.980,239.200 169.020,239.200 172.006 C 239.200 175.111,239.323 175.962,239.800 176.145 C 241.315 176.726,240.570 180.774,238.600 182.662 C 237.610 183.610,236.800 184.661,236.800 184.997 C 236.800 185.333,236.440 185.916,236.000 186.293 C 234.793 187.327,234.824 192.700,236.043 193.744 C 236.684 194.293,236.830 194.750,236.650 195.649 C 236.444 196.681,236.666 197.072,238.407 198.732 L 240.400 200.633 240.400 222.284 C 240.400 234.192,240.291 244.219,240.157 244.567 C 239.799 245.501,163.180 245.540,162.406 244.607 C 162.030 244.154,161.947 240.481,162.057 229.041 C 162.194 214.689,162.169 214.048,161.441 213.594 C 160.741 213.156,160.700 212.732,160.909 208.036 C 161.121 203.269,161.086 202.921,160.343 202.457 C 159.646 202.022,159.560 201.572,159.636 198.731 C 159.706 196.084,159.602 195.433,159.061 195.130 C 158.142 194.616,158.089 188.894,159.000 188.545 C 159.330 188.418,159.600 187.896,159.600 187.384 C 159.600 186.815,159.901 186.358,160.375 186.208 C 161.074 185.986,161.128 185.692,160.921 183.224 C 160.709 180.697,160.759 180.450,161.566 180.018 C 162.048 179.760,162.412 179.246,162.375 178.875 C 162.218 177.295,162.366 177.200,165.000 177.200 C 167.044 177.200,167.600 177.328,167.600 177.800 C 167.600 178.312,168.684 178.400,174.957 178.400 C 181.128 178.400,182.352 178.303,182.545 177.800 C 182.671 177.470,183.119 177.200,183.538 177.200 C 183.958 177.200,184.526 176.930,184.800 176.600 C 185.074 176.270,185.645 176.000,186.069 176.000 C 189.497 176.000,190.630 170.461,187.787 167.605 C 186.804 166.618,186.000 165.673,186.000 165.505 C 186.000 165.337,185.479 165.200,184.843 165.200 C 184.183 165.200,183.587 164.942,183.455 164.600 C 183.329 164.270,182.854 164.000,182.400 164.000 C 181.946 164.000,181.471 163.730,181.345 163.400 C 181.188 162.992,180.549 162.800,179.345 162.800 C 178.141 162.800,177.501 162.608,177.345 162.200 C 177.218 161.870,176.727 161.600,176.253 161.600 C 175.780 161.600,175.171 161.245,174.900 160.811 C 174.628 160.375,174.152 160.120,173.837 160.241 C 173.474 160.380,171.180 158.382,167.533 154.750 C 164.148 151.379,161.531 149.080,161.144 149.138 C 160.783 149.191,159.941 148.573,159.274 147.763 C 158.466 146.784,157.849 146.373,157.427 146.534 C 157.038 146.684,156.603 146.473,156.300 145.989 C 156.003 145.513,155.369 145.200,154.704 145.200 L 153.600 145.200 153.600 118.833 C 153.600 98.114,153.707 92.423,154.100 92.265 C 154.821 91.974,240.211 91.952,240.967 92.243 M247.779 110.433 C 247.280 111.242,247.533 132.178,248.044 132.348 C 248.301 132.434,248.674 132.210,248.875 131.852 C 249.076 131.493,249.662 131.200,250.177 131.200 C 250.693 131.200,251.218 130.930,251.345 130.600 C 251.497 130.203,252.124 130.000,253.200 130.000 C 254.276 130.000,254.903 129.797,255.055 129.400 C 255.182 129.070,255.722 128.800,256.255 128.800 C 256.789 128.800,257.329 128.530,257.455 128.200 C 257.582 127.870,258.094 127.600,258.594 127.600 C 259.093 127.600,259.726 127.330,260.000 127.000 C 260.274 126.670,260.798 126.400,261.166 126.400 C 262.009 126.400,265.200 123.184,265.200 122.334 C 265.200 121.984,265.470 121.474,265.800 121.200 C 266.641 120.502,266.665 114.187,265.829 113.866 C 265.515 113.746,265.200 113.142,265.129 112.524 C 265.028 111.643,264.768 111.373,263.929 111.276 C 263.340 111.208,262.643 110.893,262.380 110.576 C 261.777 109.850,248.222 109.717,247.779 110.433 M165.000 261.800 C 165.000 262.256,162.621 262.571,161.737 262.231 C 161.414 262.107,161.267 261.815,161.411 261.582 C 161.738 261.054,165.000 261.252,165.000 261.800 M72.400 286.800 C 72.400 287.020,72.670 287.200,73.000 287.200 C 73.330 287.200,73.600 287.020,73.600 286.800 C 73.600 286.580,73.330 286.400,73.000 286.400 C 72.670 286.400,72.400 286.580,72.400 286.800 M154.060 341.580 C 154.148 341.844,154.351 342.047,154.510 342.030 C 154.988 341.981,154.896 341.432,154.380 341.260 C 154.116 341.172,153.972 341.316,154.060 341.580 M155.200 343.000 C 155.200 343.367,155.394 343.602,155.630 343.523 C 155.867 343.445,156.060 343.209,156.060 343.000 C 156.060 342.791,155.867 342.555,155.630 342.477 C 155.394 342.398,155.200 342.633,155.200 343.000 M146.400 354.400 C 146.400 354.620,146.670 354.800,147.000 354.800 C 147.330 354.800,147.600 354.620,147.600 354.400 C 147.600 354.180,147.330 354.000,147.000 354.000 C 146.670 354.000,146.400 354.180,146.400 354.400 M8.800 359.200 C 8.800 359.420,9.070 359.600,9.400 359.600 C 9.730 359.600,10.000 359.420,10.000 359.200 C 10.000 358.980,9.730 358.800,9.400 358.800 C 9.070 358.800,8.800 358.980,8.800 359.200 M142.800 359.400 C 142.800 359.767,142.994 360.002,143.230 359.923 C 143.466 359.845,143.660 359.609,143.660 359.400 C 143.660 359.191,143.466 358.956,143.230 358.877 C 142.994 358.798,142.800 359.033,142.800 359.400 M141.600 360.600 C 141.600 360.930,141.780 361.200,142.000 361.200 C 142.220 361.200,142.400 360.930,142.400 360.600 C 142.400 360.270,142.220 360.000,142.000 360.000 C 141.780 360.000,141.600 360.270,141.600 360.600 M0.000 369.200 C 0.000 369.420,0.270 369.600,0.600 369.600 C 0.930 369.600,1.200 369.420,1.200 369.200 C 1.200 368.980,0.930 368.800,0.600 368.800 C 0.270 368.800,0.000 368.980,0.000 369.200 M129.017 376.772 C 128.744 377.214,129.375 377.692,129.744 377.322 C 130.125 376.942,130.054 376.400,129.624 376.400 C 129.417 376.400,129.144 376.568,129.017 376.772 M114.000 395.600 C 114.000 395.820,114.270 396.000,114.600 396.000 C 114.930 396.000,115.200 395.820,115.200 395.600 C 115.200 395.380,114.930 395.200,114.600 395.200 C 114.270 395.200,114.000 395.380,114.000 395.600 M109.039 401.538 C 108.900 401.761,108.982 402.065,109.220 402.212 C 109.835 402.593,110.232 402.072,109.718 401.558 C 109.431 401.271,109.207 401.264,109.039 401.538 M105.200 407.000 C 105.200 407.330,104.930 407.600,104.600 407.600 C 103.982 407.600,103.805 408.072,104.255 408.522 C 104.587 408.854,106.396 407.118,106.145 406.710 C 105.817 406.180,105.200 406.370,105.200 407.000 M85.456 431.478 C 85.005 431.928,85.181 432.400,85.800 432.400 C 86.130 432.400,86.400 432.231,86.400 432.024 C 86.400 431.519,85.775 431.158,85.456 431.478 " stroke="none" fill="#f4d4b4" fill-rule="evenodd"></path><path id="path1" d="M0.000 184.400 C 0.000 368.533,0.001 368.800,0.800 368.800 C 1.240 368.800,1.555 368.575,1.500 368.300 C 1.445 368.025,1.647 367.852,1.949 367.916 C 2.294 367.989,2.412 367.809,2.267 367.429 C 2.114 367.031,3.227 365.627,5.546 363.298 C 7.477 361.358,8.984 359.552,8.895 359.285 C 8.803 359.010,9.089 358.800,9.554 358.800 C 10.157 358.800,10.307 358.622,10.118 358.131 C 9.919 357.611,10.021 357.523,10.575 357.735 C 11.100 357.936,11.229 357.854,11.064 357.423 C 10.920 357.048,12.101 355.556,14.341 353.282 C 16.267 351.327,17.769 349.506,17.679 349.236 C 17.580 348.941,17.811 348.796,18.258 348.873 C 18.796 348.965,18.964 348.793,18.870 348.246 C 18.777 347.708,18.915 347.559,19.350 347.725 C 19.756 347.881,19.889 347.776,19.748 347.409 C 19.622 347.080,20.963 345.435,23.094 343.306 C 25.050 341.352,26.575 339.526,26.483 339.249 C 26.380 338.940,26.602 338.795,27.058 338.873 C 27.578 338.962,27.765 338.790,27.682 338.300 C 27.618 337.915,27.753 337.600,27.982 337.600 C 28.212 337.600,28.400 337.396,28.400 337.147 C 28.400 336.898,29.985 335.128,31.922 333.213 C 33.859 331.298,35.370 329.509,35.279 329.238 C 35.180 328.941,35.409 328.796,35.858 328.873 C 36.378 328.962,36.565 328.790,36.482 328.300 C 36.418 327.915,36.553 327.600,36.782 327.600 C 37.012 327.600,37.200 327.391,37.200 327.136 C 37.200 326.881,39.000 324.877,41.200 322.683 C 43.400 320.489,45.200 318.448,45.200 318.147 C 45.200 317.846,45.380 317.600,45.600 317.600 C 45.820 317.600,46.000 317.375,46.000 317.100 C 46.000 316.824,47.862 314.754,50.138 312.500 C 52.413 310.245,54.078 308.394,53.838 308.387 C 53.597 308.380,53.715 308.135,54.100 307.843 C 54.485 307.551,54.800 307.145,54.800 306.941 C 54.800 306.736,56.318 305.055,58.173 303.203 C 60.028 301.352,61.513 299.654,61.473 299.428 C 61.433 299.203,61.834 298.953,62.365 298.873 C 63.111 298.760,63.202 298.645,62.765 298.364 C 62.317 298.075,62.385 297.949,63.096 297.755 C 63.588 297.620,63.892 297.348,63.770 297.152 C 63.649 296.955,63.831 296.686,64.175 296.554 C 64.519 296.422,64.800 296.087,64.800 295.810 C 64.800 295.533,66.285 293.813,68.100 291.989 C 69.915 290.166,71.350 288.506,71.289 288.302 C 71.227 288.098,71.530 287.839,71.961 287.726 C 72.429 287.604,72.658 287.295,72.530 286.961 C 72.400 286.623,72.570 286.400,72.957 286.400 C 73.311 286.400,73.600 286.130,73.600 285.800 C 73.600 284.264,77.666 281.399,78.567 282.300 C 78.732 282.465,79.077 282.608,79.333 282.618 C 79.590 282.628,79.748 282.875,79.684 283.167 C 79.611 283.499,79.797 283.610,80.181 283.463 C 80.533 283.328,81.136 283.594,81.597 284.089 L 82.400 284.951 82.400 284.078 C 82.400 283.508,83.716 281.899,86.200 279.431 C 88.290 277.354,90.000 275.347,90.000 274.970 C 90.000 273.562,95.577 268.655,96.366 269.369 C 96.749 269.716,97.326 270.000,97.648 270.000 C 97.970 270.000,99.028 270.810,100.000 271.800 C 101.813 273.647,103.416 274.146,103.855 273.000 C 103.982 272.670,104.473 272.400,104.947 272.400 C 106.014 272.400,120.000 258.518,120.000 257.459 C 120.000 257.068,120.540 256.294,121.200 255.739 C 122.617 254.546,123.094 247.952,121.800 247.455 C 121.369 247.290,121.200 246.616,121.200 245.062 C 121.200 243.626,120.998 242.730,120.600 242.400 C 120.206 242.073,120.000 241.180,120.000 239.794 C 120.000 238.289,119.828 237.620,119.400 237.455 C 118.966 237.289,118.800 236.609,118.800 235.000 C 118.800 233.391,118.634 232.711,118.200 232.545 C 117.748 232.371,117.600 231.644,117.600 229.606 C 117.600 227.687,117.425 226.753,117.000 226.400 C 116.573 226.045,116.400 225.107,116.400 223.138 C 116.400 221.051,116.253 220.319,115.800 220.145 C 114.900 219.799,114.900 197.947,115.800 197.200 C 116.130 196.926,116.400 196.116,116.400 195.400 C 116.400 194.684,116.670 193.874,117.000 193.600 C 117.330 193.326,117.600 192.798,117.600 192.426 C 117.600 192.054,118.140 191.232,118.800 190.600 C 119.460 189.968,120.000 189.164,120.000 188.814 C 120.000 188.463,121.170 187.017,122.600 185.600 C 124.052 184.161,125.207 182.665,125.217 182.212 C 125.226 181.765,125.766 180.958,126.417 180.419 C 127.068 179.879,127.600 179.111,127.600 178.712 C 127.600 178.313,128.410 177.210,129.400 176.262 C 130.390 175.313,131.200 174.200,131.200 173.789 C 131.200 173.377,132.100 172.196,133.200 171.163 C 134.355 170.078,135.200 168.934,135.200 168.455 C 135.200 167.995,135.737 167.227,136.400 166.737 C 137.089 166.228,137.600 165.482,137.600 164.986 C 137.600 164.473,138.329 163.460,139.400 162.485 C 140.390 161.584,141.200 160.514,141.200 160.108 C 141.200 159.702,142.100 158.483,143.200 157.400 C 144.300 156.317,145.200 155.146,145.200 154.798 C 145.200 154.451,146.010 153.372,147.000 152.400 C 147.990 151.428,148.800 150.333,148.800 149.966 C 148.800 149.598,149.070 149.074,149.400 148.800 C 150.295 148.057,150.295 133.600,149.400 133.600 C 148.941 133.600,148.800 133.094,148.800 131.449 C 148.800 130.025,148.597 129.130,148.200 128.800 C 147.425 128.157,147.425 126.553,148.200 126.255 C 149.072 125.921,149.072 118.324,148.200 117.600 C 147.428 116.960,147.428 115.440,148.200 114.800 C 148.619 114.452,148.800 113.529,148.800 111.738 C 148.800 109.829,148.953 109.116,149.400 108.945 C 150.278 108.608,150.278 102.400,149.400 102.400 C 148.520 102.400,148.511 93.002,149.391 92.509 C 149.866 92.243,149.989 91.044,150.022 86.351 C 150.060 81.043,150.135 80.462,150.865 79.837 C 151.306 79.460,151.565 78.885,151.440 78.560 C 151.298 78.190,151.548 77.835,152.107 77.610 C 152.598 77.412,152.825 77.239,152.610 77.225 C 151.801 77.173,158.183 71.200,159.047 71.200 C 159.524 71.200,160.023 70.916,160.156 70.570 C 160.330 70.116,160.875 69.958,162.099 70.007 C 165.526 70.143,166.400 70.019,166.400 69.401 C 166.400 68.493,233.509 68.497,233.857 69.404 C 233.983 69.732,234.522 70.000,235.055 70.000 C 235.589 70.000,236.129 70.270,236.255 70.600 C 236.382 70.930,236.848 71.200,237.292 71.200 C 238.411 71.200,245.189 77.938,245.195 79.057 C 245.198 79.529,245.491 80.026,245.846 80.162 C 246.275 80.327,246.430 80.732,246.307 81.374 C 246.171 82.085,246.327 82.392,246.899 82.542 C 247.576 82.719,247.665 83.068,247.592 85.272 C 247.546 86.663,247.529 92.795,247.554 98.900 L 247.600 110.000 254.751 110.000 C 260.489 110.000,261.997 110.114,262.380 110.576 C 262.643 110.893,263.340 111.208,263.929 111.276 C 264.768 111.373,265.028 111.643,265.129 112.524 C 265.200 113.142,265.515 113.746,265.829 113.866 C 266.665 114.187,266.641 120.502,265.800 121.200 C 265.470 121.474,265.200 121.998,265.200 122.366 C 265.200 123.209,261.984 126.400,261.134 126.400 C 260.784 126.400,260.274 126.670,260.000 127.000 C 259.726 127.330,259.093 127.600,258.594 127.600 C 258.094 127.600,257.582 127.870,257.455 128.200 C 257.329 128.530,256.789 128.800,256.255 128.800 C 255.722 128.800,255.182 129.070,255.055 129.400 C 254.903 129.797,254.276 130.000,253.200 130.000 C 252.124 130.000,251.497 130.203,251.345 130.600 C 251.218 130.930,250.678 131.200,250.145 131.200 C 249.611 131.200,249.071 131.470,248.945 131.800 C 248.818 132.130,248.464 132.400,248.157 132.400 C 247.794 132.400,247.600 132.857,247.600 133.711 C 247.600 134.994,247.632 135.018,249.172 134.871 C 250.433 134.751,250.848 134.887,251.268 135.561 C 251.557 136.022,252.177 136.400,252.647 136.400 C 253.117 136.400,253.726 136.670,254.000 137.000 C 254.274 137.330,254.799 137.600,255.168 137.600 C 256.114 137.600,258.800 140.465,258.800 141.474 C 258.800 141.936,259.070 142.418,259.400 142.545 C 259.834 142.711,260.000 143.391,260.000 145.000 C 260.000 146.609,260.166 147.289,260.600 147.455 C 261.453 147.783,261.453 152.217,260.600 152.545 C 260.203 152.697,260.000 153.324,260.000 154.400 C 260.000 155.476,259.797 156.103,259.400 156.255 C 259.070 156.382,258.800 156.894,258.800 157.394 C 258.800 157.893,258.530 158.526,258.200 158.800 C 257.870 159.074,257.600 159.582,257.600 159.930 C 257.600 160.278,257.040 161.140,256.356 161.846 L 255.112 163.129 257.556 165.620 C 258.900 166.989,260.000 168.451,260.000 168.867 C 260.000 169.284,260.270 169.729,260.600 169.855 C 261.057 170.031,261.200 170.778,261.200 172.994 C 261.200 175.091,261.033 176.041,260.600 176.400 C 260.270 176.674,260.000 177.469,260.000 178.168 C 260.000 179.572,257.672 182.206,256.200 182.467 C 255.443 182.602,255.389 183.004,255.200 189.972 C 255.054 195.360,254.866 197.379,254.500 197.501 C 254.214 197.595,254.000 198.332,254.000 199.219 C 254.000 200.362,253.789 200.885,253.200 201.200 C 252.760 201.435,252.400 201.995,252.400 202.443 C 252.400 202.891,252.130 203.527,251.800 203.857 C 251.470 204.187,251.200 204.782,251.200 205.180 C 251.200 205.577,250.930 206.126,250.600 206.400 C 250.270 206.674,250.000 207.214,250.000 207.600 C 250.000 207.986,249.730 208.526,249.400 208.800 C 249.070 209.074,248.800 209.642,248.800 210.062 C 248.800 210.481,248.530 210.929,248.200 211.055 C 247.678 211.256,247.600 213.785,247.600 230.455 C 247.600 247.126,247.522 249.655,247.000 249.855 C 246.670 249.982,246.400 250.522,246.400 251.055 C 246.400 251.589,246.130 252.129,245.800 252.255 C 245.470 252.382,245.200 252.876,245.200 253.353 C 245.200 254.507,239.691 260.000,238.533 260.000 C 238.067 260.000,237.575 260.289,237.439 260.642 C 237.296 261.014,236.938 261.185,236.586 261.050 C 236.243 260.918,235.682 261.162,235.300 261.608 C 234.651 262.366,234.083 262.400,222.061 262.400 L 209.500 262.400 202.482 269.400 C 198.621 273.250,195.171 276.400,194.815 276.400 C 194.458 276.400,193.372 277.210,192.400 278.200 C 191.428 279.190,190.333 280.000,189.966 280.000 C 189.598 280.000,189.074 280.270,188.800 280.600 C 188.526 280.930,188.004 281.200,187.639 281.200 C 187.275 281.200,185.817 282.370,184.400 283.800 C 182.983 285.230,181.520 286.400,181.150 286.400 C 180.339 286.400,170.250 296.528,170.082 297.510 C 170.017 297.889,167.993 300.180,165.584 302.600 C 163.175 305.020,161.203 307.278,161.202 307.617 C 161.201 307.956,160.390 309.028,159.400 310.000 C 158.410 310.972,157.600 312.067,157.600 312.434 C 157.600 312.802,157.330 313.326,157.000 313.600 C 155.725 314.658,157.169 317.600,158.963 317.600 C 159.321 317.600,160.390 318.410,161.338 319.400 C 162.287 320.390,163.383 321.200,163.775 321.200 C 164.958 321.200,166.385 322.866,166.393 324.255 C 166.399 325.298,165.861 326.041,163.207 328.655 C 161.450 330.385,160.010 332.116,160.007 332.502 C 160.003 332.887,158.677 334.531,157.060 336.153 C 154.283 338.939,152.809 341.595,154.120 341.452 C 154.384 341.424,154.656 341.580,154.724 341.800 C 154.792 342.020,155.242 342.347,155.724 342.528 C 156.542 342.834,156.554 342.889,155.900 343.372 C 155.515 343.656,155.200 344.103,155.200 344.364 C 155.200 344.626,154.605 345.417,153.878 346.120 C 153.150 346.824,152.302 347.940,151.992 348.600 C 151.682 349.260,150.522 350.665,149.414 351.723 C 148.306 352.780,147.453 353.905,147.518 354.223 C 147.582 354.540,147.347 354.800,146.994 354.800 C 146.641 354.800,146.457 354.968,146.584 355.174 C 146.711 355.379,146.167 356.176,145.376 356.944 C 144.585 357.713,143.886 358.669,143.822 359.071 C 143.758 359.472,143.412 359.775,143.053 359.744 C 142.660 359.711,142.400 359.990,142.400 360.444 C 142.400 360.860,142.220 361.200,142.000 361.200 C 141.780 361.200,141.600 361.415,141.600 361.677 C 141.600 361.939,140.911 362.796,140.068 363.582 C 139.226 364.367,138.607 365.221,138.693 365.478 C 138.778 365.735,137.579 367.218,136.027 368.773 C 134.475 370.328,133.429 371.606,133.703 371.613 C 134.003 371.620,133.923 371.836,133.500 372.157 C 133.115 372.449,132.800 372.853,132.800 373.055 C 132.800 373.257,132.263 373.893,131.606 374.470 C 130.949 375.046,130.229 375.997,130.006 376.583 C 129.784 377.169,129.421 377.537,129.201 377.400 C 128.980 377.264,128.800 377.441,128.800 377.794 C 128.800 378.146,127.833 379.410,126.651 380.601 C 125.469 381.792,124.704 382.853,124.951 382.957 C 125.198 383.061,124.997 383.269,124.504 383.419 C 124.012 383.568,123.708 383.852,123.830 384.048 C 123.951 384.245,123.769 384.514,123.425 384.646 C 123.081 384.778,122.800 385.113,122.800 385.391 C 122.800 385.669,122.091 386.585,121.224 387.426 C 120.358 388.267,119.719 389.069,119.806 389.209 C 120.003 389.529,117.816 392.233,116.135 393.747 C 115.425 394.385,114.955 395.139,115.073 395.447 C 115.200 395.776,115.026 396.000,114.643 396.000 C 114.289 396.000,114.000 396.266,114.000 396.591 C 114.000 396.917,113.043 398.140,111.873 399.310 C 110.703 400.480,109.827 401.682,109.927 401.982 C 110.049 402.346,109.898 402.446,109.475 402.284 C 109.020 402.109,108.908 402.215,109.078 402.659 C 109.231 403.057,108.785 403.749,107.828 404.600 C 107.010 405.328,106.288 406.256,106.223 406.662 C 106.159 407.068,105.836 407.379,105.506 407.353 C 105.177 407.328,104.928 407.598,104.953 407.953 C 104.979 408.309,104.775 408.555,104.500 408.500 C 104.225 408.445,104.000 408.705,104.000 409.077 C 104.000 409.449,103.311 410.396,102.468 411.182 C 101.626 411.967,101.015 412.845,101.111 413.132 C 101.221 413.462,101.011 413.608,100.542 413.527 C 100.004 413.435,99.836 413.607,99.930 414.154 C 100.023 414.692,99.885 414.841,99.450 414.675 C 99.020 414.510,98.911 414.623,99.078 415.059 C 99.231 415.457,98.785 416.149,97.828 417.000 C 97.010 417.728,96.285 418.656,96.217 419.062 C 96.149 419.468,95.893 419.755,95.647 419.700 C 95.401 419.645,95.200 419.894,95.200 420.253 C 95.200 420.613,94.300 421.793,93.200 422.876 C 92.100 423.958,91.200 425.104,91.200 425.422 C 91.200 425.740,91.020 426.000,90.800 426.000 C 90.580 426.000,90.394 426.225,90.388 426.500 C 90.381 426.775,89.407 427.973,88.224 429.163 C 87.021 430.373,86.164 431.563,86.280 431.863 C 86.451 432.311,112.472 432.400,243.243 432.400 L 400.000 432.400 400.000 216.200 L 400.000 0.000 200.000 0.000 L 0.000 0.000 0.000 184.400 " stroke="none" fill="#64c4b4" fill-rule="evenodd"></path><path id="path2" d="M154.184 93.298 C 154.079 93.574,154.039 105.230,154.096 119.200 L 154.200 144.600 155.324 144.729 C 155.942 144.800,156.546 145.115,156.666 145.429 C 156.787 145.743,157.280 146.000,157.762 146.000 C 158.244 146.000,159.078 146.531,159.619 147.183 C 160.158 147.834,160.916 148.374,161.302 148.383 C 161.688 148.392,164.528 150.920,167.614 154.000 C 171.086 157.465,173.529 159.600,174.025 159.600 C 174.465 159.600,174.929 159.870,175.055 160.200 C 175.182 160.530,175.706 160.800,176.220 160.800 C 176.734 160.800,177.419 161.178,177.743 161.639 C 178.210 162.307,178.580 162.424,179.546 162.212 C 180.492 162.004,180.918 162.128,181.469 162.773 C 181.859 163.228,182.569 163.600,183.046 163.600 C 183.524 163.600,184.018 163.870,184.145 164.200 C 184.271 164.530,184.767 164.800,185.247 164.800 C 186.992 164.800,190.387 169.098,190.394 171.316 C 190.401 173.470,188.110 176.400,186.419 176.400 C 185.955 176.400,185.471 176.670,185.345 177.000 C 185.218 177.330,184.690 177.600,184.171 177.600 C 183.638 177.600,183.042 177.947,182.800 178.400 C 182.128 179.655,167.862 179.636,167.189 178.379 C 166.441 176.982,163.045 177.411,162.871 178.924 C 162.800 179.542,162.485 180.146,162.171 180.266 C 161.749 180.429,161.600 181.244,161.600 183.400 C 161.600 185.622,161.457 186.369,161.000 186.545 C 160.670 186.671,160.400 187.119,160.400 187.538 C 160.400 187.958,160.130 188.526,159.800 188.800 C 159.375 189.153,159.200 190.087,159.200 192.006 C 159.200 194.044,159.348 194.771,159.800 194.945 C 160.269 195.125,160.400 195.924,160.400 198.600 C 160.400 201.276,160.531 202.075,161.000 202.255 C 161.492 202.444,161.600 203.448,161.600 207.823 C 161.600 212.132,161.715 213.224,162.195 213.493 C 162.703 213.778,162.806 216.083,162.895 229.213 L 163.000 244.600 201.300 244.702 L 239.600 244.804 239.600 222.813 L 239.600 200.821 237.800 199.021 C 236.341 197.562,236.000 196.951,236.000 195.798 C 236.000 194.902,235.778 194.290,235.400 194.145 C 234.925 193.963,234.800 193.127,234.800 190.145 C 234.800 187.163,234.925 186.327,235.400 186.145 C 235.730 186.018,236.000 185.526,236.000 185.051 C 236.000 184.553,236.762 183.450,237.800 182.444 C 239.766 180.539,240.486 176.826,239.000 176.255 C 238.078 175.902,238.127 167.793,239.054 167.274 C 239.968 166.762,239.923 159.613,239.002 159.097 C 238.126 158.607,238.124 151.281,239.000 150.945 C 239.523 150.744,239.600 147.952,239.600 129.171 C 239.600 107.954,239.612 107.622,240.409 107.195 C 241.181 106.782,241.214 106.437,241.109 99.881 L 241.000 93.000 197.688 92.898 C 163.250 92.817,154.337 92.899,154.184 93.298 M75.300 284.250 C 74.585 285.005,74.000 286.017,74.000 286.499 C 74.000 286.980,73.508 287.797,72.908 288.313 C 69.135 291.555,65.200 295.727,65.200 296.486 C 65.200 296.983,64.410 298.082,63.300 299.130 C 56.490 305.556,55.200 306.903,55.200 307.586 C 55.200 308.026,53.343 310.156,50.787 312.649 C 48.111 315.258,46.456 317.169,46.583 317.501 C 46.711 317.834,45.006 319.768,42.219 322.450 C 39.167 325.387,37.721 327.050,37.874 327.449 C 38.027 327.847,36.589 329.502,33.552 332.420 C 30.763 335.100,29.049 337.045,29.127 337.440 C 29.205 337.832,27.519 339.780,24.827 342.408 C 21.447 345.709,20.400 346.976,20.400 347.766 C 20.400 348.335,20.248 348.800,20.062 348.800 C 19.336 348.800,11.600 356.823,11.600 357.577 C 11.600 358.293,10.017 360.400,9.478 360.400 C 8.868 360.400,2.800 366.945,2.800 367.604 C 2.800 368.445,1.160 370.400,0.454 370.400 C 0.119 370.400,0.000 378.537,0.000 401.400 L 0.000 432.400 42.400 432.400 C 71.817 432.400,84.800 432.271,84.800 431.979 C 84.800 431.747,85.880 430.558,87.200 429.336 C 88.624 428.017,89.600 426.782,89.600 426.297 C 89.600 425.805,90.632 424.528,92.200 423.082 C 93.816 421.591,94.800 420.364,94.800 419.841 C 94.800 419.338,95.523 418.383,96.600 417.465 C 97.970 416.297,98.400 415.653,98.400 414.765 C 98.400 414.124,98.535 413.597,98.700 413.594 C 99.482 413.578,103.600 409.247,103.600 408.440 C 103.600 407.569,104.177 406.908,106.957 404.602 C 107.983 403.751,108.400 403.082,108.400 402.290 C 108.400 401.638,108.665 401.073,109.039 400.930 C 110.324 400.437,113.600 396.771,113.600 395.827 C 113.600 395.296,113.993 394.634,114.511 394.295 C 116.322 393.109,118.400 390.710,118.400 389.806 C 118.400 389.277,118.813 388.621,119.381 388.250 C 120.993 387.193,122.408 385.456,122.198 384.792 C 122.070 384.391,122.921 383.347,124.600 381.845 C 126.267 380.354,127.201 379.212,127.203 378.660 C 127.204 378.112,128.153 376.938,129.817 375.426 C 131.458 373.933,132.347 372.838,132.208 372.478 C 132.071 372.119,132.964 370.999,134.594 369.487 C 136.621 367.606,137.200 366.818,137.200 365.935 C 137.200 365.311,137.401 364.800,137.647 364.800 C 138.448 364.800,141.221 361.720,140.982 361.096 C 140.756 360.509,141.659 359.456,144.549 356.934 C 145.516 356.090,146.000 355.324,146.000 354.634 C 146.000 354.065,146.144 353.600,146.319 353.600 C 147.078 353.600,151.185 349.227,150.965 348.654 C 150.827 348.294,151.166 347.680,151.808 347.126 C 154.233 345.035,154.800 344.409,154.800 343.819 C 154.800 343.129,153.422 341.600,152.800 341.600 C 152.580 341.600,152.398 341.465,152.395 341.300 C 152.384 340.616,149.349 337.797,148.750 337.913 C 148.108 338.038,146.995 337.071,144.534 334.251 C 143.788 333.396,142.885 332.788,142.334 332.771 C 141.732 332.753,140.831 332.067,139.800 330.845 C 138.786 329.642,137.956 329.007,137.535 329.111 C 137.113 329.215,135.933 328.310,134.309 326.637 C 132.901 325.187,131.423 324.000,131.025 324.000 C 130.627 324.000,129.588 323.190,128.716 322.200 C 127.839 321.203,126.778 320.400,126.338 320.400 C 125.883 320.400,124.474 319.288,123.044 317.800 C 121.669 316.370,120.211 315.200,119.803 315.200 C 119.396 315.200,118.287 314.390,117.338 313.400 C 116.390 312.410,115.311 311.600,114.941 311.600 C 114.571 311.600,113.138 310.430,111.756 309.000 C 110.375 307.570,108.937 306.400,108.561 306.400 C 108.185 306.400,106.824 305.320,105.537 304.000 C 103.911 302.334,102.891 301.600,102.198 301.600 C 101.649 301.600,101.198 301.465,101.195 301.300 C 101.184 300.621,98.151 297.796,97.558 297.912 C 97.187 297.984,95.846 296.929,94.387 295.418 C 92.997 293.978,91.531 292.800,91.129 292.800 C 90.728 292.800,89.279 291.630,87.910 290.200 C 86.540 288.770,85.091 287.600,84.690 287.600 C 84.004 287.600,81.206 284.953,81.202 284.300 C 81.201 284.135,80.654 284.000,79.987 284.000 C 79.279 284.000,78.679 283.751,78.545 283.400 C 78.163 282.406,76.679 282.794,75.300 284.250 " stroke="none" fill="#2c2c2c" fill-rule="evenodd"></path><path id="path3" d="M166.400 69.400 C 166.400 69.926,169.000 70.000,187.400 70.000 C 205.800 70.000,208.400 69.926,208.400 69.400 C 208.400 68.874,205.800 68.800,187.400 68.800 C 169.000 68.800,166.400 68.874,166.400 69.400 M160.154 70.577 C 160.022 70.920,159.524 71.200,159.047 71.200 C 158.032 71.200,152.095 76.964,152.715 77.347 C 152.933 77.482,154.257 76.426,155.656 74.999 C 157.212 73.413,158.533 72.404,159.057 72.403 C 159.529 72.401,160.014 72.141,160.135 71.824 C 160.269 71.477,161.041 71.199,162.078 71.124 C 164.298 70.964,164.311 70.237,162.096 70.077 C 160.842 69.986,160.330 70.118,160.154 70.577 M231.600 70.800 C 231.600 71.020,232.050 71.200,232.600 71.200 C 233.150 71.200,233.600 71.020,233.600 70.800 C 233.600 70.580,233.150 70.400,232.600 70.400 C 232.050 70.400,231.600 70.580,231.600 70.800 M236.400 71.800 C 236.400 72.141,236.759 72.400,237.230 72.400 C 238.289 72.400,243.600 77.722,243.600 78.783 C 243.600 79.210,243.853 79.704,244.162 79.880 C 244.470 80.056,244.785 80.650,244.862 81.200 C 244.939 81.761,245.264 82.200,245.600 82.200 C 246.428 82.200,246.622 80.460,245.828 80.155 C 245.483 80.023,245.198 79.529,245.195 79.057 C 245.188 77.903,238.409 71.200,237.249 71.200 C 236.761 71.200,236.400 71.455,236.400 71.800 M150.900 79.777 C 149.874 80.844,149.696 82.400,150.600 82.400 C 150.970 82.400,151.200 82.024,151.200 81.420 C 151.200 80.881,151.515 80.262,151.900 80.045 C 152.368 79.781,152.467 79.516,152.200 79.246 C 151.931 78.974,151.505 79.148,150.900 79.777 M181.412 79.180 C 181.107 79.675,182.061 80.128,182.998 79.934 C 183.352 79.860,183.638 79.620,183.634 79.400 C 183.621 78.845,181.735 78.658,181.412 79.180 M190.278 79.056 C 189.553 79.780,190.985 80.000,196.424 80.000 C 201.469 80.000,202.400 79.907,202.400 79.400 C 202.400 78.778,190.883 78.451,190.278 79.056 M246.609 88.033 C 246.196 89.113,246.579 138.605,247.000 138.499 C 247.644 138.337,247.847 88.487,247.206 87.846 C 246.966 87.606,246.746 87.675,246.609 88.033 M154.100 92.265 C 153.707 92.423,153.600 98.114,153.600 118.833 L 153.600 145.200 154.704 145.200 C 155.369 145.200,156.003 145.513,156.300 145.989 C 156.603 146.473,157.038 146.684,157.427 146.534 C 157.849 146.373,158.466 146.784,159.274 147.763 C 159.941 148.573,160.783 149.191,161.144 149.138 C 161.531 149.080,164.137 151.367,167.503 154.720 C 170.640 157.844,173.368 160.400,173.567 160.400 C 174.196 160.400,161.997 148.606,161.237 148.479 C 160.837 148.413,160.002 147.828,159.380 147.179 C 158.759 146.531,157.946 146.000,157.574 146.000 C 157.202 146.000,156.674 145.730,156.400 145.400 C 156.126 145.070,155.474 144.800,154.951 144.800 L 154.000 144.800 154.000 118.800 L 154.000 92.800 197.600 92.800 L 241.200 92.800 241.200 99.856 C 241.200 105.651,241.093 106.991,240.602 107.356 C 240.085 107.740,240.003 110.701,239.990 129.293 C 239.975 150.254,239.955 150.796,239.187 151.207 C 237.995 151.845,238.005 158.160,239.200 158.800 C 239.912 159.181,240.000 159.638,240.000 162.952 C 240.000 166.168,239.891 166.775,239.200 167.400 C 238.509 168.026,238.400 168.632,238.400 171.866 C 238.400 175.113,238.506 175.698,239.200 176.293 C 240.821 177.681,240.317 180.261,238.000 182.437 C 236.809 183.555,236.000 184.661,236.000 185.170 C 236.000 185.640,235.730 186.129,235.400 186.255 C 234.929 186.436,234.800 187.251,234.800 190.055 C 234.800 192.859,234.929 193.674,235.400 193.855 C 235.779 194.001,236.000 194.614,236.000 195.522 C 236.000 196.730,236.320 197.259,238.003 198.840 L 240.007 200.721 239.903 222.661 L 239.800 244.600 201.300 244.702 L 162.800 244.804 162.800 229.389 C 162.800 216.057,162.719 213.944,162.200 213.745 C 161.708 213.556,161.600 212.549,161.600 208.145 C 161.600 203.741,161.492 202.733,161.000 202.545 C 160.533 202.365,160.400 201.572,160.400 198.953 C 160.400 196.087,160.282 195.491,159.600 194.907 C 158.963 194.362,158.800 193.727,158.800 191.800 C 158.800 189.873,158.963 189.238,159.600 188.693 C 160.040 188.316,160.400 187.665,160.400 187.247 C 160.400 186.828,160.670 186.382,161.000 186.255 C 161.453 186.081,161.600 185.349,161.600 183.262 C 161.600 181.293,161.773 180.355,162.200 180.000 C 162.530 179.726,162.800 179.074,162.800 178.551 C 162.800 177.390,166.534 177.096,167.356 178.192 C 168.037 179.101,181.766 179.136,182.765 178.232 C 183.149 177.884,183.769 177.600,184.144 177.600 C 184.519 177.600,184.929 177.330,185.055 177.000 C 185.182 176.670,185.665 176.400,186.128 176.400 C 187.790 176.400,190.400 173.262,190.400 171.263 C 190.400 169.212,186.685 164.800,184.957 164.800 C 184.478 164.800,183.982 164.530,183.855 164.200 C 183.729 163.870,183.189 163.600,182.655 163.600 C 182.122 163.600,181.582 163.330,181.455 163.000 C 181.303 162.603,180.676 162.400,179.600 162.400 C 178.524 162.400,177.897 162.197,177.745 161.800 C 177.618 161.470,177.078 161.200,176.545 161.200 C 176.011 161.200,175.471 160.930,175.345 160.600 C 175.218 160.270,174.952 160.000,174.754 160.000 C 174.555 160.000,174.618 160.360,174.893 160.800 C 175.168 161.240,175.780 161.600,176.253 161.600 C 176.727 161.600,177.218 161.870,177.345 162.200 C 177.501 162.608,178.141 162.800,179.345 162.800 C 180.549 162.800,181.188 162.992,181.345 163.400 C 181.471 163.730,181.946 164.000,182.400 164.000 C 182.854 164.000,183.329 164.270,183.455 164.600 C 183.587 164.942,184.183 165.200,184.843 165.200 C 185.479 165.200,186.000 165.337,186.000 165.505 C 186.000 165.673,186.804 166.618,187.787 167.605 C 190.630 170.461,189.497 176.000,186.069 176.000 C 185.645 176.000,185.074 176.270,184.800 176.600 C 184.526 176.930,183.958 177.200,183.538 177.200 C 183.119 177.200,182.671 177.470,182.545 177.800 C 182.352 178.303,181.128 178.400,174.957 178.400 C 168.684 178.400,167.600 178.312,167.600 177.800 C 167.600 177.328,167.044 177.200,165.000 177.200 C 162.366 177.200,162.218 177.295,162.375 178.875 C 162.412 179.246,162.048 179.760,161.566 180.018 C 160.759 180.450,160.709 180.697,160.921 183.224 C 161.128 185.692,161.074 185.986,160.375 186.208 C 159.901 186.358,159.600 186.815,159.600 187.384 C 159.600 187.896,159.330 188.418,159.000 188.545 C 158.089 188.894,158.142 194.616,159.061 195.130 C 159.602 195.433,159.706 196.084,159.636 198.731 C 159.560 201.572,159.646 202.022,160.343 202.457 C 161.086 202.921,161.121 203.269,160.909 208.036 C 160.700 212.732,160.741 213.156,161.441 213.594 C 162.169 214.048,162.194 214.689,162.057 229.041 C 161.947 240.481,162.030 244.154,162.406 244.607 C 163.180 245.540,239.799 245.501,240.157 244.567 C 240.291 244.219,240.400 234.192,240.400 222.284 L 240.400 200.633 238.407 198.732 C 236.666 197.072,236.444 196.681,236.650 195.649 C 236.830 194.750,236.684 194.293,236.043 193.744 C 234.824 192.700,234.793 187.327,236.000 186.293 C 236.440 185.916,236.800 185.333,236.800 184.997 C 236.800 184.661,237.610 183.610,238.600 182.662 C 240.570 180.774,241.315 176.726,239.800 176.145 C 239.323 175.962,239.200 175.111,239.200 172.006 C 239.200 169.020,239.342 167.980,239.800 167.600 C 240.130 167.326,240.400 166.599,240.400 165.984 C 240.400 165.370,240.625 164.762,240.900 164.633 C 241.300 164.447,241.300 164.353,240.900 164.167 C 240.577 164.016,240.400 163.034,240.400 161.394 C 240.400 159.290,240.275 158.814,239.673 158.623 C 238.538 158.263,238.497 151.750,239.627 151.392 C 240.379 151.153,240.400 150.546,240.400 129.416 C 240.400 110.469,240.477 107.656,241.000 107.455 C 241.924 107.101,241.892 92.598,240.967 92.243 C 240.211 91.952,154.821 91.974,154.100 92.265 M149.067 92.667 C 148.459 93.274,148.771 102.400,149.400 102.400 C 149.901 102.400,150.000 101.578,150.000 97.400 C 150.000 92.827,149.820 91.914,149.067 92.667 M149.067 109.067 C 148.920 109.213,148.800 110.451,148.800 111.818 C 148.800 113.538,148.615 114.455,148.200 114.800 C 147.870 115.074,147.600 115.704,147.600 116.200 C 147.600 116.696,147.870 117.326,148.200 117.600 C 148.659 117.981,148.800 119.026,148.800 122.062 C 148.800 125.216,148.677 126.072,148.200 126.255 C 147.870 126.382,147.600 126.894,147.600 127.394 C 147.600 127.893,147.870 128.526,148.200 128.800 C 148.597 129.130,148.800 130.025,148.800 131.449 C 148.800 133.094,148.941 133.600,149.400 133.600 C 149.920 133.600,150.000 131.956,150.000 121.200 C 150.000 109.880,149.875 108.258,149.067 109.067 M246.400 226.186 C 246.400 249.162,246.386 249.579,245.600 250.000 C 245.132 250.250,244.800 250.838,244.800 251.414 C 244.800 251.956,244.623 252.400,244.408 252.400 C 244.192 252.400,243.900 252.895,243.759 253.500 C 243.462 254.775,239.721 258.794,238.814 258.813 C 238.058 258.830,236.400 260.170,236.400 260.764 C 236.400 261.414,237.190 261.291,237.455 260.600 C 237.582 260.270,238.076 260.000,238.553 260.000 C 239.707 260.000,245.200 254.491,245.200 253.333 C 245.200 252.867,245.470 252.382,245.800 252.255 C 246.130 252.129,246.400 251.589,246.400 251.055 C 246.400 250.522,246.670 249.982,247.000 249.855 C 247.524 249.654,247.600 246.655,247.600 226.213 C 247.600 205.668,247.526 202.800,247.000 202.800 C 246.474 202.800,246.400 205.665,246.400 226.186 M161.411 261.582 C 161.267 261.815,161.414 262.107,161.737 262.231 C 162.621 262.571,165.000 262.256,165.000 261.800 C 165.000 261.252,161.738 261.054,161.411 261.582 M233.844 261.829 C 233.676 262.268,233.804 262.419,234.268 262.329 C 234.634 262.258,235.009 261.975,235.100 261.700 C 235.345 260.965,234.128 261.090,233.844 261.829 M75.248 283.600 C 74.342 284.479,73.600 285.575,73.600 286.034 C 73.600 286.494,72.949 287.436,72.149 288.134 C 68.778 291.076,64.800 295.375,64.800 296.076 C 64.800 296.492,64.035 297.561,63.100 298.453 C 57.401 303.889,54.800 306.655,54.800 307.280 C 54.800 307.672,53.360 309.367,51.600 311.049 C 49.840 312.730,48.400 314.249,48.400 314.424 C 48.400 314.599,49.746 313.405,51.390 311.771 C 53.035 310.137,54.565 308.800,54.790 308.800 C 55.016 308.800,55.200 308.298,55.200 307.684 C 55.200 306.594,57.886 303.691,63.510 298.701 C 64.614 297.722,65.200 296.868,65.200 296.239 C 65.200 295.533,66.377 294.156,69.600 291.089 C 72.226 288.590,74.000 286.592,74.000 286.132 C 74.000 284.074,77.801 281.749,78.732 283.239 C 79.068 283.778,79.528 284.007,80.016 283.880 C 80.560 283.738,81.256 284.236,82.475 285.641 C 83.409 286.718,84.513 287.600,84.927 287.600 C 85.342 287.600,86.778 288.770,88.119 290.200 C 89.461 291.630,90.884 292.800,91.282 292.800 C 91.680 292.800,93.069 293.880,94.368 295.200 C 95.668 296.520,97.053 297.600,97.445 297.600 C 97.838 297.600,99.004 298.500,100.037 299.600 C 101.070 300.700,102.267 301.600,102.698 301.600 C 103.139 301.600,104.468 302.650,105.735 304.000 C 106.975 305.320,108.318 306.400,108.721 306.400 C 109.124 306.400,110.572 307.570,111.940 309.000 C 113.307 310.430,114.757 311.600,115.162 311.600 C 115.567 311.600,116.645 312.410,117.557 313.400 C 118.470 314.390,119.560 315.200,119.980 315.200 C 120.400 315.200,121.773 316.280,123.033 317.600 C 124.292 318.920,125.647 320.000,126.045 320.000 C 126.443 320.000,127.610 320.900,128.639 322.000 C 129.668 323.100,130.852 324.000,131.271 324.000 C 131.690 324.000,133.051 325.080,134.297 326.400 C 135.595 327.775,136.903 328.800,137.361 328.800 C 137.802 328.800,138.999 329.695,140.037 330.800 C 141.070 331.900,142.233 332.800,142.623 332.800 C 143.012 332.800,144.352 333.880,145.600 335.200 C 146.848 336.520,148.205 337.600,148.614 337.600 C 149.337 337.600,154.473 342.526,154.916 343.644 C 155.093 344.089,155.143 344.079,155.168 343.594 C 155.214 342.714,149.814 337.200,148.908 337.200 C 148.482 337.200,147.056 336.033,145.689 334.568 C 143.742 332.480,143.064 331.989,142.417 332.195 C 141.968 332.337,141.600 332.307,141.599 332.127 C 141.598 331.334,138.521 328.400,137.690 328.400 C 136.913 328.400,135.200 327.161,135.200 326.600 C 135.200 325.993,131.886 323.299,131.292 323.423 C 130.847 323.516,130.028 322.869,129.000 321.613 C 128.013 320.407,127.066 319.647,126.528 319.629 C 126.007 319.612,124.735 318.634,123.367 317.200 C 122.103 315.874,120.730 314.800,120.300 314.800 C 119.872 314.800,118.707 313.893,117.709 312.784 C 116.619 311.570,115.621 310.814,115.205 310.884 C 114.785 310.954,113.577 310.019,112.127 308.500 C 110.814 307.125,109.405 306.000,108.995 306.000 C 108.584 306.000,107.125 304.814,105.752 303.364 C 103.760 301.262,103.088 300.782,102.427 300.991 C 101.972 301.136,101.600 301.077,101.600 300.860 C 101.600 299.926,98.530 297.200,97.477 297.200 C 96.885 297.200,96.400 297.036,96.400 296.835 C 96.400 295.897,91.970 291.956,91.193 292.202 C 90.757 292.341,90.400 292.302,90.400 292.117 C 90.400 291.456,86.056 287.200,85.381 287.200 C 85.003 287.200,83.822 286.315,82.758 285.234 C 81.380 283.834,80.600 283.327,80.046 283.472 C 79.529 283.607,79.118 283.395,78.820 282.838 C 78.152 281.588,77.086 281.816,75.248 283.600 M46.870 315.726 C 46.391 316.235,46.000 316.965,46.000 317.348 C 46.000 317.732,45.415 318.595,44.700 319.266 C 43.985 319.938,43.760 320.291,44.200 320.051 C 45.830 319.160,46.400 318.485,46.400 317.443 C 46.400 316.856,46.656 316.277,46.969 316.157 C 47.282 316.036,47.636 315.682,47.757 315.369 C 48.059 314.580,47.877 314.653,46.870 315.726 M41.208 322.592 C 40.241 323.577,39.529 324.442,39.625 324.513 C 39.721 324.585,40.647 323.779,41.683 322.722 C 42.718 321.665,43.431 320.800,43.266 320.800 C 43.101 320.800,42.175 321.606,41.208 322.592 M37.467 326.267 C 37.320 326.413,37.200 326.933,37.200 327.422 C 37.200 327.979,36.491 328.941,35.300 329.997 C 34.255 330.925,33.760 331.497,34.200 331.269 C 35.847 330.416,37.491 328.525,37.674 327.274 C 37.876 325.901,37.869 325.865,37.467 326.267 M31.256 333.832 C 30.307 334.840,29.592 335.723,29.666 335.795 C 29.740 335.867,30.647 335.042,31.683 333.963 C 32.718 332.883,33.434 332.000,33.273 332.000 C 33.112 332.000,32.204 332.825,31.256 333.832 M28.667 336.267 C 28.520 336.413,28.400 336.893,28.400 337.333 C 28.400 337.806,27.094 339.404,25.200 341.248 C 23.440 342.961,22.000 344.506,22.000 344.681 C 22.001 344.857,22.875 344.100,23.943 343.000 C 25.011 341.900,26.515 340.453,27.284 339.785 C 28.179 339.009,28.752 338.107,28.873 337.285 C 29.076 335.901,29.069 335.865,28.667 336.267 M153.100 346.204 C 152.055 347.153,151.200 348.285,151.200 348.719 C 151.200 349.175,150.088 350.548,148.565 351.974 C 146.959 353.476,146.013 354.658,146.144 354.999 C 146.276 355.342,145.363 356.456,143.785 357.879 C 142.050 359.444,141.209 360.500,141.205 361.119 C 141.200 362.016,139.922 363.485,138.090 364.701 C 137.451 365.125,137.254 365.540,137.429 366.091 C 137.611 366.665,137.318 367.185,136.339 368.022 C 135.603 368.652,135.111 369.175,135.246 369.184 C 135.906 369.227,138.102 366.843,137.896 366.306 C 137.750 365.926,138.376 365.085,139.634 363.970 C 140.907 362.842,141.600 361.906,141.600 361.314 C 141.600 360.519,142.831 358.800,143.400 358.800 C 144.121 358.800,146.695 355.487,146.514 354.792 C 146.400 354.357,146.463 354.000,146.653 354.000 C 147.607 353.999,151.600 349.702,151.600 348.676 C 151.600 348.084,151.735 347.599,151.900 347.598 C 152.291 347.596,155.335 344.800,155.145 344.618 C 155.065 344.541,154.145 345.255,153.100 346.204 M20.465 345.853 C 19.811 346.479,19.609 346.997,19.792 347.574 C 19.936 348.028,19.877 348.400,19.660 348.400 C 18.853 348.400,10.822 356.792,11.053 357.395 C 11.188 357.746,10.843 358.357,10.206 358.894 C 7.076 361.530,2.057 366.883,2.248 367.382 C 2.466 367.948,1.349 369.322,0.350 369.718 C -0.086 369.892,-0.076 369.942,0.400 369.962 C 1.247 369.996,2.929 368.114,2.666 367.427 C 2.525 367.061,4.105 365.257,7.041 362.429 C 9.568 359.995,11.583 357.749,11.518 357.439 C 11.394 356.844,14.358 353.584,18.149 350.148 C 19.729 348.715,20.337 347.901,20.163 347.447 C 20.005 347.036,20.260 346.518,20.857 346.033 C 21.376 345.613,21.710 345.199,21.600 345.113 C 21.490 345.027,20.979 345.360,20.465 345.853 M132.900 371.065 C 132.625 371.176,132.400 371.777,132.400 372.400 C 132.400 373.023,132.215 373.625,131.990 373.737 C 131.764 373.849,131.810 373.894,132.090 373.839 C 132.370 373.783,132.658 373.301,132.728 372.769 C 132.799 372.236,133.148 371.575,133.505 371.300 C 134.151 370.801,133.847 370.683,132.900 371.065 M130.155 375.300 C 128.326 376.727,127.205 378.152,127.425 378.769 C 127.537 379.083,127.073 379.844,126.389 380.469 C 125.708 381.091,125.308 381.600,125.500 381.600 C 126.142 381.600,128.059 379.305,127.929 378.694 C 127.858 378.362,128.690 377.260,129.777 376.245 C 131.878 374.285,132.069 373.806,130.155 375.300 M123.500 382.993 C 122.853 383.563,122.400 384.372,122.400 384.959 C 122.400 385.658,121.805 386.468,120.404 387.675 C 119.086 388.810,118.478 389.615,118.613 390.042 C 118.750 390.474,117.946 391.507,116.210 393.132 C 114.774 394.474,113.600 395.901,113.600 396.301 C 113.600 396.702,112.704 397.912,111.609 398.991 C 110.514 400.069,109.695 401.029,109.789 401.123 C 110.210 401.544,114.000 397.089,114.000 396.173 C 114.000 395.638,114.157 395.200,114.348 395.200 C 115.126 395.200,119.241 390.599,119.065 389.926 C 118.955 389.507,119.253 388.995,119.823 388.622 C 121.302 387.653,122.800 385.876,122.800 385.091 C 122.800 384.696,123.346 383.839,124.014 383.187 C 125.466 381.767,125.065 381.616,123.500 382.993 M108.622 401.564 C 108.499 401.764,108.497 402.188,108.619 402.506 C 108.760 402.873,107.887 403.945,106.226 405.442 C 104.219 407.252,103.609 408.056,103.605 408.900 C 103.602 409.505,103.465 410.004,103.300 410.008 C 102.389 410.032,98.600 414.258,98.600 415.250 C 98.600 415.841,98.751 416.230,98.935 416.117 C 99.119 416.003,99.183 415.577,99.077 415.171 C 98.939 414.644,99.613 413.772,101.442 412.116 C 103.142 410.577,104.000 409.498,104.000 408.900 C 104.000 408.121,105.234 406.400,105.793 406.400 C 106.557 406.400,109.002 403.315,109.014 402.336 C 109.028 401.113,108.971 401.000,108.622 401.564 M95.700 418.270 C 95.205 418.615,94.811 419.281,94.825 419.749 C 94.850 420.585,94.857 420.584,95.212 419.700 C 95.411 419.205,95.741 418.800,95.944 418.800 C 96.148 418.800,96.418 418.530,96.545 418.200 C 96.820 417.481,96.832 417.480,95.700 418.270 M92.122 423.398 C 91.285 424.167,90.485 424.797,90.344 424.798 C 90.203 424.799,90.015 425.417,89.927 426.172 C 89.839 426.927,89.910 427.456,90.084 427.348 C 90.258 427.241,90.400 426.800,90.400 426.370 C 90.400 425.939,91.242 424.780,92.272 423.793 C 94.470 421.687,94.345 421.356,92.122 423.398 M86.900 429.827 C 85.745 430.952,84.800 431.991,84.800 432.136 C 84.800 432.281,85.833 431.422,87.095 430.228 C 88.358 429.034,89.303 427.996,89.195 427.920 C 89.088 427.844,88.055 428.703,86.900 429.827 " stroke="none" fill="#8c8c8c" fill-rule="evenodd"></path><path id="path4" d="M239.783 107.700 C 239.678 107.975,239.639 117.200,239.696 128.200 L 239.800 148.200 240.000 127.700 C 240.110 116.425,240.149 107.200,240.087 107.200 C 240.026 107.200,239.889 107.425,239.783 107.700 M239.600 149.456 C 239.600 150.037,239.285 150.767,238.900 151.078 C 238.268 151.589,238.288 151.602,239.100 151.208 C 239.893 150.824,240.497 148.400,239.800 148.400 C 239.690 148.400,239.600 148.875,239.600 149.456 M238.878 158.906 C 239.338 159.279,239.603 160.217,239.702 161.828 L 239.849 164.200 239.924 161.714 C 239.992 159.493,239.904 159.182,239.100 158.792 C 238.304 158.407,238.279 158.420,238.878 158.906 M239.594 178.881 C 239.487 180.136,239.546 181.016,239.724 180.837 C 239.903 180.658,239.990 179.631,239.918 178.556 L 239.787 176.600 239.594 178.881 M167.549 178.911 C 167.721 179.081,170.727 179.171,174.231 179.109 L 180.600 178.998 173.919 178.799 C 170.244 178.689,167.378 178.740,167.549 178.911 M158.966 189.345 C 158.851 189.644,158.814 190.949,158.884 192.245 L 159.012 194.600 159.206 191.699 C 159.401 188.788,159.354 188.333,158.966 189.345 M238.897 200.120 C 239.541 200.641,239.601 202.329,239.700 222.642 L 239.807 244.600 239.903 222.514 L 240.000 200.428 239.100 199.992 C 238.290 199.600,238.270 199.612,238.897 200.120 M69.188 291.500 L 66.600 294.200 69.300 291.612 C 71.808 289.207,72.183 288.800,71.888 288.800 C 71.827 288.800,70.612 290.015,69.188 291.500 M58.981 302.900 L 57.400 304.600 59.100 303.019 C 60.681 301.548,60.984 301.200,60.681 301.200 C 60.616 301.200,59.851 301.965,58.981 302.900 M125.141 320.101 C 125.343 320.303,125.933 320.401,126.454 320.319 C 127.255 320.193,127.198 320.137,126.087 319.952 C 125.293 319.821,124.919 319.879,125.141 320.101 M89.552 426.313 C 89.421 427.107,89.479 427.481,89.701 427.259 C 89.903 427.057,90.001 426.467,89.919 425.946 C 89.793 425.145,89.737 425.202,89.552 426.313 " stroke="none" fill="#6c4c98" fill-rule="evenodd"></path></g></svg>