<svg id="Lager_1" data-name="Lager 1" xmlns="http://www.w3.org/2000/svg" viewBox="0 0 347.74 403.38"><defs><style>.cls-1{fill:#fff;}.cls-1,.cls-2{stroke:#191919;stroke-linecap:round;stroke-linejoin:round;stroke-width:2.5px;}.cls-2{fill:none;}.cls-3{fill:#459399;}.cls-4{fill:#72bbd0;}</style></defs><path class="cls-1" d="M170.41,274.13l-56-5.69c-6.27-.64-10.83-6.23-10.15-13l1.34-13.18"/><path class="cls-1" d="M107.64,222l10.62-104.58a11.41,11.41,0,0,1,12.51-10.2l57.93,5.88a11.41,11.41,0,0,1,10.2,12.51L191,194.49"/><rect class="cls-2" x="146.77" y="111.3" width="26.26" height="2.7" transform="translate(12.2 -15.58) rotate(5.8)"/><circle class="cls-2" cx="144.81" cy="257.1" r="6.39"/><path class="cls-2" d="M108.58,203.22s-20-23.07-15.74-30.81c6.63-12,19.74,3.81,19.74,3.81l1.7-16.81s-10.52-15.1-9.21-22c2.14-11.31,11-4.33,11-4.33"/><path class="cls-2" d="M164.08,299.5a77.34,77.34,0,0,1,4.34-18.82c4.37-12.15,13.11-17.91,15.65-28.15,1.69-6.85.81-44,3.66-52.57,1.87-5.61,8.06-10.33,12.1-12.93A2.73,2.73,0,0,1,204,189c1.49,11.41,5.77,43.37,7.76,50.93,2.45,9.24,1.23,62.34,1.23,62.34l15.89,37.9s-12.23,18.34-27.81,25.06c-12.1,5.22-34.45,3.06-34.45,3.06l-12.31-40.35s-27.94-13.85-37.86-26.48c-6.14-7.82-23.87-42.82-25.29-53.2-.83-6.07-.44-17.2,1.28-19.95,2.15-3.44,21.62-7.76,24.07-7.76s2.61,6.08.16,12.73-15.54,10.62-15.54,10.62"/><path class="cls-3" d="M181.59,199.49h0a2.28,2.28,0,0,1-2.5,2l-9.75-1a2.26,2.26,0,0,1-2-2.06l-1.72-19.3s0,0,0,0l-13.13,30.45a2.25,2.25,0,0,1-2.35,1.45H150a2.29,2.29,0,0,1-2-2l-5.65-41.41s0,0,0,0l-9.84,27.44a2.28,2.28,0,0,1-2.37,1.5l-10-1a2.34,2.34,0,0,1-2.14-2.22,2.28,2.28,0,0,1,2.51-2.32l8.31.85a0,0,0,0,0,0,0l12.69-35.37a2.28,2.28,0,0,1,4.41.55l5.7,41.89a0,0,0,0,0,0,0l13.2-30.66a2.27,2.27,0,0,1,2.44-1.44,2.29,2.29,0,0,1,2,2l2.42,27.32a0,0,0,0,0,0,0l7.86.8A2.29,2.29,0,0,1,181.59,199.49Z"/><path class="cls-4" d="M197.41,190.36S197.07,202,199,203.22s5.64.54,5.64.54.3-12.46-1.18-16C202.77,186.25,197.41,190.36,197.41,190.36Z"/><path class="cls-4" d="M105.35,224.59s-.76,5.11.46,6,9.59-1.44,10.3-2.36,1.68-4.93.55-6.29S105.35,224.59,105.35,224.59Z"/></svg>