<svg id="Lager_1" data-name="Lager 1" xmlns="http://www.w3.org/2000/svg" viewBox="0 0 347.74 403.38"><defs><style>.cls-1,.cls-10,.cls-2,.cls-4,.cls-8{fill:#fff;}.cls-1,.cls-10,.cls-2,.cls-3,.cls-4,.cls-8{stroke:#191919;}.cls-1,.cls-10,.cls-2,.cls-3,.cls-4,.cls-6,.cls-8,.cls-9{stroke-linecap:round;stroke-linejoin:round;}.cls-1{stroke-width:2px;}.cls-2,.cls-3{stroke-width:2.49px;}.cls-3,.cls-6{fill:none;}.cls-4{stroke-width:2.27px;}.cls-5,.cls-9{fill:#72bbd0;}.cls-6{stroke:#76c0cc;}.cls-6,.cls-8,.cls-9{stroke-width:1.34px;}.cls-7{fill:#191919;}.cls-9{stroke:#72bbd0;}.cls-10{stroke-width:1.95px;}</style></defs><polyline class="cls-1" points="155.68 211.58 220.02 209.24 235.71 220.5 237.63 229.1"/><path class="cls-2" d="M100.52,213.06l6.43.84,7.33,47.16,5.77-.74-4.84-45.72h0a4.73,4.73,0,0,0,4.76-4.81l-.34-22.5c.23-2.65-1.9-4.17-4.36-5.22-13.35-5.68-29.89-9-42.28-6.33"/><path class="cls-1" d="M126.46,288.29l-5.57,81a7.53,7.53,0,0,1-4.34,1.3,9.28,9.28,0,0,1-4.56-1.3l1.85-34Z"/><path class="cls-3" d="M106.54,258l4.38,14.55s-1.47-.07-3.87-.35a10.35,10.35,0,0,1-4.08-1.07"/><path class="cls-4" d="M122.59,131.39s3.3-1.13,4.13-1.59-.23-9-.23-9"/><path class="cls-5" d="M119.36,118.25l-.61,4.87a.12.12,0,0,0,.16.15l2.73-1.12a.11.11,0,0,1,.15,0l1.78,2.67a.12.12,0,0,0,.21,0l1.35-2.71s-.49-2.24-.54-1.87l-2.84-2a.14.14,0,0,0-.11-.07l-1,.07S119.38,118.21,119.36,118.25Z"/><path class="cls-6" d="M137.61,101.51a7.89,7.89,0,0,0-1.74-.27,4.38,4.38,0,0,0-2,.21"/><path class="cls-6" d="M137.58,103.56a4.65,4.65,0,0,0-1.41,0,6.93,6.93,0,0,0-1.42.44"/><path class="cls-1" d="M120.45,107.7s-5.69-11.87-8.18-4.36c-3.33,10,6.83,14.22,6.83,14.22l2.78-.62,4.12,4.13s15.9,9.08,25,6.69c2.08-.55,8.32-13.48,8.78-19.24a13.34,13.34,0,0,0-1.09-6.14l1.42-6.52-1.44-11"/><path class="cls-5" d="M142.51,92.66c.29.42.11,2.93-.38,3.07s-2.25-.62-4-.49c-2.74.21-4,1.27-4.22.44s1.52-3.29,3.6-3.71S142.15,92.15,142.51,92.66Z"/><path class="cls-5" d="M153.21,92.4c-.31.36-.58,2.86-.21,3.09s1.95-.22,3.37.22c2.21.69,3.08,2,3.39,1.17s-.7-3.5-2.34-4.28S153.59,92,153.21,92.4Z"/><path class="cls-5" d="M127.83,80.4a.11.11,0,0,1,.21,0,25.57,25.57,0,0,0,4.15,7.76,92.35,92.35,0,0,0,8.26,8.36.11.11,0,0,0,.17-.12,45.07,45.07,0,0,1-2.12-7.16,7.57,7.57,0,0,1,0-2.65.1.1,0,0,1,.17,0,23.24,23.24,0,0,0,10.67,4.23,57,57,0,0,0,13.53.61,22.88,22.88,0,0,0,4.62-1.61,13.46,13.46,0,0,1-6.09-3.11.45.45,0,0,1-.1-.28c0-.18.18-.54,2.25-2.63,1.69-1.72,2.74-2.73,3.16-3.14a.1.1,0,0,0-.08-.18,20.64,20.64,0,0,1-5.89-.33,19.79,19.79,0,0,1-4.87-2.17.11.11,0,0,1,0-.18,15.5,15.5,0,0,0,3.07-3.45,15.37,15.37,0,0,0,2.49-4.56.11.11,0,0,0-.14-.13,15.41,15.41,0,0,1-5.74.31c-4.37-.35-6.53-1.6-10.59-1.42A14.44,14.44,0,0,0,139,70a.11.11,0,0,1-.13-.16,8.7,8.7,0,0,0,1.9-3.94,10.19,10.19,0,0,0-.59-4.07.11.11,0,0,0-.2,0c-.32.78-1.42,3.11-3.09,3.91-2,1-4.66,1.18-7,2.56-3,1.81-3.94,3.74-4,4.22a.09.09,0,0,1-.11.09,8.46,8.46,0,0,0-2.4-.1c-.64.17-1.32,3.71-1.39,4.09a.05.05,0,0,1,0,0,4.91,4.91,0,0,1-4.18.66,12.43,12.43,0,0,1-3.32-1.17.1.1,0,0,0-.13.11,4,4,0,0,0,.83,2.91c1.12,1.4,3,1,1.59,2.68s-4.43,9.27-5,9.72a.11.11,0,0,0,0,.18c.54.23,2.31,1,2.68,2.23s-.34,5.58.24,5.66c3.26.43,5.77,5.93,6.27,6.33,1.18,1-.79-1.39-1.15-2.71-.47-1.72,1,.53,1.85.92s-2.66-2.82-1.87-8.8,1.27-5,1.27-5,2.65,1.38,2.85,2.29.48-1.13.43-4.11a33.2,33.2,0,0,0-.19-3.44.11.11,0,0,1,.16-.11,12,12,0,0,0,2.8,1.42C128,86.52,127.89,82.25,127.83,80.4Z"/><path class="cls-5" d="M120.84,75.92c-.21-.5-1.73-5.69-3.31-4.83S116,73.2,117,74.43,120.84,75.92,120.84,75.92Z"/><ellipse class="cls-7" cx="140.44" cy="103.12" rx="2.76" ry="1.78" transform="translate(32.99 240.27) rotate(-88.21)"/><ellipse class="cls-7" cx="154.9" cy="103.43" rx="2.76" ry="1.61" transform="translate(41.37 251.08) rotate(-86.18)"/><path class="cls-8" d="M151.14,106.6s3.74,2.57,7.33,2.74-4.35,3.9-4.35,3.9"/><line class="cls-8" x1="150.12" y1="112.63" x2="151.16" y2="113.25"/><path class="cls-8" d="M146.65,118s-4.35-.47-7-3.23"/><path class="cls-8" d="M120.8,112.27a11.1,11.1,0,0,0-5.7-4.89"/><path class="cls-8" d="M118.24,109.21s-2.1,3.21,1.21,4.84"/><line class="cls-4" x1="146.22" y1="129.29" x2="146.22" y2="132.14"/><path class="cls-9" d="M162.92,169.47s-5.46-32.78-6.5-34.19c-.84-1.13-8.89-3.14-8.89-3.14s.3,12-9.36,11.39c-8.73-.54-15.87-12.6-15.87-12.6s-16.59,2.13-20.66,10.82c-10.68,22.84,3.52,47,3.52,47s2.06,14.47.74,25.75c-.69,5.84,6.06,7.67,6.06,7.67s1.8,1.76,22.59,1.08,23.19-9.14,23.19-9.14l2.93-3.56L157.9,176l0,12.21s-1.11-1.71,2.11-3.15a12.77,12.77,0,0,0,6-4.22l-1.87-9.73Z"/><polyline class="cls-1" points="210.28 307.8 196.65 350.22 196.65 365.16 202.69 369.14 199.51 374.54 186.47 374.54 180.74 368.16 183.91 362.3 174.86 343.7 175.97 337.66 182.65 334.32 192.57 253.37"/><path class="cls-1" d="M200,277.92l3.51-.31a2.25,2.25,0,0,0,1.94-2.16l.79-10.67a2.28,2.28,0,0,0-2.11-2.56,2.08,2.08,0,0,1-1.71-1L201,259.18c-2.76-4.18-5.08-7.38-14.62-7.37l-.26,0-78.48,10.08L93.81,214.64l3.35.1a4.83,4.83,0,0,0,4.5-5.26l0-19.4c-.24-2.55-1.63-4.26-4.78-4.86a61.58,61.58,0,0,1-13.07-2.71A26.84,26.84,0,0,1,73,175.74c-2.19-.25-2.38,1.62-1.72,3.72l10.3,32.77,4.6,2.2.72,0,16.16,56.64-.08.07a2.5,2.5,0,0,0-.77,2.51l2.57,10.55A2.14,2.14,0,0,0,107,286l3.88.7L97.16,376.49s.79,1.59,4.46,1.59,3.81-1.59,3.81-1.59L130,285.22,187.47,279l19.34,98.73a25.2,25.2,0,0,0,3.83.34,4.36,4.36,0,0,0,3.81-2.25Z"/><path class="cls-1" d="M110.92,223.43l-2.86,13a11.89,11.89,0,0,0,1.84,9.32l6.18,8.89A12.58,12.58,0,0,0,127,260l26.57-1.21,53.75-7.47L201.89,279l21.94,75.35-5.09,10.5,5.09,7.63H234l3.81,7.95h14.31l4.77-6.36-8.58-1.59-9.54-16.86,1.37-124.34L220.34,214.2l-64,3.73"/><path class="cls-5" d="M112,272.08s-5.28-10.42-2.8-11.7a13.88,13.88,0,0,1,7.85-1.85,26.09,26.09,0,0,1,5.38,1.48c3.18,2,31.13.11,31.13.11s32.15-5.75,43.73-6.26c4.49-.2,5,3,5.73,4.73a2.39,2.39,0,0,1-1.62,3.26c-5.67,1.43-21.9,5.16-47.87,8.43C120.66,274.41,112,272.08,112,272.08Z"/><polygon class="cls-1" points="220.98 168.18 213.01 168.84 218.33 161.51 246.13 160.55 244.71 168.03 220.98 168.18"/><path class="cls-1" d="M134.86,189.69a207.3,207.3,0,0,1-21.38-7.22l15.79-14.4s21.59,8.43,32.79,9.34l51.36-5.94,4.75-4.35,3.23-2.73,6.74-2.72-.62,3.6-.75,2.64,17.94.12-12.2,5.12-1.65,3.9-4.9,3.37-10.66-.16L165.11,195,160,194.9Z"/><line class="cls-10" x1="165.11" y1="194.98" x2="167.99" y2="211.13"/></svg>