<svg id="Lager_1" data-name="Lager 1" xmlns="http://www.w3.org/2000/svg" viewBox="0 0 347.74 403.38"><defs><style>.cls-1,.cls-6,.cls-7,.cls-9{fill:#fff;}.cls-1,.cls-2,.cls-6,.cls-7,.cls-9{stroke:#191919;}.cls-1,.cls-2,.cls-4,.cls-6,.cls-7,.cls-8,.cls-9{stroke-linecap:round;stroke-linejoin:round;}.cls-1{stroke-width:2px;}.cls-2,.cls-4{fill:none;}.cls-2{stroke-width:2.49px;}.cls-3,.cls-8{fill:#72bbd0;}.cls-4{stroke:#76c0cc;}.cls-4,.cls-6,.cls-8{stroke-width:1.34px;}.cls-5{fill:#191919;}.cls-7{stroke-width:2.27px;}.cls-8{stroke:#72bbd0;}.cls-9{stroke-width:1.46px;}</style></defs><polyline class="cls-1" points="162.66 211.2 227 208.86 242.69 220.12 244.61 228.72"/><path class="cls-1" d="M107.5,212.68l6.43.84,7.33,47.16,5.77-.74-4.84-45.72h0a4.73,4.73,0,0,0,4.76-4.81l-.34-22.5c.23-2.64-1.9-4.17-4.36-5.22-13.35-5.68-29.89-9-42.28-6.33"/><path class="cls-1" d="M133.44,287.91l-5.57,81a7.5,7.5,0,0,1-4.34,1.3,9.28,9.28,0,0,1-4.56-1.3l1.85-34Z"/><path class="cls-2" d="M113.52,257.66l4.38,14.54s-1.47-.07-3.86-.35a10.37,10.37,0,0,1-4.09-1.07"/><path class="cls-1" d="M129.57,131s3.3-1.13,4.13-1.59-.23-9-.23-9"/><path class="cls-3" d="M126,116l-1.12,4.78a.12.12,0,0,0,.14.17l2.84-.84a.11.11,0,0,1,.14.06l1.5,2.84a.12.12,0,0,0,.21,0l1.62-2.55s-.25-2.28-.34-1.92l-2.61-2.33a.12.12,0,0,0-.11-.07l-1,0S126.05,116,126,116Z"/><path class="cls-4" d="M145.93,101.28a7.52,7.52,0,0,0-1.71-.45,4.4,4.4,0,0,0-2,0"/><path class="cls-4" d="M145.68,103.31a4.53,4.53,0,0,0-1.4-.16,6.82,6.82,0,0,0-1.46.28"/><path class="cls-1" d="M128.21,105.65s-4.42-12.4-7.68-5.19c-4.35,9.62,5.31,14.85,5.31,14.85l2.84-.32,3.66,4.53s14.87,10.69,24.13,9.25c2.12-.33,9.68-12.53,10.73-18.21a13.35,13.35,0,0,0-.44-6.23L168.85,98l-.29-11.13"/><path class="cls-3" d="M151.71,93c.25.44-.18,2.92-.69,3s-2.17-.85-3.93-.9c-2.74-.08-4.12.84-4.24,0s1.85-3.11,4-3.31S151.41,92.44,151.71,93Z"/><path class="cls-3" d="M162.39,93.84c-.35.33-.88,2.78-.53,3s2,0,3.32.57c2.13.92,2.86,2.27,3.25,1.52s-.33-3.55-1.88-4.5S162.81,93.44,162.39,93.84Z"/><path class="cls-3" d="M138.39,79.26a.11.11,0,0,1,.21,0,25.8,25.8,0,0,0,3.32,8.15,92.06,92.06,0,0,0,7.35,9.17.11.11,0,0,0,.18-.1,46.66,46.66,0,0,1-1.37-7.35,7.19,7.19,0,0,1,.26-2.63.11.11,0,0,1,.17,0c.6.61,3.87,3.64,10.17,5.32a56.78,56.78,0,0,0,13.4,2,22.77,22.77,0,0,0,4.76-1.12,13.57,13.57,0,0,1-5.74-3.73.39.39,0,0,1-.06-.29c0-.18.23-.52,2.5-2.38,1.87-1.53,3-2.43,3.48-2.79a.11.11,0,0,0-.07-.19,20.79,20.79,0,0,1-5.82-.94,19.86,19.86,0,0,1-4.62-2.67.1.1,0,0,1,0-.17,15.25,15.25,0,0,0,3.41-3.12,15.34,15.34,0,0,0,2.95-4.27.1.1,0,0,0-.12-.14,15.59,15.59,0,0,1-5.74-.3c-4.32-.8-6.33-2.27-10.39-2.51a14.51,14.51,0,0,0-6.07.88.11.11,0,0,1-.12-.17,8.79,8.79,0,0,0,2.31-3.72,10.3,10.3,0,0,0-.17-4.12.1.1,0,0,0-.19,0c-.41.74-1.74,2.95-3.49,3.57-2.1.74-4.76.69-7.17,1.82-3.16,1.49-4.31,3.31-4.43,3.78a.11.11,0,0,1-.13.08,8.67,8.67,0,0,0-2.36-.36c-.66.11-1.7,3.56-1.81,3.93a.1.1,0,0,1,0,0,4.9,4.9,0,0,1-4.22.22,12.43,12.43,0,0,1-3.19-1.52.11.11,0,0,0-.14.1,4.07,4.07,0,0,0,.52,3c1,1.51,2.92,1.32,1.31,2.84s-5.38,8.76-5.94,9.15a.11.11,0,0,0,0,.18c.52.28,2.2,1.28,2.44,2.5s-.92,5.51-.35,5.65c3.19.77,5.12,6.49,5.57,7,1.08,1.07-.64-1.47-.86-2.82-.29-1.76.94.64,1.75,1.11s-2.36-3.08-1-9,1.79-4.87,1.79-4.87,2.49,1.65,2.59,2.58.6-1.07.86-4a32,32,0,0,0,.17-3.44.11.11,0,0,1,.17-.09,12.43,12.43,0,0,0,2.63,1.71C137.88,85.37,138.26,81.11,138.39,79.26Z"/><path class="cls-3" d="M131.91,74.08c-.16-.52-1.13-5.84-2.79-5.15s-1.75,1.94-.88,3.27S131.91,74.08,131.91,74.08Z"/><ellipse class="cls-5" cx="148.57" cy="103.17" rx="2.76" ry="1.78" transform="translate(26.28 236.44) rotate(-82.24)"/><ellipse class="cls-5" cx="162.92" cy="104.98" rx="2.76" ry="1.61" transform="translate(31.74 247.65) rotate(-80.2)"/><path class="cls-6" d="M158.84,107.75s3.46,2.94,7,3.49-4.73,3.42-4.73,3.42"/><line class="cls-6" x1="157.21" y1="113.64" x2="158.18" y2="114.37"/><path class="cls-6" d="M153.2,118.59s-4.28-.92-6.58-3.94"/><path class="cls-6" d="M128.08,110.23a11.09,11.09,0,0,0-5.15-5.46"/><path class="cls-6" d="M125.86,106.92s-2.42,3,.7,4.94"/><line class="cls-7" x1="153.2" y1="128.91" x2="153.2" y2="131.76"/><path class="cls-8" d="M169.9,169.09s-5.46-32.78-6.5-34.19c-.84-1.13-8.89-3.14-8.89-3.14s.3,12-9.36,11.39c-8.73-.54-15.87-12.6-15.87-12.6s-16.59,2.13-20.66,10.82c-10.68,22.84,3.52,47,3.52,47s2.06,14.47.74,25.75c-.69,5.84,6.06,7.67,6.06,7.67s1.8,1.76,22.59,1.08,23.19-9.14,23.19-9.14l2.93-3.56-2.76-34.55,0,12.21s-1.11-1.71,2.11-3.14a12.88,12.88,0,0,0,6-4.23l-1.87-9.73Z"/><polyline class="cls-1" points="217.26 307.42 203.63 349.84 203.63 364.78 209.67 368.76 206.49 374.17 193.45 374.17 187.72 367.78 190.89 361.92 181.84 343.32 182.95 337.28 189.63 333.94 199.55 252.99"/><path class="cls-1" d="M207,277.54l3.51-.31a2.25,2.25,0,0,0,1.94-2.16l.79-10.67a2.27,2.27,0,0,0-2.11-2.56,2.08,2.08,0,0,1-1.71-1L208,258.8c-2.76-4.18-5.08-7.38-14.62-7.37l-.26,0-78.48,10.08-13.86-47.27,3.35.1a4.83,4.83,0,0,0,4.5-5.26l0-19.4c-.24-2.55-1.63-4.26-4.78-4.86a61.58,61.58,0,0,1-13.07-2.71A26.84,26.84,0,0,1,80,175.36c-2.19-.24-2.38,1.62-1.72,3.72l10.3,32.77,4.6,2.2.72,0L110,270.71l-.08.07a2.5,2.5,0,0,0-.77,2.51l2.57,10.55a2.14,2.14,0,0,0,2.2,1.74l3.88.7-13.69,89.83s.79,1.59,4.46,1.59,3.81-1.59,3.81-1.59l24.53-91.27,57.51-6.22,19.34,98.73a25.2,25.2,0,0,0,3.83.34,4.39,4.39,0,0,0,3.82-2.25Z"/><path class="cls-1" d="M117.9,223.05,115,236a11.89,11.89,0,0,0,1.84,9.32l6.18,8.9a12.6,12.6,0,0,0,10.9,5.38l26.57-1.21,53.75-7.47-5.41,27.68L230.81,354l-5.09,10.5,5.09,7.63H241l3.82,7.95h14.31l4.77-6.36-8.59-1.59-9.54-16.86,1.37-124.34-19.81-17.08-64.4,3.73"/><path class="cls-3" d="M119,271.7s-5.28-10.42-2.8-11.7a13.88,13.88,0,0,1,7.85-1.85,26.09,26.09,0,0,1,5.38,1.48c3.18,2,31.13.11,31.13.11s32.15-5.74,43.73-6.26c4.49-.2,5,3,5.73,4.73a2.39,2.39,0,0,1-1.62,3.26c-5.67,1.43-21.9,5.16-47.87,8.43C127.64,274,119,271.7,119,271.7Z"/><polygon class="cls-9" points="189.85 203.67 183.15 202.17 189.77 196.62 212.75 203.13 209.26 209.86 189.85 203.67"/><path class="cls-1" d="M121.87,201.28a93.19,93.19,0,0,1-4-15.36l18-9.13s3.38,17.27,3.08,19.92l43.76,8.06,5.23-2.86,3.48-1.73,6.34-.78-1.62,3.25L194.66,205l14.6,4.9-11.54,1.61-2.56,3.27-5,1.89-8.64-3L132.35,213,125,210.4Z"/></svg>