<svg id="Lager_1" data-name="Lager 1" xmlns="http://www.w3.org/2000/svg" viewBox="0 0 347.74 403.38"><defs><style>.cls-1,.cls-2,.cls-8{fill:#72bbd0;}.cls-2,.cls-6{stroke:#72bbd0;}.cls-10,.cls-11,.cls-12,.cls-13,.cls-14,.cls-15,.cls-16,.cls-17,.cls-18,.cls-19,.cls-2,.cls-3,.cls-4,.cls-5,.cls-6,.cls-8{stroke-linecap:round;}.cls-10,.cls-12,.cls-13,.cls-14,.cls-15,.cls-16,.cls-17,.cls-18,.cls-19,.cls-2,.cls-3,.cls-4,.cls-6,.cls-8{stroke-linejoin:round;}.cls-2{stroke-width:0.65px;}.cls-3,.cls-9{fill:#fff;}.cls-11,.cls-13,.cls-14,.cls-15,.cls-16,.cls-17,.cls-18,.cls-19,.cls-3,.cls-4,.cls-5,.cls-8{stroke:#191919;}.cls-10,.cls-13,.cls-14,.cls-15,.cls-16,.cls-17,.cls-18,.cls-19,.cls-3,.cls-4,.cls-8{stroke-width:2px;}.cls-10,.cls-11,.cls-12,.cls-13,.cls-14,.cls-15,.cls-16,.cls-17,.cls-18,.cls-19,.cls-4,.cls-5,.cls-6{fill:none;}.cls-11,.cls-5{stroke-miterlimit:10;}.cls-5{stroke-width:1.11px;}.cls-6{stroke-width:1.13px;}.cls-7{fill:#191919;}.cls-10{stroke:#000;}.cls-11{stroke-width:1.16px;}.cls-12{stroke:#71bbcf;stroke-width:3px;}.cls-13{stroke-dasharray:4;}.cls-14{stroke-dasharray:3.88 3.88;}.cls-15{stroke-dasharray:3.93 3.93;}.cls-16{stroke-dasharray:3.98 3.98;}.cls-17{stroke-dasharray:3.82 3.82;}.cls-18{stroke-dasharray:3.61 3.61;}.cls-19{stroke-dasharray:3.04 3.04;}</style></defs><path class="cls-1" d="M121.83,237.55s-7.6-6.11-7.76-9,.52-12.68.52-12.68l3.36-.16-.56,8.91,10,4.79Z"/><path class="cls-2" d="M82.41,203.29l-1.67,6.88a.17.17,0,0,0,.24.19l3.55-2a.17.17,0,0,1,.21,0l2.88,3.35a.18.18,0,0,0,.29-.06l.68-2a.16.16,0,0,0,0-.15L84,203a.16.16,0,0,0-.17-.07l-1.32.24A.21.21,0,0,0,82.41,203.29Z"/><path class="cls-3" d="M129.32,162.7s2.44,7.55,2.47,12.78c0,4.5,5,4.9,5,9.28,0,1.91.83,8.77-2,14.61-3.66,7.58-11.36,14.32-13.51,15.32-3.81,1.78-28.81-1.09-31.1-3.29s-6.75-9.29-6.75-9.29-10.19,2.22-13.59-5.24-1.73-11.66-1.73-11.66a8.4,8.4,0,0,1,8-.27,7.87,7.87,0,0,1,4.21,4.58"/><path class="cls-4" d="M136.92,190s5-1.91,5.1-11c.1-9.46-4.9-10.37-4.9-10.37s-3.84,1.39-5.48,4.57"/><path class="cls-5" d="M82.38,196.11a13.11,13.11,0,0,0-4.87-4.93c-3.49-2.08-6-1.24-6-1.24"/><path class="cls-5" d="M78.22,197.53a4.26,4.26,0,0,1-1.83-2.75,4.41,4.41,0,0,1,.29-3.26"/><path class="cls-5" d="M117.55,185.33a38.54,38.54,0,0,0,6.09,1.41c1.71,0-5,4.59-5,4.59"/><path class="cls-5" d="M115.22,191.51s0-.75-1.24-1.09-1.55.29-1.55.29"/><path class="cls-6" d="M92.88,183a10.87,10.87,0,0,0-2.42-.12,6.2,6.2,0,0,0-2.64.58"/><path class="cls-6" d="M93.18,185.75a6.07,6.07,0,0,0-1.93.21,9.71,9.71,0,0,0-1.87.83"/><path class="cls-1" d="M101.68,168.17c.45.55.46,4-.2,4.25s-3.15-.62-5.54-.26c-3.73.57-5.38,2.16-5.75,1s1.75-4.66,4.57-5.46S101.13,167.5,101.68,168.17Z"/><path class="cls-1" d="M118,166c-.4.59-.1,4,.58,4.22s3.08-.9,5.49-.75c3.77.23,5.55,1.67,5.82.51s-2.16-4.49-5-5S118.44,165.33,118,166Z"/><path class="cls-5" d="M138,174.46s-3.67.76-5,3.06l-.4.68"/><path class="cls-5" d="M136.11,181.37a4.31,4.31,0,0,0-2.38-4.26"/><circle class="cls-7" cx="81.71" cy="199.31" r="1.24"/><path class="cls-2" d="M87.59,154.32a.14.14,0,0,1,.27-.09,35.49,35.49,0,0,0,7,9.92,125.85,125.85,0,0,0,12.68,10,.15.15,0,0,0,.21-.19c-.85-1.66-3.46-6.86-4.1-9.43a10.3,10.3,0,0,1-.47-3.62.15.15,0,0,1,.22-.1c1,.63,6.32,3.69,15.28,4a74,74,0,0,0,18.45-2,.15.15,0,0,0,0-.29c-1.48-.08-4.15-.37-5.57-1.4a7,7,0,0,1-2.24-2.26.14.14,0,0,1,.07-.19c.77-.39,5.09-2.65,7.56-5.84,2-2.63,3.29-4.19,3.8-4.82a.14.14,0,0,0-.14-.23,28.13,28.13,0,0,1-8.1.53,27.13,27.13,0,0,1-7-2.15.15.15,0,0,1,0-.25,21.18,21.18,0,0,0,3.62-5.23,21.37,21.37,0,0,0,2.64-6.63.15.15,0,0,0-.21-.16c-.68.32-2.91,1.17-7.79,1.38-6,.25-9.18-1.11-14.71-.18a19.79,19.79,0,0,0-7.87,3.05.14.14,0,0,1-.21-.19,12,12,0,0,0,2-5.7,14.18,14.18,0,0,0-1.49-5.47.14.14,0,0,0-.27,0c-.32,1.12-1.42,4.49-3.57,5.86-2.59,1.65-6.17,2.39-9.07,4.66-3.77,3-4.76,5.76-4.77,6.43a.15.15,0,0,1-.15.14,11.55,11.55,0,0,0-3.28.25c-.85.34-1.19,5.29-1.23,5.82a.1.1,0,0,1,0,.08c-.25.27-1.94,1.9-5.6,1.6a17.11,17.11,0,0,1-4.73-1.06.15.15,0,0,0-.16.18,5.6,5.6,0,0,0,1.61,3.84c1.77,1.72,4.32.86,2.63,3.4s-4.52,13.4-5.15,14.1a.15.15,0,0,0,.07.24c.78.22,3.33,1,4,2.6.79,1.75,1.42,8.78,1.49,9.58,0,.05,7,7.76,8.89,8.25s-.75-1.15-1.52-6c-.38-2.42,1.46.57,2.69,1s-4.11-3.41-4-11.72.9-7.09.9-7.09,3.85,1.46,4.27,2.67.47-1.62-.1-5.7a41.2,41.2,0,0,0-.83-4.66.14.14,0,0,1,.2-.17,17.18,17.18,0,0,0,4.06,1.47C88.78,162.66,88,156.84,87.59,154.32Z"/><path class="cls-2" d="M76.74,147.87c-.37-.64-3.31-7.49-5.32-6.05s-1.76,3.14-.18,4.65S76.74,147.87,76.74,147.87Z"/><path class="cls-4" d="M86.31,221.74s6.18-.76,7.26-1.51-.27-7.71-.27-7.71"/><path class="cls-4" d="M118,215.72s-1.54,7.8-.56,8.91,6.92,2.43,6.92,2.43"/><path class="cls-4" d="M45.85,288.35l-4.43,31.24s6.8,3.35,12,3.24c7.24-.16,10.78-2.22,10.89-1.58l5.86-29.39"/><path class="cls-8" d="M70.14,291.86c.39,10.91,1.2,23.84,1.2,23.84s1.37,2.87,27.87,3.78c26.32.9,32.36-.65,32.36-.65l7.22-31.06"/><path class="cls-2" d="M50.33,270c1.91,1,21.76,25.57,24,25.5s64-7.68,64-7.68L133,242.44,130.53,231,97.72,254.18Z"/><path class="cls-8" d="M135.88,230.08c-4-1.5-11.44-4.14-11.44-4.14S122,242.68,106.88,240s-21-18-21-18-26.25,8-28.79,9.73-18.06,40.93-18.06,40.93l-2.93,1.12s-1.13,9.59-.87,10.56,7,3.22,13.78,4.81c9.06,2.13,24.58,2.78,24.58,2.78s2.75-7.69,1.47-9.39c-.76-1-2.08-3.21-2.08-3.21l2-8.48"/><polygon class="cls-9" points="135.72 224.67 140.22 234.95 131.05 233.22 130.53 227.04 135.72 224.67"/><path class="cls-10" d="M39.06,272.65a27.8,27.8,0,0,0,11.12,6.78C60.43,282.58,74.11,282,74.11,282"/><ellipse class="cls-7" cx="98.95" cy="182.9" rx="2.45" ry="3.79" transform="translate(-16.02 9.62) rotate(-5.15)"/><ellipse class="cls-7" cx="126.1" cy="180.45" rx="2.22" ry="3.79" transform="translate(-9.62 7.12) rotate(-3.11)"/><path class="cls-3" d="M143,215.25l4.14-7.06L146,185.31a2.1,2.1,0,0,0-2.49-1.95l-11.18,2.19a2.09,2.09,0,0,0-1.68,2.17l1.87,34,3.38-2.09"/><path class="cls-4" d="M132.5,221.74l3.38-2.09V204.76a52,52,0,0,1-1-8.65c.09-3.26,3.87-4.67,3.87-4.67s3.14,10.63,3.23,11.48,1,12.8,1,12.8l5.54-10.14,2.1,2.9v5.38l2.86,3.27.07,6.28c-.43,1.88-5.8,13.3-5.8,13.3,0,.83,18.09,55.31,18.59,61.16s-12.12,27.4-12.12,27.4-8.09,2.27-9.44.47-9.89-19-9.89-19"/><path class="cls-3" d="M143,307.92s-3-6.87-3.28-11.5c-.13-2.59-6.28-54-6.28-54l-7.35-15.91s.3-8.19,0-9.4,4.43-5.33,4.43-5.33"/><path class="cls-11" d="M106.21,200.48s3.34,1.28,9.67,1.28"/><path class="cls-12" d="M165,179.6S262.72,130,300,236.17"/><polyline class="cls-12" points="287.94 232.91 301.32 238.36 304.55 224.37"/><polyline class="cls-12" points="167.95 167.78 161.65 180.78 175.41 184.89"/><polyline class="cls-13" points="301.35 255.62 321 252.69 331.44 268.74 288.88 278.18 285.19 267.86"/><line class="cls-4" x1="160.64" y1="277.33" x2="162.6" y2="277.74"/><polyline class="cls-14" points="166.4 278.53 210.99 287.77 231.66 290.93 270.5 279.95"/><line class="cls-4" x1="272.36" y1="279.42" x2="274.29" y2="278.88"/><line class="cls-4" x1="272.06" y1="262.9" x2="270.07" y2="263.04"/><polyline class="cls-15" points="266.15 263.33 233.55 265.71 215.77 265.43 153.68 244.81"/><line class="cls-4" x1="151.81" y1="244.19" x2="149.92" y2="243.56"/><line class="cls-4" x1="297.96" y1="278.08" x2="299.96" y2="277.99"/><path class="cls-16" d="M303.93,277.8l2.48-.12s5.07-4.76,7.95-5.26a4.78,4.78,0,0,1,3.95.94.47.47,0,0,1,0,.72l-10.19,8.57-12,2.21-8.1-.57a16.14,16.14,0,0,1-8.31-3l-1.77-.78"/><line class="cls-4" x1="276.12" y1="279.68" x2="274.29" y2="278.88"/><line class="cls-4" x1="272.06" y1="262.9" x2="273.83" y2="261.96"/><path class="cls-17" d="M277.21,260.18l7.17-3.79a3.43,3.43,0,0,1,1.86-1.08l6.78-2.22a4.2,4.2,0,0,1,2.14-.07l1.38.18"/><path class="cls-4" d="M298.43,253.45l2,.26a6.07,6.07,0,0,1-.56,1.9"/><path class="cls-18" d="M297.21,257.91a5.84,5.84,0,0,1-2.85,0l-2.23,1.19"/><path class="cls-4" d="M290.53,259.92l-1.76.94a4,4,0,0,1,.11,2"/><path class="cls-19" d="M288.28,265.82c-.06.19-.11.38-.17.58a15.44,15.44,0,0,1-2.69,2.87"/><path class="cls-4" d="M284.29,270.3l-1.5,1.33"/></svg>