<?xml version="1.0" encoding="utf-8"?>
<!-- Generator: Adobe Illustrator 25.2.1, SVG Export Plug-In . SVG Version: 6.00 Build 0)  -->
<svg version="1.1" id="Lager_1" xmlns="http://www.w3.org/2000/svg" xmlns:xlink="http://www.w3.org/1999/xlink" x="0px" y="0px"
	 viewBox="0 0 750 726" style="enable-background:new 0 0 750 726;" xml:space="preserve">
<style type="text/css">
	.st0{fill:#FFFFFF;stroke:#191919;stroke-width:5.448;stroke-miterlimit:10;}
	.st1{fill:#75BFCB;}
	.st2{fill:none;stroke:#FFFFFF;stroke-width:3.1266;stroke-miterlimit:10;}
	.st3{fill:none;stroke:#75BFCB;stroke-width:6.2531;stroke-linecap:round;stroke-linejoin:round;stroke-miterlimit:10;}
	.st4{fill:#FFFFFF;stroke:#191919;stroke-width:5.2337;stroke-miterlimit:10;}
	.st5{fill:none;stroke:#75BFCB;stroke-width:4.187;stroke-linecap:round;stroke-miterlimit:10;}
	.st6{fill:none;stroke:#191919;stroke-width:5.2337;stroke-linejoin:round;stroke-miterlimit:10;}
	.st7{fill:#FFFFFF;stroke:#191919;stroke-width:5.2337;stroke-linecap:round;stroke-miterlimit:10;}
	.st8{fill:none;stroke:#75BFCB;stroke-width:12.5609;stroke-linecap:round;stroke-miterlimit:10;}
	.st9{fill:#FFFFFF;stroke:#191919;stroke-width:5.2337;stroke-linecap:round;stroke-linejoin:round;stroke-miterlimit:10;}
	.st10{fill:none;stroke:#191919;stroke-width:4.9604;stroke-linecap:round;stroke-linejoin:round;stroke-miterlimit:10;}
	.st11{fill:none;stroke:#191919;stroke-width:3.5509;stroke-linecap:round;stroke-linejoin:round;stroke-miterlimit:10;}
	.st12{fill:none;stroke:#FFFFFF;stroke-width:3.0516;stroke-miterlimit:10;}
	.st13{fill:none;stroke:#75BFCB;stroke-width:6.1033;stroke-linecap:round;stroke-linejoin:round;stroke-miterlimit:10;}
	.st14{fill:none;stroke:#191919;stroke-width:5.2337;stroke-linecap:round;stroke-linejoin:round;stroke-miterlimit:10;}
	.st15{fill:#449298;}
	.st16{fill:none;stroke:#FFFFFF;stroke-width:7.1017;stroke-linecap:round;stroke-linejoin:round;stroke-miterlimit:10;}
	.st17{fill:#71BBCD;}
	.st18{fill:#B6DCE2;}
	.st19{fill:none;stroke:#75BFCB;stroke-width:10.4674;stroke-linecap:round;stroke-linejoin:round;stroke-miterlimit:10;}
</style>
<g>
	<path class="st0" d="M62.24,402.7c0,0,148.97-89.58,166.04-109.24c17.07-19.66,77.05-126.12,98.87-135.17s22.97,13.91,37.34,16.68
		c14.38,2.77,20.46-11,35.67-6.2c15.21,4.81,10.86,30.7,13.27,32.5c2.41,1.8,22.73,1.04,26.95,7.96c4.22,6.92-0.73,24.84,1.38,28.3
		s24.46,12.72,23.28,27.3c-1.18,14.58-6.91,15.51-11.79,30.19s-12.61,39.45-20.13,46.98s-108.73,36.58-132.95,51.35
		C275.94,408.13,133.7,546.03,133.7,546.03s-34.62-25.4-52.52-70.81C65.48,435.4,62.24,402.7,62.24,402.7z"/>
	<path class="st1" d="M318.34,380.34l-27.8,26.38c-2.5,2.37-6.48,2.26-8.85-0.23l-84.8-89.36c-2.37-2.5-2.26-6.48,0.23-8.85
		l27.8-26.38c2.5-2.37,6.48-2.26,8.85,0.23l84.8,89.36C320.94,373.99,320.83,377.97,318.34,380.34z"/>
	
		<ellipse transform="matrix(0.8363 -0.5483 0.5483 0.8363 -155.8346 215.2955)" class="st2" cx="282.58" cy="368.58" rx="13.04" ry="16.23"/>
	<path class="st1" d="M181,324.67c0,0,3.29-29.51,18.86-37.12c15.57-7.61,28.75,1.78,28.75,1.78l-21.47,21.77l-4.38-0.2L181,324.67z
		"/>
	<path class="st1" d="M266.68,425.02c0,0,29.13,5.75,41.08-6.8c11.95-12.56,5.26-41.42,5.26-41.42l-25.88,22.86l0.62,4.94
		L266.68,425.02z"/>
	<path class="st3" d="M123.53,529.48c1.64-18.52-51.68-116.53-31.91-124.87c19.77-8.34,62.28,74.27,76.96,75.38
		c14.68,1.12-35.14-91.19-19.57-102.57c15.57-11.38,47.39,60.4,63.94,55.87s2.59-30.62,2.59-30.62"/>
	<path class="st4" d="M402.57,523.35c0,0-62.71-13-69.16-19.29c-2.08-2.03-1.94-17.67,21.02-27.48
		c25.77-11.01,103.49,8.12,103.49,8.12"/>
	<path class="st1" d="M346.04,489.1c6.51-2.42,18.74-0.33,23.71,4.39s-2.6,19.15-2.6,19.15s-24.49-4.68-29.35-7.53
		C331.18,501.23,341.22,490.89,346.04,489.1z"/>
	<g>
		<path class="st5" d="M304.48,308.11c11.01-8.97,27.2-7.32,36.17,3.69"/>
		<path class="st5" d="M298.04,300.91c15.14-12.34,37.41-10.06,49.75,5.08"/>
	</g>
	<path class="st6" d="M402.57,523.35c0,0,75.39,27.73,87.43,27.98c7.52,0.16,79.44,3.61,79.44,3.61
		c36.16,28.58,54.8,47.42,54.8,47.42s36.6-28.1,51.5-60.2s12.04-39.83,12.04-39.83l-68.96-35.73c0,0-64.17-106.87-74.36-113.7
		c-6.45-4.32-61.34-34.57-61.34-34.57s-13.76-1.59-20.64,2.48c-6.88,4.07-8.6,9.23-8.6,9.23"/>
	<path class="st7" d="M497.45,350.11c0,0-49.5-26.37-60.01-22.36c-10.51,4.01-15.67,16.63-15.67,16.63"/>
	<path class="st7" d="M477.96,369.03c0,0-52.74-28.66-64.78-26.94s-17.94,19.18-17.94,19.18"/>
	<path class="st7" d="M481.4,501.85l-40.7-31.36l-34.83-45.4c0,0-15.34-10.89-21.52-14.76c-6.18-3.87-53.83-27.87-66.67-54.86
		c-12.79-26.9,1.21-42.56,8.69-35.41c7.04,6.72,131.66,82.81,131.66,82.81"/>
	<path class="st1" d="M317.97,334.84c2.1,5.08,9.9,11.06,15.32,11.39s9.72-11.82,9.72-11.82s-15.91-11.69-20.18-12.98
		C317.01,319.69,316.41,331.08,317.97,334.84z"/>
</g>
</svg>
