<?xml version="1.0" encoding="utf-8"?>
<!-- Generator: Adobe Illustrator 25.2.1, SVG Export Plug-In . SVG Version: 6.00 Build 0)  -->
<svg version="1.1" id="Lager_1" xmlns="http://www.w3.org/2000/svg" xmlns:xlink="http://www.w3.org/1999/xlink" x="0px" y="0px"
	 viewBox="0 0 750 726" style="enable-background:new 0 0 750 726;" xml:space="preserve">
<style type="text/css">
	.st0{fill:#FFFFFF;stroke:#191919;stroke-width:5.448;stroke-miterlimit:10;}
	.st1{fill:#75BFCB;}
	.st2{fill:none;stroke:#FFFFFF;stroke-width:3.1266;stroke-miterlimit:10;}
	.st3{fill:none;stroke:#75BFCB;stroke-width:6.2531;stroke-linecap:round;stroke-linejoin:round;stroke-miterlimit:10;}
	.st4{fill:#FFFFFF;stroke:#191919;stroke-width:5.2337;stroke-miterlimit:10;}
	.st5{fill:none;stroke:#75BFCB;stroke-width:4.187;stroke-linecap:round;stroke-miterlimit:10;}
	.st6{fill:none;stroke:#191919;stroke-width:5.2337;stroke-linejoin:round;stroke-miterlimit:10;}
	.st7{fill:#FFFFFF;stroke:#191919;stroke-width:5.2337;stroke-linecap:round;stroke-miterlimit:10;}
	.st8{fill:none;stroke:#75BFCB;stroke-width:12.5609;stroke-linecap:round;stroke-miterlimit:10;}
	.st9{fill:#FFFFFF;stroke:#191919;stroke-width:5.2337;stroke-linecap:round;stroke-linejoin:round;stroke-miterlimit:10;}
	.st10{fill:none;stroke:#191919;stroke-width:4.9604;stroke-linecap:round;stroke-linejoin:round;stroke-miterlimit:10;}
	.st11{fill:none;stroke:#191919;stroke-width:3.5509;stroke-linecap:round;stroke-linejoin:round;stroke-miterlimit:10;}
	.st12{fill:none;stroke:#FFFFFF;stroke-width:3.0516;stroke-miterlimit:10;}
	.st13{fill:none;stroke:#75BFCB;stroke-width:6.1033;stroke-linecap:round;stroke-linejoin:round;stroke-miterlimit:10;}
	.st14{fill:none;stroke:#191919;stroke-width:5.2337;stroke-linecap:round;stroke-linejoin:round;stroke-miterlimit:10;}
	.st15{fill:#449298;}
	.st16{fill:none;stroke:#FFFFFF;stroke-width:7.1017;stroke-linecap:round;stroke-linejoin:round;stroke-miterlimit:10;}
	.st17{fill:#71BBCD;}
	.st18{fill:#B6DCE2;}
	.st19{fill:none;stroke:#75BFCB;stroke-width:10.4674;stroke-linecap:round;stroke-linejoin:round;stroke-miterlimit:10;}
</style>
<g>
	<g>
		<path class="st8" d="M441.25,159.08c-23.2-9.19-49.45,2.16-58.64,25.36"/>
		<path class="st8" d="M449.77,137.57c-34.61-13.71-73.77,3.22-87.48,37.83"/>
		<path class="st8" d="M460.16,114.49c-47.59-18.86-101.44,4.43-120.3,52.03"/>
		<path class="st8" d="M441.25,159.08c-23.2-9.19-49.45,2.16-58.64,25.36"/>
	</g>
	<path class="st9" d="M584.19,426.54l-97.98-9.95c-10.96-1.11-18.95-10.9-17.75-22.71l2.34-23.06"/>
	<path class="st9" d="M474.4,335.33l18.57-182.91c1.11-10.96,10.9-18.95,21.87-17.84l101.33,10.29
		c10.96,1.11,18.95,10.9,17.84,21.87l-13.85,120.52"/>
	
		<rect x="542.84" y="141.76" transform="matrix(0.9949 0.101 -0.101 0.9949 17.4542 -56.4227)" class="st10" width="45.93" height="4.72"/>
	<circle class="st11" cx="539.41" cy="396.76" r="11.18"/>
	<g>
		<path class="st4" d="M47.32,450.37c0,0,143.67-90.26,159.95-109.76c16.28-19.51,72.78-124.54,93.9-133.79s22.68,13.13,36.76,15.57
			c14.08,2.43,19.76-11.13,34.69-6.73c14.93,4.4,11.18,29.75,13.57,31.47s22.2,0.58,26.45,7.25c4.25,6.67-0.24,24.25,1.88,27.59
			s24.11,11.95,23.23,26.2c-0.87,14.25-6.45,15.27-10.93,29.68c-4.48,14.42-11.56,38.73-18.75,46.23
			c-7.2,7.49-105.4,37.77-128.76,52.65c-23.36,14.87-159.53,152.15-159.53,152.15s-34.27-24.13-52.6-68.1
			C51.1,482.22,47.32,450.37,47.32,450.37z"/>
		<path class="st1" d="M296.7,423.77l-26.42,26.06c-2.45,2.42-6.43,2.39-8.85-0.06L177.2,364.4c-2.42-2.45-2.39-6.43,0.06-8.85
			l26.42-26.06c2.45-2.42,6.43-2.39,8.85,0.06l84.24,85.38C299.18,417.37,299.15,421.35,296.7,423.77z"/>
		
			<ellipse transform="matrix(0.8254 -0.5645 0.5645 0.8254 -187.396 219.8241)" class="st12" cx="261.7" cy="412.88" rx="12.73" ry="15.84"/>
		<path class="st1" d="M161.72,371.96c0,0,2.65-28.86,17.7-36.58s28.09,1.19,28.09,1.19l-20.54,21.65l-4.28-0.11L161.72,371.96z"/>
		<path class="st1" d="M247.25,468.26c0,0,28.53,5.06,39.96-7.42c11.42-12.48,4.34-40.52,4.34-40.52l-24.82,22.8l0.7,4.8
			L247.25,468.26z"/>
		<path class="st13" d="M109.55,572.92c1.25-18.1-52.66-112.73-33.52-121.24c19.13-8.51,62.19,71.29,76.54,72.1
			c14.34,0.81-36.03-88.32-21.05-99.72s47.39,58.04,63.46,53.3c16.07-4.73,1.95-29.93,1.95-29.93"/>
	</g>
	<path class="st14" d="M476.05,302.53c0,0-35.01-40.36-27.53-53.9c11.59-20.97,34.51,6.66,34.51,6.66l2.98-29.39
		c0,0-18.41-26.42-16.11-38.56c3.74-19.78,19.3-7.58,19.3-7.58"/>
	<path class="st14" d="M573.1,470.91c0,0,1.01-14.67,7.59-32.91c7.66-21.26,22.93-31.33,27.37-49.24
		c2.97-11.98,1.43-76.97,6.41-91.94c3.27-9.81,14.09-18.08,21.15-22.61c2.95-1.89,6.86-0.09,7.32,3.38
		c2.61,19.96,10.08,75.85,13.58,89.07c4.28,16.16,2.14,109.04,2.14,109.04l27.79,66.28c0,0-21.38,32.07-48.64,43.83
		c-21.15,9.12-60.25,5.35-60.25,5.35l-21.52-70.55c0,0-48.87-24.23-66.22-46.32c-10.73-13.67-41.73-74.88-44.22-93.04
		c-1.46-10.61-0.78-30.07,2.24-34.88c3.77-6.01,37.82-13.57,42.09-13.57s4.57,10.64,0.29,22.26c-4.28,11.62-27.19,18.58-27.19,18.58
		"/>
	<path class="st15" d="M603.73,296L603.73,296c-0.22,2.19-2.18,3.78-4.36,3.56l-17.05-1.73c-1.89-0.19-3.39-1.7-3.56-3.61l-3-33.76
		c0-0.04-0.06-0.05-0.08-0.01l-22.95,53.25c-0.64,1.69-2.34,2.72-4.12,2.54l-0.12-0.01c-1.83-0.25-3.26-1.72-3.43-3.56l-9.89-72.42
		c-0.01-0.04-0.06-0.05-0.08-0.01l-17.22,48c-0.62,1.72-2.33,2.8-4.15,2.61l-17.5-1.78c-2.03-0.21-3.71-1.85-3.75-3.89
		c-0.05-2.43,2.03-4.29,4.38-4.05l14.53,1.48c0.02,0,0.04-0.01,0.04-0.03l22.19-61.85c0.63-1.75,2.39-2.84,4.24-2.61
		c1.85,0.23,3.29,1.71,3.47,3.57l9.97,73.26c0.01,0.04,0.06,0.05,0.08,0.01l23.09-53.61c0.66-1.74,2.43-2.79,4.27-2.52
		c1.83,0.26,3.25,1.74,3.42,3.59l4.24,47.78c0,0.02,0.02,0.03,0.04,0.04l13.75,1.4C602.35,291.85,603.95,293.81,603.73,296z"/>
	<path class="st1" d="M631.4,280.04c0,0-0.6,20.4,2.71,22.5c3.31,2.09,9.86,0.93,9.86,0.93s0.52-21.78-2.07-27.94
		C640.78,272.84,631.4,280.04,631.4,280.04z"/>
	<path class="st1" d="M470.39,339.9c0,0-1.34,8.94,0.8,10.55s16.78-2.53,18.01-4.13s2.94-8.61,0.96-10.99
		C488.19,332.95,470.39,339.9,470.39,339.9z"/>
</g>
</svg>
