<?xml version="1.0" encoding="utf-8"?>
<!-- Generator: Adobe Illustrator 25.2.3, SVG Export Plug-In . SVG Version: 6.00 Build 0)  -->
<svg version="1.1" id="Lager_1" xmlns="http://www.w3.org/2000/svg" xmlns:xlink="http://www.w3.org/1999/xlink" x="0px" y="0px"
	 viewBox="0 0 750 907.77" style="enable-background:new 0 0 750 907.77;" xml:space="preserve">
<style type="text/css">
	.st0{fill:#71BBCD;}
	.st1{fill:#B6DCE2;}
	.st2{fill:none;stroke:#75BFCB;stroke-width:10.4674;stroke-linecap:round;stroke-linejoin:round;stroke-miterlimit:10;}
	.st3{fill:#75BFCB;}
	.st4{fill:#95CFDB;}
	.st5{fill:#FFFFFF;stroke:#191919;stroke-width:5.7315;stroke-linecap:round;stroke-linejoin:round;stroke-miterlimit:10;}
	.st6{fill:none;stroke:#191919;stroke-width:5.7315;stroke-linecap:round;stroke-linejoin:round;stroke-miterlimit:10;}
	.st7{fill:none;stroke:#191919;stroke-width:3.821;stroke-linecap:round;stroke-miterlimit:10;}
	.st8{fill:none;stroke:#75BFCB;stroke-width:3.8919;stroke-linecap:round;stroke-linejoin:round;stroke-miterlimit:10;}
	.st9{fill:#191919;}
	.st10{fill:#75BFCB;stroke:#191919;stroke-width:5.7315;stroke-linecap:round;stroke-linejoin:round;stroke-miterlimit:10;}
	.st11{fill:none;stroke:#000000;stroke-width:3.8919;stroke-linecap:round;stroke-linejoin:round;stroke-miterlimit:10;}
	.st12{fill:#FFFFFF;stroke:#75BFCB;stroke-width:6.2911;stroke-linecap:round;stroke-linejoin:round;stroke-miterlimit:10;}
	.st13{fill:none;stroke:#75BFCB;stroke-width:6.2911;stroke-linecap:round;stroke-linejoin:round;stroke-miterlimit:10;}
	.st14{fill:none;stroke:#000000;stroke-width:3.821;stroke-linecap:round;stroke-miterlimit:10;}
	.st15{fill:none;stroke:#191919;stroke-width:5.2585;stroke-linecap:round;stroke-miterlimit:10;}
	.st16{fill:#FFFFFF;stroke:#191919;stroke-width:5.6619;stroke-linecap:round;stroke-linejoin:round;stroke-miterlimit:10;}
	.st17{fill:#FFFFFF;}
	.st18{fill:none;stroke:#75BFCB;stroke-width:3.4061;stroke-linecap:round;stroke-linejoin:round;stroke-miterlimit:10;}
	.st19{fill:#191919;stroke:#191919;stroke-width:3.6269;stroke-linecap:round;stroke-linejoin:round;stroke-miterlimit:10;}
	.st20{fill:none;stroke:#75BFCB;stroke-width:15.6441;stroke-linecap:round;stroke-linejoin:round;stroke-miterlimit:10;}
	.st21{fill:#FFFFFF;stroke:#75BFCB;stroke-width:3.2288;stroke-linecap:round;stroke-linejoin:round;stroke-miterlimit:10;}
	.st22{fill:none;stroke:#FFFFFF;stroke-width:3.8571;stroke-linecap:round;stroke-linejoin:round;stroke-miterlimit:10;}
	.st23{fill:#75BFCB;stroke:#75BFCB;stroke-width:4.0128;stroke-linecap:round;stroke-linejoin:round;stroke-miterlimit:10;}
	.st24{fill:#FFFFFF;stroke:#75BFCB;stroke-width:3.499;stroke-linecap:round;stroke-linejoin:round;stroke-miterlimit:10;}
	.st25{fill:#FFFFFF;stroke:#75BFCB;stroke-width:3.3553;stroke-linecap:round;stroke-linejoin:round;stroke-miterlimit:10;}
	.st26{fill:#FFFFFF;stroke:#75BFCB;stroke-width:2.8123;stroke-linecap:round;stroke-linejoin:round;stroke-miterlimit:10;}
	.st27{fill:#FFFFFF;stroke:#191919;stroke-width:4.8468;stroke-linecap:round;stroke-linejoin:round;stroke-miterlimit:10;}
	.st28{fill:none;stroke:#191919;stroke-width:5.4167;stroke-linecap:round;stroke-linejoin:round;stroke-miterlimit:10;}
	.st29{fill:#449298;}
	.st30{fill:#FFFFFF;stroke:#191919;stroke-width:5.2425;stroke-linecap:round;stroke-linejoin:round;stroke-miterlimit:10;}
	.st31{fill:none;stroke:#E83C4B;stroke-width:10.4998;stroke-linecap:round;stroke-linejoin:round;stroke-miterlimit:10;}
	.st32{fill:none;stroke:#191919;stroke-width:5.8589;stroke-linecap:round;stroke-linejoin:round;stroke-miterlimit:10;}
	.st33{fill:none;stroke:#191919;stroke-width:4.194;stroke-linecap:round;stroke-linejoin:round;stroke-miterlimit:10;}
	.st34{fill:#75BFCB;stroke:#75BFCB;stroke-width:6.4964;stroke-linecap:round;stroke-linejoin:round;stroke-miterlimit:10;}
	.st35{fill:none;stroke:#FFFFFF;stroke-width:6.4964;stroke-linecap:round;stroke-linejoin:round;stroke-miterlimit:10;}
	.st36{fill:none;stroke:#FFFFFF;stroke-width:1.9602;stroke-linecap:round;stroke-linejoin:round;stroke-miterlimit:10;}
	.st37{fill:#FFFFFF;stroke:#75BFCB;stroke-width:5.2271;stroke-linecap:round;stroke-linejoin:round;stroke-miterlimit:10;}
	.st38{fill:none;stroke:#FFFFFF;stroke-width:6.2443;stroke-linecap:round;stroke-linejoin:round;stroke-miterlimit:10;}
	.st39{fill:#FFFFFF;stroke:#75BFCB;stroke-width:5.6645;stroke-linecap:round;stroke-linejoin:round;stroke-miterlimit:10;}
	.st40{fill:#FFFFFF;stroke:#75BFCB;stroke-width:5.4319;stroke-linecap:round;stroke-linejoin:round;stroke-miterlimit:10;}
	.st41{fill:#FFFFFF;stroke:#75BFCB;stroke-width:4.5528;stroke-linecap:round;stroke-linejoin:round;stroke-miterlimit:10;}
	.st42{fill:#FFFFFF;stroke:#75BFCB;stroke-width:3.8414;stroke-linecap:round;stroke-linejoin:round;stroke-miterlimit:10;}
	.st43{fill:none;stroke:#FFFFFF;stroke-width:4.5889;stroke-linecap:round;stroke-linejoin:round;stroke-miterlimit:10;}
	.st44{fill:#75BFCB;stroke:#75BFCB;stroke-width:4.7742;stroke-linecap:round;stroke-linejoin:round;stroke-miterlimit:10;}
	.st45{fill:#FFFFFF;stroke:#75BFCB;stroke-width:4.1628;stroke-linecap:round;stroke-linejoin:round;stroke-miterlimit:10;}
	.st46{fill:#FFFFFF;stroke:#75BFCB;stroke-width:3.9919;stroke-linecap:round;stroke-linejoin:round;stroke-miterlimit:10;}
	.st47{fill:#FFFFFF;stroke:#75BFCB;stroke-width:3.3459;stroke-linecap:round;stroke-linejoin:round;stroke-miterlimit:10;}
	.st48{fill:none;stroke:#75BFCB;stroke-width:5;stroke-linecap:round;stroke-linejoin:round;stroke-miterlimit:10;}
	.st49{fill:none;stroke:#FFFFFF;stroke-width:4;stroke-linecap:round;stroke-linejoin:round;stroke-miterlimit:10;}
	.st50{fill:none;stroke:#191919;stroke-width:4.0754;stroke-linecap:round;stroke-miterlimit:10;}
</style>
<path class="st3" d="M224.58,615.73c6.42,3.91,32.5,135.27,40.34,135.44c7.84,0.18,238.9-58.16,238.9-58.16l-30.9-136.27
	L224.58,615.73z"/>
<path class="st4" d="M437.13,528.22c0,0-25.14-22.39-25.18-32.33c-0.04-9.94,3.96-43.61,3.96-43.61h11.61l-3.45,30.64l33.73,18.25
	L437.13,528.22z"/>
<path class="st3" d="M307.18,403.29l-6.96,23.43c-0.14,0.48,0.36,0.91,0.81,0.68l12.58-6.26c0.25-0.12,0.55-0.05,0.71,0.16
	l9.35,12.04c0.27,0.35,0.83,0.27,0.99-0.14l2.72-6.93c0.07-0.17,0.05-0.36-0.05-0.52l-14.52-23.23c-0.12-0.19-0.34-0.3-0.57-0.27
	l-4.6,0.62C307.43,402.91,307.24,403.07,307.18,403.29z"/>
<path class="st5" d="M475.91,271.51c0,0,7.11,26.43,6.3,44.46c-0.69,15.52,16.26,17.76,15.73,32.88
	c-0.23,6.58,1.36,30.36-9.37,49.99c-13.93,25.5-41.66,47.4-49.25,50.49c-13.44,5.47-99.12-8.75-106.64-16.75
	c-7.52-8.01-21.65-33.16-21.65-33.16s-35.51,5.86-45.93-20.44c-10.42-26.3-3.96-40.49-3.96-40.49s13.43-7.79,27.66,0.46
	c11.88,6.88,13.72,16.51,13.72,16.51"/>
<path class="st6" d="M491.56,370.31c0,0,22.8-7.91,25.31-40.46s-15.1-36.59-15.1-36.59s-13.49,4.13-19.69,14.8"/>
<path class="st7" d="M308.32,378.52c0,0-4.26-10.06-15.93-17.83c-11.68-7.77-20.37-5.31-20.37-5.31"/>
<path class="st7" d="M293.74,382.7c-0.8-1.14-4.53-2.57-5.83-9.8c-1.3-7.23,1.56-11.16,1.56-11.16"/>
<path class="st7" d="M429.74,338.99c0,0,14.9,5.4,20.77,5.9c5.87,0.5-17.95,14.99-17.95,14.99"/>
<path class="st7" d="M420.64,359.87c0,0-0.02-2.57-4.08-3.96c-4.05-1.39-5.38,0.73-5.38,0.73"/>
<path class="st8" d="M345.47,334.67c0,0-2.57-0.67-8.35-0.69c-5.92-0.02-9.18,1.65-9.18,1.65"/>
<path class="st8" d="M345.09,342.18c-1.29-0.25-3.4-0.14-6.69,0.41c-2.38,0.4-5.84,2.26-6.58,2.53"/>
<path class="st3" d="M363.8,270.88c2.06,1.29,5.95,12.57,4.06,14.11c-1.88,1.54-10.99,1.46-18.41,5.3
	c-11.57,5.99-15.19,13.01-17.63,9.73s0.54-17.18,8.86-22.9S361.27,269.3,363.8,270.88z"/>
<path class="st3" d="M434.22,264.75c-1.37,2.01-0.4,13.9,1.94,14.56c2.34,0.65,10.65-3.07,18.99-2.53c13,0.85,19.14,5.83,20.05,1.84
	c0.92-3.99-7.38-15.52-17.3-17.42S435.9,262.29,434.22,264.75z"/>
<path class="st7" d="M503.83,313.56c0,0-12.78,1.98-17.88,9.65c-1.51,2.28-1.51,2.28-1.51,2.28"/>
<path class="st7" d="M496.1,337.03c1.13-10.92-7.48-15.09-7.48-15.09"/>
<circle class="st9" cx="305.47" cy="389.46" r="4.28"/>
<path class="st3" d="M331.86,230.13c-0.06-0.58,0.74-0.79,0.97-0.25c2.94,7.16,10.14,22.35,22.3,35.38
	c13,13.94,35.73,31.95,41.95,36.8c0.42,0.33,0.99-0.12,0.77-0.6c-2.65-5.88-10.73-24.26-12.49-33.23c-1.52-7.74-1.27-11.21-1-12.55
	c0.07-0.36,0.48-0.51,0.78-0.3c3.33,2.33,21.12,13.8,51.97,16.46c27.64,2.38,54.49-1.85,63.95-3.6c0.57-0.11,0.53-0.94-0.05-1
	c-5.09-0.54-14.25-2.01-18.96-5.79c-5.26-4.22-6.88-7.12-7.34-8.18c-0.11-0.25,0-0.53,0.26-0.64c2.73-1.2,18.02-8.24,27.1-18.84
	c7.45-8.69,12.06-13.85,13.93-15.93c0.32-0.35,0.02-0.91-0.45-0.84c-4.32,0.64-17.7,2.33-28.01,0.42
	c-10.69-1.98-21.07-7.19-23.81-8.63c-0.32-0.17-0.35-0.6-0.07-0.83c1.54-1.24,5.92-5.42,13.39-17.4
	c7.64-12.25,9.72-19.89,10.24-22.43c0.08-0.4-0.3-0.71-0.67-0.56c-2.4,0.99-10.26,3.53-27.09,3.38
	c-20.86-0.18-31.48-5.41-50.69-3.15c-14.04,1.65-23.56,6.6-27.67,9.15c-0.46,0.29-0.98-0.26-0.67-0.71
	c2.61-3.85,7.49-11.98,7.71-19.3c0.24-7.97-2.89-16.12-4.18-19.12c-0.18-0.43-0.79-0.41-0.94,0.03
	c-1.28,3.79-5.69,15.24-13.33,19.58c-9.21,5.24-21.69,7.16-32.06,14.48c-13.53,9.56-17.42,19.03-17.57,21.34
	c-0.02,0.28-0.25,0.48-0.53,0.45c-1.89-0.15-8.66-0.62-11.37,0.31c-2.99,1.03-5.01,18.02-5.22,19.85c-0.01,0.12-0.05,0.2-0.14,0.28
	c-0.9,0.87-7,6.2-19.56,4.53c-10.94-1.46-14.33-4.17-16.15-4.46c-0.34-0.06-0.63,0.24-0.57,0.58c0.33,1.97-0.5,7.72,4.88,13.52
	c5.81,6.25,14.73,3.73,8.46,12.18c-6.5,8.75-17.89,45.41-20.19,47.72c-0.26,0.26-0.16,0.7,0.2,0.82c2.65,0.89,11.32,4.18,13.46,9.67
	c2.4,6.17,3.36,30.52,3.46,33.3c0.01,0.16,22.68,27.95,29.22,29.97c6.9,2.13-2.38-4.11-4.19-21.12c-0.89-8.41,4.93,2.2,9.1,3.76
	s-13.58-12.46-11.82-41.1c1.76-28.64,4.33-24.26,4.33-24.26s13,5.68,14.23,9.92s1.9-5.5,0.66-19.65
	c-0.87-9.84-1.66-14.37-2.06-16.22c-0.09-0.42,0.35-0.76,0.73-0.55c2.66,1.44,9.92,5.22,13.73,5.78
	C334.52,259.1,332.78,238.87,331.86,230.13z"/>
<path class="st3" d="M297.24,211.25c-1.16-2.28-10.1-26.39-17.3-21.76c-7.2,4.63-6.59,10.5-1.4,15.99
	C283.72,210.98,297.24,211.25,297.24,211.25z"/>
<path class="st6" d="M317.86,472.71c0,0,21.42-1.55,25.28-3.92c3.86-2.37,0.41-26.62,0.41-26.62"/>
<path class="st6" d="M427.52,452.28c0,0-6.66,26.64-3.45,30.64c3.21,4,23.42,9.58,23.42,9.58"/>
<path class="st10" d="M249.54,706.46c-0.55,37.69,0,82.41,0,82.41s4.22,10.11,95.42,17.85c90.57,7.68,111.66,3.38,111.66,3.38
	l44.35-133.68"/>
<path class="st11" d="M145.72,634.86c0,0,14.25,16.99,37.16,25.3c34.78,12.62,82.04,12.89,82.04,12.89"/>
<path class="st6" d="M166.42,690.15l-20.7,106.94c0,0,22.85,12.73,40.69,13.24c24.99,0.71,37.56-5.77,37.84-3.57l25.29-100.3"/>
<path class="st10" d="M475.6,587.67c0,0,18.42,63.35,18.49,74.37c0.08,11.02-16.32,84.33-16.32,84.33s-6.14,9.11,26.6-12.11
	c32.74-21.23,38.49-27.16,38.49-27.16l-16.2-29.3l-5.37,4.92c0,0-16.06-154.81-15.11-159.18c0.96-4.37-7.63-13.53-19.35-18.64
	c-13.47-5.86-38.69-16.27-38.69-16.27s-11.21,57.29-62.98,45.53s-69.16-65.81-69.16-65.81s-91.87,22.97-100.94,28.56
	c-9.07,5.59-69.34,137.94-69.34,137.94l-10.28,3.36c0,0-5.57,32.87-4.84,36.23c0.73,3.36,23.51,12.33,46.65,19
	c30.88,8.89,84.26,13.83,84.26,13.83s10.84-26.02,6.72-32.12c-2.46-3.64-6.63-11.42-6.63-11.42l8.28-28.89"/>
<path class="st7" d="M444.69,383.65c0,0-2.13-6.64-8.3-5.13c-6.17,1.51-7.6,10.88-5.08,16.2s9.28,8.73,13.38,0.85"/>
<path class="st12" d="M476.84,391.36l69.94,5.3c-0.24,2.52-0.19,5.1,0.25,7.71c2.7,16,17.86,26.77,33.86,24.07
	c16-2.7,26.77-17.86,24.07-33.86c-0.01-0.06-0.03-0.12-0.04-0.18c1.06-0.06,2.12-0.17,3.19-0.35c16-2.7,26.77-17.86,24.07-33.86
	c-2.48-14.66-15.42-24.91-29.88-24.44c0.28-2.63,0.24-5.33-0.22-8.06c-2.7-16-17.86-26.77-33.86-24.07
	c-16,2.7-26.77,17.86-24.07,33.86c0.26,1.56,0.68,3.05,1.16,4.49l-71.87,29.33"/>
<path class="st13" d="M627.38,326.81c0,0,15.38,4.65,20.51,19.87c4.99,14.82,1.06,27.33,1.06,27.33"/>
<path class="st13" d="M568.02,285.17c0,0,15.27-5.01,28.2,4.52c12.59,9.28,16.54,21.79,16.54,21.79"/>
<path class="st13" d="M587.2,272.2c0,0,8.49,0.73,15.68,6.2c7.18,5.47,11.65,11.83,11.65,11.83"/>
<path class="st13" d="M618.22,412.64c0,0-0.61,16.06-14.04,24.87c-13.08,8.58-26.18,7.94-26.18,7.94"/>
<path class="st13" d="M623.72,435.13c0,0-3.64,7.71-11.27,12.54c-7.63,4.83-15.14,6.82-15.14,6.82"/>
<path class="st6" d="M460.39,798.76c0,0,16.37,5.57,26.56,4.93c10.19-0.64,23.56-10.71,23.56-10.71l-6.14-58.72"/>
<path class="st5" d="M359.9,335.52c0,0,7.33,5.65,15.29,5.62c7.96-0.03,13.9-7.19,13.9-7.19"/>
<path class="st5" d="M447.36,324.42c0,0,6.2,4.49,12.74,4.21c6.55-0.29,11.22-6.49,11.22-6.49"/>
<path class="st11" d="M143,635.2c0,0,15.09,16.25,38.39,23.4c35.37,10.86,82.58,8.76,82.58,8.76"/>
</svg>
