<?xml version="1.0" encoding="utf-8"?>
<!-- Generator: Adobe Illustrator 25.2.3, SVG Export Plug-In . SVG Version: 6.00 Build 0)  -->
<svg version="1.1" id="Lager_1" xmlns="http://www.w3.org/2000/svg" xmlns:xlink="http://www.w3.org/1999/xlink" x="0px" y="0px"
	 viewBox="0 0 750 907.77" style="enable-background:new 0 0 750 907.77;" xml:space="preserve">
<style type="text/css">
	.st0{fill:#71BBCD;}
	.st1{fill:#B6DCE2;}
	.st2{fill:none;stroke:#75BFCB;stroke-width:10.4674;stroke-linecap:round;stroke-linejoin:round;stroke-miterlimit:10;}
	.st3{fill:#75BFCB;}
	.st4{fill:#95CFDB;}
	.st5{fill:#FFFFFF;stroke:#191919;stroke-width:5.7315;stroke-linecap:round;stroke-linejoin:round;stroke-miterlimit:10;}
	.st6{fill:none;stroke:#191919;stroke-width:5.7315;stroke-linecap:round;stroke-linejoin:round;stroke-miterlimit:10;}
	.st7{fill:none;stroke:#191919;stroke-width:3.821;stroke-linecap:round;stroke-miterlimit:10;}
	.st8{fill:none;stroke:#75BFCB;stroke-width:3.8919;stroke-linecap:round;stroke-linejoin:round;stroke-miterlimit:10;}
	.st9{fill:#191919;}
	.st10{fill:#75BFCB;stroke:#191919;stroke-width:5.7315;stroke-linecap:round;stroke-linejoin:round;stroke-miterlimit:10;}
	.st11{fill:none;stroke:#000000;stroke-width:3.8919;stroke-linecap:round;stroke-linejoin:round;stroke-miterlimit:10;}
	.st12{fill:#FFFFFF;stroke:#75BFCB;stroke-width:6.2911;stroke-linecap:round;stroke-linejoin:round;stroke-miterlimit:10;}
	.st13{fill:none;stroke:#75BFCB;stroke-width:6.2911;stroke-linecap:round;stroke-linejoin:round;stroke-miterlimit:10;}
	.st14{fill:none;stroke:#000000;stroke-width:3.821;stroke-linecap:round;stroke-miterlimit:10;}
	.st15{fill:none;stroke:#191919;stroke-width:5.2585;stroke-linecap:round;stroke-miterlimit:10;}
	.st16{fill:#FFFFFF;stroke:#191919;stroke-width:5.6619;stroke-linecap:round;stroke-linejoin:round;stroke-miterlimit:10;}
	.st17{fill:#FFFFFF;}
	.st18{fill:none;stroke:#75BFCB;stroke-width:3.4061;stroke-linecap:round;stroke-linejoin:round;stroke-miterlimit:10;}
	.st19{fill:#191919;stroke:#191919;stroke-width:3.6269;stroke-linecap:round;stroke-linejoin:round;stroke-miterlimit:10;}
	.st20{fill:none;stroke:#75BFCB;stroke-width:15.6441;stroke-linecap:round;stroke-linejoin:round;stroke-miterlimit:10;}
	.st21{fill:#FFFFFF;stroke:#75BFCB;stroke-width:3.2288;stroke-linecap:round;stroke-linejoin:round;stroke-miterlimit:10;}
	.st22{fill:none;stroke:#FFFFFF;stroke-width:3.8571;stroke-linecap:round;stroke-linejoin:round;stroke-miterlimit:10;}
	.st23{fill:#75BFCB;stroke:#75BFCB;stroke-width:4.0128;stroke-linecap:round;stroke-linejoin:round;stroke-miterlimit:10;}
	.st24{fill:#FFFFFF;stroke:#75BFCB;stroke-width:3.499;stroke-linecap:round;stroke-linejoin:round;stroke-miterlimit:10;}
	.st25{fill:#FFFFFF;stroke:#75BFCB;stroke-width:3.3553;stroke-linecap:round;stroke-linejoin:round;stroke-miterlimit:10;}
	.st26{fill:#FFFFFF;stroke:#75BFCB;stroke-width:2.8123;stroke-linecap:round;stroke-linejoin:round;stroke-miterlimit:10;}
	.st27{fill:#FFFFFF;stroke:#191919;stroke-width:4.8468;stroke-linecap:round;stroke-linejoin:round;stroke-miterlimit:10;}
	.st28{fill:none;stroke:#191919;stroke-width:5.4167;stroke-linecap:round;stroke-linejoin:round;stroke-miterlimit:10;}
	.st29{fill:#449298;}
	.st30{fill:#FFFFFF;stroke:#191919;stroke-width:5.2425;stroke-linecap:round;stroke-linejoin:round;stroke-miterlimit:10;}
	.st31{fill:none;stroke:#E83C4B;stroke-width:10.4998;stroke-linecap:round;stroke-linejoin:round;stroke-miterlimit:10;}
	.st32{fill:none;stroke:#191919;stroke-width:5.8589;stroke-linecap:round;stroke-linejoin:round;stroke-miterlimit:10;}
	.st33{fill:none;stroke:#191919;stroke-width:4.194;stroke-linecap:round;stroke-linejoin:round;stroke-miterlimit:10;}
	.st34{fill:#75BFCB;stroke:#75BFCB;stroke-width:6.4964;stroke-linecap:round;stroke-linejoin:round;stroke-miterlimit:10;}
	.st35{fill:none;stroke:#FFFFFF;stroke-width:6.4964;stroke-linecap:round;stroke-linejoin:round;stroke-miterlimit:10;}
	.st36{fill:none;stroke:#FFFFFF;stroke-width:1.9602;stroke-linecap:round;stroke-linejoin:round;stroke-miterlimit:10;}
	.st37{fill:#FFFFFF;stroke:#75BFCB;stroke-width:5.2271;stroke-linecap:round;stroke-linejoin:round;stroke-miterlimit:10;}
	.st38{fill:none;stroke:#FFFFFF;stroke-width:6.2443;stroke-linecap:round;stroke-linejoin:round;stroke-miterlimit:10;}
	.st39{fill:#FFFFFF;stroke:#75BFCB;stroke-width:5.6645;stroke-linecap:round;stroke-linejoin:round;stroke-miterlimit:10;}
	.st40{fill:#FFFFFF;stroke:#75BFCB;stroke-width:5.4319;stroke-linecap:round;stroke-linejoin:round;stroke-miterlimit:10;}
	.st41{fill:#FFFFFF;stroke:#75BFCB;stroke-width:4.5528;stroke-linecap:round;stroke-linejoin:round;stroke-miterlimit:10;}
	.st42{fill:#FFFFFF;stroke:#75BFCB;stroke-width:3.8414;stroke-linecap:round;stroke-linejoin:round;stroke-miterlimit:10;}
	.st43{fill:none;stroke:#FFFFFF;stroke-width:4.5889;stroke-linecap:round;stroke-linejoin:round;stroke-miterlimit:10;}
	.st44{fill:#75BFCB;stroke:#75BFCB;stroke-width:4.7742;stroke-linecap:round;stroke-linejoin:round;stroke-miterlimit:10;}
	.st45{fill:#FFFFFF;stroke:#75BFCB;stroke-width:4.1628;stroke-linecap:round;stroke-linejoin:round;stroke-miterlimit:10;}
	.st46{fill:#FFFFFF;stroke:#75BFCB;stroke-width:3.9919;stroke-linecap:round;stroke-linejoin:round;stroke-miterlimit:10;}
	.st47{fill:#FFFFFF;stroke:#75BFCB;stroke-width:3.3459;stroke-linecap:round;stroke-linejoin:round;stroke-miterlimit:10;}
	.st48{fill:none;stroke:#75BFCB;stroke-width:5;stroke-linecap:round;stroke-linejoin:round;stroke-miterlimit:10;}
	.st49{fill:none;stroke:#FFFFFF;stroke-width:4;stroke-linecap:round;stroke-linejoin:round;stroke-miterlimit:10;}
	.st50{fill:none;stroke:#191919;stroke-width:4.0754;stroke-linecap:round;stroke-miterlimit:10;}
</style>
<path class="st30" d="M278.43,743.23H130.06c-5.26,0-9.53-4.27-9.53-9.53l0-315.75c0-5.26,4.27-9.53,9.53-9.53l148.37,0
	c5.26,0,9.53,4.27,9.53,9.53l0,315.74C287.97,738.96,283.7,743.23,278.43,743.23z"/>
<rect x="177.99" y="410.77" class="st32" width="54.25" height="5.57"/>
<circle class="st33" cx="204.25" cy="713.57" r="13.21"/>
<g>
	<path class="st34" d="M571,753.18L571,753.18c-18.16,0-32.88-14.72-32.88-32.88V579.01l-9.14-38.18h84.08l-9.17,38.18V720.3
		C603.88,738.46,589.16,753.18,571,753.18z"/>
	<circle class="st35" cx="571" cy="600" r="19.64"/>
	<circle class="st36" cx="571.02" cy="600" r="13.23"/>
</g>
<g>
	<ellipse class="st37" cx="571.01" cy="370.46" rx="87.25" ry="49.15"/>
	<circle class="st3" cx="571.01" cy="373.14" r="61.25"/>
	<g>
		<line class="st38" x1="580.88" y1="312.69" x2="580.88" y2="373.14"/>
		<line class="st38" x1="561.14" y1="373.14" x2="561.14" y2="433.6"/>
		<line class="st38" x1="571.01" y1="383.02" x2="631.22" y2="383.02"/>
		<line class="st38" x1="510.8" y1="363.56" x2="571.01" y2="363.56"/>
	</g>
	<g>
		<line class="st38" x1="535.14" y1="323.42" x2="577.89" y2="366.16"/>
		<line class="st38" x1="563.92" y1="380.12" x2="606.67" y2="422.87"/>
		<line class="st38" x1="577.89" y1="380.12" x2="620.46" y2="337.55"/>
		<line class="st38" x1="521.56" y1="408.94" x2="564.13" y2="366.37"/>
	</g>
	<path class="st3" d="M575.51,471.18h-9.01v15.87c0,0.79,0.64,1.44,1.44,1.44h6.14c0.79,0,1.44-0.64,1.44-1.44V471.18z"/>
	<path class="st34" d="M631.23,406.74l-15.02,62.55h-90.39l-15.02-62.53c11.57,21.37,34.19,35.89,60.2,35.89
		S619.67,428.13,631.23,406.74z"/>
	<path class="st39" d="M571.04,442.72c-0.31,0.02-0.65,0.02-0.98,0.02v-0.04C570.37,442.72,570.7,442.74,571.04,442.72z"/>
	<path class="st40" d="M633.51,404.89c0,0-26.99,37.19-61.51,37.82c-0.31,0.02-0.63,0.04-0.96,0.02c-0.33,0.02-0.67,0-0.98-0.02
		c-34.52-0.63-61.51-37.82-61.51-37.82s22.58,16.58,62.47,16.58C610.91,421.47,633.51,404.89,633.51,404.89z"/>
	<path class="st41" d="M626.41,331.32c0,0-23.51-29.99-53.58-30.5c-0.27-0.01-0.55-0.03-0.84-0.01c-0.29-0.01-0.58,0-0.85,0.01
		c-30.07,0.51-53.57,30.5-53.57,30.5s19.67-13.38,54.41-13.38C606.73,317.94,626.41,331.32,626.41,331.32z"/>
	<path class="st39" d="M572,442.7v0.04c-0.33,0-0.65,0-0.96-0.02C571.37,442.74,571.68,442.72,572,442.7z"/>
	<circle class="st3" cx="571.01" cy="373.14" r="8.96"/>
</g>
<g>
	<ellipse class="st42" cx="163.88" cy="271.68" rx="64.12" ry="36.12"/>
	<circle class="st3" cx="163.88" cy="273.65" r="45.01"/>
	<g>
		<line class="st43" x1="171.14" y1="229.22" x2="171.14" y2="273.65"/>
		<line class="st43" x1="156.62" y1="273.65" x2="156.62" y2="318.07"/>
		<line class="st43" x1="163.88" y1="280.9" x2="208.13" y2="280.9"/>
		<line class="st43" x1="119.63" y1="266.61" x2="163.88" y2="266.61"/>
	</g>
	<g>
		<line class="st43" x1="137.52" y1="237.1" x2="168.93" y2="268.52"/>
		<line class="st43" x1="158.67" y1="278.78" x2="190.09" y2="310.19"/>
		<line class="st43" x1="168.93" y1="278.78" x2="200.22" y2="247.49"/>
		<line class="st43" x1="127.54" y1="299.96" x2="158.83" y2="268.67"/>
	</g>
	<path class="st3" d="M167.19,345.69h-6.62v11.28c0,0.79,0.64,1.44,1.44,1.44h3.75c0.79,0,1.44-0.64,1.44-1.44V345.69z"/>
	<path class="st44" d="M208.14,298.34l-11.03,45.97h-66.42l-11.03-45.95c8.5,15.7,25.12,26.38,44.24,26.38
		S199.64,314.06,208.14,298.34z"/>
	<path class="st45" d="M163.9,324.78c-0.23,0.01-0.48,0.01-0.72,0.01v-0.03C163.41,324.78,163.65,324.8,163.9,324.78z"/>
	<path class="st46" d="M209.81,296.98c0,0-19.84,27.33-45.21,27.79c-0.23,0.01-0.46,0.03-0.71,0.01c-0.24,0.01-0.49,0-0.72-0.01
		c-25.37-0.46-45.2-27.79-45.2-27.79s16.6,12.19,45.91,12.19C193.2,309.16,209.81,296.98,209.81,296.98z"/>
	<path class="st47" d="M204.6,242.91c0,0-17.28-22.04-39.37-22.42c-0.2-0.01-0.4-0.02-0.61-0.01c-0.21-0.01-0.43,0-0.63,0.01
		c-22.09,0.37-39.37,22.42-39.37,22.42s14.46-9.83,39.98-9.83C190.13,233.08,204.6,242.91,204.6,242.91z"/>
	<path class="st45" d="M164.6,324.77v0.03c-0.24,0-0.47,0-0.71-0.01C164.14,324.8,164.37,324.78,164.6,324.77z"/>
	<circle class="st3" cx="163.88" cy="273.65" r="6.58"/>
</g>
<path class="st29" d="M274.3,585.05L274.3,585.05c0,2.76-2.23,4.99-4.99,4.99h-21.48c-2.39,0-4.44-1.69-4.89-4.04l-8.02-41.7
	c-0.01-0.05-0.08-0.05-0.1-0.01l-21.87,69.29c-0.59,2.19-2.57,3.69-4.82,3.69h-0.16c-2.32-0.08-4.28-1.74-4.73-4l-21.5-89.03
	c-0.01-0.05-0.08-0.05-0.1,0l-15.39,62.02c-0.56,2.22-2.55,3.78-4.84,3.78H139.4c-2.56,0-4.86-1.83-5.16-4.37
	c-0.36-3.03,1.99-5.61,4.95-5.61h18.3c0.02,0,0.04-0.02,0.05-0.04l19.83-79.91c0.56-2.26,2.62-3.84,4.95-3.79
	c2.33,0.05,4.32,1.72,4.78,4.01l21.7,90.06c0.01,0.05,0.08,0.05,0.1,0l21.99-69.75c0.61-2.25,2.68-3.78,5.01-3.69
	c2.32,0.09,4.28,1.76,4.71,4.04l11.33,59.02c0,0.02,0.02,0.04,0.05,0.04h17.31C272.06,580.06,274.3,582.3,274.3,585.05z"/>
<polyline class="st48" points="150.27,379.44 163.83,393.25 177.84,379.44 "/>
<polyline class="st48" points="155.27,368.56 164,377.36 172.84,368.56 "/>
<polyline class="st48" points="557.23,510.44 570.79,524.25 584.79,510.44 "/>
<polyline class="st48" points="562.23,499.56 570.96,508.36 579.79,499.56 "/>
<g>
	<path class="st3" d="M574.68,248.6h-6.12c-13.22,0-24.04-10.82-24.04-24.04v-35.41c0-13.22,10.82-24.04,24.04-24.04h6.12
		c13.22,0,24.04,10.82,24.04,24.04v35.41C598.72,237.78,587.9,248.6,574.68,248.6z"/>
	<polyline class="st49" points="555.79,193.72 581.83,220.02 570.04,238.66 570.04,177.64 581.83,195.25 555.79,221.55 	"/>
</g>
<line class="st6" x1="392.09" y1="116.26" x2="392.09" y2="794.38"/>
</svg>
