<?xml version="1.0" encoding="utf-8"?>
<!-- Generator: Adobe Illustrator 25.2.3, SVG Export Plug-In . SVG Version: 6.00 Build 0)  -->
<svg version="1.1" id="Lager_1" xmlns="http://www.w3.org/2000/svg" xmlns:xlink="http://www.w3.org/1999/xlink" x="0px" y="0px"
	 viewBox="0 0 750 924.77" style="enable-background:new 0 0 750 924.77;" xml:space="preserve">
<style type="text/css">
	.st0{fill:#71BBCD;}
	.st1{fill:#B6DCE2;}
	.st2{fill:none;stroke:#75BFCB;stroke-width:10.4674;stroke-linecap:round;stroke-linejoin:round;stroke-miterlimit:10;}
	.st3{fill:#75BFCB;}
	.st4{fill:#95CFDB;}
	.st5{fill:#FFFFFF;stroke:#191919;stroke-width:5.7315;stroke-linecap:round;stroke-linejoin:round;stroke-miterlimit:10;}
	.st6{fill:none;stroke:#191919;stroke-width:5.7315;stroke-linecap:round;stroke-linejoin:round;stroke-miterlimit:10;}
	.st7{fill:none;stroke:#191919;stroke-width:3.821;stroke-linecap:round;stroke-miterlimit:10;}
	.st8{fill:none;stroke:#75BFCB;stroke-width:3.8919;stroke-linecap:round;stroke-linejoin:round;stroke-miterlimit:10;}
	.st9{fill:#191919;}
	.st10{fill:#75BFCB;stroke:#191919;stroke-width:5.7315;stroke-linecap:round;stroke-linejoin:round;stroke-miterlimit:10;}
	.st11{fill:none;stroke:#000000;stroke-width:3.8919;stroke-linecap:round;stroke-linejoin:round;stroke-miterlimit:10;}
	.st12{fill:#FFFFFF;stroke:#75BFCB;stroke-width:6.2911;stroke-linecap:round;stroke-linejoin:round;stroke-miterlimit:10;}
	.st13{fill:none;stroke:#75BFCB;stroke-width:6.2911;stroke-linecap:round;stroke-linejoin:round;stroke-miterlimit:10;}
	.st14{fill:none;stroke:#000000;stroke-width:3.821;stroke-linecap:round;stroke-miterlimit:10;}
	.st15{fill:none;stroke:#191919;stroke-width:5.2585;stroke-linecap:round;stroke-miterlimit:10;}
	.st16{fill:#FFFFFF;stroke:#191919;stroke-width:5.6619;stroke-linecap:round;stroke-linejoin:round;stroke-miterlimit:10;}
	.st17{fill:#FFFFFF;}
	.st18{fill:none;stroke:#75BFCB;stroke-width:3.4061;stroke-linecap:round;stroke-linejoin:round;stroke-miterlimit:10;}
	.st19{fill:#191919;stroke:#191919;stroke-width:3.6269;stroke-linecap:round;stroke-linejoin:round;stroke-miterlimit:10;}
	.st20{fill:none;stroke:#75BFCB;stroke-width:15.6441;stroke-linecap:round;stroke-linejoin:round;stroke-miterlimit:10;}
	.st21{fill:#FFFFFF;stroke:#75BFCB;stroke-width:3.2288;stroke-linecap:round;stroke-linejoin:round;stroke-miterlimit:10;}
	.st22{fill:none;stroke:#FFFFFF;stroke-width:3.8571;stroke-linecap:round;stroke-linejoin:round;stroke-miterlimit:10;}
	.st23{fill:#75BFCB;stroke:#75BFCB;stroke-width:4.0128;stroke-linecap:round;stroke-linejoin:round;stroke-miterlimit:10;}
	.st24{fill:#FFFFFF;stroke:#75BFCB;stroke-width:3.499;stroke-linecap:round;stroke-linejoin:round;stroke-miterlimit:10;}
	.st25{fill:#FFFFFF;stroke:#75BFCB;stroke-width:3.3553;stroke-linecap:round;stroke-linejoin:round;stroke-miterlimit:10;}
	.st26{fill:#FFFFFF;stroke:#75BFCB;stroke-width:2.8123;stroke-linecap:round;stroke-linejoin:round;stroke-miterlimit:10;}
	.st27{fill:#FFFFFF;stroke:#191919;stroke-width:4.8468;stroke-linecap:round;stroke-linejoin:round;stroke-miterlimit:10;}
	.st28{fill:none;stroke:#191919;stroke-width:5.4167;stroke-linecap:round;stroke-linejoin:round;stroke-miterlimit:10;}
	.st29{fill:#449298;}
	.st30{fill:#FFFFFF;stroke:#191919;stroke-width:5.2425;stroke-linecap:round;stroke-linejoin:round;stroke-miterlimit:10;}
	.st31{fill:none;stroke:#E83C4B;stroke-width:10.4998;stroke-linecap:round;stroke-linejoin:round;stroke-miterlimit:10;}
	.st32{fill:none;stroke:#191919;stroke-width:5.8589;stroke-linecap:round;stroke-linejoin:round;stroke-miterlimit:10;}
	.st33{fill:none;stroke:#191919;stroke-width:4.194;stroke-linecap:round;stroke-linejoin:round;stroke-miterlimit:10;}
	.st34{fill:#75BFCB;stroke:#75BFCB;stroke-width:6.4964;stroke-linecap:round;stroke-linejoin:round;stroke-miterlimit:10;}
	.st35{fill:none;stroke:#FFFFFF;stroke-width:6.4964;stroke-linecap:round;stroke-linejoin:round;stroke-miterlimit:10;}
	.st36{fill:none;stroke:#FFFFFF;stroke-width:1.9602;stroke-linecap:round;stroke-linejoin:round;stroke-miterlimit:10;}
	.st37{fill:#FFFFFF;stroke:#75BFCB;stroke-width:5.2271;stroke-linecap:round;stroke-linejoin:round;stroke-miterlimit:10;}
	.st38{fill:none;stroke:#FFFFFF;stroke-width:6.2443;stroke-linecap:round;stroke-linejoin:round;stroke-miterlimit:10;}
	.st39{fill:#FFFFFF;stroke:#75BFCB;stroke-width:5.6645;stroke-linecap:round;stroke-linejoin:round;stroke-miterlimit:10;}
	.st40{fill:#FFFFFF;stroke:#75BFCB;stroke-width:5.4319;stroke-linecap:round;stroke-linejoin:round;stroke-miterlimit:10;}
	.st41{fill:#FFFFFF;stroke:#75BFCB;stroke-width:4.5528;stroke-linecap:round;stroke-linejoin:round;stroke-miterlimit:10;}
	.st42{fill:#FFFFFF;stroke:#75BFCB;stroke-width:3.8414;stroke-linecap:round;stroke-linejoin:round;stroke-miterlimit:10;}
	.st43{fill:none;stroke:#FFFFFF;stroke-width:4.5889;stroke-linecap:round;stroke-linejoin:round;stroke-miterlimit:10;}
	.st44{fill:#75BFCB;stroke:#75BFCB;stroke-width:4.7742;stroke-linecap:round;stroke-linejoin:round;stroke-miterlimit:10;}
	.st45{fill:#FFFFFF;stroke:#75BFCB;stroke-width:4.1628;stroke-linecap:round;stroke-linejoin:round;stroke-miterlimit:10;}
	.st46{fill:#FFFFFF;stroke:#75BFCB;stroke-width:3.9919;stroke-linecap:round;stroke-linejoin:round;stroke-miterlimit:10;}
	.st47{fill:#FFFFFF;stroke:#75BFCB;stroke-width:3.3459;stroke-linecap:round;stroke-linejoin:round;stroke-miterlimit:10;}
	.st48{fill:none;stroke:#75BFCB;stroke-width:5;stroke-linecap:round;stroke-linejoin:round;stroke-miterlimit:10;}
	.st49{fill:none;stroke:#FFFFFF;stroke-width:4;stroke-linecap:round;stroke-linejoin:round;stroke-miterlimit:10;}
	.st50{fill:none;stroke:#191919;stroke-width:4.0754;stroke-linecap:round;stroke-miterlimit:10;}
</style>
<path class="st4" d="M304.23,501.46c0,0,26.23-21.1,26.77-31.02c0.54-9.92-1.77-43.76-1.77-43.76l-11.6-0.58l1.9,30.78l-34.6,16.53
	L304.23,501.46z"/>
<path class="st3" d="M440.29,383.21l5.77,23.75c0.12,0.49-0.4,0.89-0.84,0.64l-12.24-6.89c-0.24-0.13-0.54-0.08-0.72,0.13
	l-9.95,11.56c-0.29,0.34-0.84,0.23-0.99-0.19l-2.37-7.05c-0.06-0.17-0.03-0.36,0.07-0.51l15.67-22.47c0.13-0.19,0.36-0.28,0.58-0.24
	l4.56,0.85C440.06,382.82,440.24,382.99,440.29,383.21z"/>
<path class="st5" d="M278.39,243.13c0,0-8.43,26.04-8.53,44.08c-0.09,15.54-17.13,16.92-17.36,32.05c-0.1,6.58-2.88,30.25,6.85,50.4
	c12.63,26.17,39.22,49.43,46.65,52.9c13.15,6.14,99.43-3.76,107.35-11.38c7.92-7.62,23.29-32.03,23.29-32.03s35.17,7.64,46.9-18.11
	s5.98-40.24,5.98-40.24s-13.02-8.45-27.65-0.93c-12.21,6.28-14.53,15.8-14.53,15.8"/>
<path class="st6" d="M252.15,337.18c0,0-17.27-6.61-17.6-37.86c-0.35-32.65,16.92-35.78,16.92-35.78s13.26,4.8,18.92,15.77"/>
<path class="st7" d="M440.4,358.42c0,0,4.76-9.83,16.81-17c12.05-7.17,20.61-4.28,20.61-4.28"/>
<path class="st7" d="M454.75,363.32c0.85-1.1,4.66-2.34,6.32-9.5c1.66-7.16-0.99-11.23-0.99-11.23"/>
<path class="st7" d="M321.11,312.84c0,0-15.16,4.65-21.04,4.85c-5.88,0.2,17.18,15.87,17.18,15.87"/>
<path class="st7" d="M329.16,334.15c0,0,0.15-2.57,4.27-3.75s5.34,0.99,5.34,0.99"/>
<path class="st8" d="M404.15,304.59c0,0,2.6-0.54,8.38-0.27c5.91,0.27,9.09,2.11,9.09,2.11"/>
<path class="st8" d="M403.13,314.28c1.3-0.18,3.41,0.03,6.66,0.74c2.35,0.51,5.72,2.55,6.44,2.85"/>
<path class="st3" d="M386.43,253.72c-1.62,1.81-2.23,13.73,0,14.69s10.96-1.64,19.16,0c12.77,2.55,18.2,8.3,19.64,4.47
	c1.44-3.83-5.27-16.36-14.85-19.56C400.8,250.13,388.42,251.51,386.43,253.72z"/>
<path class="st3" d="M320.37,238.47c1.27,2.07-0.3,13.91-2.67,14.44c-2.37,0.54-10.48-3.6-18.84-3.48
	c-13.02,0.19-19.4,4.86-20.12,0.83s8.15-15.13,18.15-16.53C306.89,232.33,318.81,235.93,320.37,238.47z"/>
<path class="st7" d="M248.39,283.72c0,0,12.67,2.62,17.37,10.54c1.4,2.35,1.4,2.35,1.4,2.35"/>
<path class="st7" d="M254.93,307.55c-0.58-10.96,8.23-14.69,8.23-14.69"/>
<circle class="st9" cx="442.69" cy="369.48" r="4.28"/>
<path class="st3" d="M424.34,209.03c0.09-0.58-0.7-0.83-0.95-0.3c-3.3,7-11.25,21.82-24.04,34.22
	c-13.69,13.27-37.29,30.11-43.75,34.65c-0.43,0.3-0.98-0.17-0.74-0.64c2.94-5.74,11.93-23.69,14.14-32.56
	c1.91-7.66,1.83-11.13,1.63-12.48c-0.05-0.36-0.46-0.54-0.76-0.34c-3.45,2.16-21.79,12.73-52.73,13.83
	c-27.73,0.99-54.33-4.58-63.69-6.8c-0.57-0.13-0.48-0.96,0.1-1c5.11-0.28,14.33-1.29,19.22-4.83c5.47-3.96,7.23-6.76,7.74-7.8
	c0.12-0.25,0.02-0.53-0.23-0.65c-2.67-1.34-17.58-9.14-26.12-20.17c-7-9.05-11.35-14.44-13.11-16.61c-0.3-0.37,0.02-0.91,0.49-0.81
	c4.28,0.86,17.56,3.22,27.95,1.82c10.77-1.44,21.4-6.12,24.21-7.43c0.33-0.15,0.38-0.59,0.11-0.83c-1.47-1.32-5.64-5.71-12.5-18.06
	c-7.01-12.61-8.71-20.35-9.1-22.91c-0.06-0.4,0.33-0.7,0.7-0.52c2.35,1.11,10.07,4.04,26.89,4.74c20.84,0.86,31.71-3.82,50.78-0.6
	c13.94,2.35,23.2,7.78,27.18,10.53c0.45,0.31,0.99-0.21,0.71-0.67c-2.41-3.98-6.87-12.34-6.73-19.66
	c0.16-7.97,3.69-15.95,5.14-18.89c0.2-0.42,0.81-0.37,0.94,0.08c1.09,3.85,4.92,15.51,12.33,20.23c8.94,5.69,21.31,8.24,31.29,16.07
	c13.03,10.22,16.44,19.88,16.48,22.2c0,0.28,0.22,0.49,0.51,0.48c1.9-0.06,8.68-0.19,11.34,0.88c2.93,1.18,4.1,18.25,4.22,20.09
	c0.01,0.12,0.04,0.2,0.12,0.28c0.86,0.92,6.68,6.55,19.31,5.51c11-0.9,14.52-3.44,16.35-3.65c0.34-0.04,0.62,0.27,0.54,0.6
	c-0.43,1.95,0.11,7.74-5.56,13.25c-6.11,5.95-14.9,2.99-9.06,11.74c6.05,9.07,15.59,46.25,17.77,48.67
	c0.25,0.28,0.12,0.71-0.24,0.81c-2.69,0.76-11.52,3.61-13.93,8.98c-2.71,6.04-4.89,30.31-5.13,33.08
	c-0.01,0.16-24.05,26.78-30.69,28.46c-7,1.78,2.58-3.98,5.24-20.88c1.31-8.35-5.03,1.95-9.28,3.3
	c-4.25,1.35,14.19-11.76,13.87-40.45c-0.32-28.69-3.11-24.45-3.11-24.45s-13.27,5.02-14.71,9.19s-1.62-5.59,0.33-19.65
	c1.36-9.78,2.38-14.27,2.87-16.09c0.11-0.42-0.31-0.78-0.7-0.59c-2.73,1.3-10.17,4.71-14.01,5.08
	C420.22,237.83,422.98,217.71,424.34,209.03z"/>
<path class="st3" d="M459.86,191.92c1.27-2.21,11.42-25.84,18.37-20.86c6.96,4.98,6.06,10.82,0.6,16.04
	C473.37,192.32,459.86,191.92,459.86,191.92z"/>
<path class="st6" d="M426.81,446.88c0,0-21.31-2.63-25.05-5.19c-3.73-2.56,0.93-26.61,0.93-26.61"/>
<path class="st6" d="M317.64,426.1c0,0,5.31,26.95,1.9,30.78c-3.41,3.83-23.87,8.39-23.87,8.39"/>
<path class="st6" d="M566.47,676.78l15.3,107.84c0,0-23.46,11.57-41.3,11.18c-24.99-0.54-37.23-7.65-37.61-5.46L482.63,688.9"/>
<path class="st15" d="M298.83,352.07c0,0,3.24-9.56,11.12-6.95c7.87,2.61,9.03,16.38,5.38,23.99c-3.65,7.61-12.65,12.14-17.37,0.37"
	/>
<path class="st16" d="M259.05,740.27c0,0-29.45,59.38-34.12,65.58c-4.67,6.2-32.59-1.64-32.59-1.64s-43.58-74.38-41.85-94.57
	c1.73-20.19,64.04-208.23,64.18-211.1c0,0-18.54-39.4-20.01-45.9c-1.47-6.5,9.74-13.11,9.74-13.11s-0.37-8.44,1.98-13.44
	c2.35-5.01,7.71-6.82,7.71-6.82s-3.54-11.4-1.67-19.01c1.86-7.61,8.75-10.33,8.75-10.33s9.25,5.29,16.99,14.06
	s20.97,34.17,20.97,34.17s0.45,8.62-4.14,10.95s-10.76-2.22-10.76-2.22l-20.47-29.86"/>
<path class="st10" d="M482.63,688.9c-1.34,37.67-4.14,82.31-4.14,82.31s-4.73,9.89-96.2,13.03C291.45,787.36,270.6,782,270.6,782
	l-24.92-107.2"/>
<path class="st3" d="M551.03,613.28c-6.61,3.58-75.11,88.25-82.95,88.04c-7.84-0.22-220.92-26.51-220.92-26.51l18.43-156.46
	l26.61-33.12l95.26,73.65L551.03,613.28z"/>
<path class="st10" d="M255.75,475.68c13.75-5.18,39.46-14.3,39.46-14.3s8.32,57.78,60.61,48.63c52.29-9.15,72.38-62.25,72.38-62.25
	s90.6,27.56,99.38,33.59s62.33,141.25,62.33,141.25l10.1,3.87c0,0,3.91,33.11,3.02,36.43c-0.89,3.32-24.1,11.14-47.55,16.63
	c-31.28,7.33-84.84,9.58-84.84,9.58s-9.52-26.54-5.1-32.41c2.64-3.51,7.2-11.07,7.2-11.07l-6.82-29.26"/>
<polygon class="st17" points="266.8,441.99 253.49,498.91 277.89,488.11 280.13,454.18 "/>
<path class="st3" d="M228.52,480.15c0,0,8.19,8.4,17.94,9.06c9.75,0.67,14.79-0.93,14.4-1.69s6.53-23.48,6.53-23.48l21.2-74.96
	l-4.1-9.28l5.35-3.92l15.85-1.98c0,0,6.96,0.33,8.6-11.18c1.61-11.26-3.97-14.67-3.97-14.67l-37.9-17.71c0,0-3.21,2.02-9.86,10.7
	c-6.65,8.68-5.21,22.47-5.21,22.47l-0.38,8.12c0,0-5.39,3.89-6.12,4.8c-0.74,0.91-7.38,29.56-7.38,29.56l17.8,30.18
	c0,0,1.56,8.39-2.43,12.83c-3.66,4.08-5.78,3.1-5.78,3.1l-2.71,0.37L228.52,480.15z"/>
<path class="st16" d="M210.44,444.29c0,0,12.49,4.55,16.37,10.62c3.88,6.07,19.12,21.87,23.35,23.09
	c4.23,1.22,11.56-7.42,11.56-7.42l-15.96-27.68l-27.24-20.34"/>
<path class="st16" d="M204.45,464.67l23.14,15.75c0,0,5.01,3.03,8.45,1.47c3.44-1.56,5.68-10.03,5.68-10.03"/>
<path class="st16" d="M231.22,397.21c-0.77-0.65-0.85-19.87-0.85-19.87c0.59-1.04,6.68-12.08,12.65-13.62
	c5.97-1.53,7.21,0.36,7.21,0.36l13.57,23.56c0,0-5.17,6.92-11.07,6.9c-5.9-0.03-11.93-8.05-11.93-8.05"/>
<path class="st16" d="M231.12,744.33c0,0,10.54-23.69,11.34-39.68c0.45-8.94,21.65-186.32,21.65-186.32l16.97-15.66l23.39-55.12
	l-0.24-33.69l-6.32-24.5c0,0-7.27,2.34-10.32,6.2s0.15,20.99,0.15,20.99l-3.69,20.86l-8.7,7.95"/>
<path class="st11" d="M589.91,622.6c0,0-15.09,16.25-38.39,23.4c-35.37,10.86-82.58,8.76-82.58,8.76"/>
<ellipse transform="matrix(0.0898 -0.996 0.996 0.0898 30.3208 658.0728)" class="st9" cx="375.19" cy="312.45" rx="13.09" ry="8.46"/>
<ellipse transform="matrix(0.0543 -0.9985 0.9985 0.0543 -25.7578 572.763)" class="st9" cx="289.51" cy="299.98" rx="13.09" ry="7.66"/>
<path class="st18" d="M353.37,345.4c0,0-12.37,6.39-14.21,17.52c-2.12,12.81,4.96,22.08,4.96,22.08"/>
<line class="st18" x1="359.92" y1="343.33" x2="365.91" y2="342.33"/>
<g>
	<path class="st16" d="M342.04,622.13c1.51,13.56,3.52,33.6,3.52,33.6l-30.86-18.34l-7.87-10.9l-26.41-36.62
		c0,0-15.51-7.86-18.83-3.41c-2.12,2.84-1.37,31.85-4.25,46.13l-0.01,0c0.43-1.81-40.48-69.87-40.48-69.87l73.25-27.45
		L342.04,622.13z"/>
	<polyline class="st16" points="279.38,695.75 252.46,653.65 258.31,637.79 	"/>
	<path class="st16" d="M485.74,792.71c0,0-9.4,13.09-18.87,18.57c-9.47,5.49-53.68,16.7-53.68,16.7l-72.97-109.6l-60.06-21.28
		c0,0-25.08-64.3-23.43-72.46l2.29-10.59c2.88-14.29,0.5-24.66,2.61-27.5c3.32-4.45,18.83,3.41,18.83,3.41l26.41,36.62l7.87,10.9
		l30.86,18.34c0,0-2.01-20.04-3.52-33.6c-0.44-3.96-0.83-7.36-1.12-9.55c-1.29-9.72,7.56-11.47,7.56-11.47l30.83,56.12l-1.31,29.76
		L485.74,792.71z"/>
	<line class="st16" x1="289.02" y1="671.64" x2="260.1" y2="606.16"/>
	<path class="st16" d="M301.84,651.58c-0.37-0.63-39.52-63.85-39.52-63.85"/>
</g>
</svg>
