<?xml version="1.0" encoding="utf-8"?>
<!-- Generator: Adobe Illustrator 25.2.3, SVG Export Plug-In . SVG Version: 6.00 Build 0)  -->
<svg version="1.1" id="Lager_1" xmlns="http://www.w3.org/2000/svg" xmlns:xlink="http://www.w3.org/1999/xlink" x="0px" y="0px"
	 viewBox="0 0 750 924.77" style="enable-background:new 0 0 750 924.77;" xml:space="preserve">
<style type="text/css">
	.st0{fill:#71BBCD;}
	.st1{fill:#B6DCE2;}
	.st2{fill:none;stroke:#75BFCB;stroke-width:10.4674;stroke-linecap:round;stroke-linejoin:round;stroke-miterlimit:10;}
	.st3{fill:#75BFCB;}
	.st4{fill:#95CFDB;}
	.st5{fill:#FFFFFF;stroke:#191919;stroke-width:5.7315;stroke-linecap:round;stroke-linejoin:round;stroke-miterlimit:10;}
	.st6{fill:none;stroke:#191919;stroke-width:5.7315;stroke-linecap:round;stroke-linejoin:round;stroke-miterlimit:10;}
	.st7{fill:none;stroke:#191919;stroke-width:3.821;stroke-linecap:round;stroke-miterlimit:10;}
	.st8{fill:none;stroke:#75BFCB;stroke-width:3.8919;stroke-linecap:round;stroke-linejoin:round;stroke-miterlimit:10;}
	.st9{fill:#191919;}
	.st10{fill:#75BFCB;stroke:#191919;stroke-width:5.7315;stroke-linecap:round;stroke-linejoin:round;stroke-miterlimit:10;}
	.st11{fill:none;stroke:#000000;stroke-width:3.8919;stroke-linecap:round;stroke-linejoin:round;stroke-miterlimit:10;}
	.st12{fill:#FFFFFF;stroke:#75BFCB;stroke-width:6.2911;stroke-linecap:round;stroke-linejoin:round;stroke-miterlimit:10;}
	.st13{fill:none;stroke:#75BFCB;stroke-width:6.2911;stroke-linecap:round;stroke-linejoin:round;stroke-miterlimit:10;}
	.st14{fill:none;stroke:#000000;stroke-width:3.821;stroke-linecap:round;stroke-miterlimit:10;}
	.st15{fill:none;stroke:#191919;stroke-width:5.2585;stroke-linecap:round;stroke-miterlimit:10;}
	.st16{fill:#FFFFFF;stroke:#191919;stroke-width:5.6619;stroke-linecap:round;stroke-linejoin:round;stroke-miterlimit:10;}
	.st17{fill:#FFFFFF;}
	.st18{fill:none;stroke:#75BFCB;stroke-width:3.4061;stroke-linecap:round;stroke-linejoin:round;stroke-miterlimit:10;}
	.st19{fill:#191919;stroke:#191919;stroke-width:3.6269;stroke-linecap:round;stroke-linejoin:round;stroke-miterlimit:10;}
	.st20{fill:none;stroke:#75BFCB;stroke-width:15.6441;stroke-linecap:round;stroke-linejoin:round;stroke-miterlimit:10;}
	.st21{fill:#FFFFFF;stroke:#75BFCB;stroke-width:3.2288;stroke-linecap:round;stroke-linejoin:round;stroke-miterlimit:10;}
	.st22{fill:none;stroke:#FFFFFF;stroke-width:3.8571;stroke-linecap:round;stroke-linejoin:round;stroke-miterlimit:10;}
	.st23{fill:#75BFCB;stroke:#75BFCB;stroke-width:4.0128;stroke-linecap:round;stroke-linejoin:round;stroke-miterlimit:10;}
	.st24{fill:#FFFFFF;stroke:#75BFCB;stroke-width:3.499;stroke-linecap:round;stroke-linejoin:round;stroke-miterlimit:10;}
	.st25{fill:#FFFFFF;stroke:#75BFCB;stroke-width:3.3553;stroke-linecap:round;stroke-linejoin:round;stroke-miterlimit:10;}
	.st26{fill:#FFFFFF;stroke:#75BFCB;stroke-width:2.8123;stroke-linecap:round;stroke-linejoin:round;stroke-miterlimit:10;}
	.st27{fill:#FFFFFF;stroke:#191919;stroke-width:4.8468;stroke-linecap:round;stroke-linejoin:round;stroke-miterlimit:10;}
	.st28{fill:none;stroke:#191919;stroke-width:5.4167;stroke-linecap:round;stroke-linejoin:round;stroke-miterlimit:10;}
	.st29{fill:#449298;}
	.st30{fill:#FFFFFF;stroke:#191919;stroke-width:5.2425;stroke-linecap:round;stroke-linejoin:round;stroke-miterlimit:10;}
	.st31{fill:none;stroke:#E83C4B;stroke-width:10.4998;stroke-linecap:round;stroke-linejoin:round;stroke-miterlimit:10;}
	.st32{fill:none;stroke:#191919;stroke-width:5.8589;stroke-linecap:round;stroke-linejoin:round;stroke-miterlimit:10;}
	.st33{fill:none;stroke:#191919;stroke-width:4.194;stroke-linecap:round;stroke-linejoin:round;stroke-miterlimit:10;}
	.st34{fill:#75BFCB;stroke:#75BFCB;stroke-width:6.4964;stroke-linecap:round;stroke-linejoin:round;stroke-miterlimit:10;}
	.st35{fill:none;stroke:#FFFFFF;stroke-width:6.4964;stroke-linecap:round;stroke-linejoin:round;stroke-miterlimit:10;}
	.st36{fill:none;stroke:#FFFFFF;stroke-width:1.9602;stroke-linecap:round;stroke-linejoin:round;stroke-miterlimit:10;}
	.st37{fill:#FFFFFF;stroke:#75BFCB;stroke-width:5.2271;stroke-linecap:round;stroke-linejoin:round;stroke-miterlimit:10;}
	.st38{fill:none;stroke:#FFFFFF;stroke-width:6.2443;stroke-linecap:round;stroke-linejoin:round;stroke-miterlimit:10;}
	.st39{fill:#FFFFFF;stroke:#75BFCB;stroke-width:5.6645;stroke-linecap:round;stroke-linejoin:round;stroke-miterlimit:10;}
	.st40{fill:#FFFFFF;stroke:#75BFCB;stroke-width:5.4319;stroke-linecap:round;stroke-linejoin:round;stroke-miterlimit:10;}
	.st41{fill:#FFFFFF;stroke:#75BFCB;stroke-width:4.5528;stroke-linecap:round;stroke-linejoin:round;stroke-miterlimit:10;}
	.st42{fill:#FFFFFF;stroke:#75BFCB;stroke-width:3.8414;stroke-linecap:round;stroke-linejoin:round;stroke-miterlimit:10;}
	.st43{fill:none;stroke:#FFFFFF;stroke-width:4.5889;stroke-linecap:round;stroke-linejoin:round;stroke-miterlimit:10;}
	.st44{fill:#75BFCB;stroke:#75BFCB;stroke-width:4.7742;stroke-linecap:round;stroke-linejoin:round;stroke-miterlimit:10;}
	.st45{fill:#FFFFFF;stroke:#75BFCB;stroke-width:4.1628;stroke-linecap:round;stroke-linejoin:round;stroke-miterlimit:10;}
	.st46{fill:#FFFFFF;stroke:#75BFCB;stroke-width:3.9919;stroke-linecap:round;stroke-linejoin:round;stroke-miterlimit:10;}
	.st47{fill:#FFFFFF;stroke:#75BFCB;stroke-width:3.3459;stroke-linecap:round;stroke-linejoin:round;stroke-miterlimit:10;}
	.st48{fill:none;stroke:#75BFCB;stroke-width:5;stroke-linecap:round;stroke-linejoin:round;stroke-miterlimit:10;}
	.st49{fill:none;stroke:#FFFFFF;stroke-width:4;stroke-linecap:round;stroke-linejoin:round;stroke-miterlimit:10;}
	.st50{fill:none;stroke:#191919;stroke-width:4.0754;stroke-linecap:round;stroke-miterlimit:10;}
</style>
<path class="st6" d="M259.04,208.98c0,30.88-26.84,55.51-58.5,51.82c-23.87-2.78-43.05-22.18-45.61-46.07
	c-1.11-10.37,0.81-20.15,5.01-28.66c0.25-0.56,0.53-1.1,0.81-1.63c2.5-4.69,15.05-22.31,17.3-29.32c1.36-4.27,1.98-8.7,1.91-13.12
	c-0.12-8.01,6.48-14.51,14.49-14.51h24.73c8.21,0,14.53,6.81,14.5,15.02c0,0.05,0,0.1,0,0.15c0,4.19,0.62,8.39,1.91,12.45
	c2.22,7.01,14.8,24.62,17.3,29.32c0.28,0.53,0.56,1.06,0.81,1.63C257.13,192.99,259.04,200.75,259.04,208.98z"/>
<rect x="192.9" y="113.13" class="st19" width="27.86" height="4.59"/>
<rect x="192.9" y="102.73" class="st19" width="27.86" height="4.59"/>
<rect x="192.9" y="92.33" class="st19" width="27.86" height="4.59"/>
<line class="st20" x1="206.84" y1="288.19" x2="206.84" y2="337.83"/>
<line class="st20" x1="242.98" y1="278.52" x2="261.97" y2="324.38"/>
<line class="st20" x1="174.4" y1="278.52" x2="155.4" y2="324.38"/>
<line class="st20" x1="271.71" y1="249.36" x2="306.81" y2="284.46"/>
<line class="st20" x1="148.55" y1="254.74" x2="113.46" y2="289.84"/>
<g>
	<ellipse class="st21" cx="172.55" cy="605.03" rx="53.9" ry="30.36"/>
	<circle class="st3" cx="172.55" cy="606.69" r="37.83"/>
	<g>
		<line class="st22" x1="178.65" y1="569.35" x2="178.65" y2="606.69"/>
		<line class="st22" x1="166.45" y1="606.69" x2="166.45" y2="644.03"/>
		<line class="st22" x1="172.55" y1="612.79" x2="209.74" y2="612.79"/>
		<line class="st22" x1="135.36" y1="600.77" x2="172.55" y2="600.77"/>
	</g>
	<g>
		<line class="st22" x1="150.4" y1="575.97" x2="176.8" y2="602.38"/>
		<line class="st22" x1="168.18" y1="611" x2="194.58" y2="637.41"/>
		<line class="st22" x1="176.8" y1="611" x2="203.1" y2="584.7"/>
		<line class="st22" x1="142.01" y1="628.81" x2="168.31" y2="602.51"/>
	</g>
	<path class="st3" d="M175.34,667.25h-5.56v9.25c0,0.79,0.64,1.44,1.44,1.44h2.69c0.79,0,1.44-0.64,1.44-1.44V667.25z"/>
	<path class="st23" d="M209.75,627.45l-9.28,38.64h-55.83l-9.28-38.63c7.14,13.2,21.12,22.17,37.18,22.17
		S202.61,640.66,209.75,627.45z"/>
	<path class="st24" d="M172.57,649.67c-0.19,0.01-0.4,0.01-0.61,0.01v-0.02C172.16,649.67,172.36,649.68,172.57,649.67z"/>
	<path class="st25" d="M211.16,626.3c0,0-16.67,22.97-38,23.36c-0.19,0.01-0.39,0.02-0.59,0.01c-0.21,0.01-0.41,0-0.61-0.01
		c-21.32-0.39-38-23.36-38-23.36s13.95,10.24,38.59,10.24C197.2,636.54,211.16,626.3,211.16,626.3z"/>
	<path class="st26" d="M206.78,580.85c0,0-14.52-18.53-33.09-18.84c-0.17-0.01-0.34-0.02-0.52-0.01c-0.18-0.01-0.36,0-0.53,0.01
		c-18.57,0.31-33.09,18.84-33.09,18.84s12.15-8.26,33.61-8.26C194.62,572.59,206.78,580.85,206.78,580.85z"/>
	<path class="st24" d="M173.16,649.66v0.02c-0.21,0-0.4,0-0.59-0.01C172.77,649.68,172.97,649.67,173.16,649.66z"/>
	<circle class="st3" cx="172.55" cy="606.69" r="5.53"/>
</g>
<path class="st27" d="M132.35,862.06V690.41c0-8.35,6.77-15.12,15.12-15.12h124.56c8.35,0,15.12,6.77,15.12,15.12v171.64"/>
<rect x="185.47" y="677.46" class="st28" width="50.16" height="5.15"/>
<path class="st29" d="M271.59,825.75L271.59,825.75c0,2.44-1.98,4.42-4.42,4.42h-19.01c-2.11,0-3.93-1.5-4.33-3.58l-7.1-36.92
	c-0.01-0.04-0.07-0.05-0.09,0l-19.36,61.34c-0.52,1.94-2.27,3.26-4.26,3.26h-0.14c-2.05-0.07-3.79-1.54-4.19-3.54l-19.03-78.82
	c-0.01-0.04-0.07-0.04-0.09,0l-13.62,54.9c-0.49,1.97-2.26,3.35-4.29,3.35h-19.51c-2.26,0-4.3-1.62-4.57-3.87
	c-0.32-2.68,1.76-4.96,4.38-4.96h16.2c0.02,0,0.04-0.01,0.04-0.03l17.55-70.75c0.5-2,2.32-3.4,4.39-3.36
	c2.07,0.05,3.83,1.52,4.23,3.55l19.21,79.73c0.01,0.04,0.07,0.05,0.08,0l19.47-61.75c0.54-1.99,2.37-3.35,4.43-3.26
	c2.05,0.08,3.79,1.56,4.17,3.58l10.03,52.25c0,0.02,0.02,0.04,0.04,0.04h15.33C269.61,821.33,271.59,823.31,271.59,825.75z"/>
<path class="st30" d="M312.19,433.24c0,0,1.12-11.16,4.22-14.91c11.02-13.29,62.85-9.94,62.85-9.94"/>
<path class="st30" d="M312.19,498.01c0,0,7.17,57.3,17.16,65.87s90.2-22.36,90.2-22.36s-8.59-14.98-21.44-18.06
	s-34.77,7.05-34.77,7.05s3.85-7.89,3.85-16.42c0-8.53-4.82-16.08-4.82-16.08l-19.81-9.84L312.19,498.01z"/>
<path class="st30" d="M422.44,533.13c0,0,4.91-0.8,6.19-6.69c1.32-6.07-6.05-6.68-6.05-6.68l-0.77-0.05
	c-22.42-1.7-79.24-31.53-79.24-31.53s-131.71,43.58-157.77,44.87s-36.94-13.03-36.94-26.23c0,0,25.63-10.08,46.94-18.64
	c22.09-8.87,180.97-83.85,200.24-83.89c19.27-0.05,88.8,35.7,88.8,35.7l84.82,48.19l77.83,9.73c0,0,19.27,42.28,12.14,77.91
	c-7.14,35.63-22.13,57.05-22.13,57.05l-94.97-40.42c0,0-44.8,7.68-59.8,6.65c-18.51-1.27-55.36-9.25-71.78-9.25
	s-76.14-6.91-89.99-5.08c-13.05,1.73-31.32,4.28-29.18-12.05c2.53-19.25,25.74-35.81,48.58-36.69
	C362.2,535.14,407.44,535.44,422.44,533.13"/>
<path class="st3" d="M151.75,508.73l7.14,8.57c0,0,22.13-2.14,26.41-8.57c4.28-6.42,0-13.56,0-13.56L151.75,508.73z"/>
<path class="st3" d="M305.01,561.21c5.24-4.58,17.44-6.96,23.77-4.29s2.73,23.84,2.73,23.84s-24.58,3.51-30.14,2.56
	C293.8,582.03,301.13,564.6,305.01,561.21z"/>
<g>
	<line class="st31" x1="121.76" y1="451" x2="230.85" y2="562.4"/>
	<line class="st31" x1="232" y1="452.15" x2="120.6" y2="561.24"/>
</g>
</svg>
