<svg id="Lager_1" data-name="Lager 1" xmlns="http://www.w3.org/2000/svg" viewBox="0 0 347.74 377.87"><defs><style>.cls-1,.cls-4,.cls-5,.cls-6{fill:none;}.cls-2{fill:#71bbcd;}.cls-3{fill:#fff;}.cls-4{stroke:#010101;stroke-linejoin:round;stroke-width:4px;}.cls-4,.cls-5,.cls-6{stroke-linecap:round;}.cls-5,.cls-6{stroke:#76c0cc;stroke-miterlimit:10;}.cls-5{stroke-width:6.1px;}.cls-6{stroke-width:6px;}</style></defs><path class="cls-1" d="M325.26,229.92s-12.2-.39-14.33-2.77-4.85-8.86-4.27-13.51a8.37,8.37,0,0,0-4.45-8.52c-1.94-1-1.55,2.32-3.88-.19s-1.16-7.37-7.36-10.27l-.11,0a123.31,123.31,0,0,0-68.42-82.2c3.52-1.17,7.3-5,7.3-5l76,8.45Z"/><path class="cls-2" d="M294.5,224.43a122.9,122.9,0,1,1-3.64-29.81A122.87,122.87,0,0,1,294.5,224.43Z"/><path class="cls-3" d="M290.86,194.62c-6.16-2.75-11.9,7.24-12.29,12.44s-5.62,13.17-7.75,13-.39-5.43-1.36-8.14-4.26-3.68-5-7.36,1.94-10.47,0-11-1.16,3.49-3.87,3.88-6-8.14-8.72-8.53-9.88,1.75-12.4-1.55-3.29-1.93-6-.77-7.36-7.17-10.46-5.81,7,10.85,10.08,11,2.9-4.84,4.45-.78,4.07,1.55,5.62,3.1-4.26,9.11-6.2,10.08-3.29-.58-4.46,1.55-12.2,6.2-13.75,5-1.55-2.71-2.52-6.2-2.52-5.82-5.81-8.53,0-3.87-2.52-5.23-3.3-8.14-6.78-7.75,1.16,4.07,3.48,7.75-1,6.59,2.14,9.88,8.91,7.56,10.07,11.05,2.91,3.87,8.14,2.13,3.68-1.16,5.23-.58-1.36,6.39-2.52,13.89-13.76,13-17.44,17.3,2.52,13.37,3.49,18.41-7.94,4.84-9.49,8.44,1.93,5.9,1.93,7.45-2.32,1.55-5.42,2.32-3.49,5.43-4.85,10.85-12.59,6.2-16.08,6.59-2.32-1.36-1.35-3.88-1.55-5-5.23-9.68-2.91-11.63-5.24-17.64,2.33-5.81,3.3-12.2-4.46-12.79-7.58-17.44,1-7.17,0-10.21-3.85-.45-5.79-1.42-1.16-4.65-3.49-4.65-6.2,1.94-9.88,4.65-5.81,1.55-14.34-3.68-6-14.33-5.81-18.21-1.94-1.16-1.36-9.3,10.08-9.11,10.66-10.27,0-4.07,0-6.39,3.68-3.49,5.23-4.85-1.16-4.07,1-3.68,1.74,3.49,6.39,1.16,14.34-3.68,18.33-3.87.27,4.07,0,6.78,3.57,1.55,7.06,1.94,6.2,4.45,8.71,3.11-1.16-1.95,1.94-3.69,7,3.87,9.69,3.68,1.74-1.16,4.46-1.55,1.93,1.35,5,1.55,3.69-8.91,2.14-10.85-11.63.19-14.5-2.71-3.52-4.27-5.07-3.11,1.74,6.59-1,7.28-1.36-6.31-2.52-7.66-2.33-2.52-2.52-3.49-2.13-.78-2.52,1,4.26,2.13,4.07,3.68-1.55-.78-3.29-1,.19,4.65-1.17,5.81-1.35-1.16-1-3.1-3.68-3.1-6.2-4.84-1-3.88-3.37-5.62-3.8,1.94-5.15,2.47-3.49-1.69-5-1.5.78,2.32,1.16,4.26-5.42,1.36-5,4.46-8.34,6.59-8.53,5.23-3.68-2.13-5.53-3.1-.09-1.74.49-4.07-1.35-2.91,0-5.28,8.33.05,10.66,0,.19-4,.58-6.15-3.1-1.16-4.46-3.1,4.07-2.33,6.59-2.91,4.65-4.07,6.2-5.64,5-.56,6.59-.94-1.74-4.65,0-6.2,1.55,3.1,2.52,6,5.42-.58,8.52-1.35,3.69.58,4.85,0,0-3.49,1.35-5.62,3.1,3.1,4.27,2.32-2.33-2.52-1.75-4.07,6.78-1,6.2-2.32-5.23,1-7.55,1.16-3.3-4.26-3.3-5.43,5.23-2.13,5.23-3.87-9.1,1.36-9.1,4.26,2.71,1.75,3.1,4.65-6.78,8-8.91,7.56-1.75-5.81-2.91-6.78-2.13,1.94-4.85,2.9-3.29-4.07-3.29-6.58,3.88-2.52,7.09-3.69,3.28-4.16,7.35-7.84,10.87-5.58,14.09-4.36c2.26.85,3.49,2.18,7.41,4.21s7.27,2,6.54,4.36-6.39-1.6-5.52,2.18,7,.58,8.72-2.61,4.36.29,6.83-2.47,7.56-1,11.33-1.6a6.9,6.9,0,0,0,1.13-.28A123.31,123.31,0,0,1,290.86,194.62Z"/><path class="cls-1" d="M245.88,325v24.23l-133.53.26,7.38-13.42A123.22,123.22,0,0,0,244.4,323.53,17.9,17.9,0,0,1,245.88,325Z"/><path class="cls-3" d="M244.4,323.53a123.22,123.22,0,0,1-124.67,12.56l1-1.9s11.74,1.27,14.3-3.07,5.36-8.68,7.4-8.17,6.89,2.81,8.43,2.3,30.89-6.13,33.19-5.62,0,2.05,3.83,2.05,14.8-5.11,18.89-5.11,2.55.26,6.89,1.53,5.4,1.53,10.36.51,4.71-4.59,6.24-2,3.06,1,3.06,3.83,4.6,1.28,6.9,1C241.58,321.28,243.23,322.48,244.4,323.53Z"/><path class="cls-3" d="M107.25,209.08c0,3.32-8.69-.76-10,10s2.3,9.7-2.3,16.85-8.43,13.39-7.91,15.5,1.27,2.12.51,3.9-11,7.92-11.49,14,.51,8.68.51,8.68,1.53,6.89-.51,10.47c-1.54,2.67-3.49,5.06-4.7,7.53A123.28,123.28,0,0,1,55.05,184.5c2.07-.21,8.45-.78,10.58.07a12.15,12.15,0,0,1,4.85,3.06c2,1.79,3.57,2.3,4.6,2.05s2.55-1.41,3.06.06,1.53,2.75,3.57,5.3,7.15.76,9.71,2.55A22.67,22.67,0,0,1,96.27,203s0,2.24,4.59,1.73S107.25,205.76,107.25,209.08Z"/><path class="cls-3" d="M143.08,126.53s3.57-1,4.25,0-.17.17,0,1.53,1.19.51,1.88,2.38-1.37,1.71,0,4.09,3.06,0,2,3.23-14.13,6.3-12.6,4.6,4.26-4.43,4.43-4.6a5.64,5.64,0,0,0,.51-3.3c-.34-1.12,2.74.07,1.45-1.63s-1.62-2.39-2.64-3.07S143.08,126.53,143.08,126.53Z"/><path class="cls-3" d="M134.57,133.51c.51,0,4.59-2.39,5.44-2.21s1.2,1.7,1.71,2.21,2.38,2.38,0,3.06-4.26,1.36-4.77,2.38-4.08-2-3.57-2.38S134.57,133.51,134.57,133.51Z"/><path class="cls-3" d="M124,114.88c1.71-.27,2.22.93,4.09,1.1a10.08,10.08,0,0,0,5.23-.57c2.09-.8,3.56-1,4.78-.57a3.41,3.41,0,0,1,2.24,2.84c.17,1.36-3.23,2.72-3.4,3.91s-3.74,2.56-4.77,2.22-2.21-1.2-3.74-.51-3.4,1.19-4.43-.18-2.09-4.93-1.13-5.78A4.34,4.34,0,0,0,124,114.88Z"/><path class="cls-4" d="M294.5,224.43a122.9,122.9,0,1,1-3.64-29.81A122.87,122.87,0,0,1,294.5,224.43Z"/><path class="cls-2" d="M169.58,56.06c-6.13,0-11.11,5.25-11.11,11.72a12.1,12.1,0,0,0,1.13,5.11C160.85,75.18,167,86.41,169,90a.69.69,0,0,0,1.21,0l8.52-15.53a12,12,0,0,0,2-6.69C180.7,61.31,175.72,56.06,169.58,56.06Zm1.36,17.37A5.92,5.92,0,1,1,175.36,69,5.86,5.86,0,0,1,170.94,73.43Z"/><path class="cls-5" d="M157.56,50.47a17,17,0,0,1,24.06,0"/><path class="cls-6" d="M150.39,41a27.16,27.16,0,0,1,38.4,0"/><path class="cls-6" d="M142.92,31.8a37.72,37.72,0,0,1,53.34,0"/></svg>