<svg id="Lager_1" data-name="Lager 1" xmlns="http://www.w3.org/2000/svg" viewBox="0 0 347.74 387.02"><defs><style>.cls-1,.cls-2,.cls-5{fill:#fff;}.cls-1,.cls-2,.cls-4,.cls-5,.cls-6{stroke:#191919;stroke-width:2.5px;}.cls-1,.cls-5,.cls-6,.cls-7{stroke-linecap:round;}.cls-1,.cls-4,.cls-6{stroke-linejoin:round;}.cls-2,.cls-5,.cls-7{stroke-miterlimit:10;}.cls-3{fill:#71bbcf;}.cls-4,.cls-6,.cls-7{fill:none;}.cls-7{stroke:#71bbcf;stroke-width:3.76px;}</style></defs><path class="cls-1" d="M152.05,165.24A121,121,0,0,1,163.42,152c5.51-5.35,19-13.16,27.06-17.87,0,0,6-12.94,8.17-20.77,3.41-12.06,11.4-13.85,15.95-14a3,3,0,0,1,3,3.81l-11.26,38.79-14,14.79"/><path class="cls-1" d="M132.82,258.21l-46.67,53S57.71,298.17,49,284.9s-9.36-29.79-9.36-29.79l82.56-60.83,13.26-45.61a21.39,21.39,0,0,1,3.93-9.14l13.18-17.68a14.42,14.42,0,0,1,5.73-4.56l15.74-8.89s9.46,16-8.3,23.88L156.38,152s4.07,1.94,9.18,16.59c1,2.78-4.19,25.28-4.19,25.28"/><path class="cls-1" d="M215.76,180.47,238.1,162s4.45-23.49,11.34-30.79a16.22,16.22,0,0,1,12.69-5.5,1.58,1.58,0,0,1,1.47,2l-10.92,44.46-28.52,30.7-23.34,15.06A54.56,54.56,0,0,1,172,226.65l-11.58.18-2.55,2.89"/><path class="cls-2" d="M153.65,323.8s-29.95-6.21-33-9.22c-1-1-.93-8.44,10-13.12,12.31-5.26,49.43,3.88,49.43,3.88"/><path class="cls-3" d="M126.65,307.43c3.11-1.15,8.95-.16,11.33,2.1s-1.24,9.15-1.24,9.15-11.7-2.24-14-3.6C119.56,313.23,124.35,308.29,126.65,307.43Z"/><path class="cls-4" d="M153.65,323.8s36,13.24,41.77,13.36c3.59.08,37.94,1.73,37.94,1.73,17.28,13.65,26.18,22.65,26.18,22.65s17.48-13.43,24.6-28.76,5.75-19,5.75-19L257,296.69s-30.65-51.05-35.52-54.31c-3.08-2.07-29.3-16.52-29.3-16.52s-6.57-.76-9.86,1.19a9.17,9.17,0,0,0-4.1,4.41"/><path class="cls-5" d="M199,241s-23.65-12.59-28.67-10.68a11.31,11.31,0,0,0-6.51,6.07"/><path class="cls-1" d="M189.67,250.08s-22.89-12.69-28-15.34c-5.66-2.91-23.25-10.88-23.25-10.88l-17.44-10.49s-10.37,2.6-3.68,13.32"/><path class="cls-5" d="M191.31,313.53l-19.44-15-16.64-21.69s-7.33-5.2-10.28-7.05-25.71-13.31-31.84-26.2.57-20.33,4.14-16.92c3.37,3.21,62.9,39.56,62.9,39.56"/><path class="cls-3" d="M113.21,233.48c.89,2.47,4.48,5.5,7.06,5.78s4.9-5.43,4.9-5.43-7.34-5.93-9.35-6.64C113.09,226.23,112.55,231.65,113.21,233.48Z"/><path class="cls-3" d="M118.25,220.72c.9,2.46,4.51,5.47,7.08,5.73S130.2,221,130.2,221s-8.31-6.63-9.38-6.59C118.55,214.5,117.58,218.89,118.25,220.72Z"/><path class="cls-6" d="M192.34,156.72l16.86-13.78s8.17-27.74,14.47-38c3.42-5.59,11.65-8.93,14.66-7.36,1.38.73,1.75,4.3,1.26,5.83l-2.43,7.77"/><path class="cls-6" d="M204.39,167.63l19.49-16.73s6.39-32.47,13.28-39.76a15.9,15.9,0,0,1,13.52-4.74,2.65,2.65,0,0,1,2.29,3.27l-6.29,25.54"/><path class="cls-1" d="M184.87,152s12.94,4.76,30.89,28.51"/><path class="cls-3" d="M173.27,116.26c-1.39,2.36-6.16,5.08-7.86,5.21s-2.89-5-2.89-5,8.27-6,9.75-6.58C174.29,109.14,174.3,114.51,173.27,116.26Z"/><path class="cls-7" d="M98.59,221.6a20.2,20.2,0,0,0,2.19,28.48"/><path class="cls-7" d="M103.85,226.12a13.54,13.54,0,0,0,1.47,19.09"/></svg>