<svg id="Lager_1" data-name="Lager 1" xmlns="http://www.w3.org/2000/svg" viewBox="0 0 347.74 368.64"><defs><style>.cls-1,.cls-10,.cls-12,.cls-2{fill:#fff;}.cls-1,.cls-2,.cls-3,.cls-4,.cls-5,.cls-9{stroke:#010101;}.cls-1,.cls-10,.cls-11,.cls-12,.cls-2,.cls-3,.cls-4,.cls-5,.cls-6,.cls-8,.cls-9{stroke-linecap:round;}.cls-1,.cls-10,.cls-12,.cls-4,.cls-5,.cls-6,.cls-8,.cls-9{stroke-linejoin:round;}.cls-1,.cls-2,.cls-9{stroke-width:2.5px;}.cls-11,.cls-2,.cls-3{stroke-miterlimit:10;}.cls-11,.cls-3,.cls-4,.cls-5,.cls-6,.cls-8{fill:none;}.cls-11,.cls-3,.cls-5{stroke-width:2px;}.cls-4{stroke-width:1.92px;}.cls-11,.cls-6,.cls-8{stroke:#71bbcf;}.cls-6{stroke-width:1.77px;}.cls-7,.cls-9{fill:#71bbcf;}.cls-8{stroke-width:1.74px;}.cls-10,.cls-12{stroke:#191919;}.cls-10{stroke-width:2.08px;}.cls-12{stroke-width:1.9px;}</style></defs><path class="cls-1" d="M204.56,116.58c4.9,20.2,2,66.38-1.07,81.69-3,14.53-14.63,16.58-34.4,15.41s-31.23,0-34.89-6.59c-5-9.11-4.76-26.94-4.76-26.94S105.65,174.63,110,158.3c5.09-19.05,17.6-4.7,17.6-4.7s.76-36.53,8-40.32c8.3-4.38,23,1.91,37.6,1.74C189.83,114.83,202.77,109.19,204.56,116.58Z"/><path class="cls-2" d="M208,174.34s17.59-8,12.75-21.91c-4-11.6-13.54-2-13.54-2"/><path class="cls-3" d="M128.72,166.71a14.61,14.61,0,0,0-4.27-7.85,7.56,7.56,0,0,0-7-1.84"/><path class="cls-3" d="M214.11,156.89s-2.83-.58-4.38.78-2.53,5.45-2.53,5.45"/><path class="cls-4" d="M181.93,175.6s2.27-6.86-3.14-7.84-15.5,10.38-15.5,10.38"/><path class="cls-4" d="M180.38,185s-.71,4.11-4.27,4.9S167,185,167,185"/><path class="cls-5" d="M158.76,179.43s-.35-1.86.43-2.34"/><path class="cls-5" d="M176.19,162.32s5.81-3.24,3.92-6.44-7.27,0-7.27,0"/><line class="cls-6" x1="158.94" y1="156.58" x2="150.99" y2="159.49"/><line class="cls-6" x1="186.82" y1="156.58" x2="193.22" y2="159.56"/><path class="cls-7" d="M161.89,127.75s1.18,9.3,0,9.95-15.13-1.29-15.13-1.29-.8-6.09,1.6-7.38S161.89,127.75,161.89,127.75Z"/><line class="cls-8" x1="164.37" y1="137.06" x2="164.37" y2="130.84"/><path class="cls-7" d="M183.15,128.11s-.94,8.25,0,8.71,14.46,0,14.46,0,.47-6.38-1.71-7.78S183.15,128.11,183.15,128.11Z"/><line class="cls-6" x1="181.17" y1="136.54" x2="181.17" y2="130.39"/><ellipse cx="153.84" cy="148.36" rx="3.3" ry="5.07"/><ellipse cx="189.25" cy="147.87" rx="3.3" ry="5.07"/><path class="cls-7" d="M195.43,88.08s-2.7-7.85-8.66-8.14-8.43,5.38-8.43,5.38-4.65-2.33-5.53-4.51-2.76,3.06-4.79,4.07-2.33,2.48-6.69,1.89-4.87-6.83-9.49-6.25a6.69,6.69,0,0,0-5.63,4.8S142.87,82,138.65,84s-4.51,7.56-4.51,7.56-1.16.87-3.34-.87-2.91-1-2.91-1-2.47,4.22-2.32,7.42-3.93-1.89-6.11,1.45,2.76,6.83-.87,8.87-8,2.9-8.72,6.54,3.63,9.16,3.63,9.16-5.09-.39-5.67,4.45,4.8,8.19,4.36,10.81-3.34,0-3.34,0-4.65,3.64-2.18,6.91a37,37,0,0,1,4.07,7.14,8.31,8.31,0,0,1,8.77-5.42c4.31.34,10,6.78,10,6.78s.44-32,6.54-37.94,19.05,1.45,38.09,1c19.63-.45,24.19-4.66,27.33-.88s4.36,34.89,4.36,34.89l6-5.09s5.82-3.34,3.93-6.83-1.76-1.83-2.06-5.91c-.25-3.54,5.69-7.9,4.24-10.81s.43-.72-2.62-.14-4.36-2.47-3.92-2.76,7.27-6,4.21-10.76-4.65-4.94-4.65-4.94,5.93-6.84,2.24-10.91-6.46-.43-7-3,.88-3.78-1.6-3.49S195.43,88.08,195.43,88.08Z"/><line class="cls-6" x1="136.33" y1="155.28" x2="131.09" y2="150.45"/><line class="cls-6" x1="136.33" y1="159.95" x2="131.09" y2="155.28"/><line class="cls-6" x1="135.31" y1="163.56" x2="131.09" y2="159.95"/><path class="cls-1" d="M131.19,232.14s15.6-4.5,17.64-9.44,3-14,3-14H189.7s-1.86,9.89,0,12.5,14.37,7.85,14.37,7.85-4.36,30.53-5.82,30.53S133.71,257,133.71,257Z"/><path class="cls-7" d="M207.73,163s-15.67,30.28-20.91,32.41-26.66,2.69-30.73,0-27.89-34.2-27.89-34.2-1.69,33.33,3.85,46.34c4.1,9.65,16.5,8.9,35.92,9.11,19.2.2,29.27,1.51,37-4.88S207.73,163,207.73,163Z"/><path class="cls-9" d="M278.74,308.79s-40.92,20.9-107.61,20.9c-69.94,0-118.29-20.9-118.29-20.9,8.27-23.12,19.2-53.25,20.79-55.39,2.62-3.48,61.78-25,61.78-25s9.75,10.17,32.28,12.49,38.13-13.46,38.13-13.46,50.41,23.94,53,26.84C260.34,255.94,270.36,284.43,278.74,308.79Z"/><path class="cls-4" d="M176.63,178a33.67,33.67,0,0,1-5.18,2c-1.15.13,5.17,1,5.15,2.3"/><path class="cls-10" d="M237.34,326s-7.49,8.12-16.19,11.52-24.89,2.72-24.89,2.72l-22.9-82-12-13.85s-12.25-38.75,12.5-26.51l1.45-13.31s1-24.53.67-30.27c-.19-3.74,2.35-6.67,4.58-8.59a2.36,2.36,0,0,1,3.88,1.54c.58,5.57,1.24,15.77,1.89,19.31,1.42,7.62,2,15.8,3.27,20.71a13.51,13.51,0,0,1,.33,2.25h0c2.84,5.83,6.13,14.24,6.13,14.24l.85,22.54,9.63,18.1Z"/><path class="cls-11" d="M190.64,254s14.41-4.12,16.92,1.54c1.91,4.3-13,10.34-10.85,15.57,2.56,6.31,14.84-5,17.49,1,3.16,7.24-12.21,11.43-10.19,17.56,2.4,7.34,17-2,19.25,2.74,4.25,8.9-13.41,12-11,19.59,2.85,8.9,15.71-4.57,20.81.2"/><path class="cls-12" d="M173.19,231.72c-3-.47-5.71-5.34-7.22-8.76a2.83,2.83,0,0,0-4.29-1.1l-1.88,1.42a2.82,2.82,0,0,0-.81,3.54,12.86,12.86,0,0,1,1.37,7.12v.16a2.76,2.76,0,0,1-4.72,1.61l-5.72-9.35a2.82,2.82,0,0,1,.05-4L163.65,206a2.85,2.85,0,0,1,3.31-.46l16.95,7.69,9.85,4.86"/><path class="cls-10" d="M184,225.26l-7.37-4.76-14.23-5.19-6,3.78-5,18.16,1,1.6,15.52,4a13.3,13.3,0,0,0-1.84-6.51c-1.89-3-5.45-1.45-5.45-1.45s2.19-2.85,1.79-5.82a13.85,13.85,0,0,0-2-4.5s4.05,3.55,6.84,5.72,7.14,2.64,7.14,2.64-1.61,1.53-2.21,6.64a27.12,27.12,0,0,0,.51,9.19"/><path class="cls-7" d="M182.47,166l-1.16.31a.78.78,0,0,0-.59.65c-.16,1.07-.4,3.49.44,4.48a2.67,2.67,0,0,0,2,.92.8.8,0,0,0,.82-.89l-.48-4.77A.81.81,0,0,0,182.47,166Z"/></svg>