<svg id="Lager_1" data-name="Lager 1" xmlns="http://www.w3.org/2000/svg" viewBox="0 0 347.74 368.64"><defs><style>.cls-1{fill:#71bbcf;}.cls-2,.cls-4{fill:#fff;}.cls-3,.cls-5{fill:none;stroke:#71bbcf;}.cls-3,.cls-4,.cls-5{stroke-linecap:round;}.cls-3,.cls-4{stroke-linejoin:round;}.cls-3{stroke-width:7px;}.cls-4{stroke:#191919;stroke-width:2px;}.cls-5{stroke-miterlimit:10;stroke-width:2.77px;}</style></defs><path class="cls-1" d="M230.21,298.83h-112c-8.34,0-14.64-7.09-13.14-14.79l31.58-162.47c1.54-7.94,8.91-13.72,17.52-13.72h40.07c8.6,0,16,5.78,17.52,13.72L243.35,284C244.84,291.74,238.54,298.83,230.21,298.83Z"/><path class="cls-2" d="M206.92,223.3l-18.1-.06H163l-21.45.07c-5.7,0-10-3.9-9-8.13l14-89.48c1.06-4.37,6.1-7.54,12-7.54H189.9c5.89,0,10.93,3.17,12,7.54l14,89.48C216.93,219.4,212.62,223.3,206.92,223.3Z"/><line class="cls-3" x1="174.21" y1="225.04" x2="250.64" y2="148.61"/><line class="cls-4" x1="174.21" y1="208.28" x2="174.21" y2="127.94"/><line class="cls-4" x1="169.62" y1="137.98" x2="178.81" y2="137.98"/><line class="cls-4" x1="169.62" y1="127.94" x2="178.81" y2="127.94"/><line class="cls-4" x1="169.62" y1="148.02" x2="178.81" y2="148.02"/><line class="cls-4" x1="169.62" y1="158.07" x2="178.81" y2="158.07"/><line class="cls-4" x1="169.62" y1="168.11" x2="178.81" y2="168.11"/><line class="cls-4" x1="169.62" y1="178.15" x2="178.81" y2="178.15"/><line class="cls-4" x1="169.62" y1="188.19" x2="178.81" y2="188.19"/><line class="cls-4" x1="169.62" y1="198.24" x2="178.81" y2="198.24"/><line class="cls-4" x1="169.62" y1="208.28" x2="178.81" y2="208.28"/><path class="cls-5" d="M263.55,153.24a10,10,0,0,1-6.75,12.37"/><path class="cls-5" d="M268.45,151.8a14.85,14.85,0,0,1-10.07,18.45"/><path class="cls-5" d="M263.55,153.24a10,10,0,0,1-6.75,12.37"/><path class="cls-5" d="M244.52,134a10,10,0,0,0-12.25,7"/><path class="cls-5" d="M245.87,129.1a14.87,14.87,0,0,0-18.27,10.4"/><path class="cls-5" d="M244.52,134a10,10,0,0,0-12.25,7"/><path class="cls-4" d="M244.93,145.23l9.31,9.32a1.5,1.5,0,0,1-.13,2.32L238,167.76a2.06,2.06,0,0,1-2.59-.31L232,164.11a2.06,2.06,0,0,1-.31-2.6l10.88-16.14A1.52,1.52,0,0,1,244.93,145.23Z"/><circle class="cls-1" cx="174.21" cy="225.04" r="10.47"/><circle class="cls-2" cx="174.21" cy="225.04" r="5.96"/></svg>