<svg id="Lager_1" data-name="Lager 1" xmlns="http://www.w3.org/2000/svg" viewBox="0 0 347.74 368.64"><defs><style>.cls-1,.cls-2,.cls-5{fill:#fff;}.cls-1,.cls-2,.cls-4,.cls-5,.cls-6{stroke:#191919;stroke-width:2.5px;}.cls-1,.cls-5,.cls-6,.cls-7{stroke-linecap:round;}.cls-1,.cls-4,.cls-6{stroke-linejoin:round;}.cls-2,.cls-5,.cls-7{stroke-miterlimit:10;}.cls-3{fill:#71bbcf;}.cls-4,.cls-6,.cls-7{fill:none;}.cls-7{stroke:#71bbcf;stroke-width:3.76px;}</style></defs><path class="cls-1" d="M155.45,150.47a121,121,0,0,1,11.37-13.28c5.51-5.35,19-13.16,27.06-17.87,0,0,6-12.94,8.17-20.77,3.41-12.06,11.4-13.85,15.95-14a3,3,0,0,1,3,3.81l-11.26,38.79-14,14.79"/><path class="cls-1" d="M136.22,243.44l-46.67,53s-28.44-13-37.12-26.27-9.36-29.79-9.36-29.79l82.56-60.83,13.26-45.61a21.39,21.39,0,0,1,3.93-9.14L156,107.08a14.42,14.42,0,0,1,5.73-4.56l15.74-8.89s9.46,16-8.3,23.88l-9.39,19.68s4.07,1.94,9.18,16.59c1,2.78-4.19,25.28-4.19,25.28"/><path class="cls-1" d="M219.16,165.7l22.34-18.43s4.45-23.49,11.34-30.79a16.22,16.22,0,0,1,12.69-5.5,1.58,1.58,0,0,1,1.47,2L256.08,157.4l-28.52,30.7-23.34,15.06a54.56,54.56,0,0,1-28.78,8.72l-11.58.18L161.31,215"/><path class="cls-2" d="M157.05,309s-30-6.21-33-9.22c-1-1-.93-8.44,10-13.12,12.31-5.26,49.43,3.88,49.43,3.88"/><path class="cls-3" d="M130.05,292.66c3.11-1.15,8.95-.16,11.33,2.1s-1.24,9.15-1.24,9.15-11.7-2.24-14-3.6C123,298.46,127.75,293.52,130.05,292.66Z"/><path class="cls-4" d="M157.05,309s36,13.24,41.77,13.36c3.59.08,37.94,1.73,37.94,1.73,17.28,13.65,26.18,22.65,26.18,22.65s17.48-13.43,24.6-28.76,5.75-19,5.75-19l-32.94-17.06s-30.65-51.05-35.52-54.31c-3.08-2.07-29.3-16.52-29.3-16.52s-6.57-.76-9.86,1.19a9.17,9.17,0,0,0-4.1,4.41"/><path class="cls-5" d="M202.38,226.27s-23.65-12.59-28.67-10.68a11.31,11.31,0,0,0-6.51,6.07"/><path class="cls-1" d="M193.07,235.31S170.18,222.62,165,220c-5.66-2.91-23.25-10.88-23.25-10.88L124.33,198.6s-10.37,2.6-3.68,13.32"/><path class="cls-5" d="M194.71,298.76l-19.44-15-16.64-21.69s-7.33-5.2-10.28-7-25.71-13.31-31.84-26.2.57-20.33,4.14-16.92c3.37,3.21,62.9,39.56,62.9,39.56"/><path class="cls-3" d="M116.61,218.71c.89,2.47,4.48,5.5,7.06,5.78s4.9-5.43,4.9-5.43-7.34-5.93-9.35-6.64C116.49,211.46,116,216.88,116.61,218.71Z"/><path class="cls-3" d="M121.65,206c.9,2.46,4.51,5.47,7.08,5.73s4.87-5.45,4.87-5.45-8.31-6.63-9.38-6.59C122,199.73,121,204.12,121.65,206Z"/><path class="cls-6" d="M195.73,142l16.87-13.78s8.17-27.74,14.47-38c3.42-5.59,11.65-8.93,14.66-7.36,1.38.73,1.75,4.3,1.26,5.83l-2.43,7.77"/><path class="cls-6" d="M207.79,152.86l19.49-16.73s6.39-32.47,13.28-39.76a15.9,15.9,0,0,1,13.52-4.74,2.65,2.65,0,0,1,2.29,3.27l-6.29,25.54"/><path class="cls-1" d="M188.27,137.19s12.94,4.76,30.89,28.51"/><path class="cls-3" d="M176.67,101.49c-1.39,2.36-6.16,5.08-7.86,5.21s-2.89-5-2.89-5,8.27-6,9.75-6.58C177.69,94.37,177.7,99.74,176.67,101.49Z"/><path class="cls-7" d="M102,206.83a20.2,20.2,0,0,0,2.19,28.48"/><path class="cls-7" d="M107.25,211.35a13.54,13.54,0,0,0,1.47,19.09"/></svg>