<svg id="Lager_1" data-name="Lager 1" xmlns="http://www.w3.org/2000/svg" viewBox="0 0 347.74 387.02"><defs><style>.cls-1,.cls-4{fill:#fff;}.cls-1{stroke:#191919;stroke-miterlimit:10;stroke-width:2.5px;}.cls-2{fill:#71bbcf;}.cls-3,.cls-5{fill:none;stroke-linecap:round;stroke-linejoin:round;}.cls-3{stroke:#71bbcf;stroke-width:3.55px;}.cls-5{stroke:#76c0cc;}</style></defs><path class="cls-1" d="M53.73,222.45S149,196.37,161.35,188.24s61.54-57.13,74.86-58.72,10.43,11.13,17.86,14.86,12.89-2.87,20.47,2.1,1.22,18.46,2.26,19.82,12.27,4.06,13.51,8.5-4.22,13.47-3.6,15.69,11.42,10.71,8.53,18.51-6.16,7.42-11.09,14.7-13,19.63-18.24,22.6-65.09,3.28-80.61,7.63-114.53,57.9-114.53,57.9A99.29,99.29,0,0,1,52.93,265,170.72,170.72,0,0,1,53.73,222.45Z"/><path class="cls-2" d="M130.68,198s4.95-13.89,14.64-15.66A23,23,0,0,1,162.16,186l-15.09,8.61-2.37-.79Z"/><path class="cls-2" d="M162.11,266.11s15,7.62,23.52,2.59,8.49-19.35,8.49-19.35l-16.92,6-.42,2.8Z"/><path class="cls-3" d="M67.75,301.22C71.5,291.35,57.4,229.53,69.5,228s22.64,50.21,30.5,53.07S94.8,225.8,105.07,222s16.63,40.33,26.38,40.4S137.58,246,137.58,246"/><path class="cls-2" d="M147.07,194.64A56.44,56.44,0,0,1,169.26,219c7.75,16.73,7.67,38.2,7.67,38.2l17.19-7.87s-2.72-27-9.06-37.32c-10.59-17.24-22.9-26-22.9-26"/><path class="cls-2" d="M193.9,235.25l-19.65,10A8.18,8.18,0,0,1,163,241.16l-12.64-29.55a8.19,8.19,0,0,1,4.87-11l19.9-6.84a8.21,8.21,0,0,1,10.08,4.27l12.38,26.4A8.19,8.19,0,0,1,193.9,235.25Z"/><polygon class="cls-4" points="175.31 212.31 175.65 211.9 176 211.49 180.78 209.73 181.31 209.82 181.84 209.91 181.5 210.32 181.15 210.73 176.37 212.5 175.84 212.4 175.31 212.31"/><polygon class="cls-4" points="177.83 219.16 178.17 218.75 178.51 218.34 183.3 216.57 183.83 216.67 184.36 216.76 184.02 217.17 183.67 217.58 178.88 219.34 178.35 219.25 177.83 219.16"/><polygon class="cls-4" points="175.21 212.48 175.62 212.82 176.03 213.17 177.79 217.96 177.7 218.49 177.61 219.02 177.2 218.67 176.78 218.33 175.02 213.54 175.11 213.01 175.21 212.48"/><polygon class="cls-4" points="172.81 205.46 173.15 205.05 173.5 204.64 178.28 202.88 178.81 202.97 179.34 203.06 179 203.47 178.66 203.88 173.87 205.64 173.34 205.55 172.81 205.46"/><polygon class="cls-4" points="179.51 203.13 179.92 203.47 180.34 203.81 182.1 208.6 182.01 209.13 181.91 209.66 181.5 209.32 181.09 208.97 179.33 204.18 179.42 203.66 179.51 203.13"/><polygon class="cls-4" points="172.81 205.74 173.22 206.09 173.63 206.43 175.4 211.22 175.3 211.75 175.21 212.28 174.8 211.94 174.39 211.59 172.63 206.8 172.72 206.27 172.81 205.74"/><polygon class="cls-4" points="182.03 210.09 182.44 210.44 182.85 210.78 184.61 215.57 184.52 216.1 184.43 216.63 184.02 216.28 183.6 215.94 181.84 211.15 181.93 210.62 182.03 210.09"/><polygon class="cls-4" points="166.1 215.7 166.45 215.28 166.79 214.87 171.58 213.11 172.11 213.2 172.64 213.29 172.3 213.7 171.95 214.12 167.16 215.88 166.63 215.79 166.1 215.7"/><polygon class="cls-4" points="168.62 222.54 168.97 222.13 169.31 221.72 174.1 219.96 174.63 220.05 175.16 220.14 174.82 220.55 174.47 220.97 169.68 222.73 169.15 222.63 168.62 222.54"/><polygon class="cls-4" points="172.81 213.36 173.22 213.7 173.63 214.05 175.4 218.84 175.3 219.37 175.21 219.9 174.8 219.55 174.39 219.21 172.63 214.42 172.72 213.89 172.81 213.36"/><polygon class="cls-4" points="163.6 208.84 163.95 208.43 164.29 208.02 169.08 206.26 169.61 206.35 170.14 206.44 169.8 206.85 169.45 207.26 164.66 209.03 164.13 208.94 163.6 208.84"/><polygon class="cls-4" points="170.31 206.51 170.72 206.85 171.13 207.2 172.9 211.99 172.81 212.51 172.71 213.04 172.3 212.7 171.89 212.36 170.13 207.57 170.22 207.04 170.31 206.51"/><polygon class="cls-4" points="163.5 209.01 163.92 209.36 164.33 209.7 166.09 214.49 166 215.02 165.91 215.55 165.5 215.2 165.08 214.86 163.32 210.07 163.41 209.54 163.5 209.01"/><path class="cls-4" d="M171.71,196.53s-16.74,4.74-18,9.53,12.74,33.72,12.74,33.72-12.34-27.53-11-33.2C157,200.09,171.71,196.53,171.71,196.53Z"/><path class="cls-4" d="M183,233.86c-14.84-3.83-7.71-12-3.54-8.94C180.89,219.58,190,223,183,233.86Z"/><polyline class="cls-5" points="171.87 232.24 178.57 229.77 178.57 226.45 182.14 230.62 182.14 228.07 186.82 226.45"/></svg>