<svg id="Lager_1" data-name="Lager 1" xmlns="http://www.w3.org/2000/svg" viewBox="0 0 347.74 368.64"><defs><style>.cls-1{fill:#191919;}.cls-2{fill:#71bbcf;}.cls-3,.cls-4{fill:none;}.cls-3{stroke:#71bbcf;stroke-linecap:round;stroke-linejoin:round;stroke-width:3.38px;}.cls-4{stroke:#191919;stroke-miterlimit:10;stroke-width:3.11px;}</style></defs><polygon class="cls-1" points="146.32 217.18 144.84 218.04 143.35 218.89 127.12 218.89 125.64 218.04 124.16 217.18 125.64 216.33 127.12 215.47 143.35 215.47 144.84 216.33 146.32 217.18"/><polygon class="cls-1" points="146.32 193.97 144.84 194.82 143.35 195.68 127.12 195.68 125.64 194.82 124.16 193.97 125.64 193.11 127.12 192.26 143.35 192.26 144.84 193.11 146.32 193.97"/><polygon class="cls-1" points="146.8 216.79 145.95 215.31 145.1 213.83 145.1 197.6 145.95 196.12 146.8 194.64 147.66 196.12 148.51 197.6 148.51 213.83 147.66 215.31 146.8 216.79"/><polygon class="cls-1" points="146.25 240.38 144.77 241.24 143.29 242.09 127.06 242.09 125.58 241.24 124.1 240.38 125.58 239.53 127.06 238.68 143.29 238.68 144.77 239.53 146.25 240.38"/><polygon class="cls-1" points="146.74 240 145.89 238.52 145.04 237.04 145.04 220.8 145.89 219.32 146.74 217.84 147.6 219.32 148.45 220.8 148.45 237.04 147.6 238.52 146.74 240"/><polygon class="cls-1" points="189.33 193.59 187.85 194.45 186.37 195.3 170.14 195.3 168.66 194.45 167.17 193.59 168.66 192.74 170.14 191.89 186.37 191.89 187.85 192.74 189.33 193.59"/><polygon class="cls-1" points="166.75 216.42 165.89 214.94 165.04 213.46 165.04 197.23 165.89 195.75 166.75 194.26 167.6 195.75 168.45 197.23 168.45 213.46 167.6 214.94 166.75 216.42"/><polygon class="cls-1" points="189.82 216.42 188.97 214.94 188.11 213.46 188.11 197.23 188.97 195.75 189.82 194.26 190.67 195.75 191.53 197.23 191.53 213.46 190.67 214.94 189.82 216.42"/><polygon class="cls-1" points="189.27 240.01 187.79 240.86 186.31 241.72 170.07 241.72 168.59 240.86 167.11 240.01 168.59 239.16 170.07 238.3 186.31 238.3 187.79 239.16 189.27 240.01"/><polygon class="cls-1" points="166.69 239.62 165.83 238.14 164.98 236.66 164.98 220.43 165.83 218.95 166.69 217.47 167.54 218.95 168.39 220.43 168.39 236.66 167.54 238.14 166.69 239.62"/><polygon class="cls-1" points="189.76 239.62 188.9 238.14 188.05 236.66 188.05 220.43 188.9 218.95 189.76 217.47 190.61 218.95 191.46 220.43 191.46 236.66 190.61 238.14 189.76 239.62"/><polygon class="cls-1" points="220.52 193.6 219.04 194.45 217.56 195.31 201.33 195.31 199.84 194.45 198.36 193.6 199.84 192.75 201.33 191.89 217.56 191.89 219.04 192.75 220.52 193.6"/><polygon class="cls-1" points="197.94 216.43 197.08 214.94 196.23 213.46 196.23 197.23 197.08 195.75 197.94 194.27 198.79 195.75 199.64 197.23 199.64 213.46 198.79 214.94 197.94 216.43"/><polygon class="cls-1" points="221.01 216.43 220.16 214.94 219.3 213.46 219.3 197.23 220.16 195.75 221.01 194.27 221.86 195.75 222.72 197.23 222.72 213.46 221.86 214.94 221.01 216.43"/><polygon class="cls-1" points="220.46 240.01 218.98 240.87 217.5 241.72 201.26 241.72 199.78 240.87 198.3 240.01 199.78 239.16 201.26 238.31 217.5 238.31 218.98 239.16 220.46 240.01"/><polygon class="cls-1" points="197.88 239.63 197.02 238.15 196.17 236.67 196.17 220.44 197.02 218.95 197.88 217.47 198.73 218.95 199.58 220.44 199.58 236.67 198.73 238.15 197.88 239.63"/><polygon class="cls-1" points="220.95 239.63 220.09 238.15 219.24 236.67 219.24 220.44 220.09 218.95 220.95 217.47 221.8 218.95 222.65 220.44 222.65 236.67 221.8 238.15 220.95 239.63"/><circle class="cls-1" cx="156.53" cy="209.03" r="3.12"/><circle class="cls-1" cx="156.53" cy="224.55" r="3.12"/><path class="cls-2" d="M173.4,114.07A102.46,102.46,0,1,0,275.87,216.52,102.45,102.45,0,0,0,173.4,114.07Zm0,188.17a85.72,85.72,0,1,1,85.73-85.72A85.71,85.71,0,0,1,173.4,302.24Z"/><path class="cls-3" d="M259.13,216.52a85.72,85.72,0,1,1-85.73-85.71A85.72,85.72,0,0,1,259.13,216.52Z"/><path class="cls-2" d="M169.18,94.53h8.46a5.79,5.79,0,0,1,5.79,5.79v19.58a0,0,0,0,1,0,0h-20a0,0,0,0,1,0,0V100.31A5.79,5.79,0,0,1,169.18,94.53Z"/><path class="cls-2" d="M244.5,130.4H253a5.79,5.79,0,0,1,5.79,5.79v25.29a0,0,0,0,1,0,0h-20a0,0,0,0,1,0,0V136.19A5.79,5.79,0,0,1,244.5,130.4Z" transform="translate(176.05 -133.14) rotate(45)"/><rect class="cls-2" x="154.61" y="91.24" width="37.6" height="11.05" rx="4.02"/><circle class="cls-4" cx="173.41" cy="216.53" r="77.66"/></svg>