<svg id="Lager_1" data-name="Lager 1" xmlns="http://www.w3.org/2000/svg" viewBox="0 0 347.74 387.02"><defs><style>.cls-1,.cls-3{fill:#71bbcf;}.cls-2,.cls-5{fill:#fff;}.cls-2,.cls-6,.cls-9{stroke:#191919;}.cls-2,.cls-4,.cls-6,.cls-8,.cls-9{stroke-linecap:round;stroke-linejoin:round;}.cls-2{stroke-width:1.5px;}.cls-3{font-size:15px;font-family:CirceRounded-Bold, Circe Rounded;font-weight:700;}.cls-4,.cls-6,.cls-8,.cls-9{fill:none;}.cls-4,.cls-8{stroke:#71bbcf;}.cls-4{stroke-width:4px;}.cls-6{stroke-width:1.29px;}.cls-7{fill:#010101;}.cls-8{stroke-width:0.62px;}.cls-9{stroke-width:0.75px;}</style></defs><rect class="cls-1" x="110.81" y="284.5" width="71.22" height="71.22" transform="translate(292.83 640.22) rotate(180)"/><path class="cls-2" d="M235.62,175.19l6.43,12.24a30.49,30.49,0,0,1,2.43,22.13l-4.69,17.33-8.55,32.32,5.49,7.24a17.84,17.84,0,0,1,3.6,11.83l-4.47,77.44H205.75l17.65-10.64-15.63-80.17-5.44-53.05,5.51-34.57Z"/><text class="cls-3" transform="translate(47.48 322.74)">40cm</text><polyline class="cls-4" points="101.85 295.34 92.88 286.38 83.92 295.34"/><polyline class="cls-4" points="83.92 344.87 92.88 353.84 101.85 344.87"/><polygon class="cls-5" points="203.76 68.94 202.49 71.46 202.1 83.45 199.57 84.14 200.35 86.01 202.36 87.43 204.02 98.68 217.63 104.29 219.4 110.73 231.42 108.73 228.19 99.9 229.95 82.17 227.75 80.14 217.45 71.05 203.76 68.94"/><path class="cls-6" d="M228.56,101.91s1,2.06,2.08,3.92c3.94,6.7,1.53,4.66-.61,3.34l-10.39,2.61s-.78-3.52-1.39-5.68a19.25,19.25,0,0,1-.44-5.26l10.44-2.72Z"/><path class="cls-6" d="M202.56,72.28a30.5,30.5,0,0,0-.28,6c.22,2.68.49,5.34.49,5.34s-3-.78-3.14,1,2.7,2.37,2.7,2.37,0,.85.16,2c.06.62-.21,1.28-.11,2,.13,1,.46.71.73,1.51.14.43-.23.92-.14,1.57a5.86,5.86,0,0,0,.67,1.73"/><ellipse class="cls-7" cx="206.84" cy="81.57" rx="0.99" ry="1.97" transform="translate(-6 17.26) rotate(-4.71)"/><path class="cls-6" d="M222.82,88.82s1.38-4.48,3.7-5.33"/><path class="cls-1" d="M205,74.34s-.66,3.61-.3,3.89,5-.14,5-.14.43-2.36-.31-2.92S205,74.34,205,74.34Z"/><line class="cls-8" x1="203.92" y1="77.92" x2="204.1" y2="75.49"/><path class="cls-9" d="M207.62,91s-.92.92-4.27,1.19"/><path class="cls-9" d="M206.19,90.68s-2.67-2.33-3.5-1.36"/><path class="cls-9" d="M206.8,93.15a3.73,3.73,0,0,1-1.09,1.3"/><circle class="cls-5" cx="222.31" cy="99.42" r="3.44"/><path class="cls-1" d="M216.78,85.28c-.05.41-2.67,9.61-3.85,10.28s-9.29.9-9.29.9.09,6.45,1.09,8.59,13.77,2.16,15.17-.84,2.31-10,2.06-11S216.78,85.28,216.78,85.28Z"/><path class="cls-1" d="M204.11,62.4c-.51.51-4,7.9-3,10.07s12.77-1,14.53,1.61,1.47,11.24,1.47,11.24l4.07.6s4.19-8,5.87-6.2c.68.72,4.41,3.68,2.38,8.54-.84,2-6.15,3.34-6.13,3.47,0,.44.59,7.92,1.57,9.15s9.18,2.1,10.45.13-.84-4.8.76-6.78,2.94-1.65,2.77-2.3-1.49.57-2-1.32a10,10,0,0,1,.29-4.47l-1.43-1.86s5.07-.58,4-3.37.76-.1-1.23-.32-1.88-2.75-1.88-2.75,2.12-3.44,1.57-5-2.52-2.65-2.75-4.06a3.82,3.82,0,0,1,1.28-3.18c.32,0-1.1,1.74-2.45.42s1.17-2.18-.32-3.81-4.83-2.13-5.14-1.89-.55,1.26-2,1S226,59,224.26,58.1s-.32-.85-1.52.57a3.26,3.26,0,0,1-3.71,1c-.74-.38-1.25-2.53-3.87-2.32s-3.2,1.15-3.5,1.5-1.53,2.76-2.59,1.86-2.13.84-2.13.84L204.82,59S204.7,61.78,204.11,62.4Z"/><path class="cls-6" d="M221.37,85.83s2.86-8.09,6.33-6c3.29,2,2.54,7,1.92,8.32-1.48,3.09-6.14,3.47-6.14,3.47"/><path class="cls-2" d="M243.74,206.48,240,214.7a15,15,0,0,1-14.89,8.76l-17.53-1.39L160.34,217l1.35,1.51A13.58,13.58,0,0,1,165,229.45l-5.74,40.71,2.31,14.34H126.9l21.74-12.95-15.27-62.9,3.37-7a13.43,13.43,0,0,1,8.52-7.1l62.57-17.26,27.8-2.1,7.65,14.6A18.94,18.94,0,0,1,243.74,206.48Z"/><path class="cls-2" d="M191.89,228.89c.23-1.73,2.21-8,2.25-8.13a8.85,8.85,0,0,0,.44-3q0-.5.06-1.29c0-1.4,0-2.64.07-3.58.41-5.67,9-48.91,9.24-51.06s-.31-18.79-.31-18.79l14.15,3.11s0,12.93.06,19-13.67,50.71-13.67,50.71a.28.28,0,0,0,0,.06s0,0,0,0c1,2.57,3.39,8.51,3.83,9.51.54,1.27,1.17,3.89.47,11.73-.06.66-1.47,1-1.47,1s-1.06-7.88-1.4-9L205,240.52c-2.87,3.76-9.54,3.87-9.54,3.87s-1.88-7.85-2.31-9.86c.12-.81.52-3.41.85-5.45-.42,2.24-1,4.88-.94,5.11,0,.07,0,.18.09.34s-.05.26-.05.26S191.62,230.92,191.89,228.89Zm2.53-2.17c-.07.43-.21,1.29-.38,2.29C194.21,228.12,194.35,227.29,194.42,226.72Z"/><line class="cls-4" x1="92.88" y1="286.38" x2="92.88" y2="353.84"/><path class="cls-1" d="M234.73,109c-3.14-2.65-8.82.63-16.21-.3s-12.58,4.06-13.67,7.77c-1.21,4.09-6.55,27.58-6.55,27.58a17.65,17.65,0,0,0,8.68,4.21,50.39,50.39,0,0,0,11.62.56s.09,15.06-.13,18.38c-.05.72-2.64,11.06-2.64,11.06s.85-.08,8-.56c12-.8,15.1.64,14.06-8.65s-1.57-16.5-1.57-16.5,4.74-3.69,5.91-6.56S236.93,110.83,234.73,109Z"/></svg>