<svg id="Lager_1" data-name="Lager 1" xmlns="http://www.w3.org/2000/svg" viewBox="0 0 347.74 387.02"><defs><style>.cls-1,.cls-3{fill:#fff;}.cls-1,.cls-4,.cls-7{stroke:#191919;}.cls-1,.cls-4,.cls-6,.cls-7{stroke-linecap:round;stroke-linejoin:round;}.cls-1{stroke-width:1.5px;}.cls-2{fill:#71bbcf;}.cls-4,.cls-6,.cls-7{fill:none;}.cls-4{stroke-width:0.92px;}.cls-5{fill:#010101;}.cls-6{stroke:#76c0cc;stroke-width:0.44px;}.cls-7{stroke-width:0.53px;}</style></defs><path class="cls-1" d="M129.85,199.43l-2.67,5.86a10.71,10.71,0,0,1-10.61,6.24l-12.5-1L70.4,206.93l1,1.07a9.71,9.71,0,0,1,2.37,7.8l-4.1,29L71.28,255H46.56l15.49-9.23L51.17,201l2.4-5a9.55,9.55,0,0,1,6.07-5.07l44.61-12.31,19.82-1.49,5.45,10.41A13.52,13.52,0,0,1,129.85,199.43Z"/><rect class="cls-2" x="213.3" y="255.04" width="50.77" height="50.77" transform="translate(477.36 560.86) rotate(180)"/><path class="cls-1" d="M302.28,177.12l4.57,8.73a21.71,21.71,0,0,1,1.74,15.77L305.25,214l-6.1,23,3.92,5.16a12.69,12.69,0,0,1,2.56,8.43l-3.19,55.2H281l12.58-7.58-11.14-57.15-3.88-37.82,3.93-24.65Z"/><polygon class="cls-3" points="279.56 101.38 278.65 103.18 278.38 111.72 276.58 112.21 277.13 113.55 278.56 114.56 279.75 122.58 289.45 126.58 290.71 131.17 299.28 129.74 296.98 123.45 298.23 110.81 296.67 109.36 289.32 102.88 279.56 101.38"/><path class="cls-4" d="M297.24,124.88s.7,1.47,1.48,2.79c2.81,4.78,1.09,3.33-.43,2.39l-7.41,1.86s-.55-2.51-1-4a13.75,13.75,0,0,1-.31-3.75l7.44-1.94Z"/><path class="cls-4" d="M278.7,103.76a22.35,22.35,0,0,0-.2,4.24c.16,1.91.36,3.81.36,3.81s-2.15-.56-2.24.7,1.92,1.68,1.92,1.68,0,.61.12,1.46c0,.45-.15.92-.08,1.45.09.7.33.5.52,1.07.1.31-.16.66-.1,1.13a4.09,4.09,0,0,0,.48,1.23"/><ellipse class="cls-5" cx="281.75" cy="110.38" rx="0.7" ry="1.4" transform="translate(-8.11 23.5) rotate(-4.71)"/><path class="cls-4" d="M293.15,115.55s1-3.2,2.63-3.8"/><path class="cls-2" d="M280.44,105.22s-.46,2.58-.21,2.78a20.15,20.15,0,0,0,3.54-.1s.31-1.68-.22-2.08A11.27,11.27,0,0,0,280.44,105.22Z"/><line class="cls-6" x1="279.67" y1="107.78" x2="279.8" y2="106.04"/><path class="cls-7" d="M282.31,117.13s-.65.65-3,.85"/><path class="cls-7" d="M281.29,116.88s-1.9-1.67-2.49-1"/><path class="cls-7" d="M281.73,118.64a2.63,2.63,0,0,1-.78.92"/><circle class="cls-3" cx="292.78" cy="123.11" r="2.45"/><path class="cls-2" d="M288.84,113c0,.3-1.9,6.85-2.74,7.33s-6.62.65-6.62.65.06,4.59.78,6.12,9.81,1.54,10.81-.6a23.53,23.53,0,0,0,1.47-7.87C292.36,117.9,288.84,113,288.84,113Z"/><path class="cls-2" d="M279.81,96.71c-.36.37-2.83,5.64-2.11,7.19s9.1-.72,10.35,1.14,1.05,8,1.05,8l2.9.42s3-5.69,4.19-4.42c.48.51,3.14,2.62,1.7,6.09-.61,1.45-4.39,2.38-4.38,2.48,0,.31.42,5.64,1.12,6.52s6.55,1.5,7.45.09-.6-3.42.54-4.83,2.1-1.18,2-1.64-1.06.4-1.41-.94a7.31,7.31,0,0,1,.21-3.19l-1-1.33s3.61-.41,2.82-2.4.55-.07-.88-.23-1.33-2-1.33-2,1.51-2.45,1.12-3.53-1.8-1.89-2-2.9a2.69,2.69,0,0,1,.91-2.26c.23,0-.79,1.24-1.75.3s.84-1.56-.23-2.72a5.15,5.15,0,0,0-3.66-1.35c-.22.18-.39.9-1.42.75s-.58-1.76-1.82-2.36-.23-.61-1.09.4a2.32,2.32,0,0,1-2.65.69c-.52-.27-.88-1.8-2.75-1.65s-2.28.81-2.5,1.07-1.09,2-1.84,1.32-1.52.6-1.52.6l-1.51-1.76S280.23,96.28,279.81,96.71Z"/><path class="cls-4" d="M292.11,113.42s2-5.77,4.52-4.27,1.81,5,1.37,5.94c-1.06,2.2-4.38,2.47-4.38,2.47"/><path class="cls-1" d="M308.06,199.43l-2.67,5.86a10.71,10.71,0,0,1-10.61,6.24l-12.5-1-33.67-3.61,1,1.07a9.68,9.68,0,0,1,2.37,7.8l-4.1,29L249.49,255H224.77l15.49-9.23L229.38,201l2.41-5a9.52,9.52,0,0,1,6.07-5.07l44.61-12.31,19.81-1.49,5.45,10.41A13.49,13.49,0,0,1,308.06,199.43Z"/><path class="cls-1" d="M271.1,215.4c.17-1.23,1.57-5.69,1.6-5.79a6.24,6.24,0,0,0,.31-2.11c0-.24,0-.55.05-.92,0-1,0-1.89.05-2.56.3-4,6.43-34.86,6.58-36.39s-.21-13.4-.21-13.4l10.08,2.22s0,9.22.05,13.51-9.75,36.15-9.75,36.15v.07c.74,1.83,2.43,6.06,2.73,6.78.39.9.84,2.77.34,8.36,0,.47-1,.74-1,.74s-.76-5.62-1-6.45l-.4,8.08c-2.06,2.68-6.8,2.76-6.8,2.76s-1.34-5.59-1.66-7c.09-.57.38-2.43.61-3.88-.29,1.59-.69,3.48-.66,3.64s0,.13,0,.24l0,.19S270.9,216.85,271.1,215.4Zm1.8-1.54c0,.3-.15.92-.26,1.63C272.76,214.85,272.86,214.26,272.9,213.86Z"/><path class="cls-2" d="M301.64,129.92c-2.24-1.89-6.29.45-11.56-.21s-9,2.89-9.74,5.53c-.86,2.92-4.67,19.67-4.67,19.67a12.6,12.6,0,0,0,6.19,3,36.47,36.47,0,0,0,8.28.4s.07,10.74-.09,13.1c0,.52-1.88,7.89-1.88,7.89s.6-.06,5.68-.4c8.53-.58,10.76.45,10-6.17S302.75,161,302.75,161s3.38-2.64,4.22-4.68S303.21,131.24,301.64,129.92Z"/><rect class="cls-2" x="35.08" y="255.04" width="50.77" height="50.77" transform="translate(120.94 560.86) rotate(180)"/><path class="cls-1" d="M124.06,177.12l4.58,8.73a21.71,21.71,0,0,1,1.74,15.77L127,214l-6.09,23,3.91,5.16a12.65,12.65,0,0,1,2.57,8.43l-3.19,55.2H102.77l12.58-7.58-11.14-57.15-3.88-37.82,3.92-24.65Z"/><polygon class="cls-3" points="101.35 101.38 100.44 103.18 100.17 111.72 98.36 112.21 98.92 113.55 100.35 114.56 101.53 122.58 111.24 126.58 112.5 131.17 121.07 129.74 118.77 123.45 120.02 110.81 118.45 109.36 111.11 102.88 101.35 101.38"/><path class="cls-4" d="M119,124.88s.7,1.47,1.48,2.79c2.81,4.78,1.09,3.33-.43,2.39l-7.41,1.86s-.55-2.51-1-4a13.75,13.75,0,0,1-.31-3.75l7.43-1.94Z"/><path class="cls-4" d="M100.49,103.76a22.35,22.35,0,0,0-.2,4.24c.16,1.91.35,3.81.35,3.81s-2.14-.56-2.24.7,1.93,1.68,1.93,1.68,0,.61.12,1.46c0,.45-.15.92-.08,1.45.09.7.32.5.51,1.07.11.31-.16.66-.09,1.13a4.09,4.09,0,0,0,.48,1.23"/><ellipse class="cls-5" cx="103.54" cy="110.38" rx="0.7" ry="1.4" transform="translate(-8.71 8.87) rotate(-4.71)"/><path class="cls-4" d="M114.93,115.55s1-3.2,2.64-3.8"/><path class="cls-2" d="M102.23,105.22s-.47,2.58-.21,2.78a20.15,20.15,0,0,0,3.54-.1s.31-1.68-.22-2.08A11.27,11.27,0,0,0,102.23,105.22Z"/><line class="cls-6" x1="101.46" y1="107.78" x2="101.59" y2="106.04"/><path class="cls-7" d="M104.1,117.13s-.65.65-3,.85"/><path class="cls-7" d="M103.08,116.88s-1.9-1.67-2.49-1"/><path class="cls-7" d="M103.52,118.64a2.63,2.63,0,0,1-.78.92"/><circle class="cls-3" cx="114.57" cy="123.11" r="2.45"/><path class="cls-2" d="M110.63,113c0,.3-1.9,6.85-2.74,7.33s-6.63.65-6.63.65.07,4.59.78,6.12,9.82,1.54,10.82-.6a23.21,23.21,0,0,0,1.46-7.87C114.14,117.9,110.63,113,110.63,113Z"/><path class="cls-2" d="M101.59,96.71c-.35.37-2.83,5.64-2.11,7.19s9.11-.72,10.36,1.14,1,8,1,8l2.9.42s3-5.69,4.18-4.42c.48.51,3.15,2.62,1.7,6.09-.6,1.45-4.38,2.38-4.37,2.48,0,.31.42,5.64,1.12,6.52s6.54,1.5,7.45.09-.6-3.42.54-4.83,2.09-1.18,2-1.64-1.07.4-1.41-.94a7.15,7.15,0,0,1,.21-3.19l-1-1.33s3.62-.41,2.83-2.4.54-.07-.88-.23-1.33-2-1.33-2,1.51-2.45,1.11-3.53-1.8-1.89-2-2.9a2.72,2.72,0,0,1,.91-2.26c.24,0-.78,1.24-1.75.3s.84-1.56-.22-2.72a5.15,5.15,0,0,0-3.66-1.35c-.22.18-.4.9-1.43.75s-.57-1.76-1.82-2.36-.22-.61-1.08.4a2.33,2.33,0,0,1-2.65.69c-.52-.27-.89-1.8-2.75-1.65s-2.28.81-2.5,1.07-1.09,2-1.85,1.32-1.51.6-1.51.6l-1.52-1.76S102,96.28,101.59,96.71Z"/><path class="cls-4" d="M113.9,113.42s2-5.77,4.51-4.27,1.82,5,1.37,5.94c-1,2.2-4.37,2.47-4.37,2.47"/><path class="cls-1" d="M92.89,215.4c.16-1.23,1.57-5.69,1.6-5.79a6.24,6.24,0,0,0,.31-2.11c0-.24,0-.55,0-.92,0-1,0-1.89,0-2.56.3-4,6.44-34.86,6.59-36.39s-.22-13.4-.22-13.4l10.09,2.22s0,9.22.05,13.51-9.76,36.15-9.76,36.15a.18.18,0,0,0,0,0s0,0,0,0c.74,1.83,2.43,6.06,2.73,6.78.39.9.84,2.77.34,8.36,0,.47-1,.74-1,.74s-.77-5.62-1-6.45l-.41,8.08c-2.05,2.68-6.8,2.76-6.8,2.76s-1.34-5.59-1.65-7c.09-.57.38-2.43.61-3.88-.3,1.59-.7,3.48-.67,3.64s0,.13.06.24l0,.19S92.69,216.85,92.89,215.4Zm1.8-1.54c0,.3-.15.92-.27,1.63C94.54,214.85,94.64,214.26,94.69,213.86Z"/><path class="cls-2" d="M123.42,129.92c-2.23-1.89-6.28.45-11.55-.21s-9,2.89-9.74,5.53c-.87,2.92-4.68,19.67-4.68,19.67a12.6,12.6,0,0,0,6.19,3,36.47,36.47,0,0,0,8.28.4s.07,10.74-.09,13.1c0,.52-1.88,7.89-1.88,7.89s.61-.06,5.69-.4c8.53-.58,10.76.45,10-6.17S124.54,161,124.54,161s3.38-2.64,4.21-4.68S125,131.24,123.42,129.92Z"/><rect class="cls-2" x="143.54" y="255.51" width="50.77" height="50.77" transform="translate(337.85 561.78) rotate(180)"/><path class="cls-1" d="M182.19,126l4.58,8.73a21.75,21.75,0,0,1,1.73,15.77l-3.34,12.36-6.1,23,3.92,5.15a12.74,12.74,0,0,1,2.56,8.44l-3.19,55.2H160.89l12.58-7.58L162.33,190l-3.88-37.82,3.93-24.65Z"/><polygon class="cls-3" points="165.12 49.9 164.13 51.66 163.47 60.18 161.66 60.59 162.15 61.95 163.54 63.03 164.36 71.09 173.88 75.52 174.93 80.16 183.56 79.11 181.54 72.72 183.35 60.16 181.85 58.64 174.8 51.84 165.12 49.9"/><path class="cls-4" d="M181.74,74.17s.63,1.49,1.35,2.85c2.6,4.9.95,3.37-.54,2.36l-7.48,1.54s-.44-2.54-.81-4.1a13.65,13.65,0,0,1-.14-3.75l7.51-1.61Z"/><path class="cls-4" d="M164.15,52.24a22.24,22.24,0,0,0-.38,4.23c.07,1.91.18,3.82.18,3.82s-2.12-.65-2.27.6,1.85,1.77,1.85,1.77,0,.61.05,1.46c0,.45-.19.91-.14,1.44.06.71.3.52.47,1.1.09.31-.19.65-.15,1.12a4.21,4.21,0,0,0,.42,1.25"/><ellipse class="cls-5" cx="166.91" cy="58.99" rx="0.7" ry="1.4" transform="translate(-2.11 6.35) rotate(-2.16)"/><path class="cls-4" d="M178.06,64.66s1.12-3.15,2.8-3.68"/><path class="cls-2" d="M165.83,53.78s-.58,2.56-.33,2.77a20.18,20.18,0,0,0,3.53.06s.39-1.67-.12-2.09A11.1,11.1,0,0,0,165.83,53.78Z"/><line class="cls-6" x1="164.95" y1="56.3" x2="165.15" y2="54.57"/><path class="cls-7" d="M167.16,65.76s-.68.63-3.07.72"/><path class="cls-7" d="M166.16,65.46s-1.83-1.75-2.45-1.08"/><path class="cls-7" d="M166.52,67.24a2.68,2.68,0,0,1-.82.89"/><circle class="cls-3" cx="177.36" cy="72.2" r="2.45"/><path class="cls-2" d="M173.87,62c-.05.29-2.2,6.76-3.06,7.2s-6.65.35-6.65.35-.14,4.59.51,6.15,9.74,2,10.83-.12a23.22,23.22,0,0,0,1.81-7.8C177.17,67,173.87,62,173.87,62Z"/><path class="cls-2" d="M165.57,45.25c-.37.36-3.08,5.51-2.43,7.08s9.13-.3,10.29,1.61.7,8.05.7,8.05l2.88.56s3.23-5.56,4.37-4.23c.46.53,3,2.76,1.43,6.16-.67,1.41-4.48,2.18-4.48,2.27,0,.32.17,5.66.83,6.57s6.47,1.79,7.44.42-.45-3.44.75-4.8,2.15-1.09,2.05-1.55-1.08.35-1.36-1a7.16,7.16,0,0,1,.35-3.18l-1-1.37s3.64-.25,2.94-2.28.54,0-.87-.26-1.25-2-1.25-2,1.62-2.38,1.27-3.48-1.71-2-1.83-3a2.74,2.74,0,0,1,1-2.22c.24,0-.83,1.2-1.76.22s.91-1.52-.1-2.73a5.11,5.11,0,0,0-3.6-1.5c-.23.16-.43.87-1.46.68s-.49-1.78-1.71-2.44-.2-.61-1.1.36a2.33,2.33,0,0,1-2.68.57c-.51-.3-.8-1.85-2.67-1.78s-2.32.72-2.54,1-1.18,1.92-1.91,1.24-1.54.53-1.54.53l-1.44-1.82S166,44.84,165.57,45.25Z"/><path class="cls-4" d="M177.12,62.49s2.3-5.67,4.7-4.06,1.59,5.08,1.1,6c-1.14,2.15-4.48,2.28-4.48,2.28"/><path class="cls-1" d="M151.6,163.44c.22-1.23,1.82-5.61,1.86-5.72a6.23,6.23,0,0,0,.4-2.09c0-.24,0-.54.09-.92,0-1,.08-1.88.16-2.55.48-4,8-34.54,8.2-36.07s.38-13.39.38-13.39l10,2.66s-.42,9.21-.55,13.51-11.35,35.68-11.35,35.68v0a0,0,0,0,0,0,0c.65,1.87,2.15,6.17,2.42,6.9.35.92.71,2.8,0,8.36-.07.47-1.08.7-1.08.7s-.51-5.65-.71-6.49l-.77,8.06c-2.17,2.58-6.92,2.45-6.92,2.45s-1.09-5.65-1.34-7.09c.12-.58.49-2.42.78-3.86-.36,1.58-.84,3.45-.82,3.61s0,.13,0,.25l0,.18S151.34,164.88,151.6,163.44Zm1.87-1.47c-.07.31-.19.92-.34,1.62C153.28,163,153.41,162.38,153.47,162Z"/><path class="cls-2" d="M185.9,79.4c-2.15-2-6.29.17-11.53-.73s-9.08,2.5-10,5.1c-1,2.88-5.54,19.44-5.54,19.44a12.68,12.68,0,0,0,6.05,3.27,35.9,35.9,0,0,0,8.26.76s-.41,10.74-.68,13.09c-.06.51-2.23,7.8-2.23,7.8s.61,0,5.7-.15c8.55-.19,10.73.93,10.28-5.72s-.59-11.8-.59-11.8,3.49-2.48,4.42-4.48S187.41,80.79,185.9,79.4Z"/></svg>