<svg id="Lager_1" data-name="Lager 1" xmlns="http://www.w3.org/2000/svg" viewBox="0 0 347.74 403.85"><defs><style>.cls-1,.cls-10,.cls-6,.cls-8{fill:#fff;stroke:#191919;}.cls-1,.cls-10,.cls-3,.cls-4,.cls-5,.cls-6,.cls-8,.cls-9{stroke-linecap:round;stroke-linejoin:round;}.cls-1,.cls-3,.cls-9{stroke-width:2px;}.cls-2,.cls-4{fill:#72bbd0;}.cls-3,.cls-5,.cls-9{fill:none;}.cls-3,.cls-4,.cls-9{stroke:#72bbd0;}.cls-3{stroke-dasharray:5;}.cls-4,.cls-5,.cls-8{stroke-width:0.9px;}.cls-5{stroke:#76c0cc;}.cls-6{stroke-width:1.53px;}.cls-7{fill:#191919;}.cls-10{stroke-width:1.7px;}</style></defs><path class="cls-1" d="M42.62,273.49l9,70.58a14.11,14.11,0,0,0,4.09.7,5.48,5.48,0,0,0,3.48-1.47L45.48,273.18Z"/><path class="cls-1" d="M67.15,350.92a3.5,3.5,0,0,1-3.06,1.81,19.74,19.74,0,0,1-3.08-.28L45.48,273.18,0,278.1v-21l44.42-5.7.21,0c7.66,0,9.53,2.56,11.74,5.92l1.1,1.67,0,0a1.67,1.67,0,0,0,1.35.74,1.83,1.83,0,0,1,1.7,2.06l-.63,8.56a1.81,1.81,0,0,1-1.57,1.74l-2.81.24Z"/><path class="cls-2" d="M57.49,259a2,2,0,0,1-.83.44c-4.55,1.15-17.58,4.15-38.43,6.77-7,.88-13.1,1.38-18.23,1.63V254.62c19.36-3.33,48.18-7.11,53.14-3.38A14.42,14.42,0,0,1,58,256.8,1.91,1.91,0,0,1,57.49,259Z"/><polyline class="cls-1" points="223.05 334.13 224.37 341.14 228.81 347.72 225.44 352.52 203.79 356.61 200.13 352.96 206.26 350.32 213.9 342.53 212.26 337.81"/><path class="cls-3" d="M237.63,343.3h58l6.46-3.31a9.68,9.68,0,0,0-.48-17.47l-7.34-3.26H70.77"/><polyline class="cls-1" points="143.59 340.28 141.71 347.17 142.83 355.02 137.7 357.87 131.37 355.79 115.46 355.35 113.76 350.47 120.43 350.77 131.69 343.84 133.66 337.66"/><polyline class="cls-1" points="151.78 230.3 152.93 235.68 153.53 239.22 151.73 249 149.85 244.01 148.4 241.66 143.31 251.45 140.11 252.4 142.77 243.08 145.24 228.17 150.85 196.45 152.73 177.53 159.19 177.69 162.85 192.98 151.78 230.3"/><path class="cls-1" d="M208.94,330.64c.51-2.82-25.43-49.75-34.74-66.87s-16.82-49.86-16.82-49.86l31-.88A18.48,18.48,0,0,1,191.76,224c-.2,6.41-.24,7.93-.68,9.8s9.43,29.87,11,41c.39,2.76,4.46,5.09,5.57,6.12s10.44,4.79,14.87,45.59l1.62-.49,1.81,6.66a52.29,52.29,0,0,1-8.91,4,32.87,32.87,0,0,1-9.16,1.72l-.77-8Z"/><path class="cls-1" d="M135.2,330.12s8.75-40.54,12.27-55,6.7-47.63,6.7-47.63l.52-17.33a121,121,0,0,0,16.56.39c8-.37,16.12-1.61,16.12-1.61,9,17.12,3.51,27.68,3.51,27.68l-6.78,8.27-8.31,15.76s-10.38,21.67-10.61,25.1,2,6.22-.53,16.93c-.71,3.08-16.46,32.22-16.46,32.22l1.63.9-2.56,5.36a21.67,21.67,0,0,1-9-1.53c-5.34-1.95-6.74-3.22-6.74-3.22l1.65-6.54Z"/><path class="cls-1" d="M200.29,243.38c-.34-1.29-.63-6.34-.64-6.45a6.13,6.13,0,0,0-.54-2.22c-.1-.23-.22-.54-.35-.92-.44-1-.8-1.84-1-2.51-1.38-4.1-7.35-32.4-7.83-34s-6.11-17.81-6.11-17.81l12.46-2.86s4.06,13.85,6,18,4.12,35.3,4.12,35.3l0,0s0,0,0,0c1.61,1.42,5.35,4.71,6,5.25.83.7,2.14,2.3,3.95,8,.15.48-.88,1.24-.88,1.24s-3.26-5.1-3.89-5.79l3,8.09c-1.2,3.64-6.59,6.08-6.59,6.08s-3.92-4.79-4.88-6c-.15-.61-.61-2.57-1-4.1.35,1.71.69,3.74.8,3.89a2.59,2.59,0,0,0,.17.21,1.9,1.9,0,0,0,0,.19S200.68,244.89,200.29,243.38Zm1.39-2.41c.08.33.23,1,.4,1.73A17.75,17.75,0,0,0,201.68,241Z"/><path class="cls-4" d="M181.24,171.53l.71,7.64-1.58.41.48,8.17s-.75,2.57,10,.94,13.31-3.5,13.31-3.5l-2.28-8.67-2.73-1.87-3.91-17"/><path class="cls-2" d="M181.9,135.08l.31,3.29a.08.08,0,0,1-.11.1l-1.82-.82a.1.1,0,0,0-.1,0l-1.26,1.76a.08.08,0,0,1-.14,0l-.85-1.85s.38-1.5.4-1.25l2-1.32a.09.09,0,0,1,.08,0l.65.06S181.89,135.05,181.9,135.08Z"/><path class="cls-5" d="M170,123.42a5.45,5.45,0,0,1,1.18-.15,3,3,0,0,1,1.31.18"/><path class="cls-5" d="M169.94,124.8a2.76,2.76,0,0,1,.95,0,4.14,4.14,0,0,1,.94.32"/><path class="cls-6" d="M181.39,128s4.08-7.88,5.6-2.77c2,6.82-4.9,9.44-4.9,9.44l-1.86-.48-2.86,2.7s-10.91,5.78-17,4c-1.38-.42-5.32-9.25-5.51-13.14a9.06,9.06,0,0,1,.87-4.12l-.82-4.42,1.2-7.41"/><path class="cls-2" d="M166.85,117.35c-.21.28-.14,2,.18,2.08a26.54,26.54,0,0,1,2.71-.25c1.84.2,2.68.95,2.83.39s-.95-2.25-2.34-2.58S167.1,117,166.85,117.35Z"/><path class="cls-2" d="M159.64,117c.2.25.34,1.94.08,2.09s-1.31-.19-2.28.08c-1.5.41-2.11,1.25-2.3.71A3.28,3.28,0,0,1,156.8,117,3.44,3.44,0,0,1,159.64,117Z"/><path class="cls-2" d="M177,109.4a.07.07,0,0,0-.14,0,17.09,17.09,0,0,1-3,5.14,60.94,60.94,0,0,1-5.74,5.46.07.07,0,0,1-.11-.08,31.5,31.5,0,0,0,1.58-4.78,5,5,0,0,0,.07-1.79.07.07,0,0,0-.11,0,15.53,15.53,0,0,1-7.27,2.63,39,39,0,0,1-9.13.13,16.43,16.43,0,0,1-3.08-1.18,9.27,9.27,0,0,0,4.17-2,.32.32,0,0,0,.07-.19c0-.12-.11-.37-1.46-1.82-1.1-1.19-1.79-1.9-2.06-2.18a.07.07,0,0,1,.06-.12,13.6,13.6,0,0,0,4-.1,13.17,13.17,0,0,0,3.33-1.36.07.07,0,0,0,0-.12,10.17,10.17,0,0,1-2-2.39,10,10,0,0,1-1.57-3.12c0-.06,0-.1.09-.08a10.47,10.47,0,0,0,3.86.32c2.95-.14,4.43-.94,7.17-.73a9.88,9.88,0,0,1,4,1.14.07.07,0,0,0,.09-.1,5.89,5.89,0,0,1-1.2-2.69,6.85,6.85,0,0,1,.49-2.74.07.07,0,0,1,.13,0,5.37,5.37,0,0,0,2,2.7c1.34.69,3.12.89,4.63,1.87,2,1.28,2.57,2.6,2.61,2.93a.06.06,0,0,0,.08.06,6.11,6.11,0,0,1,1.61,0c.43.13.81,2.53.85,2.79a.08.08,0,0,0,0,0,3.36,3.36,0,0,0,2.8.53,9,9,0,0,0,2.27-.72s.09,0,.08.07a2.76,2.76,0,0,1-.62,2c-.78.92-2.06.61-1.13,1.77s2.79,6.34,3.13,6.65a.07.07,0,0,1,0,.12c-.37.14-1.58.66-1.85,1.45s.11,3.76-.28,3.8c-2.21.23-4,3.87-4.36,4.14-.82.61.56-.92.83-1.81.35-1.14-.68.34-1.27.59s1.86-1.84,1.45-5.89-.75-3.42-.75-3.42-1.81.88-2,1.49-.3-.77-.2-2.79c.07-1.39.16-2,.2-2.31a.07.07,0,0,0-.11-.07,8,8,0,0,1-1.91.9C176.78,113.52,176.91,110.65,177,109.4Z"/><path class="cls-2" d="M181.79,106.53c.16-.33,1.29-3.8,2.33-3.18s1,1.45.29,2.26S181.79,106.53,181.79,106.53Z"/><path class="cls-6" d="M179.19,144.92s-2.23-.76-2.79-1.07.16-6.06.16-6.06"/><path class="cls-6" d="M164.68,141.44s1,1.94.58,2.52-3.27,1.49-3.27,1.49"/><ellipse class="cls-7" cx="168.02" cy="124.44" rx="1.2" ry="1.86"/><ellipse class="cls-7" cx="158.27" cy="124.34" rx="1.09" ry="1.86" transform="translate(-4.32 5.7) rotate(-2.04)"/><path class="cls-4" d="M152,170.58s3.68-22.09,4.38-23c.56-.76,6-2.69,6-2.69s-.19,8.66,6.32,8.25c5.88-.37,10.7-8.49,10.7-8.49s11.17,1.43,13.92,7.29c7.2,15.4-3.14,30.09-3.14,30.09s-.62,11.34.27,18.94a5,5,0,0,1-3,5.28s-2.34,1.08-16.35.63-16.65-2.13-16.65-2.13l-1-6.44L155.39,175l0,8.23s.75-1.15-1.42-2.12a8.63,8.63,0,0,1-4.06-2.85l1.26-6.56Z"/><path class="cls-8" d="M160.74,126.56a11.45,11.45,0,0,1-5,1.7c-2.42,0,2.85,2.71,2.85,2.71"/><line class="cls-8" x1="161.3" y1="130.64" x2="160.58" y2="131.04"/><path class="cls-8" d="M163.52,134.32a8.5,8.5,0,0,0,4.75-2"/><path class="cls-8" d="M181.06,131a7.49,7.49,0,0,1,3.94-3.18"/><path class="cls-8" d="M182.85,129s1.34,2.21-.92,3.24"/><path class="cls-1" d="M187,209l-.49-2.77s-14.62.11-21.11-.24c-.28,0-1.61-1.44-1.85-1.46-6-.41-7.76-.41-9,.19-.8.37-1.51,4.38-1,5,1.13,1.38,4.93,2.24,9.83,2,.58,0,1.16-.72,1.76-.75,1.95-.12,4-.28,6.16-.45C179.68,209.89,187,209,187,209Z"/><polyline class="cls-9" points="239.45 347.77 234.85 343.3 239.45 338.94"/><path class="cls-10" d="M334.47,333.8s-2,1.56-8,1.56c-5.75,0-8-1.56-8-1.56V320.75l.68-2.44-.68-2.81.94-3.07-.94-2.89,1.88-8.7c0-3.16.68-5.82,3.84-5.82h4.48c3.15,0,4.05,2.76,4.05,5.92l1.66,8.6-.67,3,.67,3-.72,2.55.72,2.7Z"/><path class="cls-7" d="M323.85,290.85h5.23a.66.66,0,0,1,.66.66V295a0,0,0,0,1,0,0h-6.55a0,0,0,0,1,0,0v-3.51A.66.66,0,0,1,323.85,290.85Z"/><path class="cls-2" d="M322.07,313.31h9l.71,2.58-.69,2.4.69,3.07v10.43a18.11,18.11,0,0,1-10.58,0V321.22l.66-2.57-.66-2.36Z"/></svg>