<svg id="Lager_1" data-name="Lager 1" xmlns="http://www.w3.org/2000/svg" viewBox="0 0 347.74 403.85"><defs><style>.cls-1,.cls-10,.cls-11,.cls-3,.cls-7,.cls-9{fill:#fff;}.cls-1,.cls-10,.cls-11,.cls-2,.cls-3,.cls-7,.cls-9{stroke:#191919;}.cls-1,.cls-10,.cls-11,.cls-2,.cls-3,.cls-5,.cls-7,.cls-8,.cls-9{stroke-linecap:round;stroke-linejoin:round;}.cls-1,.cls-2{stroke-width:2px;}.cls-2,.cls-5{fill:none;}.cls-3{stroke-width:1.82px;}.cls-4,.cls-8{fill:#72bbd0;}.cls-5{stroke:#76c0cc;}.cls-5,.cls-7,.cls-8{stroke-width:1.07px;}.cls-6{fill:#191919;}.cls-8{stroke:#72bbd0;}.cls-9{stroke-width:1.18px;}.cls-10{stroke-width:1.57px;}.cls-11{stroke-width:2.16px;}</style></defs><polyline class="cls-1" points="127.05 224.52 178.71 222.64 191.3 231.68 192.85 238.59"/><path class="cls-1" d="M82.76,225.71l5.16.68,5.89,37.86,4.63-.6L94.56,227h0a3.8,3.8,0,0,0,3.82-3.86L98.11,205c.18-2.12-1.53-3.35-3.5-4.19-10.72-4.56-24-7.23-33.95-5.08"/><path class="cls-1" d="M103.59,286.11l-4.47,65a6.07,6.07,0,0,1-3.49,1,7.5,7.5,0,0,1-3.66-1l1.49-27.33Z"/><path class="cls-2" d="M87.6,261.82l3.52,11.68s-1.18-.05-3.11-.28a8.33,8.33,0,0,1-3.28-.86"/><path class="cls-3" d="M100.48,160.14s2.65-.9,3.32-1.28-.19-7.21-.19-7.21"/><path class="cls-4" d="M97.64,148.11l-.9,3.84a.1.1,0,0,0,.12.13l2.28-.67a.1.1,0,0,1,.11.05l1.2,2.28a.1.1,0,0,0,.17,0l1.3-2.05s-.2-1.83-.27-1.54l-2.1-1.87a.1.1,0,0,0-.08-.06l-.79,0S97.66,148.08,97.64,148.11Z"/><path class="cls-5" d="M113.62,136.27a6.21,6.21,0,0,0-1.37-.36,3.65,3.65,0,0,0-1.58,0"/><path class="cls-5" d="M113.42,137.9a3.76,3.76,0,0,0-1.13-.13,5.53,5.53,0,0,0-1.17.23"/><path class="cls-3" d="M99.39,139.78s-3.55-10-6.17-4.17c-3.49,7.72,4.27,11.92,4.27,11.92l2.28-.25,2.94,3.63s11.94,8.59,19.37,7.43c1.7-.26,7.77-10.06,8.62-14.62a10.65,10.65,0,0,0-.36-5l1.68-5.09-.23-8.93"/><path class="cls-4" d="M118.26,129.61c.2.36-.15,2.35-.55,2.42s-1.75-.68-3.16-.72c-2.2-.07-3.31.68-3.4,0s1.48-2.5,3.18-2.66S118,129.17,118.26,129.61Z"/><path class="cls-4" d="M126.83,130.3c-.28.26-.71,2.23-.42,2.45s1.57,0,2.67.46c1.7.73,2.29,1.82,2.6,1.21a3.91,3.91,0,0,0-1.5-3.61C128.93,130.05,127.17,130,126.83,130.3Z"/><path class="cls-4" d="M107.57,118.59a.08.08,0,0,1,.16,0,20.67,20.67,0,0,0,2.67,6.55,74.29,74.29,0,0,0,5.9,7.36.09.09,0,0,0,.15-.08,36.81,36.81,0,0,1-1.1-5.9,6.07,6.07,0,0,1,.2-2.12.09.09,0,0,1,.14,0,18.58,18.58,0,0,0,8.16,4.28,46.07,46.07,0,0,0,10.76,1.62,19.31,19.31,0,0,0,3.82-.9,10.79,10.79,0,0,1-4.6-3,.32.32,0,0,1-.05-.23c0-.14.18-.42,2-1.91,1.49-1.23,2.41-2,2.79-2.24a.09.09,0,0,0-.05-.16,16.42,16.42,0,0,1-4.68-.75,16,16,0,0,1-3.71-2.14.09.09,0,0,1,0-.14,17.26,17.26,0,0,0,5.1-5.93.08.08,0,0,0-.09-.12,12.15,12.15,0,0,1-4.61-.23c-3.47-.65-5.08-1.83-8.34-2a11.57,11.57,0,0,0-4.88.71.09.09,0,0,1-.09-.14,6.9,6.9,0,0,0,1.85-3,8.29,8.29,0,0,0-.13-3.3.09.09,0,0,0-.16,0c-.33.59-1.4,2.37-2.8,2.86-1.68.6-3.82.56-5.76,1.47-2.53,1.19-3.46,2.65-3.55,3a.08.08,0,0,1-.1.06,6.78,6.78,0,0,0-1.9-.28c-.53.08-1.37,2.85-1.46,3.15,0,0,0,0,0,0a3.93,3.93,0,0,1-3.39.18A9.78,9.78,0,0,1,97.27,114a.09.09,0,0,0-.12.08,3.23,3.23,0,0,0,.42,2.39c.78,1.22,2.34,1.06,1.05,2.28s-4.32,7-4.77,7.35a.08.08,0,0,0,0,.14c.42.23,1.76,1,2,2s-.74,4.42-.29,4.54c2.57.62,4.12,5.21,4.48,5.57.86.86-.52-1.17-.69-2.26-.23-1.41.75.51,1.4.9s-1.89-2.48-.75-7.19,1.43-3.91,1.43-3.91,2,1.33,2.08,2.07.48-.86.69-3.25a25.51,25.51,0,0,0,.13-2.76.08.08,0,0,1,.14-.07,10.21,10.21,0,0,0,2.11,1.36C107.16,123.49,107.46,120.07,107.57,118.59Z"/><path class="cls-4" d="M102.36,114.43c-.13-.41-.9-4.69-2.24-4.13s-1.41,1.55-.7,2.62S102.36,114.43,102.36,114.43Z"/><ellipse class="cls-6" cx="115.74" cy="137.79" rx="2.21" ry="1.43" transform="translate(-36.42 233.85) rotate(-82.24)"/><ellipse class="cls-6" cx="127.26" cy="139.24" rx="2.21" ry="1.29" transform="translate(-31.61 240.94) rotate(-80.2)"/><path class="cls-7" d="M124,141.47a13.57,13.57,0,0,0,5.63,2.8c2.85.44-3.8,2.75-3.8,2.75"/><line class="cls-7" x1="122.67" y1="146.19" x2="123.45" y2="146.78"/><path class="cls-7" d="M119.46,150.17a10.15,10.15,0,0,1-5.29-3.16"/><path class="cls-7" d="M99.29,143.46a8.93,8.93,0,0,0-4.14-4.39"/><path class="cls-7" d="M97.5,140.8s-1.94,2.39.56,4"/><line class="cls-3" x1="119.46" y1="158.45" x2="119.46" y2="160.75"/><path class="cls-8" d="M132.87,190.72s-4.39-26.32-5.23-27.45c-.67-.91-7.13-2.52-7.13-2.52s.24,9.62-7.52,9.14c-7-.44-12.74-10.12-12.74-10.12s-13.32,1.71-16.58,8.69c-8.58,18.34,3.73,35.85,3.73,35.85s.74,13.51-.32,22.56C86.53,231.57,92,233,92,233s1.44,1.41,18.14.87,18.62-7.34,18.62-7.34l2.35-2.86L128.84,196l0,9.81s-.89-1.37,1.7-2.53a10.27,10.27,0,0,0,4.83-3.39l-1.5-7.81Z"/><polygon class="cls-9" points="145.94 197.38 140.69 199.07 143.01 192.53 161.56 187.69 161.89 193.77 145.94 197.38"/><path class="cls-10" d="M97.81,217.86c-1.8-5.7-5.46-17.69-5.46-17.69l15.79-6.79s2.28,14.92,3.14,16.88l30.13-9.19,2.46-4.11,1.7-2.62,4.07-3.12.2,2.91-.05,2.19,12.1-2.55-7.34,5.8-.44,3.31-2.72,3.36-7.2,1.44-34.27,19.54-6.17,1.22Z"/><polyline class="cls-11" points="170.89 301.77 159.95 335.83 159.95 347.83 164.79 351.02 162.24 355.37 151.77 355.37 147.17 350.24 149.71 345.54 142.45 330.6 143.34 325.75 148.71 323.07 156.67 258.07"/><path class="cls-1" d="M162.62,277.78l2.82-.24A1.81,1.81,0,0,0,167,275.8l.63-8.56a1.83,1.83,0,0,0-1.7-2.06,1.62,1.62,0,0,1-1.36-.77l-1.11-1.67c-2.21-3.36-4.08-5.93-11.74-5.91h-.21l-63,8.09L77.38,227l2.68.08a3.88,3.88,0,0,0,3.62-4.22l0-15.58c-.19-2-1.3-3.42-3.83-3.9a49.49,49.49,0,0,1-10.5-2.17,21.6,21.6,0,0,1-8.67-5.44c-1.76-.2-1.91,1.3-1.38,3L67.55,225l3.7,1.77.57,0,13,45.47-.06.06a2,2,0,0,0-.62,2l2.07,8.47A1.71,1.71,0,0,0,88,284.24l3.1.56-11,72.13s.64,1.28,3.58,1.28,3.06-1.28,3.06-1.28l19.7-73.28,46.17-5,15.53,79.27a19.74,19.74,0,0,0,3.08.28,3.5,3.5,0,0,0,3.06-1.81Z"/><path class="cls-1" d="M91.12,234l-2.3,10.41a9.5,9.5,0,0,0,1.48,7.48l5,7.15A10.08,10.08,0,0,0,104,263.4l21.33-1,43.15-6-4.34,22.22,17.62,60.5-4.09,8.43,4.09,6.13h8.17l3.06,6.38h11.49l3.83-5.11-6.89-1.27-7.66-13.54,1.1-99.83L179,226.63l-55.51,5.19"/><path class="cls-4" d="M92,273.1s-4.23-8.37-2.24-9.39a11.05,11.05,0,0,1,6.3-1.49,20.77,20.77,0,0,1,4.31,1.19c2.56,1.6,25,.08,25,.08s25.81-4.61,35.11-5c3.6-.16,4,2.39,4.6,3.8a1.93,1.93,0,0,1-1.3,2.62,335.27,335.27,0,0,1-38.43,6.76C98.93,275,92,273.1,92,273.1Z"/><path class="cls-11" d="M91.66,234.05l.07-2.82s16.8-2.58,24.18-4.12c.31-.07,1.59-1.71,1.87-1.78,6.81-1.5,8.82-1.83,10.39-1.47,1,.22,2.48,4,2,4.77-1.06,1.57-5.26,3.11-10.93,3.79-.66.08-1.45-.5-2.15-.42-2.25.24-4.66.46-7.14.69C100.17,233.59,91.66,234.05,91.66,234.05Z"/></svg>