<svg id="Lager_1" data-name="Lager 1" xmlns="http://www.w3.org/2000/svg" viewBox="0 0 347.74 403.85"><defs><style>.cls-1{font-size:18px;font-family:CirceRounded-Bold, Circe Rounded;font-weight:700;}.cls-1,.cls-3,.cls-9{fill:#72bbd0;}.cls-2,.cls-5{fill:#fff;}.cls-2,.cls-4,.cls-5{stroke:#191919;}.cls-2,.cls-4,.cls-5,.cls-7,.cls-8,.cls-9{stroke-linecap:round;stroke-linejoin:round;}.cls-2,.cls-4,.cls-7,.cls-8,.cls-9{stroke-width:2px;}.cls-4,.cls-7,.cls-8{fill:none;}.cls-5{stroke-width:1.7px;}.cls-6{fill:#191919;}.cls-7,.cls-8,.cls-9{stroke:#72bbd0;}.cls-8{stroke-dasharray:5.12 5.12;}</style></defs><text class="cls-1" transform="translate(210.78 370.35)">3 m</text><path class="cls-2" d="M45.1,221.05l5.16.67,5.89,37.86,4.63-.59-3.89-36.71h0a3.81,3.81,0,0,0,3.83-3.86l-.27-18.07c.18-2.12-1.53-3.35-3.51-4.18-10.72-4.57-24-7.24-33.95-5.09"/><path class="cls-2" d="M65.93,281.44l-4.47,65a6.07,6.07,0,0,1-3.49,1,7.45,7.45,0,0,1-3.66-1l1.48-27.32Z"/><path class="cls-2" d="M112.05,274.3l9,70.57a14.09,14.09,0,0,0,4.08.7,5.54,5.54,0,0,0,3.49-1.46L114.91,274Z"/><path class="cls-2" d="M125,273.12l2.82-.25a1.81,1.81,0,0,0,1.56-1.74l.63-8.56a1.82,1.82,0,0,0-1.69-2.05,1.65,1.65,0,0,1-1.37-.78l-1.1-1.67c-2.22-3.35-4.08-5.92-11.74-5.91h-.21l-63,8.09L39.71,222.32l2.69.07A3.86,3.86,0,0,0,46,218.17V202.59c-.19-2-1.31-3.41-3.84-3.9a49.45,49.45,0,0,1-10.49-2.17A21.59,21.59,0,0,1,23,191.08c-1.75-.2-1.9,1.3-1.37,3l8.26,26.31,3.7,1.77h.58l13,45.48-.07.05a2.05,2.05,0,0,0-.62,2l2.07,8.47a1.73,1.73,0,0,0,1.77,1.4l3.11.56-11,72.12s.64,1.28,3.58,1.28S49,352.26,49,352.26L68.73,279l46.18-5,15.53,79.27a20.4,20.4,0,0,0,3.07.27,3.52,3.52,0,0,0,3.07-1.81Z"/><path class="cls-3" d="M48.27,268.14l5,.11s-3.44-8.6-1.31-9.31c5.49-1.82,63.37-12.33,70.59-6.89a14.48,14.48,0,0,1,4.82,5.55,1.91,1.91,0,0,1-1.3,2.62A336.24,336.24,0,0,1,87.65,267C61.27,270.31,48.27,268.14,48.27,268.14Z"/><path class="cls-4" d="M49.93,257.16l3.52,11.67s-1.18-.05-3.1-.28a8.44,8.44,0,0,1-3.29-.86"/><path class="cls-5" d="M322.38,352.17s-2,1.56-7.95,1.56c-5.75,0-8-1.56-8-1.56V339.12l.68-2.45-.68-2.81.94-3.06-.94-2.89,1.87-8.71c0-3.16.69-5.82,3.85-5.82h4.48c3.15,0,4.05,2.77,4.05,5.93l1.66,8.6-.67,3,.67,3-.72,2.55.72,2.71Z"/><path class="cls-6" d="M311.76,309.22H317a.66.66,0,0,1,.66.66v3.51a0,0,0,0,1,0,0H311.1a0,0,0,0,1,0,0v-3.51A.66.66,0,0,1,311.76,309.22Z"/><path class="cls-3" d="M310,331.68h9l.71,2.57-.69,2.41.69,3.07v10.43a18.33,18.33,0,0,1-10.58,0V339.59l.66-2.58-.66-2.35Z"/><line class="cls-7" x1="146.13" y1="347.78" x2="148.63" y2="347.78"/><line class="cls-8" x1="153.75" y1="347.78" x2="294.68" y2="347.78"/><line class="cls-7" x1="297.24" y1="347.78" x2="299.74" y2="347.78"/><line class="cls-9" x1="146.13" y1="344.12" x2="146.13" y2="351.45"/><line class="cls-9" x1="299.74" y1="344.12" x2="299.74" y2="351.45"/></svg>