<svg id="Lager_1" data-name="Lager 1" xmlns="http://www.w3.org/2000/svg" viewBox="0 0 347.74 403.85"><defs><style>.cls-1,.cls-6,.cls-8{fill:#fff;}.cls-1,.cls-3,.cls-6,.cls-8{stroke:#191919;}.cls-1,.cls-3,.cls-4,.cls-5,.cls-6,.cls-8{stroke-linecap:round;stroke-linejoin:round;}.cls-1,.cls-3{stroke-width:2px;}.cls-2,.cls-4{fill:#72bbd0;}.cls-3,.cls-5{fill:none;}.cls-4{stroke:#72bbd0;}.cls-4,.cls-5,.cls-8{stroke-width:0.9px;}.cls-5{stroke:#76c0cc;}.cls-6{stroke-width:1.53px;}.cls-7{fill:#191919;}</style></defs><polyline class="cls-1" points="209.4 330.97 208.41 338.04 204.29 344.82 207.88 349.46 229.7 352.53 233.18 348.71 226.94 346.36 218.94 338.94 220.35 334.14"/><polyline class="cls-1" points="289.06 333.41 291.26 340.2 290.51 348.1 295.77 350.71 301.99 348.32 317.87 347.14 319.34 342.19 312.69 342.8 301.12 336.41 298.86 330.33"/><polyline class="cls-1" points="275.74 223.93 274.85 229.36 274.42 232.92 276.67 242.6 278.31 237.53 279.66 235.12 285.2 244.66 288.43 245.46 285.34 236.28 282.18 221.5 275.09 190.07 272.33 171.26 265.88 171.73 262.94 187.17 275.74 223.93"/><path class="cls-1" d="M223.34,326.83c-.65-2.79,23.08-50.88,31.57-68.42s14.47-50.59,14.47-50.59l-31,.57a18.49,18.49,0,0,0-2.82,11.1c.49,6.39.61,7.91,1.14,9.75s-8,30.28-9.09,41.43c-.26,2.77-4.22,5.28-5.28,6.37s-10.21,5.27-12.72,46.23l-1.64-.42-1.51,6.74a51.9,51.9,0,0,0,9.1,3.55,32.42,32.42,0,0,0,9.22,1.29l.39-8.05Z"/><path class="cls-1" d="M297,322.87s-10.64-40.09-14.83-54.38-8.93-47.26-8.93-47.26l-1.32-17.29a121.27,121.27,0,0,1-16.53,1.16c-8,0-16.17-.85-16.17-.85C231,221.77,237,232.06,237,232.06l7.17,7.95,9,15.35s11.38,21.16,11.77,24.57-1.67,6.31,1.32,16.9c.86,3,18,31.41,18,31.41l-1.59,1,2.8,5.24a21.67,21.67,0,0,0,8.89-1.95c5.24-2.19,6.58-3.53,6.58-3.53L299,322.52Z"/><path class="cls-1" d="M44.52,216.32l5.16.67,5.89,37.86,4.62-.59-3.88-36.71h0a3.79,3.79,0,0,0,3.82-3.86l-.27-18.07c.18-2.12-1.53-3.35-3.5-4.18-10.72-4.57-24-7.24-33.95-5.09"/><path class="cls-1" d="M65.34,276.72l-4.47,65a6.07,6.07,0,0,1-3.49,1,7.5,7.5,0,0,1-3.66-1l1.49-27.32Z"/><path class="cls-1" d="M111.46,269.57l9,70.57a14.11,14.11,0,0,0,4.09.7,5.54,5.54,0,0,0,3.49-1.46l-13.67-70.12Z"/><path class="cls-1" d="M124.37,268.39l2.82-.25a1.81,1.81,0,0,0,1.56-1.74l.63-8.56a1.83,1.83,0,0,0-1.7-2,1.63,1.63,0,0,1-1.36-.78l-1.11-1.67c-2.21-3.35-4.07-5.92-11.74-5.91l-.21,0-63,8.08L39.13,217.59l2.69.07a3.86,3.86,0,0,0,3.61-4.22l0-15.58c-.19-2-1.3-3.41-3.83-3.9a49.33,49.33,0,0,1-10.49-2.17,21.59,21.59,0,0,1-8.68-5.44c-1.76-.19-1.91,1.3-1.38,3l8.27,26.31,3.7,1.77h.57l13,45.48-.06,0a2,2,0,0,0-.62,2l2.07,8.47a1.72,1.72,0,0,0,1.77,1.4l3.1.56-11,72.12s.63,1.28,3.58,1.28,3.05-1.28,3.05-1.28l19.7-73.28,46.17-5,15.53,79.27a20.62,20.62,0,0,0,3.08.27A3.5,3.5,0,0,0,136,347Z"/><path class="cls-2" d="M47.68,263.41l5,.11s-3.43-8.6-1.31-9.31c5.49-1.82,63.37-12.33,70.6-6.89a14.48,14.48,0,0,1,4.82,5.55,1.92,1.92,0,0,1-1.3,2.62,336.71,336.71,0,0,1-38.43,6.77C60.68,265.58,47.68,263.41,47.68,263.41Z"/><path class="cls-3" d="M49.35,252.43l3.52,11.67s-1.18-.05-3.11-.28a8.33,8.33,0,0,1-3.28-.86"/><path class="cls-1" d="M227.9,239.26c.28-1.3.33-6.36.34-6.48a5.76,5.76,0,0,1,.44-2.23c.09-.24.19-.55.3-.94.39-1,.71-1.87.91-2.56,1.19-4.15,5.83-32.7,6.24-34.29s5.27-18.08,5.27-18.08l-12.58-2.28s-3.41,14-5.12,18.28-2.46,35.45-2.46,35.45l0,0s0,0,0,0c-1.55,1.49-5.13,5-5.76,5.53-.79.73-2,2.39-3.56,8.17-.13.49.93,1.2.93,1.2s3-5.25,3.62-6l-2.6,8.22c1.37,3.58,6.86,5.77,6.86,5.77s3.69-5,4.6-6.26c.12-.61.48-2.58.77-4.13-.27,1.72-.52,3.77-.61,3.92s-.08.11-.16.21a1.81,1.81,0,0,1,0,.2S227.58,240.79,227.9,239.26Zm-1.5-2.34-.32,1.74C226.18,238,226.29,237.35,226.4,236.92Z"/><path class="cls-4" d="M243.57,166.6l-.35,7.66,1.6.34-.1,8.18s.87,2.54-9.94,1.41-13.46-2.87-13.46-2.87l1.87-8.77,2.64-2,3.11-17.2"/><path class="cls-2" d="M241.21,130.22l-.16,3.3a.09.09,0,0,0,.12.1l1.78-.9a.08.08,0,0,1,.1,0l1.34,1.7a.08.08,0,0,0,.14,0l.76-1.89s-.44-1.48-.46-1.23l-2-1.22a.09.09,0,0,0-.08,0l-.66.09S241.22,130.19,241.21,130.22Z"/><path class="cls-5" d="M252.6,118a5.67,5.67,0,0,0-1.19-.09,3,3,0,0,0-1.3.24"/><path class="cls-5" d="M252.68,119.39a3.14,3.14,0,0,0-1,.06,5.2,5.2,0,0,0-.93.37"/><path class="cls-6" d="M241.39,123.08s-4.45-7.69-5.73-2.51c-1.71,6.91,5.34,9.2,5.34,9.2l1.84-.56,3,2.55S257,137,262.94,135c1.37-.48,4.89-9.49,4.89-13.39a9,9,0,0,0-1.05-4.07l.61-4.45-1.55-7.34"/><path class="cls-2" d="M255.42,111.81c.22.27.23,2-.09,2.08a23.87,23.87,0,0,0-2.72-.12c-1.82.29-2.63,1.07-2.81.52s.85-2.29,2.23-2.68S255.15,111.48,255.42,111.81Z"/><path class="cls-2" d="M262.6,111.08c-.19.25-.25,2,0,2.08s1.3-.25,2.27,0c1.52.35,2.18,1.16,2.34.61a3.27,3.27,0,0,0-1.79-2.75A3.39,3.39,0,0,0,262.6,111.08Z"/><path class="cls-2" d="M244.91,104.34a.07.07,0,0,1,.14,0,17,17,0,0,0,3.2,5,60,60,0,0,0,6,5.18.07.07,0,0,0,.11-.08,31.83,31.83,0,0,1-1.81-4.71,5,5,0,0,1-.15-1.78.07.07,0,0,1,.11,0,15.43,15.43,0,0,0,7.39,2.28,38.58,38.58,0,0,0,9.13-.29,15.49,15.49,0,0,0,3-1.33,9.23,9.23,0,0,1-4.26-1.77.29.29,0,0,1-.07-.18c0-.13.09-.38,1.37-1.89,1.05-1.24,1.69-2,2-2.27a.07.07,0,0,0-.07-.12,13.93,13.93,0,0,1-4,.09,13.21,13.21,0,0,1-3.39-1.2.08.08,0,0,1,0-.12,10.31,10.31,0,0,0,1.89-2.49,10.57,10.57,0,0,0,1.43-3.19.08.08,0,0,0-.1-.08,10.24,10.24,0,0,1-3.84.51c-3,0-4.47-.74-7.19-.4a9.64,9.64,0,0,0-3.92,1.33.07.07,0,0,1-.1-.1,5.92,5.92,0,0,0,1.08-2.75,6.89,6.89,0,0,0-.62-2.7.07.07,0,0,0-.13,0A5.4,5.4,0,0,1,250.22,94c-1.3.75-3.07,1-4.54,2.09-1.91,1.37-2.45,2.72-2.47,3a.07.07,0,0,1-.07.07,6,6,0,0,0-1.62,0c-.42.15-.69,2.57-.72,2.83a.08.08,0,0,1,0,0,3.37,3.37,0,0,1-2.78.66,8.62,8.62,0,0,1-2.29-.62.07.07,0,0,0-.08.08,2.77,2.77,0,0,0,.7,1.92c.83.88,2.1.51,1.22,1.72s-2.49,6.46-2.82,6.79a.06.06,0,0,0,0,.11c.38.13,1.61.59,1.92,1.36s.06,3.77.46,3.79c2.21.12,4.18,3.68,4.54,3.92.84.58-.6-.89-.91-1.76-.41-1.13.7.31,1.29.53s-1.94-1.76-1.72-5.82.59-3.45.59-3.45,1.85.8,2,1.4.27-.79.08-2.79a21.27,21.27,0,0,0-.31-2.3.07.07,0,0,1,.1-.08,8.65,8.65,0,0,0,1.95.81C245.32,108.45,245.05,105.58,244.91,104.34Z"/><path class="cls-2" d="M240,101.7c-.16-.32-1.46-3.74-2.47-3.07s-.93,1.49-.19,2.27A4.73,4.73,0,0,0,240,101.7Z"/><path class="cls-6" d="M244.38,139.92s2.19-.86,2.73-1.2-.44-6-.44-6"/><path class="cls-6" d="M258.71,135.76s-.92,2-.46,2.55,3.33,1.34,3.33,1.34"/><ellipse class="cls-7" cx="254.58" cy="118.94" rx="1.2" ry="1.86" transform="translate(-5.28 12.02) rotate(-2.68)"/><ellipse class="cls-7" cx="264.31" cy="118.39" rx="1.09" ry="1.86" transform="translate(-1.31 2.97) rotate(-0.64)"/><path class="cls-4" d="M272.73,164.29s-4.71-21.9-5.45-22.81c-.6-.74-6.1-2.42-6.1-2.42s.6,8.65-5.93,8.55c-5.89-.1-11.08-8-11.08-8s-11.1,2-13.57,7.94c-6.47,15.71,4.54,29.91,4.54,29.91s1.16,11.3.62,18.93a5,5,0,0,0,3.2,5.13s2.39,1,16.36-.13,16.54-2.91,16.54-2.91l.65-6.47-2.95-23.17.36,8.22s-.8-1.12,1.32-2.18a8.73,8.73,0,0,0,3.93-3l-1.57-6.49Z"/><path class="cls-8" d="M262,120.72a11.41,11.41,0,0,0,5.07,1.46c2.43-.07-2.71,2.85-2.71,2.85"/><line class="cls-8" x1="261.58" y1="124.83" x2="262.31" y2="125.19"/><path class="cls-8" d="M259.53,128.6a8.49,8.49,0,0,1-4.84-1.81"/><path class="cls-8" d="M241.86,126.13a7.47,7.47,0,0,0-4.08-3"/><path class="cls-8" d="M240,124.21s-1.24,2.26,1.07,3.18"/><path class="cls-1" d="M239.6,204.29l.35-2.79s14.62-.58,21.09-1.23c.27,0,1.54-1.51,1.78-1.54,6-.69,7.73-.78,9-.24.81.34,1.7,4.31,1.21,5-1.07,1.44-4.82,2.47-9.73,2.47-.58,0-1.19-.66-1.8-.67-1.94,0-4-.09-6.17-.16C246.92,204.84,239.6,204.29,239.6,204.29Z"/></svg>