<svg id="Lager_1" data-name="Lager 1" xmlns="http://www.w3.org/2000/svg" viewBox="0 0 347.74 410.7"><defs><style>.cls-1,.cls-12,.cls-2,.cls-9{fill:#fff;}.cls-1,.cls-10,.cls-12,.cls-2,.cls-3,.cls-4,.cls-5,.cls-9{stroke:#010101;}.cls-1,.cls-10,.cls-12,.cls-2,.cls-3,.cls-4,.cls-5,.cls-6,.cls-8,.cls-9{stroke-linecap:round;}.cls-1,.cls-10,.cls-12,.cls-4,.cls-5,.cls-6,.cls-8,.cls-9{stroke-linejoin:round;}.cls-1{stroke-width:2.5px;}.cls-2,.cls-3{stroke-miterlimit:10;}.cls-10,.cls-2,.cls-3,.cls-5,.cls-9{stroke-width:2px;}.cls-3,.cls-4,.cls-5,.cls-6,.cls-8{fill:none;}.cls-4{stroke-width:1.92px;}.cls-6,.cls-8{stroke:#71bbcf;}.cls-6{stroke-width:1.77px;}.cls-10,.cls-13,.cls-7{fill:#71bbcf;}.cls-8{stroke-width:1.74px;}.cls-11{fill:#191919;}.cls-12{stroke-width:2.11px;}.cls-13{font-size:18px;font-family:CirceRounded-Bold, Circe Rounded;font-weight:700;}.cls-14{letter-spacing:0.03em;}.cls-15{letter-spacing:0.09em;}.cls-16{letter-spacing:-0.04em;}</style></defs><path class="cls-1" d="M184.09,139.52c4.9,20.2,2,66.38-1.08,81.7-2.94,14.52-14.62,16.57-34.39,15.4s-31.24,0-34.89-6.59c-5-9.11-4.76-26.94-4.76-26.94s-23.79-5.52-19.43-21.85c5.09-19.05,17.6-4.7,17.6-4.7s.76-36.53,7.94-40.32c8.31-4.38,23,1.92,37.61,1.75C169.36,137.77,182.3,132.14,184.09,139.52Z"/><path class="cls-2" d="M187.52,197.28s17.59-7.95,12.74-21.91c-4-11.6-13.54-2-13.54-2"/><path class="cls-3" d="M108.24,189.65A14.56,14.56,0,0,0,104,181.8,7.58,7.58,0,0,0,97,180"/><path class="cls-3" d="M193.64,179.83s-2.84-.58-4.39.78-2.53,5.45-2.53,5.45"/><path class="cls-4" d="M165.48,197s-2-6.14-7.48-6.18c-8.48-.06-15.19,9.29-15.19,9.29"/><path class="cls-4" d="M163.44,211.78s-.8,4.89-8.28,4.89c-4.75,0-10.32-5.52-10.32-5.52"/><path class="cls-5" d="M138.8,201.25s-.36-1.85.43-2.34"/><path class="cls-5" d="M155.71,185.26s5.82-3.24,3.93-6.44-7.27,0-7.27,0"/><line class="cls-6" x1="138.46" y1="179.52" x2="130.51" y2="182.43"/><line class="cls-6" x1="166.35" y1="179.52" x2="172.74" y2="182.5"/><path class="cls-7" d="M141.42,150.69s1.18,9.31,0,9.95-15.14-1.29-15.14-1.29-.8-6.09,1.61-7.38S141.42,150.69,141.42,150.69Z"/><line class="cls-8" x1="143.89" y1="160.01" x2="143.89" y2="153.78"/><path class="cls-7" d="M162.67,151.05s-.93,8.25,0,8.71,14.47,0,14.47,0,.47-6.37-1.71-7.77S162.67,151.05,162.67,151.05Z"/><line class="cls-6" x1="160.7" y1="159.49" x2="160.7" y2="153.33"/><ellipse cx="133.37" cy="171.3" rx="3.3" ry="5.07"/><ellipse cx="168.77" cy="170.81" rx="3.3" ry="5.07"/><path class="cls-7" d="M175,111s-2.7-7.85-8.66-8.14-8.43,5.38-8.43,5.38-4.65-2.32-5.52-4.5-2.76,3-4.8,4.07-2.32,2.47-6.69,1.89-4.87-6.84-9.48-6.26a6.68,6.68,0,0,0-5.63,4.8s-3.35-3.35-7.56-1.31-4.51,7.56-4.51,7.56-1.16.88-3.34-.87-2.91-1-2.91-1-2.47,4.22-2.33,7.42-3.92-1.89-6.1,1.45,2.76,6.83-.87,8.87-8,2.91-8.73,6.54S93,146.06,93,146.06s-5.09-.39-5.67,4.46,4.8,8.19,4.36,10.8-3.34,0-3.34,0-4.66,3.64-2.19,6.91a36.74,36.74,0,0,1,4.08,7.14A8.3,8.3,0,0,1,99,170c4.32.34,10,6.78,10,6.78s.43-32,6.54-37.94,19,1.45,38.09,1c19.63-.45,24.19-4.65,27.33-.87s4.36,34.88,4.36,34.88l6-5.08s5.81-3.35,3.92-6.84-1.76-1.83-2.05-5.9c-.25-3.54,5.69-7.91,4.23-10.81s.44-.73-2.61-.15-4.36-2.47-3.93-2.76,7.27-6,4.22-10.76-4.65-4.94-4.65-4.94,5.92-6.83,2.23-10.9-6.45-.44-7-3.06.87-3.78-1.6-3.49S175,111,175,111Z"/><line class="cls-6" x1="115.85" y1="178.22" x2="110.62" y2="173.39"/><line class="cls-6" x1="115.85" y1="182.89" x2="110.62" y2="178.22"/><line class="cls-6" x1="114.83" y1="186.51" x2="110.62" y2="182.89"/><path class="cls-9" d="M110.72,250.08s15.6-4.5,17.63-9.44,3-14,3-14h37.86s-1.87,9.89,0,12.5S183.59,247,183.59,247s-4.36,30.53-5.81,30.53-64.55-2.62-64.55-2.62Z"/><path class="cls-7" d="M187.26,185.92s-15.68,30.28-20.91,32.41-26.66,2.69-30.73,0-27.89-34.2-27.89-34.2-1.69,33.33,3.84,46.34c4.1,9.65,16.5,8.9,35.93,9.11,19.2.2,29.27,1.52,37-4.88S187.26,185.92,187.26,185.92Z"/><path class="cls-10" d="M258.27,326.74s-40.93,20.89-107.61,20.89c-69.94,0-118.3-20.89-118.3-20.89,8.27-23.13,19.2-53.26,20.79-55.4,2.62-3.48,61.79-25,61.79-25s9.75,10.17,32.27,12.49,38.13-13.46,38.13-13.46,50.41,23.94,53,26.84C239.87,273.88,249.88,302.37,258.27,326.74Z"/><path class="cls-11" d="M164.55,203s-2.31-5.76-6.35-3.85a2.28,2.28,0,0,1-.64,0c-3.42-1.43-7.53-.33-11.87,3.66-1.49,1.37,13.8,13.3,18.86.14"/><path class="cls-12" d="M315.38,318.82v-165A12.75,12.75,0,0,0,302.62,141h-66.4a12.75,12.75,0,0,0-12.76,12.75v77.72a28.76,28.76,0,0,1-11-1.41c-9.3-3.23-14.86-13.34-14.86-13.34,0,28.53,25.83,30.92,25.83,30.92v71.16a12.75,12.75,0,0,0,12.76,12.75h66.4A12.75,12.75,0,0,0,315.38,318.82Z"/><text class="cls-13" transform="translate(237.47 166.1)">AAAAA<tspan x="0" y="21.6">AAAAA</tspan><tspan x="0" y="43.2">AAAAA</tspan><tspan x="0" y="64.8">AAAAA</tspan><tspan x="0" y="86.4">AAAAA</tspan><tspan x="0" y="108">AAAAA</tspan><tspan x="0" y="129.6">AAAAA</tspan><tspan x="0" y="151.2">AAA</tspan><tspan class="cls-14" x="38.12" y="151.2">A</tspan><tspan class="cls-15" x="51.41" y="151.2">..</tspan><tspan class="cls-16" x="63.54" y="151.2">.</tspan></text></svg>