<svg id="Lager_1" data-name="Lager 1" xmlns="http://www.w3.org/2000/svg" viewBox="0 0 347.74 410.7"><defs><style>.cls-1,.cls-11,.cls-12,.cls-19,.cls-21,.cls-3,.cls-4,.cls-9{fill:#fff;}.cls-1,.cls-16,.cls-18,.cls-2,.cls-20,.cls-3,.cls-4,.cls-5,.cls-7,.cls-8{stroke:#71bbcf;}.cls-1,.cls-10,.cls-11,.cls-12,.cls-13,.cls-14,.cls-15,.cls-16,.cls-18,.cls-19,.cls-2,.cls-20,.cls-21,.cls-3,.cls-4,.cls-5,.cls-6,.cls-7,.cls-8,.cls-9{stroke-linecap:round;}.cls-1,.cls-10,.cls-11,.cls-14,.cls-15,.cls-16,.cls-18,.cls-19,.cls-2,.cls-21,.cls-3,.cls-4,.cls-5,.cls-6,.cls-7,.cls-8,.cls-9{stroke-linejoin:round;}.cls-1{stroke-width:2.51px;}.cls-10,.cls-17,.cls-2,.cls-8{fill:#71bbcf;}.cls-2,.cls-5{stroke-width:2.15px;}.cls-3{stroke-width:6px;}.cls-11,.cls-12,.cls-4,.cls-7,.cls-8{stroke-width:1.81px;}.cls-13,.cls-14,.cls-15,.cls-16,.cls-18,.cls-20,.cls-5,.cls-6,.cls-7{fill:none;}.cls-6{stroke:#fff;stroke-width:2px;}.cls-11,.cls-12,.cls-13,.cls-14,.cls-15,.cls-9{stroke:#010101;}.cls-9{stroke-width:1.99px;}.cls-10,.cls-19,.cls-21{stroke:#191919;}.cls-10{stroke-width:1.97px;}.cls-12,.cls-13,.cls-20{stroke-miterlimit:10;}.cls-13,.cls-15{stroke-width:1.45px;}.cls-14{stroke-width:1.38px;}.cls-16{stroke-width:1.28px;}.cls-18{stroke-width:1.26px;}.cls-19{stroke-width:1.66px;}.cls-20{stroke-width:1.6px;}.cls-21{stroke-width:1.52px;}</style></defs><line class="cls-1" x1="186.66" y1="306.93" x2="308.08" y2="324.87"/><line class="cls-1" x1="114.46" y1="296.26" x2="114.46" y2="33"/><path class="cls-2" d="M182.59,78.26V187.91l94.87,12.21V85.35Zm43,107.51-36.28-4.87V137.73l36.28,3.87Zm0-51.73-36.28-4.15V86.72l36.28,3Zm43.9,57.22-36.28-4.87V142.5l36.28,3.87Zm0-52.45-36.28-4.15V90.77l36.28,2.43Z"/><line class="cls-3" x1="168.87" y1="66.32" x2="289.77" y2="73.47"/><path class="cls-4" d="M281.37,90.34c-.52-14,.29-19,.29-19L283.5,67s-6.55-3.4-9.29-3.4c-4,0-6,2.21-9.77,2.21s-8.57-3.27-17.8-3.4c-11.75-.17-14.14,1.8-26,1.19-10.71-.55-17.89-4.83-25.21-5.36-4.11-.3-5.77.25-10.73,2s-14.45-3.41-14.45-3.41l3.92,6.81a33.89,33.89,0,0,1-.85,20.08c-4.94,12.77-6,20.09-6,20.09A25.46,25.46,0,0,0,180.08,110c7.49,1.14,11.07,0,11.07,0s-8.39-4.48-6.49-6.18,11.36,2.06,19.6,4.6c8.85,2.72,14.8,2.6,14.29,1.58-.65-1.3-5.72-2.67-3.45-4.6,1.42-1.19,21.16-.22,22.86,3.19.91,1.81-2.27,2.26-1.47,2.94,4.7,4,14.89,3.78,16.28,2.5,1.11-1-4.1-1.76-2.57-3.6,2.92-3.5,15.84-1.5,18,1.18,1.11,1.39-3.31,1.78-2.8,3.23,1.95,5.58,20.06-1.83,20.06-1.83C286.42,115,281.81,102.22,281.37,90.34Z"/><path class="cls-2" d="M280.57,303.38A50.92,50.92,0,0,1,260.43,298l7.62,39.81s4.19,4.37,14.33,4.71c10.14-.34,14.34-4.71,14.34-4.71L304.33,298S295.11,304.11,280.57,303.38Z"/><path class="cls-5" d="M304.33,298c-10.76-5.42-24.33-5.42-24.33-5.42s-14.59.28-19.57,5.42"/><path class="cls-2" d="M275.72,300.28S256.6,284.36,251.46,284s-33,18.79-33,18.79L209,300.28,185.25,284h38.9l27.31-9.18Z"/><polyline class="cls-2" points="272.58 219.48 286.19 225.47 282.38 232.32 272.58 219.48 253.46 231.47 254.6 264.29 278 300.29 268.05 265.14 268.05 235.46 278.12 227.88"/><polyline class="cls-2" points="282.38 297.96 275.72 270.85 282.38 257.12 288.84 265.71 286.19 285.12 282.28 300.29"/><polygon class="cls-2" points="288.84 296.66 301.5 290.82 320.81 310.23 328.74 340.58 339.07 342.48 318.24 348.47 313.96 312.51 298.83 296.66 288.84 296.66"/><polyline class="cls-2" points="286.19 296.66 295.12 257.12 301.5 234.27 316.81 226.62 313.96 246.31 296.55 272.27 286.19 297.96"/><polygon class="cls-2" points="254.88 271.97 246.61 262.03 245.18 244.29 230.48 237.58 236.62 248 236.62 265.41 254.88 271.97"/><polygon class="cls-2" points="293.69 288.83 299.97 274.84 328.74 266.85 316.81 277.84 303.11 280.55 293.69 288.83"/><polygon class="cls-2" points="268.05 301.07 271.44 297.96 275.72 300.29 278 300.29 282.06 296.66 284.56 297.96 288.84 298.86 296.26 300.29 295.16 302.81 280.57 303.38 268.05 301.07"/><path class="cls-6" d="M261,309.07a37,37,0,0,0,9.91,3.3,124.59,124.59,0,0,0,15.26,1.14"/><path class="cls-4" d="M184.66,103.77a35.18,35.18,0,0,0,4.68-17"/><path class="cls-4" d="M214.53,106.34s3.85-13.29,3.34-21"/><path class="cls-4" d="M238,108.54s-2.05-9.88-1.88-14.3"/><path class="cls-4" d="M250.2,110.38s1.84-21,1.18-27"/><path class="cls-4" d="M268.19,111.56A44,44,0,0,1,265,101.39"/><line class="cls-4" x1="192.17" y1="109.95" x2="192.17" y2="104.51"/><line class="cls-4" x1="218.55" y1="109.95" x2="218.55" y2="104.88"/><line class="cls-4" x1="236.49" y1="111.48" x2="234.89" y2="107.23"/><line class="cls-4" x1="252.77" y1="113.98" x2="252.77" y2="108.96"/><line class="cls-4" x1="265.39" y1="114.79" x2="263.5" y2="109.35"/><polygon class="cls-4" points="179.06 191.26 165.45 195.34 267.4 210.66 278.26 204.88 179.06 191.26"/><polygon class="cls-7" points="165.45 195.34 165.45 199.98 268.19 215.43 278.26 208.88 278.26 204.88 267.4 210.66 165.45 195.34"/><polygon class="cls-8" points="268.19 215.43 267.4 210.66 165.45 195.34 165.45 199.98 268.19 215.43"/><polygon class="cls-4" points="19.52 63.76 77.26 55.22 77.26 155.05 19.52 171.48 19.52 63.76"/><path class="cls-9" d="M82.71,223.46s9.61-4.73,9.91-9a69.29,69.29,0,0,0-.26-9.69h37s-1.49,7.89,0,10S140.86,221,140.86,221s-3.48,24.36-4.64,24.36-51.5-2.09-51.5-2.09Z"/><path class="cls-10" d="M87.93,217.15s11.48,12.17,28.69,11,17.84-11.41,17.84-11.41,29.77,10.77,31.68,13.44,24.54,67.4,24.54,67.4l-24.54,7.58s3.49,56.76-.14,59.25-22.72,4.83-54.13,6.6-50.22,1.79-50.56-1.26,0-56.85,0-56.85a84.19,84.19,0,0,1-18.9-2.44c-9.89-2.5-17.36-6.11-16.87-7.61s19.3-64.94,21.37-67S87.93,217.15,87.93,217.15Z"/><path class="cls-11" d="M132.56,138.42c3.54,14.6,1.47,48-.77,59-2.13,10.5-10.57,12-24.86,11.14s-22.56,0-25.2-4.77c-3.64-6.58-3.44-19.46-3.44-19.46s-17.19-4-14-15.79c3.68-13.76,12.72-3.4,12.72-3.4s.54-26.39,5.74-29.13c6-3.16,16.59,1.39,27.17,1.26C121.92,137.16,131.27,133.09,132.56,138.42Z"/><path class="cls-12" d="M135,180.16s12.71-5.75,9.21-15.83c-2.91-8.38-9.79-1.43-9.79-1.43"/><path class="cls-13" d="M77.76,174.65A10.52,10.52,0,0,0,74.68,169a5.43,5.43,0,0,0-5-1.33"/><path class="cls-13" d="M139.46,167.55s-2.05-.42-3.17.56-1.83,3.94-1.83,3.94"/><path class="cls-14" d="M116.21,181.07s1.64-4.95-2.26-5.66-11.21,7.5-11.21,7.5"/><path class="cls-14" d="M115.09,187.88s-.52,3-3.09,3.54-6.59-3.54-6.59-3.54"/><path class="cls-15" d="M99.47,183.83s-.26-1.34.31-1.69"/><path class="cls-15" d="M112.06,171.48s4.2-2.35,2.84-4.66-5.25,0-5.25,0"/><line class="cls-16" x1="99.6" y1="167.33" x2="93.86" y2="169.43"/><line class="cls-16" x1="119.75" y1="167.33" x2="124.37" y2="169.48"/><path class="cls-17" d="M101.73,146.5s.85,6.72,0,7.18-10.93-.92-10.93-.92-.58-4.41,1.16-5.34S101.73,146.5,101.73,146.5Z"/><line class="cls-18" x1="103.52" y1="153.23" x2="103.52" y2="148.73"/><path class="cls-17" d="M117.09,146.76s-.68,6,0,6.29,10.45,0,10.45,0,.34-4.61-1.23-5.62S117.09,146.76,117.09,146.76Z"/><line class="cls-16" x1="115.66" y1="152.85" x2="115.66" y2="148.41"/><ellipse cx="95.92" cy="161.39" rx="2.38" ry="3.66"/><ellipse cx="121.5" cy="161.04" rx="2.38" ry="3.66"/><path class="cls-17" d="M126,117.84s-1.95-5.67-6.25-5.88-6.1,3.88-6.1,3.88-3.36-1.68-4-3.25-2,2.2-3.46,2.94-1.68,1.78-4.83,1.36-3.52-4.93-6.86-4.51a4.83,4.83,0,0,0-4.07,3.46,5,5,0,0,0-5.46-1c-3,1.48-3.26,5.47-3.26,5.47s-.84.63-2.41-.63-2.1-.74-2.1-.74-1.79,3.05-1.68,5.36-2.84-1.37-4.41,1.05,2,4.94-.63,6.41-5.78,2.1-6.31,4.72,2.63,6.62,2.63,6.62-3.68-.28-4.1,3.22,3.47,5.92,3.16,7.81-2.42,0-2.42,0-3.36,2.62-1.58,5a26.3,26.3,0,0,1,2.94,5.16,6,6,0,0,1,6.34-3.92c3.12.25,7.21,4.9,7.21,4.9s.32-23.11,4.73-27.41,13.76,1,27.52.73c14.18-.32,17.48-3.36,19.75-.63s3.15,25.21,3.15,25.21l4.3-3.68s4.2-2.41,2.84-4.93-1.27-1.33-1.49-4.27c-.18-2.56,4.11-5.71,3.06-7.81s.32-.53-1.89-.11-3.15-1.78-2.83-2,5.25-4.31,3-7.77-3.36-3.57-3.36-3.57,4.28-4.94,1.62-7.88-4.66-.32-5.08-2.21.63-2.73-1.16-2.52S126,117.84,126,117.84Z"/><line class="cls-16" x1="83.26" y1="166.39" x2="79.48" y2="162.9"/><line class="cls-16" x1="83.26" y1="169.76" x2="79.48" y2="166.39"/><line class="cls-16" x1="82.53" y1="172.37" x2="79.48" y2="169.76"/><path class="cls-17" d="M134.85,172s-11.32,21.88-15.1,23.42-19.27,1.94-22.21,0-20.15-24.71-20.15-24.71-1.22,24.09,2.78,33.49c3,7,11.92,6.43,26,6.58,13.87.14,21.14,1.09,26.74-3.53S134.85,172,134.85,172Z"/><path class="cls-14" d="M112.38,182.82a24,24,0,0,1-3.74,1.47c-.83.1,3.73.75,3.72,1.67"/><path class="cls-19" d="M176.13,353.82l-30-20.81L119,245.38,106.77,233.2s-9.77-30.91,10-21.15l1.15-10.62s.78-19.57.54-24.15c-.15-3,1.87-5.33,3.65-6.86a1.88,1.88,0,0,1,3.1,1.23c.46,4.45,1,12.58,1.51,15.41,1.13,6.08,1.59,12.61,2.6,16.52a11.41,11.41,0,0,1,.27,1.8h0c2.26,4.65,4.89,11.36,4.89,11.36l.68,18,44,83.45"/><path class="cls-20" d="M129.18,246.37s11.49-3.29,13.5,1.22C144.2,251,132.33,255.84,134,260c2,5,11.85-4,14,.81,2.52,5.78-9.74,9.12-8.14,14,1.92,5.85,13.56-1.61,15.37,2.18,3.39,7.1-10.71,9.55-8.76,15.63,2.27,7.1,12.53-3.64,16.6.16"/><path class="cls-21" d="M116.22,223.12c-2.42-.38-4.55-4.26-5.76-7a2.26,2.26,0,0,0-3.43-.88l-1.5,1.13a2.26,2.26,0,0,0-.64,2.83,10.34,10.34,0,0,1,1.1,5.68l0,.13a2.2,2.2,0,0,1-3.76,1.28l-4.57-7.46a2.25,2.25,0,0,1,0-3.19l10.92-13a2.27,2.27,0,0,1,2.64-.37l13.52,6.14,7.86,3.88"/><path class="cls-19" d="M124.81,218l-5.87-3.79L107.58,210l-4.79,3-4,14.49.83,1.28L112,232a10.54,10.54,0,0,0-1.46-5.2c-1.52-2.4-4.35-1.15-4.35-1.15a7.23,7.23,0,0,0,1.43-4.66,11.06,11.06,0,0,0-1.57-3.58s3.23,2.83,5.46,4.56a13.24,13.24,0,0,0,5.7,2.11s-1.29,1.22-1.77,5.29a21.63,21.63,0,0,0,.41,7.34"/><path class="cls-17" d="M123.63,170.69l-.93.24a.63.63,0,0,0-.47.53c-.13.85-.32,2.77.35,3.57a2.1,2.1,0,0,0,1.57.73.64.64,0,0,0,.66-.71l-.39-3.81A.63.63,0,0,0,123.63,170.69Z"/><polyline class="cls-19" points="184.98 299.35 192.94 335.38 176.13 353.82"/><line class="cls-10" x1="33.53" y1="309.37" x2="29.53" y2="373.94"/><ellipse class="cls-2" cx="47.44" cy="111.46" rx="16.36" ry="33.2"/></svg>