<svg id="Lager_1" data-name="Lager 1" xmlns="http://www.w3.org/2000/svg" viewBox="0 0 347.74 410.7"><defs><style>.cls-1,.cls-12,.cls-15,.cls-7,.cls-9{fill:#fff;}.cls-1,.cls-11,.cls-13,.cls-15,.cls-2,.cls-3,.cls-7,.cls-8{stroke:#010101;}.cls-1,.cls-10,.cls-11,.cls-12,.cls-13,.cls-15,.cls-2,.cls-3,.cls-4,.cls-6,.cls-7,.cls-8,.cls-9{stroke-linecap:round;}.cls-1,.cls-10,.cls-11,.cls-12,.cls-13,.cls-15,.cls-3,.cls-4,.cls-6,.cls-7,.cls-8,.cls-9{stroke-linejoin:round;}.cls-1{stroke-width:2.5px;}.cls-11,.cls-13,.cls-2,.cls-3,.cls-4,.cls-6{fill:none;}.cls-2{stroke-miterlimit:10;}.cls-12,.cls-2,.cls-3,.cls-7{stroke-width:2px;}.cls-10,.cls-12,.cls-4,.cls-6,.cls-9{stroke:#71bbcf;}.cls-4{stroke-width:1.77px;}.cls-10,.cls-16,.cls-5,.cls-8{fill:#71bbcf;}.cls-6{stroke-width:1.74px;}.cls-8{stroke-width:1.85px;}.cls-10,.cls-9{stroke-width:3px;}.cls-11{stroke-width:2.51px;}.cls-13{stroke-width:1.92px;}.cls-14{fill:#191919;}.cls-15{stroke-width:2.11px;}.cls-16{font-size:18px;font-family:CirceRounded-Bold, Circe Rounded;font-weight:700;}.cls-17{letter-spacing:0.03em;}.cls-18{letter-spacing:0.09em;}.cls-19{letter-spacing:-0.04em;}</style></defs><path class="cls-1" d="M191.27,117.69c3,20.57-4.09,66.29-8.59,81.25-4.26,14.2-16.08,15.16-35.66,12.18s-31.11-2.85-34.14-9.77c-4.17-9.54-2.26-27.27-2.26-27.27s-23.18-7.69-17.33-23.55c6.82-18.49,17.95-3.06,17.95-3.06s4.12-36.3,11.63-39.41c8.67-3.6,22.69,4,37.28,5.19C176.77,114.59,190.17,110.17,191.27,117.69Z"/><path class="cls-2" d="M111.14,160.63a14.6,14.6,0,0,0-3.53-8.21,7.54,7.54,0,0,0-6.77-2.47"/><path class="cls-2" d="M197.07,158.71s-2.77-.84-4.44.37-3,5.2-3,5.2"/><path class="cls-3" d="M158.81,160.63s6.09-2.7,4.5-6.06-7.24-.67-7.24-.67"/><line class="cls-4" x1="142.16" y1="153.32" x2="133.98" y2="155.49"/><line class="cls-4" x1="169.93" y1="155.89" x2="176.02" y2="159.44"/><path class="cls-5" d="M147.76,124.89s.31,9.37-.92,9.9-15-2.67-15-2.67-.24-6.14,2.28-7.2S147.76,124.89,147.76,124.89Z"/><line class="cls-6" x1="149.36" y1="134.39" x2="149.94" y2="128.19"/><path class="cls-5" d="M168.89,127.2s-1.69,8.13-.8,8.68,14.4,1.33,14.4,1.33,1-6.31-1-7.9S168.89,127.2,168.89,127.2Z"/><line class="cls-4" x1="166.14" y1="135.42" x2="166.71" y2="129.29"/><ellipse cx="137.84" cy="144.67" rx="5.07" ry="3.3" transform="translate(-18.89 268.61) rotate(-84.72)"/><ellipse cx="173.15" cy="147.44" rx="5.07" ry="3.3" transform="translate(10.4 306.28) rotate(-84.72)"/><path class="cls-5" d="M184.8,88.47s-2-8.06-7.87-8.9S168,84.15,168,84.15s-4.42-2.74-5.09-5-3,2.78-5.15,3.61S155.26,85,151,84s-4.22-7.25-8.87-7.09a6.67,6.67,0,0,0-6,4.25s-3-3.64-7.41-2-5.18,7.12-5.18,7.12-1.24.76-3.25-1.18-2.8-1.28-2.8-1.28-2.85,4-3,7.17-3.74-2.24-6.22.89,2.13,7-1.68,8.75-8.23,2.15-9.29,5.71,2.78,9.45,2.78,9.45-5-.85-6.06,3.92,4,8.59,3.35,11.16-3.33-.31-3.33-.31-5,3.19-2.81,6.68a37,37,0,0,1,3.4,7.48,8.32,8.32,0,0,1,9.23-4.59c4.27.74,9.32,7.68,9.32,7.68s3.38-31.81,10-37.18,18.83,3.2,37.84,4.51c19.58,1.36,24.51-2.4,27.29,1.65S189.36,152,189.36,152l6.41-4.51s6.09-2.8,4.53-6.45-1.58-2-1.5-6.07c.07-3.55,6.39-7.34,5.21-10.37s.5-.69-2.59-.39-4.12-2.86-3.65-3.11,7.78-5.27,5.18-10.32-4.17-5.35-4.17-5.35,6.52-6.26,3.23-10.65-6.39-1-6.73-3.69,1.22-3.68-1.27-3.62S184.8,88.47,184.8,88.47Z"/><line class="cls-4" x1="119.77" y1="149.95" x2="115" y2="144.65"/><line class="cls-4" x1="119.34" y1="154.59" x2="114.55" y2="149.46"/><line class="cls-4" x1="117.99" y1="158.1" x2="114.12" y2="154.11"/><path class="cls-7" d="M107.7,220.38s15.6-4.51,17.63-9.45,3-14,3-14h37.86s-1.87,9.89,0,12.51,14.36,7.85,14.36,7.85-4.36,30.52-5.81,30.52-64.54-2.61-64.54-2.61Z"/><path class="cls-8" d="M249.17,288.76s-36.92,27.89-96.81,39.38c-63.87,12.26-112.79,4.29-112.79,4.29,0-24.42,16.72-85.84,18.21-87.8,2.43-3.19,58.11-29.54,58.11-29.54s9.06,9.33,30,11.45,35.45-12.33,35.45-12.33,46.88,21.93,49.3,24.59C232.06,240.33,241.38,266.44,249.17,288.76Z"/><path class="cls-2" d="M190.33,175.25S208.58,169,205,154.61c-2.94-11.92-13.3-3.22-13.3-3.22"/><path class="cls-5" d="M190.16,164.18s-18.4,28.72-23.8,30.36-26.8.22-30.6-2.86-24.63-36.62-24.63-36.62-4.75,33-.43,46.5c3.19,10,15.61,10.39,34.93,12.38,19.1,2,29,4.2,37.32-1.46S190.16,164.18,190.16,164.18Z"/><polyline class="cls-9" points="133.98 402.68 20.18 336.57 299.76 276.82"/><polygon class="cls-10" points="20.18 337.76 133.98 402.68 100.84 401.39 20.18 355.38 20.18 337.76"/><path class="cls-2" d="M182.21,329.92l-.06,3.23a5.61,5.61,0,0,0,3.09,5.12l40.4,20.4a20.22,20.22,0,0,0,15.41,1.15l26.69-8.8c2.22-.73,2.56-3.3,2.6-5.64V344"/><path class="cls-2" d="M183.33,328.84l28.59-7.51a15.25,15.25,0,0,1,10,.78L269.4,342.9a1.57,1.57,0,0,1-.15,2.93l-29.7,9.44a14.1,14.1,0,0,1-10.59-.81L183,331.67A1.52,1.52,0,0,1,183.33,328.84Z"/><line class="cls-11" x1="247.61" y1="350.65" x2="259.1" y2="346.82"/><polyline class="cls-12" points="234.85 331.42 229.74 332.78 238.59 339.93 221.08 333.76 226.51 341.63 217.15 339.93 212.72 341.63"/><path class="cls-13" d="M167.07,172.72s-1.41-6.3-6.88-6.84c-8.44-.84-16,7.86-16,7.86"/><path class="cls-13" d="M163.68,187.28s-1.25,4.8-8.7,4.11c-4.73-.43-9.76-6.44-9.76-6.44"/><path class="cls-3" d="M140.11,174.53s-.19-1.88.64-2.29"/><path class="cls-14" d="M165.59,178.6s-1.76-5.95-6-4.41a2.44,2.44,0,0,1-.64,0c-3.28-1.73-7.47-1-12.16,2.55-1.61,1.23,12.51,14.51,18.76,1.88"/><path class="cls-15" d="M316.21,290.51v-165a12.75,12.75,0,0,0-12.76-12.75h-66.4a12.75,12.75,0,0,0-12.76,12.75v77.72a28.76,28.76,0,0,1-11-1.41c-9.3-3.23-14.86-13.34-14.86-13.34,0,28.53,25.83,30.92,25.83,30.92v71.16a12.75,12.75,0,0,0,12.76,12.75h66.4A12.75,12.75,0,0,0,316.21,290.51Z"/><text class="cls-16" transform="translate(238.3 137.78)">AAAAA<tspan x="0" y="21.6">AAAAA</tspan><tspan x="0" y="43.2">AAAAA</tspan><tspan x="0" y="64.8">AAAAA</tspan><tspan x="0" y="86.4">AAAAA</tspan><tspan x="0" y="108">AAAAA</tspan><tspan x="0" y="129.6">AAAAA</tspan><tspan x="0" y="151.2">AAA</tspan><tspan class="cls-17" x="38.12" y="151.2">A</tspan><tspan class="cls-18" x="51.41" y="151.2">..</tspan><tspan class="cls-19" x="63.54" y="151.2">.</tspan></text></svg>