<svg id="Lager_1" data-name="Lager 1" xmlns="http://www.w3.org/2000/svg" viewBox="0 0 347.74 410.7"><defs><style>.cls-1,.cls-10,.cls-13,.cls-8{fill:#fff;}.cls-1,.cls-12,.cls-2,.cls-3,.cls-4,.cls-8,.cls-9{stroke:#010101;}.cls-1,.cls-10,.cls-11,.cls-12,.cls-13,.cls-2,.cls-3,.cls-4,.cls-5,.cls-7,.cls-8,.cls-9{stroke-linecap:round;}.cls-1,.cls-10,.cls-11,.cls-12,.cls-13,.cls-3,.cls-4,.cls-5,.cls-7,.cls-8,.cls-9{stroke-linejoin:round;}.cls-1{stroke-width:2.5px;}.cls-12,.cls-2,.cls-3,.cls-4,.cls-5,.cls-7{fill:none;}.cls-2{stroke-miterlimit:10;}.cls-13,.cls-2,.cls-4,.cls-8{stroke-width:2px;}.cls-3{stroke-width:1.92px;}.cls-10,.cls-11,.cls-13,.cls-5,.cls-7{stroke:#71bbcf;}.cls-5{stroke-width:1.77px;}.cls-11,.cls-6,.cls-9{fill:#71bbcf;}.cls-7{stroke-width:1.74px;}.cls-9{stroke-width:1.85px;}.cls-10,.cls-11{stroke-width:3px;}.cls-12{stroke-width:2.51px;}</style></defs><path class="cls-1" d="M196,118.42c3,20.58-4.09,66.29-8.59,81.26-4.27,14.19-16.08,15.15-35.66,12.18s-31.11-2.85-34.14-9.78c-4.17-9.54-2.26-27.26-2.26-27.26s-23.18-7.69-17.33-23.55c6.81-18.5,18-3.06,18-3.06s4.12-36.3,11.63-39.42c8.67-3.59,22.68,4,37.28,5.2C181.53,115.33,194.94,110.91,196,118.42Z"/><path class="cls-2" d="M115.91,161.37a14.58,14.58,0,0,0-3.53-8.21,7.58,7.58,0,0,0-6.78-2.48"/><path class="cls-2" d="M201.84,159.45s-2.77-.84-4.44.37-3,5.2-3,5.2"/><path class="cls-3" d="M172.13,174.91s-1.4-6.29-6.87-6.84c-8.45-.84-16,7.86-16,7.86"/><path class="cls-3" d="M169.66,184.73s-1.26,4.8-8.7,4.12c-4.73-.44-9.77-6.45-9.77-6.45"/><path class="cls-4" d="M144.65,176.79s-.18-1.87.65-2.29"/><path class="cls-4" d="M163.58,161.37s6.09-2.7,4.5-6.06-7.24-.67-7.24-.67"/><line class="cls-5" x1="146.93" y1="154.06" x2="138.75" y2="156.22"/><line class="cls-5" x1="174.7" y1="156.63" x2="180.79" y2="160.18"/><path class="cls-6" d="M152.53,125.62s.31,9.38-.92,9.91-15-2.67-15-2.67-.24-6.15,2.28-7.2S152.53,125.62,152.53,125.62Z"/><line class="cls-7" x1="154.13" y1="135.13" x2="154.7" y2="128.93"/><path class="cls-6" d="M173.66,127.94s-1.69,8.12-.81,8.67S187.26,138,187.26,138s1.05-6.31-1-7.91S173.66,127.94,173.66,127.94Z"/><line class="cls-5" x1="170.91" y1="136.16" x2="171.48" y2="130.03"/><ellipse cx="142.61" cy="145.4" rx="5.07" ry="3.3" transform="translate(-15.3 274.03) rotate(-84.72)"/><ellipse cx="177.91" cy="148.18" rx="5.07" ry="3.3" transform="matrix(0.09, -1, 1, 0.09, 13.99, 311.7)"/><path class="cls-6" d="M189.57,89.21s-2-8.06-7.87-8.9-8.9,4.58-8.9,4.58-4.41-2.75-5.08-5-3,2.79-5.15,3.61-2.55,2.25-6.84,1.27-4.22-7.25-8.87-7.1a6.71,6.71,0,0,0-6.05,4.26s-3-3.65-7.4-2-5.19,7.12-5.19,7.12-1.23.76-3.24-1.18-2.81-1.28-2.81-1.28-2.84,4-3,7.17-3.74-2.24-6.22.88,2.12,7.06-1.68,8.75-8.23,2.16-9.29,5.71,2.78,9.46,2.78,9.46-5-.86-6.06,3.92,4,8.59,3.35,11.16-3.33-.31-3.33-.31-5,3.19-2.81,6.67a37.22,37.22,0,0,1,3.4,7.49,8.32,8.32,0,0,1,9.23-4.59c4.26.74,9.32,7.67,9.32,7.67s3.37-31.8,10-37.18,18.83,3.2,37.83,4.52c19.59,1.36,24.52-2.4,27.3,1.65s1.13,35.14,1.13,35.14l6.4-4.52s6.1-2.79,4.54-6.44-1.58-2-1.5-6.07c.07-3.55,6.39-7.35,5.21-10.38s.5-.68-2.59-.38-4.12-2.86-3.66-3.11,7.79-5.27,5.19-10.33-4.18-5.35-4.18-5.35,6.53-6.25,3.23-10.65-6.38-1-6.72-3.68,1.22-3.69-1.27-3.62S189.57,89.21,189.57,89.21Z"/><line class="cls-5" x1="124.53" y1="150.68" x2="119.77" y2="145.39"/><line class="cls-5" x1="124.1" y1="155.33" x2="119.32" y2="150.2"/><line class="cls-5" x1="122.76" y1="158.84" x2="118.89" y2="154.85"/><path class="cls-8" d="M112.47,221.12s15.6-4.51,17.63-9.45,3-14,3-14H171s-1.87,9.89,0,12.5,14.36,7.85,14.36,7.85-4.36,30.53-5.81,30.53S115,246,115,246Z"/><path class="cls-9" d="M253.94,289.5S217,317.39,157.13,328.88c-63.87,12.26-112.8,4.28-112.8,4.28,0-24.41,16.73-85.83,18.21-87.79,2.44-3.19,58.12-29.54,58.12-29.54s9.06,9.33,30,11.45S186.13,215,186.13,215s46.88,21.93,49.3,24.59C236.83,241.07,246.15,267.17,253.94,289.5Z"/><path class="cls-3" d="M167.08,177.58s-8.7,1-9.85,1,9,1.23,8.85,2.49"/><path class="cls-2" d="M195.1,176s18.25-6.3,14.71-20.64c-2.94-11.92-13.3-3.22-13.3-3.22"/><path class="cls-6" d="M194.93,164.92s-18.4,28.71-23.8,30.36-26.8.22-30.6-2.86S115.9,155.8,115.9,155.8s-4.75,33-.43,46.5c3.19,10,15.61,10.38,34.93,12.38,19.1,2,29,4.2,37.31-1.46S194.93,164.92,194.93,164.92Z"/><polyline class="cls-10" points="138.75 403.42 24.95 337.31 304.53 277.56 324.44 283.59"/><polygon class="cls-11" points="24.95 338.5 138.75 403.42 105.61 402.13 24.95 356.11 24.95 338.5"/><path class="cls-2" d="M187,330.66l-.06,3.23A5.61,5.61,0,0,0,190,339l40.4,20.39a20.11,20.11,0,0,0,15.4,1.15l26.7-8.79c2.22-.74,2.56-3.31,2.6-5.65v-1.36"/><path class="cls-2" d="M188.1,329.58l28.59-7.51a15.25,15.25,0,0,1,10,.78l47.47,20.79a1.56,1.56,0,0,1-.15,2.92L244.32,356a14.1,14.1,0,0,1-10.59-.81l-45.92-22.79A1.52,1.52,0,0,1,188.1,329.58Z"/><line class="cls-12" x1="252.38" y1="351.39" x2="263.87" y2="347.56"/><polyline class="cls-13" points="239.62 332.15 234.51 333.51 243.36 340.66 225.85 334.5 231.28 342.37 221.91 340.66 217.49 342.37"/></svg>