<svg width="500" height="550" xmlns="http://www.w3.org/2000/svg">
 <title>mobile hand</title>

 <g>
  <title>Layer 1</title>
  <polygon id="svg_1" fill="#fff" stroke-width="0px" points="138.10000610351562,172.29998779296875 147.3900146484375,215.30999755859375 145.26998901367188,248.20001220703125 114,261 111,300 140,369 160,403 193,431 234,455 258,533 309,532 337,522 376,483 380,478 348,404 348,298 330,181 323,180 306,195 289.5,155.5 222.19000244140625,70.27000427246094 138.10000610351562,172.29998779296875 " class="cls-5"/>
  <path id="svg_2" stroke-width="4.87px" fill="#fff" stroke="#191919" stroke-linejoin="round" stroke-linecap="round" d="m265.3,349.79l-109.12,-11.08c-12.21,-1.24 -21.11,-12.14 -19.77,-25.3l2.61,-25.69" class="cls-16"/>
  <path id="svg_3" stroke-width="4.87px" fill="#fff" stroke="#191919" stroke-linejoin="round" stroke-linecap="round" d="m143.03,248.2l20.69,-203.72c1.24,-12.21 12.14,-21.11 24.36,-19.87l112.85,11.46c12.21,1.24 21.11,12.14 19.87,24.36l-15.43,134.22" class="cls-16"/>
  <path id="svg_4" stroke-width="4.87px" fill="#fff" stroke="#191919" stroke-linejoin="round" stroke-linecap="round" d="m144.86,211.68s-38.99,-44.95 -30.66,-60.03c12.91,-23.35 38.43,7.42 38.43,7.42l3.32,-32.73s-20.5,-29.42 -17.95,-42.95c4.17,-22.03 21.5,-8.44 21.5,-8.44" class="cls-16"/>
  <path id="svg_5" fill="#71bacf" stroke-width="0px" d="m317.88,186.62s-0.67,22.72 3.02,25.05c3.69,2.33 10.98,1.04 10.98,1.04c0,0 0.58,-24.26 -2.3,-31.11c-1.25,-2.99 -11.7,5.03 -11.7,5.03l0,-0.01z" class="cls-2"/>
  <rect transform="rotate(5.8 -328.01 -212.14)" id="svg_6" stroke-width="4.2px" stroke="#191919" stroke-linejoin="round" stroke-linecap="round" fill="none" height="3.91" width="51.16" y="-26.52" x="241.3" class="cls-14"/>
  <path id="svg_88" fill="#459399" stroke-width="0px" d="m188.9,31.4l109.29,10.84c9.67,0.96 16.7,9.64 15.62,19.3l-29.37,266.57c-5.44,2.88 -9.72,16.5 -19.31,15.41l-106.49,-12.08c-9.5,-1.08 -16.36,-9.59 -15.4,-19.1l2.76,-28.34l12,-10l6,-23l-14,-5l19.81,-198.99c0.97,-9.58 9.51,-16.56 19.09,-15.61z" class="cls-4"/>
  <path id="svg_89" fill="#fff" stroke-width="0px" d="m287.06,204.4l0,0c-0.25,2.44 -2.42,4.21 -4.86,3.96l-18.99,-1.93c-2.11,-0.21 -3.78,-1.9 -3.96,-4.02l-3.34,-37.6s-0.07,-0.06 -0.08,-0.01l-25.56,59.31c-0.72,1.88 -2.6,3.03 -4.59,2.83l-0.14,0c-2.04,-0.29 -3.63,-1.93 -3.82,-3.98l-11.02,-80.66s-0.07,-0.05 -0.09,0l-19.18,53.46c-0.69,1.91 -2.6,3.12 -4.62,2.91l-19.49,-1.98c-2.26,-0.23 -4.13,-2.06 -4.17,-4.33c-0.05,-2.71 2.26,-4.78 4.88,-4.51l16.19,1.64s0.04,0 0.05,-0.03l24.71,-68.89c0.7,-1.95 2.66,-3.16 4.72,-2.91c2.06,0.26 3.67,1.91 3.87,3.97l11.11,81.59s0.07,0.05 0.08,0.01l25.71,-59.71c0.74,-1.93 2.71,-3.1 4.76,-2.81c2.04,0.28 3.62,1.94 3.8,4l4.72,53.21s0.02,0.04 0.04,0.04l15.31,1.55c2.44,0.25 4.21,2.42 3.96,4.86l0,0.03z" class="cls-5"/>
  <path id="svg_90" stroke-width="4.87px" stroke="#191919" stroke-linejoin="round" stroke-linecap="round" fill="none" d="m252.95,399.2s1.13,-16.33 8.45,-36.65c8.53,-23.67 25.54,-34.9 30.48,-54.84c3.31,-13.35 1.59,-85.72 7.14,-102.39c3.64,-10.92 15.69,-20.13 23.56,-25.18c3.29,-2.11 7.64,-0.11 8.15,3.77c2.91,22.23 11.23,84.48 15.13,99.2c4.76,18 2.38,121.44 2.38,121.44l30.96,73.82s-23.81,35.72 -54.17,48.81c-23.56,10.16 -67.11,5.95 -67.11,5.95l-23.97,-78.58s-54.43,-26.98 -73.75,-51.59c-11.95,-15.22 -46.48,-83.4 -49.25,-103.63c-1.62,-11.82 -0.87,-33.49 2.49,-38.85c4.2,-6.7 42.12,-15.12 46.88,-15.12s5.09,11.85 0.33,24.79c-4.76,12.94 -30.28,20.69 -30.28,20.69" class="cls-11"/>
  <path id="svg_91" fill="#71bacf" stroke-width="0px" d="m138.56,253.3s-1.49,9.96 0.89,11.75c2.38,1.79 18.69,-2.82 20.06,-4.6c1.37,-1.79 3.28,-9.59 1.07,-12.24c-2.2,-2.65 -22.03,5.1 -22.03,5.1l0.01,-0.01z" class="cls-2"/>
 </g>
</svg>