<svg id="Lager_1" data-name="Lager 1" xmlns="http://www.w3.org/2000/svg" viewBox="0 0 347.74 403.85"><defs><style>.cls-1{fill:#72bbd0;}.cls-2,.cls-4{fill:#fff;}.cls-2,.cls-3,.cls-5{stroke:#191919;}.cls-2,.cls-3,.cls-5,.cls-6{stroke-linecap:round;stroke-linejoin:round;}.cls-2,.cls-5,.cls-6{stroke-width:2.16px;}.cls-3,.cls-5,.cls-6{fill:none;}.cls-3{stroke-width:1.37px;}.cls-6{stroke:#fff;}</style></defs><path class="cls-1" d="M85.09,253.66S67.54,247,62.93,244.55c-3.46-1.86-11.86-5.91-19.25-20.33,0,0,4.92,13.78,4.7,22.78A78.43,78.43,0,0,1,46,263.54s28,19.6,43.15,22.31S85.09,253.66,85.09,253.66Z"/><path class="cls-1" d="M44.34,223.08a64.39,64.39,0,0,0,6.34,10.11,68.51,68.51,0,0,0,9.06,8.3s14.56-20.65,36.13-21.43,98.6,30,122.09,30c39,0,52.81-9.87,52.81-9.87s20.68-13.66,18.2-20.16c-5.2-13.61-24.71.44-56.2,0S138.14,190.45,93,192.49C42.47,194.77,44.34,223.08,44.34,223.08Z"/><path class="cls-1" d="M245.13,283.62s10.44-2.21,24.91-9.87,16.85-13.06,16.85-13.06a27.62,27.62,0,0,1-2.09-14.32c1.05-7.9,4.17-20.45,4.17-20.45s-3.14,7.27-18.68,16.17C262,246.85,244,253.4,244,253.4Z"/><path class="cls-2" d="M76.17,259.71l13.9,28s34.19,11.34,77.75,11.34c45.76,0,75-11.34,75-11.34l12.68-28-27.35-13.49H96.08Z"/><path class="cls-2" d="M170.64,266.8s-23.57-4-33.36-6.52"/><path class="cls-2" d="M99.8,263.54,82.26,242.35a4.53,4.53,0,0,1,.6-6.35L106,216.85a4.5,4.5,0,0,1,6.34.6l39.87,48.3"/><rect class="cls-3" x="89.03" y="226.57" width="12.66" height="1.3" transform="translate(-122.95 112.93) rotate(-39.6)"/><path class="cls-1" d="M103.94,263.47,89.33,245.82a.8.8,0,0,1,.07-1.13l23.42-19.38a.81.81,0,0,1,1.13.15l35.1,42.14-17.62-1.34"/><path class="cls-2" d="M120.89,288.78s1.47,4.17,5.33,4.91a11.69,11.69,0,0,0,7-.92"/><path class="cls-4" d="M132.12,248.92h0a1,1,0,0,1-.14,1.47l-3.47,2.87a1,1,0,0,1-1.33,0l-6.86-5.66s0,0,0,0L126,261.72a1.06,1.06,0,0,1-.29,1.24l0,0a1.05,1.05,0,0,1-1.3,0l-15.37-11.51s0,0,0,0l5.8,12.07a1.06,1.06,0,0,1-.28,1.26L111,267.75a1.08,1.08,0,0,1-1.42,0,1.06,1.06,0,0,1,0-1.57l3-2.44s0,0,0,0l-7.47-15.55a1,1,0,0,1,1.6-1.27l15.54,11.65s0,0,0,0l-5.76-14.21a1,1,0,0,1,.31-1.26,1,1,0,0,1,1.3,0l9.72,8h0l2.8-2.31A1,1,0,0,1,132.12,248.92Z"/><path class="cls-5" d="M96.26,260.69,93,263.18s40.23,4.07,76.1,3.58c30.19-.41,66.16-4.69,66.16-4.69"/><path class="cls-6" d="M42.13,215.82s.47,11.91,9.54,20.2,24.5,11.75,24.5,11.75"/><path class="cls-6" d="M248.94,250.09a82,82,0,0,0,24.25-10.56c12.43-8,17.45-17.19,17.45-17.19"/></svg>